<svg width="4164" height="315" xmlns="http://www.w3.org/2000/svg" xmlns:xlink="http://www.w3.org/1999/xlink" xml:space="preserve" overflow="hidden"><g transform="translate(-157 -1080)"><path d="M157 1080 786 1080 786 1395 157 1395Z" fill="#004761" fill-rule="evenodd"/><text fill="#FFFFFF" font-family="Amazon Ember,Amazon Ember_MSFontService,sans-serif" font-weight="700" font-size="73" transform="matrix(1 0 0 1 366.871 1225)">Policy</text><text fill="#FFFFFF" font-family="Amazon Ember,Amazon Ember_MSFontService,sans-serif" font-weight="400" font-size="73" transform="matrix(1 0 0 1 306.428 1288)">Definition</text><path d="M1021 1237.5 1100 1159 1179 1237.5 1100 1316Z" stroke="#151D26" stroke-width="6.28566" stroke-miterlimit="8" fill="#B8E7FF" fill-rule="evenodd"/><text fill="#151D26" font-family="Segoe UI Symbol,Segoe UI Symbol_MSFontService,sans-serif" font-weight="400" font-size="73" transform="matrix(1 0 0 1 1072.5 1270)">✓</text><path d="M786 1237 1021 1237" stroke="#151D26" stroke-width="6.28566" stroke-miterlimit="8" fill="none" fill-rule="evenodd"/><path d="M1006 1222 1021 1237.5 1006 1253Z" fill="#151D26" fill-rule="evenodd"/><path d="M1336 1080 1964 1080 1964 1395 1336 1395Z" fill="#007E94" fill-rule="evenodd"/><text fill="#FFFFFF" font-family="Amazon Ember,Amazon Ember_MSFontService,sans-serif" font-weight="700" font-size="73" transform="matrix(1 0 0 1 1495.03 1225)">Category</text><text fill="#FFFFFF" font-family="Amazon Ember,Amazon Ember_MSFontService,sans-serif" font-weight="400" font-size="73" transform="matrix(1 0 0 1 1420.26 1288)">Configuration</text><path d="M2200 1237.5 2278.5 1159 2357 1237.5 2278.5 1316Z" stroke="#151D26" stroke-width="6.28566" stroke-miterlimit="8" fill="#B8E7FF" fill-rule="evenodd"/><text fill="#151D26" font-family="Segoe UI Symbol,Segoe UI Symbol_MSFontService,sans-serif" font-weight="400" font-size="73" transform="matrix(1 0 0 1 2251.07 1270)">✓</text><path d="M1179 1237 1336 1237" stroke="#151D26" stroke-width="6.28566" stroke-miterlimit="8" fill="none" fill-rule="evenodd"/><path d="M1964 1237 2200 1237" stroke="#151D26" stroke-width="6.28566" stroke-miterlimit="8" fill="none" fill-rule="evenodd"/><path d="M2184 1222 2200 1237.5 2184 1253Z" fill="#151D26" fill-rule="evenodd"/><path d="M2514 1080 3143 1080 3143 1395 2514 1395Z" fill="#E5EAF0" fill-rule="evenodd"/><text fill="#151D26" font-family="Amazon Ember,Amazon Ember_MSFontService,sans-serif" font-weight="700" font-size="73" transform="matrix(1 0 0 1 2697.95 1225)">Custom</text><text fill="#151D26" font-family="Amazon Ember,Amazon Ember_MSFontService,sans-serif" font-weight="400" font-size="73" transform="matrix(1 0 0 1 2726.59 1288)">Filters</text><path d="M3379 1237.5 3457.5 1159 3536 1237.5 3457.5 1316Z" stroke="#151D26" stroke-width="6.28566" stroke-miterlimit="8" fill="#B8E7FF" fill-rule="evenodd"/><text fill="#151D26" font-family="Segoe UI Symbol,Segoe UI Symbol_MSFontService,sans-serif" font-weight="400" font-size="73" transform="matrix(1 0 0 1 3429.64 1270)">✓</text><path d="M2357 1237 2514 1237" stroke="#151D26" stroke-width="6.28566" stroke-miterlimit="8" fill="none" fill-rule="evenodd"/><path d="M3143 1237 3379 1237" stroke="#151D26" stroke-width="6.28566" stroke-miterlimit="8" fill="none" fill-rule="evenodd"/><path d="M3363 1222 3379 1237.5 3363 1253Z" fill="#151D26" fill-rule="evenodd"/><path d="M3693 1080 4321 1080 4321 1395 3693 1395Z" fill="#CCFFE9" fill-rule="evenodd"/><text fill="#151D26" font-family="Amazon Ember,Amazon Ember_MSFontService,sans-serif" font-weight="700" font-size="73" transform="matrix(1 0 0 1 3828.11 1225)">Validation</text><text fill="#151D26" font-family="Amazon Ember,Amazon Ember_MSFontService,sans-serif" font-weight="400" font-size="73" transform="matrix(1 0 0 1 3884.82 1288)">Testing</text><path d="M3536 1237 3693 1237" stroke="#151D26" stroke-width="6.28566" stroke-miterlimit="8" fill="none" fill-rule="evenodd"/><path d="M3677 1222 3693 1237.5 3677 1253Z" fill="#151D26" fill-rule="evenodd"/></g></svg>