<svg width="2146" height="1486" xmlns="http://www.w3.org/2000/svg" xmlns:xlink="http://www.w3.org/1999/xlink" xml:space="preserve" overflow="hidden"><defs><clipPath id="clip0"><rect x="997" y="565" width="2146" height="1486"/></clipPath><linearGradient x1="2799" y1="860.5" x2="2456" y2="860.5" gradientUnits="userSpaceOnUse" spreadMethod="reflect" id="fill1"><stop offset="0" stop-color="#99A6B2"/><stop offset="0.5" stop-color="#C2C9CF"/><stop offset="1" stop-color="#E1E5E7"/></linearGradient></defs><g clip-path="url(#clip0)" transform="translate(-997 -565)"><path d="M997 570 2028 570 2028 1257 997 1257Z" fill="#B8E7FF" fill-rule="evenodd"/><path d="M1392 779.5C1392 807.943 1368.94 831 1340.5 831 1312.06 831 1289 807.943 1289 779.5 1289 751.057 1312.06 728 1340.5 728 1368.94 728 1392 751.057 1392 779.5Z" fill="#004761" fill-rule="evenodd"/><path d="M1598 779.5C1598 807.943 1574.94 831 1546.5 831 1518.06 831 1495 807.943 1495 779.5 1495 751.057 1518.06 728 1546.5 728 1574.94 728 1598 751.057 1598 779.5Z" fill="#004761" fill-rule="evenodd"/><path d="M1495 985.5C1495 1013.94 1471.94 1037 1443.5 1037 1415.06 1037 1392 1013.94 1392 985.5 1392 957.057 1415.06 934 1443.5 934 1471.94 934 1495 957.057 1495 985.5Z" fill="#004761" fill-rule="evenodd"/><path d="M1736 916.5C1736 944.943 1712.94 968 1684.5 968 1656.06 968 1633 944.943 1633 916.5 1633 888.057 1656.06 865 1684.5 865 1712.94 865 1736 888.057 1736 916.5Z" fill="#004761" fill-rule="evenodd"/><path d="M1392.5 779.5 1495.5 779.5" stroke="#151D26" stroke-width="6.875" stroke-miterlimit="8" fill="none" fill-rule="evenodd"/><path d="M1392.5 831.5 1392.5 934.5" stroke="#151D26" stroke-width="6.875" stroke-miterlimit="8" fill="none" fill-rule="evenodd"/><path d="M1495.5 831.5 1495.5 934.5" stroke="#151D26" stroke-width="6.875" stroke-miterlimit="8" fill="none" fill-rule="evenodd"/><path d="M1547.5 831.5 1633.5 900.5" stroke="#151D26" stroke-width="6.875" stroke-miterlimit="8" fill="none" fill-rule="evenodd"/><text fill="#151D26" font-family="Amazon Ember,Amazon Ember_MSFontService,sans-serif" font-weight="700" font-size="83" transform="matrix(1 0 0 1 1100.57 1220)">Prompt Management</text><path d="M2112 565 3143 565 3143 1252 2112 1252Z" fill="#AEFFA8" fill-rule="evenodd"/><path d="M2627.5 654 2799 722.833 2799 929.333 2627.5 1067 2456 929.333 2456 722.833Z" stroke="#000000" stroke-width="10.3125" stroke-miterlimit="8" fill="url(#fill1)" fill-rule="evenodd"/><path d="M2559 826.4 2610.37 878 2696 792" stroke="#000000" stroke-width="10.3125" stroke-miterlimit="8" fill="none" fill-rule="evenodd"/><text fill="#151D26" font-family="Amazon Ember,Amazon Ember_MSFontService,sans-serif" font-weight="700" font-size="83" transform="matrix(1 0 0 1 2426.24 1215)">Guardrails</text><path d="M997 1331 2028 1331 2028 2018 997 2018Z" fill="#CCFFE9" fill-rule="evenodd"/><path d="M1238.5 1410.5 1788.5 1410.5 1788.5 1823.5 1238.5 1823.5Z" stroke="#004761" stroke-width="6.875" stroke-miterlimit="8" fill="none" fill-rule="evenodd"/><path d="M1306.5 1479.5 1581.5 1479.5" stroke="#004761" stroke-width="6.875" stroke-miterlimit="8" fill="none" fill-rule="evenodd"/><path d="M1306.5 1548.5 1650.5 1548.5" stroke="#004761" stroke-width="6.875" stroke-miterlimit="8" fill="none" fill-rule="evenodd"/><path d="M1306.5 1617.5 1513.5 1617.5" stroke="#004761" stroke-width="6.875" stroke-miterlimit="8" fill="none" fill-rule="evenodd"/><path d="M1306.5 1685.5 1616.5 1685.5" stroke="#004761" stroke-width="6.875" stroke-miterlimit="8" fill="none" fill-rule="evenodd"/><text fill="#151D26" font-family="Amazon Ember,Amazon Ember_MSFontService,sans-serif" font-weight="700" font-size="83" transform="matrix(1 0 0 1 1115.18 1979)">Response Templates</text><path d="M2112 1331 3143 1331 3143 2018 2112 2018Z" fill="#007E94" fill-rule="evenodd"/><path d="M2765 1599.5C2765 1675.44 2703.44 1737 2627.5 1737 2551.56 1737 2490 1675.44 2490 1599.5 2490 1523.56 2551.56 1462 2627.5 1462 2703.44 1462 2765 1523.56 2765 1599.5Z" stroke="#FFFFFF" stroke-width="13.75" stroke-miterlimit="8" fill="none" fill-rule="evenodd"/><path d="M2593 1462 2662 1462 2662 1514 2593 1514Z" fill="#FFFFFF" fill-rule="evenodd"/><path d="M2593 1720 2662 1720 2662 1771 2593 1771Z" fill="#FFFFFF" fill-rule="evenodd"/><path d="M2507 1565 2559 1565 2559 1634 2507 1634Z" fill="#FFFFFF" fill-rule="evenodd"/><path d="M2696 1565 2748 1565 2748 1634 2696 1634Z" fill="#FFFFFF" fill-rule="evenodd"/><path d="M2542 1496 2583 1496 2583 1538 2542 1538Z" fill="#FFFFFF" fill-rule="evenodd"/><path d="M2672 1496 2714 1496 2714 1538 2672 1538Z" fill="#FFFFFF" fill-rule="evenodd"/><path d="M2542 1661 2583 1661 2583 1703 2542 1703Z" fill="#FFFFFF" fill-rule="evenodd"/><path d="M2672 1661 2714 1661 2714 1703 2672 1703Z" fill="#FFFFFF" fill-rule="evenodd"/><path d="M2576 1582.5 2610.33 1617 2679 1548" stroke="#AEFFA8" stroke-width="10.3125" stroke-miterlimit="8" fill="none" fill-rule="evenodd"/><text fill="#FFFFFF" font-family="Amazon Ember,Amazon Ember_MSFontService,sans-serif" font-weight="700" font-size="83" transform="matrix(1 0 0 1 2397.89 1974)">Governance</text></g></svg>