<svg width="2214" height="1493" xmlns="http://www.w3.org/2000/svg" xmlns:xlink="http://www.w3.org/1999/xlink" xml:space="preserve" overflow="hidden"><g transform="translate(-1104 -553)"><path d="M1743 1037 2657 1037 2657 1553 1743 1553Z" fill="#007E94" fill-rule="evenodd"/><text fill="#FFFFFF" font-family="Amazon Ember,Amazon Ember_MSFontService,sans-serif" font-weight="700" font-size="73" transform="matrix(1 0 0 1 1884.9 1319)">Foundation Model</text><path d="M1992 553 2408 553 2408 828 1992 828Z" fill="#B8E7FF" fill-rule="evenodd"/><text fill="#151D26" font-family="Amazon Ember,Amazon Ember_MSFontService,sans-serif" font-weight="400" font-size="55" transform="matrix(1 0 0 1 2083.41 708)">Control 1</text><path d="M2851 1194.5C2851 1166.61 2873.61 1144 2901.5 1144L3267.5 1144C3295.39 1144 3318 1166.61 3318 1194.5L3318 1396.5C3318 1424.39 3295.39 1447 3267.5 1447L2901.5 1447C2873.61 1447 2851 1424.39 2851 1396.5Z" fill="#B8E7FF" fill-rule="evenodd"/><text fill="#151D26" font-family="Amazon Ember,Amazon Ember_MSFontService,sans-serif" font-weight="400" font-size="55" transform="matrix(1 0 0 1 2968.17 1313)">Control 2</text><path d="M1953 1898C1953 1816.26 2063.59 1750 2200 1750 2336.41 1750 2447 1816.26 2447 1898 2447 1979.74 2336.41 2046 2200 2046 2063.59 2046 1953 1979.74 1953 1898Z" fill="#B8E7FF" fill-rule="evenodd"/><text fill="#151D26" font-family="Amazon Ember,Amazon Ember_MSFontService,sans-serif" font-weight="400" font-size="55" transform="matrix(1 0 0 1 2083.41 1914)">Control 3</text><path d="M1104 1295 1192.5 1118 1464.5 1118 1553 1295 1464.5 1472 1192.5 1472Z" fill="#B8E7FF" fill-rule="evenodd"/><text fill="#151D26" font-family="Amazon Ember,Amazon Ember_MSFontService,sans-serif" font-weight="400" font-size="55" transform="matrix(1 0 0 1 1211.91 1313)">Control 4</text><path d="M2224.5 831.5 2224.5 1034.5" stroke="#151D26" stroke-width="6.875" stroke-miterlimit="8" fill="none" fill-rule="evenodd"/><path d="M2173.5 1034.5 2173.5 831.5" stroke="#151D26" stroke-width="6.875" stroke-miterlimit="8" fill="none" fill-rule="evenodd"/><path d="M2855.5 1268.5 2655.5 1268.5" stroke="#151D26" stroke-width="6.875" stroke-miterlimit="8" fill="none" fill-rule="evenodd"/><path d="M2655.5 1319.5 2855.5 1319.5" stroke="#151D26" stroke-width="6.875" stroke-miterlimit="8" fill="none" fill-rule="evenodd"/><path d="M2173.5 1759.5 2173.5 1557.5" stroke="#151D26" stroke-width="6.875" stroke-miterlimit="8" fill="none" fill-rule="evenodd"/><path d="M2224.5 1557.5 2224.5 1759.5" stroke="#151D26" stroke-width="6.875" stroke-miterlimit="8" fill="none" fill-rule="evenodd"/><path d="M1545.5 1268.5 1745.5 1268.5" stroke="#151D26" stroke-width="6.875" stroke-miterlimit="8" fill="none" fill-rule="evenodd"/><path d="M1745.5 1319.5 1545.5 1319.5" stroke="#151D26" stroke-width="6.875" stroke-miterlimit="8" fill="none" fill-rule="evenodd"/></g></svg>