<svg width="4268" height="1762" xmlns="http://www.w3.org/2000/svg" xmlns:xlink="http://www.w3.org/1999/xlink" xml:space="preserve" overflow="hidden"><g transform="translate(-132 -491)"><path d="M1953.18 1253.58 2409.14 1167.21 2495.51 1623.16 2039.56 1709.53Z" fill="#004761" fill-rule="evenodd"/><text fill="#FFFFFF" font-family="Amazon Ember,Amazon Ember_MSFontService,sans-serif" font-weight="700" font-size="73" transform="matrix(1 0 0 1 2030.13 1412)">Integration</text><text fill="#FFFFFF" font-family="Amazon Ember,Amazon Ember_MSFontService,sans-serif" font-weight="700" font-size="73" transform="matrix(1 0 0 1 2152.73 1489)">Hub</text><path d="M1621 532 2827 532 2827 779 1621 779Z" fill="#007E94" fill-rule="evenodd"/><text fill="#FFFFFF" font-family="Amazon Ember,Amazon Ember_MSFontService,sans-serif" font-weight="700" font-size="73" transform="matrix(1 0 0 1 1892.92 644)">Foundation Models</text><text fill="#FFFFFF" font-family="Amazon Ember,Amazon Ember_MSFontService,sans-serif" font-weight="400" font-size="73" transform="matrix(1 0 0 1 1919.84 722)">GPT, BERT, LLaMA</text><path d="M2744 1206 3708 1206 3708 1670 2744 1670Z" fill="#B8E7FF" fill-rule="evenodd"/><text fill="#151D26" font-family="Amazon Ember,Amazon Ember_MSFontService,sans-serif" font-weight="700" font-size="73" transform="matrix(1 0 0 1 3004.57 1394)">Performance</text><text fill="#151D26" font-family="Amazon Ember,Amazon Ember_MSFontService,sans-serif" font-weight="700" font-size="73" transform="matrix(1 0 0 1 3100.54 1471)">Metrics</text><text fill="#151D26" font-family="Amazon Ember,Amazon Ember_MSFontService,sans-serif" font-weight="400" font-size="73" transform="matrix(1 0 0 1 2956.73 1567)">Speed, Accuracy</text><path d="M1621 1952 2827 1952 2827 2200 1621 2200Z" fill="#AEFFA8" fill-rule="evenodd"/><text fill="#151D26" font-family="Amazon Ember,Amazon Ember_MSFontService,sans-serif" font-weight="700" font-size="73" transform="matrix(1 0 0 1 1880.31 2065)">Monitoring Systems</text><text fill="#151D26" font-family="Amazon Ember,Amazon Ember_MSFontService,sans-serif" font-weight="400" font-size="73" transform="matrix(1 0 0 1 1904.09 2142)">Real</text><text fill="#151D26" font-family="Amazon Ember,Amazon Ember_MSFontService,sans-serif" font-weight="400" font-size="73" transform="matrix(1 0 0 1 2046.74 2142)">-</text><text fill="#151D26" font-family="Amazon Ember,Amazon Ember_MSFontService,sans-serif" font-weight="400" font-size="73" transform="matrix(1 0 0 1 2075.39 2142)">time Analytics</text><path d="M2203.77 1172.16 2203.77 807.844 2215.23 807.844 2215.23 1172.16ZM2234.5 1140.67 2209.5 1183.53 2184.5 1140.67C2182.91 1137.94 2183.83 1134.43 2186.56 1132.83 2189.29 1131.24 2192.8 1132.16 2194.4 1134.89L2214.45 1169.27 2204.55 1169.27 2224.6 1134.89C2226.2 1132.16 2229.71 1131.24 2232.44 1132.83 2235.17 1134.43 2236.1 1137.94 2234.5 1140.67ZM2184.5 839.332 2209.5 796.473 2234.5 839.332C2236.1 842.065 2235.17 845.573 2232.44 847.167 2229.71 848.762 2226.2 847.839 2224.6 845.105L2204.55 810.73 2214.45 810.73 2194.4 845.105C2192.8 847.839 2189.29 848.762 2186.56 847.167 2183.83 845.573 2182.91 842.065 2184.5 839.332Z" fill="#151D26"/><path d="M1975.16 1444.23 1708.84 1444.23 1708.84 1432.77 1975.16 1432.77ZM1943.67 1413.5 1986.53 1438.5 1943.67 1463.5C1940.94 1465.1 1937.43 1464.17 1935.83 1461.44 1934.24 1458.71 1935.16 1455.2 1937.89 1453.6L1972.27 1433.55 1972.27 1443.45 1937.89 1423.4C1935.16 1421.8 1934.24 1418.29 1935.83 1415.56 1937.43 1412.83 1940.94 1411.91 1943.67 1413.5ZM1740.33 1463.5 1697.47 1438.5 1740.33 1413.5C1743.06 1411.91 1746.57 1412.83 1748.17 1415.56 1749.76 1418.29 1748.84 1421.8 1746.11 1423.4L1711.73 1443.45 1711.73 1433.55 1746.11 1453.6C1748.84 1455.2 1749.76 1458.71 1748.17 1461.44 1746.57 1464.17 1743.06 1465.1 1740.33 1463.5Z" fill="#151D26"/><path d="M824 1206 1701 1206 1701 1670 824 1670Z" fill="#CCFFE9" fill-rule="evenodd"/><text fill="#151D26" font-family="Amazon Ember,Amazon Ember_MSFontService,sans-serif" font-weight="700" font-size="73" transform="matrix(1 0 0 1 1099.15 1394)">Feedback</text><text fill="#151D26" font-family="Amazon Ember,Amazon Ember_MSFontService,sans-serif" font-weight="700" font-size="73" transform="matrix(1 0 0 1 1120.64 1471)">Systems</text><text fill="#151D26" font-family="Amazon Ember,Amazon Ember_MSFontService,sans-serif" font-weight="400" font-size="73" transform="matrix(1 0 0 1 911.236 1567)">User Input, A/B Tests</text><path d="M-5.72917 252.657-5.72917 11.3437 5.72917 11.3437 5.72917 252.657ZM25.0008 221.168 0 264.027-25.0008 221.168C-26.5951 218.435-25.672 214.927-22.9388 213.333-20.2057 211.738-16.6977 212.662-15.1033 215.395L4.94873 249.77-4.94873 249.77 15.1033 215.395C16.6977 212.662 20.2057 211.738 22.9388 213.333 25.672 214.927 26.5951 218.435 25.0008 221.168ZM-25.0008 42.832 0-0.0265538 25.0008 42.832C26.5951 45.5651 25.672 49.0732 22.9388 50.6675 20.2057 52.2618 16.6977 51.3386 15.1033 48.6055L-4.94873 14.2305 4.94873 14.2305-15.1033 48.6055C-16.6977 51.3386-20.2057 52.2618-22.9388 50.6675-25.672 49.0732-26.5951 45.5651-25.0008 42.832Z" fill="#151D26" transform="matrix(-1 0 0 1 2221.5 1677.5)"/><path d="M2735.16 1435.23 2467.84 1435.23 2467.84 1423.77 2735.16 1423.77ZM2703.67 1404.5 2746.53 1429.5 2703.67 1454.5C2700.94 1456.1 2697.43 1455.17 2695.83 1452.44 2694.24 1449.71 2695.16 1446.2 2697.9 1444.6L2732.27 1424.55 2732.27 1434.45 2697.9 1414.4C2695.16 1412.8 2694.24 1409.29 2695.83 1406.56 2697.43 1403.83 2700.94 1402.91 2703.67 1404.5ZM2499.33 1454.5 2456.47 1429.5 2499.33 1404.5C2502.07 1402.91 2505.57 1403.83 2507.17 1406.56 2508.76 1409.29 2507.84 1412.8 2505.11 1414.4L2470.73 1434.45 2470.73 1424.55 2505.11 1444.6C2507.84 1446.2 2508.76 1449.71 2507.17 1452.44 2505.57 1455.17 2502.07 1456.1 2499.33 1454.5Z" fill="#151D26"/></g></svg>