<svg width="2085" height="1650" xmlns="http://www.w3.org/2000/svg" xmlns:xlink="http://www.w3.org/1999/xlink" xml:space="preserve" overflow="hidden"><defs><clipPath id="clip0"><rect x="1146" y="481" width="2085" height="1650"/></clipPath></defs><g clip-path="url(#clip0)" transform="translate(-1146 -481)"><path d="M1169 481 3231 481 3231 894 1169 894Z" fill="#004761" fill-rule="evenodd"/><text fill="#FFFFFF" font-family="Amazon Ember,Amazon Ember_MSFontService,sans-serif" font-weight="700" font-size="92" transform="matrix(1 0 0 1 1201.75 609)">Header Context</text><text fill="#FFFFFF" font-family="Amazon Ember,Amazon Ember_MSFontService,sans-serif" font-weight="400" font-size="64" transform="matrix(1 0 0 1 1201.75 701)">System context and configuration</text><text fill="#FFFFFF" font-family="Amazon Ember,Amazon Ember_MSFontService,sans-serif" font-weight="400" font-size="64" transform="matrix(1 0 0 1 1201.75 787)">Global parameters and settings</text><path d="M1169 963 3231 963 3231 1650 1169 1650Z" fill="#007E94" fill-rule="evenodd"/><text fill="#FFFFFF" font-family="Amazon Ember,Amazon Ember_MSFontService,sans-serif" font-weight="700" font-size="92" transform="matrix(1 0 0 1 1221.5 1090)">Instruction Body</text><text fill="#FFFFFF" font-family="Amazon Ember,Amazon Ember_MSFontService,sans-serif" font-weight="400" font-size="64" transform="matrix(1 0 0 1 1221.5 1193)">Core instruction text with placeholders:</text><path d="M1521 1255 1934 1255 1934 1359 1521 1359Z" fill="#B8E7FF" fill-rule="evenodd"/><text fill="#151D26" font-family="Amazon Ember,Amazon Ember_MSFontService,sans-serif" font-weight="400" font-size="64" transform="matrix(1 0 0 1 1552.69 1331)">{variable_1}</text><path d="M2003 1255 2415 1255 2415 1359 2003 1359Z" fill="#B8E7FF" fill-rule="evenodd"/><text fill="#151D26" font-family="Amazon Ember,Amazon Ember_MSFontService,sans-serif" font-weight="400" font-size="64" transform="matrix(1 0 0 1 2033.94 1331)">{variable_2}</text><path d="M2484 1255 2896 1255 2896 1359 2484 1359Z" fill="#B8E7FF" fill-rule="evenodd"/><text fill="#151D26" font-family="Amazon Ember,Amazon Ember_MSFontService,sans-serif" font-weight="400" font-size="64" transform="matrix(1 0 0 1 2515.19 1331)">{variable_3}</text><text fill="#FFFFFF" font-family="Amazon Ember,Amazon Ember_MSFontService,sans-serif" font-weight="400" font-size="64" transform="matrix(1 0 0 1 1221.5 1468)">Dynamic content insertion points</text><text fill="#FFFFFF" font-family="Amazon Ember,Amazon Ember_MSFontService,sans-serif" font-weight="400" font-size="64" transform="matrix(1 0 0 1 1221.5 1554)">Conditional logic and flow control</text><path d="M1169 1719 3231 1719 3231 2131 1169 2131Z" fill="#E5EAF0" fill-rule="evenodd"/><text fill="#151D26" font-family="Amazon Ember,Amazon Ember_MSFontService,sans-serif" font-weight="700" font-size="92" transform="matrix(1 0 0 1 1230.95 1868)">Output Formatting Guidelines</text><text fill="#151D26" font-family="Amazon Ember,Amazon Ember_MSFontService,sans-serif" font-weight="400" font-size="64" transform="matrix(1 0 0 1 1230.95 1960)">Response structure and format requirements</text><text fill="#151D26" font-family="Amazon Ember,Amazon Ember_MSFontService,sans-serif" font-weight="400" font-size="64" transform="matrix(1 0 0 1 1230.95 2046)">Validation rules and constraints</text><path d="M2200.5 894.5 2200.5 963.5" stroke="#151D26" stroke-width="6.875" stroke-miterlimit="8" fill="none" fill-rule="evenodd"/><path d="M2200.5 1650.5 2200.5 1719.5" stroke="#151D26" stroke-width="6.875" stroke-miterlimit="8" fill="none" fill-rule="evenodd"/></g></svg>