<svg width="3472" height="538" xmlns="http://www.w3.org/2000/svg" xmlns:xlink="http://www.w3.org/1999/xlink" xml:space="preserve" overflow="hidden"><defs><clipPath id="clip0"><rect x="309" y="963" width="3472" height="538"/></clipPath></defs><g clip-path="url(#clip0)" transform="translate(-309 -963)"><path d="M309 963 997 963 997 1306 309 1306Z" fill="#004761" fill-rule="evenodd"/><text fill="#FFFFFF" font-family="Amazon Ember,Amazon Ember_MSFontService,sans-serif" font-weight="700" font-size="83" transform="matrix(1 0 0 1 383.568 1101)">Requirements</text><text fill="#FFFFFF" font-family="Amazon Ember,Amazon Ember_MSFontService,sans-serif" font-weight="400" font-size="83" transform="matrix(1 0 0 1 467.214 1205)">Definition</text><path d="M452 1375 854 1375 854 1478 452 1478Z" fill-rule="evenodd"/><text fill="#FFFFFF" font-family="Segoe UI Symbol,Segoe UI Symbol_MSFontService,sans-serif" font-weight="400" font-size="64" transform="matrix(1 0 0 1 533.672 1445)">✓</text><text fill="#FFFFFF" font-family="Amazon Ember,Amazon Ember_MSFontService,sans-serif" font-weight="400" font-size="64" transform="matrix(1 0 0 1 598.411 1445)">Check</text><path d="M997.5 1134.5 1169.5 1134.5" stroke="#151D26" stroke-width="6.875" stroke-miterlimit="8" fill="none" fill-rule="evenodd"/><path d="M1169 1117 1203 1134.5 1169 1152Z" fill="#151D26" fill-rule="evenodd"/><path d="M1238 963 1925 963 1925 1306 1238 1306Z" fill="#007E94" fill-rule="evenodd"/><text fill="#FFFFFF" font-family="Amazon Ember,Amazon Ember_MSFontService,sans-serif" font-weight="700" font-size="83" transform="matrix(1 0 0 1 1396.2 1101)">Template</text><text fill="#FFFFFF" font-family="Amazon Ember,Amazon Ember_MSFontService,sans-serif" font-weight="400" font-size="83" transform="matrix(1 0 0 1 1322.01 1205)">Configuration</text><path d="M1380 1375 1782 1375 1782 1478 1380 1478Z" fill="#AEFFA8" fill-rule="evenodd"/><text fill="#151D26" font-family="Segoe UI Symbol,Segoe UI Symbol_MSFontService,sans-serif" font-weight="400" font-size="64" transform="matrix(1 0 0 1 1461.8 1445)">✓</text><text fill="#151D26" font-family="Amazon Ember,Amazon Ember_MSFontService,sans-serif" font-weight="400" font-size="64" transform="matrix(1 0 0 1 1526.54 1445)">Check</text><path d="M1925.5 1134.5 2097.5 1134.5" stroke="#151D26" stroke-width="6.875" stroke-miterlimit="8" fill="none" fill-rule="evenodd"/><path d="M2097 1117 2131 1134.5 2097 1152Z" fill="#151D26" fill-rule="evenodd"/><path d="M2166 963 2853 963 2853 1306 2166 1306Z" fill="#B8E7FF" fill-rule="evenodd"/><text fill="#151D26" font-family="Amazon Ember,Amazon Ember_MSFontService,sans-serif" font-weight="700" font-size="83" transform="matrix(1 0 0 1 2307.99 1101)">Validation</text><text fill="#151D26" font-family="Amazon Ember,Amazon Ember_MSFontService,sans-serif" font-weight="400" font-size="83" transform="matrix(1 0 0 1 2207.73 1205)">Implementation</text><path d="M2308 1375 2710 1375 2710 1478 2308 1478Z" fill="#CCFFE9" fill-rule="evenodd"/><text fill="#151D26" font-family="Segoe UI Symbol,Segoe UI Symbol_MSFontService,sans-serif" font-weight="400" font-size="64" transform="matrix(1 0 0 1 2389.92 1445)">✓</text><text fill="#151D26" font-family="Amazon Ember,Amazon Ember_MSFontService,sans-serif" font-weight="400" font-size="64" transform="matrix(1 0 0 1 2454.66 1445)">Check</text><path d="M2853.5 1134.5 3025.5 1134.5" stroke="#151D26" stroke-width="6.875" stroke-miterlimit="8" fill="none" fill-rule="evenodd"/><path d="M3025 1117 3059 1134.5 3025 1152Z" fill="#151D26" fill-rule="evenodd"/><path d="M3094 963 3781 963 3781 1306 3094 1306Z" fill="#004761" fill-rule="evenodd"/><text fill="#FFFFFF" font-family="Amazon Ember,Amazon Ember_MSFontService,sans-serif" font-weight="700" font-size="83" transform="matrix(1 0 0 1 3218.36 1101)">Integration</text><text fill="#FFFFFF" font-family="Amazon Ember,Amazon Ember_MSFontService,sans-serif" font-weight="400" font-size="83" transform="matrix(1 0 0 1 3299.43 1205)">Testing</text><path d="M3237 1375 3638 1375 3638 1478 3237 1478Z" fill="#AEFFA8" fill-rule="evenodd"/><text fill="#151D26" font-family="Segoe UI Symbol,Segoe UI Symbol_MSFontService,sans-serif" font-weight="400" font-size="64" transform="matrix(1 0 0 1 3318.05 1445)">✓</text><text fill="#151D26" font-family="Amazon Ember,Amazon Ember_MSFontService,sans-serif" font-weight="400" font-size="64" transform="matrix(1 0 0 1 3382.79 1445)">Check</text><path d="M653.5 1306.5 653.5 1375.5" stroke="#151D26" stroke-width="6.875" stroke-miterlimit="8" fill="none" fill-rule="evenodd"/><path d="M1581.5 1306.5 1581.5 1375.5" stroke="#151D26" stroke-width="6.875" stroke-miterlimit="8" fill="none" fill-rule="evenodd"/><path d="M2509.5 1306.5 2509.5 1375.5" stroke="#151D26" stroke-width="6.875" stroke-miterlimit="8" fill="none" fill-rule="evenodd"/><path d="M3438.5 1306.5 3438.5 1375.5" stroke="#151D26" stroke-width="6.875" stroke-miterlimit="8" fill="none" fill-rule="evenodd"/></g></svg>