<svg width="3864" height="1618" xmlns="http://www.w3.org/2000/svg" xmlns:xlink="http://www.w3.org/1999/xlink" xml:space="preserve" overflow="hidden"><g transform="translate(-344 -520)"><path d="M1073 550 2104 550 2104 1238 1073 1238Z" fill="#004761" fill-rule="evenodd"/><path d="M1588.5 653 1657 653 1657 721.667 1622.75 756 1554.25 756 1520 721.667 1520 653Z" fill="#FFFFFF" fill-rule="evenodd"/><path d="M1537 773 1640 773 1640 911 1537 911Z" fill="#FFFFFF" fill-rule="evenodd"/><text fill="#FFFFFF" font-family="Amazon Ember,Amazon Ember_MSFontService,sans-serif" font-weight="700" font-size="73" transform="matrix(1 0 0 1 1185.66 1005)">Regulatory Compliance</text><text fill="#FFFFFF" font-family="Amazon Ember,Amazon Ember_MSFontService,sans-serif" font-weight="400" font-size="73" transform="matrix(1 0 0 1 1172.2 1097)">Official Document Shield</text><path d="M2448 550 3479 550 3479 1238 2448 1238Z" fill="#007E94" fill-rule="evenodd"/><path d="M2895 653 3032 653 3032 928 2895 928Z" fill="#FFFFFF" fill-rule="evenodd"/><path d="M2860 688 3067 688 3067 705 2860 705Z" fill="#FFFFFF" fill-rule="evenodd"/><path d="M2860 739 3067 739 3067 756 2860 756Z" fill="#FFFFFF" fill-rule="evenodd"/><path d="M2860 791 3067 791 3067 808 2860 808Z" fill="#FFFFFF" fill-rule="evenodd"/><text fill="#FFFFFF" font-family="Amazon Ember,Amazon Ember_MSFontService,sans-serif" font-weight="700" font-size="73" transform="matrix(1 0 0 1 2590.45 1005)">Organizational Policy</text><text fill="#FFFFFF" font-family="Amazon Ember,Amazon Ember_MSFontService,sans-serif" font-weight="400" font-size="73" transform="matrix(1 0 0 1 2675.25 1097)">Corporate Barrier</text><path d="M1073 1409 2104 1409 2104 2097 1073 2097Z" fill="#B8E7FF" fill-rule="evenodd"/><path d="M1692 1667C1692 1723.89 1645.66 1770 1588.5 1770 1531.34 1770 1485 1723.89 1485 1667 1485 1610.11 1531.34 1564 1588.5 1564 1645.66 1564 1692 1610.11 1692 1667Z" fill="#151D26" fill-rule="evenodd"/><path d="M1588.5 1598 1623 1667 1588.5 1736 1554 1667Z" fill="#B8E7FF" fill-rule="evenodd"/><text fill="#151D26" font-family="Amazon Ember,Amazon Ember_MSFontService,sans-serif" font-weight="700" font-size="73" transform="matrix(1 0 0 1 1295.09 1864)">Industry</text><text fill="#151D26" font-family="Amazon Ember,Amazon Ember_MSFontService,sans-serif" font-weight="700" font-size="73" transform="matrix(1 0 0 1 1582.69 1864)">-</text><text fill="#151D26" font-family="Amazon Ember,Amazon Ember_MSFontService,sans-serif" font-weight="700" font-size="73" transform="matrix(1 0 0 1 1611.91 1864)">Specific</text><text fill="#151D26" font-family="Amazon Ember,Amazon Ember_MSFontService,sans-serif" font-weight="400" font-size="73" transform="matrix(1 0 0 1 1346.94 1957)">Sector Symbol</text><path d="M2448 1409 3479 1409 3479 2097 2448 2097Z" fill="#AEFFA8" fill-rule="evenodd"/><path d="M2895 1598 3032 1598 3032 1736 2895 1736Z" fill="#151D26" fill-rule="evenodd"/><path d="M2922 1667.5C2922 1682.69 2909.69 1695 2894.5 1695 2879.31 1695 2867 1682.69 2867 1667.5 2867 1652.31 2879.31 1640 2894.5 1640 2909.69 1640 2922 1652.31 2922 1667.5Z" fill="#AEFFA8" fill-rule="evenodd"/><path d="M3060 1667.5C3060 1682.69 3047.69 1695 3032.5 1695 3017.31 1695 3005 1682.69 3005 1667.5 3005 1652.31 3017.31 1640 3032.5 1640 3047.69 1640 3060 1652.31 3060 1667.5Z" fill="#AEFFA8" fill-rule="evenodd"/><path d="M2991 1598.5C2991 1613.69 2978.69 1626 2963.5 1626 2948.31 1626 2936 1613.69 2936 1598.5 2936 1583.31 2948.31 1571 2963.5 1571 2978.69 1571 2991 1583.31 2991 1598.5Z" fill="#AEFFA8" fill-rule="evenodd"/><path d="M2991 1735.5C2991 1750.69 2978.69 1763 2963.5 1763 2948.31 1763 2936 1750.69 2936 1735.5 2936 1720.31 2948.31 1708 2963.5 1708 2978.69 1708 2991 1720.31 2991 1735.5Z" fill="#AEFFA8" fill-rule="evenodd"/><text fill="#151D26" font-family="Amazon Ember,Amazon Ember_MSFontService,sans-serif" font-weight="700" font-size="73" transform="matrix(1 0 0 1 2640.87 1864)">Custom Categories</text><text fill="#151D26" font-family="Amazon Ember,Amazon Ember_MSFontService,sans-serif" font-weight="400" font-size="73" transform="matrix(1 0 0 1 2564.96 1957)">Configurable Protection</text></g></svg>