<svg width="3181" height="1794" xmlns="http://www.w3.org/2000/svg" xmlns:xlink="http://www.w3.org/1999/xlink" xml:space="preserve" overflow="hidden"><defs><clipPath id="clip0"><rect x="498" y="526" width="3181" height="1794"/></clipPath></defs><g clip-path="url(#clip0)" transform="translate(-498 -526)"><path d="M498 526 2045 526 2045 1293 498 1293Z" fill="#D7DDDD" fill-rule="evenodd"/><text fill="#151D26" font-family="Amazon Ember,Amazon Ember_MSFontService,sans-serif" font-weight="700" font-size="92" transform="matrix(1 0 0 1 951.041 652)">Recency</text><text fill="#151D26" font-family="Amazon Ember,Amazon Ember_MSFontService,sans-serif" font-weight="700" font-size="92" transform="matrix(1 0 0 1 1301.67 652)">-</text><text fill="#151D26" font-family="Amazon Ember,Amazon Ember_MSFontService,sans-serif" font-weight="700" font-size="92" transform="matrix(1 0 0 1 1338.33 652)">Based</text><path d="M666 790 851 790 851 913 666 913Z" fill="#004761" fill-rule="evenodd"/><path d="M913 790 1099 790 1099 913 913 913Z" fill="#004761" fill-rule="evenodd"/><path d="M1161 790 1346 790 1346 913 1161 913Z" fill="#007E94" fill-rule="evenodd"/><path d="M1408 790 1594 790 1594 913 1408 913Z" fill="#007E94" fill-rule="evenodd"/><path d="M1656 790 1841 790 1841 913 1656 913Z" fill="#151D26" fill-rule="evenodd"/><path d="M666 1006 1841 1006" stroke="#151D26" stroke-width="6.1875" stroke-miterlimit="8" fill="none" fill-rule="evenodd"/><path d="M1841 1006.5 1810 991 1810 1022Z" fill="#151D26" fill-rule="evenodd"/><text fill="#151D26" font-family="Amazon Ember,Amazon Ember_MSFontService,sans-serif" font-weight="400" font-size="64" transform="matrix(1 0 0 1 985.485 1080)">Timeline Selection</text><text fill="#FFFFFF" font-family="Amazon Ember,Amazon Ember_MSFontService,sans-serif" font-weight="400" font-size="64" transform="matrix(1 0 0 1 705.615 879)">Old</text><text fill="#FFFFFF" font-family="Amazon Ember,Amazon Ember_MSFontService,sans-serif" font-weight="400" font-size="64" transform="matrix(1 0 0 1 1684.16 879)">New</text><path d="M2132 526 3679 526 3679 1293 2132 1293Z" fill="#D7DDDD" fill-rule="evenodd"/><text fill="#151D26" font-family="Amazon Ember,Amazon Ember_MSFontService,sans-serif" font-weight="700" font-size="92" transform="matrix(1 0 0 1 2541.72 652)">Relevance</text><text fill="#151D26" font-family="Amazon Ember,Amazon Ember_MSFontService,sans-serif" font-weight="700" font-size="92" transform="matrix(1 0 0 1 2977.71 652)">-</text><text fill="#151D26" font-family="Amazon Ember,Amazon Ember_MSFontService,sans-serif" font-weight="700" font-size="92" transform="matrix(1 0 0 1 3014.38 652)">Based</text><path d="M2495 884C2495 926.526 2460.3 961 2417.5 961 2374.7 961 2340 926.526 2340 884 2340 841.474 2374.7 807 2417.5 807 2460.3 807 2495 841.474 2495 884Z" fill="#004761" fill-rule="evenodd"/><path d="M2835 822.5C2835 882.423 2786.42 931 2726.5 931 2666.58 931 2618 882.423 2618 822.5 2618 762.577 2666.58 714 2726.5 714 2786.42 714 2835 762.577 2835 822.5Z" fill="#007E94" fill-rule="evenodd"/><path d="M3098 946C3098 980.242 3070.24 1008 3036 1008 3001.76 1008 2974 980.242 2974 946 2974 911.758 3001.76 884 3036 884 3070.24 884 3098 911.758 3098 946Z" fill="#004761" fill-rule="evenodd"/><path d="M3438 853C3438 904.363 3396.59 946 3345.5 946 3294.41 946 3253 904.363 3253 853 3253 801.638 3294.41 760 3345.5 760 3396.59 760 3438 801.638 3438 853Z" fill="#151D26" fill-rule="evenodd"/><path d="M2835 1023 2928 1023 2928 1116 2835 1116Z" fill="#151D26" fill-rule="evenodd"/><path d="M2417 884 2881 1070" stroke="#151D26" stroke-width="6.1875" stroke-miterlimit="8" stroke-dasharray="23.2031 23.2031" fill="none" fill-rule="evenodd"/><path d="M2727 822 2881 1023" stroke="#151D26" stroke-width="6.1875" stroke-miterlimit="8" stroke-dasharray="23.2031 23.2031" fill="none" fill-rule="evenodd"/><path d="M3036 946 2881 1070" stroke="#151D26" stroke-width="6.1875" stroke-miterlimit="8" stroke-dasharray="23.2031 23.2031" fill="none" fill-rule="evenodd"/><path d="M3345 853 2928 1023" stroke="#151D26" stroke-width="6.1875" stroke-miterlimit="8" stroke-dasharray="23.2031 23.2031" fill="none" fill-rule="evenodd"/><text fill="#151D26" font-family="Amazon Ember,Amazon Ember_MSFontService,sans-serif" font-weight="400" font-size="64" transform="matrix(1 0 0 1 2622.5 1221)">Similarity Matching</text><path d="M498 1392 2045 1392 2045 2320 498 2320Z" fill="#D7DDDD" fill-rule="evenodd"/><text fill="#151D26" font-family="Amazon Ember,Amazon Ember_MSFontService,sans-serif" font-weight="700" font-size="92" transform="matrix(1 0 0 1 986.276 1516)">Intent</text><text fill="#151D26" font-family="Amazon Ember,Amazon Ember_MSFontService,sans-serif" font-weight="700" font-size="92" transform="matrix(1 0 0 1 1249.82 1516)">-</text><text fill="#151D26" font-family="Amazon Ember,Amazon Ember_MSFontService,sans-serif" font-weight="700" font-size="92" transform="matrix(1 0 0 1 1286.48 1516)">Aware</text><path d="M746 1578 1055 1578 1055 1825 746 1825Z" fill="#004761" fill-rule="evenodd"/><path d="M1117 1578 1427 1578 1427 1825 1117 1825Z" fill="#007E94" fill-rule="evenodd"/><path d="M1488 1578 1798 1578 1798 1825 1488 1825Z" fill="#151D26" fill-rule="evenodd"/><path d="M932 1887 1241 1887 1241 2135 932 2135Z" fill="#004761" fill-rule="evenodd"/><path d="M1303 1887 1612 1887 1612 2135 1303 2135Z" fill="#007E94" fill-rule="evenodd"/><text fill="#FFFFFF" font-family="Amazon Ember,Amazon Ember_MSFontService,sans-serif" font-weight="400" font-size="64" transform="matrix(1 0 0 1 792.63 1729)">Topic A</text><text fill="#FFFFFF" font-family="Amazon Ember,Amazon Ember_MSFontService,sans-serif" font-weight="400" font-size="64" transform="matrix(1 0 0 1 1164.74 1729)">Topic B</text><text fill="#FFFFFF" font-family="Amazon Ember,Amazon Ember_MSFontService,sans-serif" font-weight="400" font-size="64" transform="matrix(1 0 0 1 1536.28 1729)">Topic C</text><text fill="#151D26" font-family="Amazon Ember,Amazon Ember_MSFontService,sans-serif" font-weight="400" font-size="64" transform="matrix(1 0 0 1 1036.69 2239)">Topic Clustering</text><path d="M2132 1392 3679 1392 3679 2320 2132 2320Z" fill="#D7DDDD" fill-rule="evenodd"/><text fill="#151D26" font-family="Amazon Ember,Amazon Ember_MSFontService,sans-serif" font-weight="700" font-size="92" transform="matrix(1 0 0 1 2494.17 1516)">Hybrid Approaches</text><path d="M2355 1671 2603 1671 2603 1856 2355 1856Z" fill="#004761" fill-rule="evenodd"/><path d="M2541 1949C2541 1983.24 2513.24 2011 2479 2011 2444.76 2011 2417 1983.24 2417 1949 2417 1914.76 2444.76 1887 2479 1887 2513.24 1887 2541 1914.76 2541 1949Z" fill="#007E94" fill-rule="evenodd"/><path d="M2789 1671 3036 1671 3036 1856 2789 1856Z" fill="#007E94" fill-rule="evenodd"/><path d="M2820 1949 3005 1949 3005 2073 2820 2073Z" fill="#151D26" fill-rule="evenodd"/><path d="M3222 1671 3469 1671 3469 1856 3222 1856Z" fill="#151D26" fill-rule="evenodd"/><path d="M3407 1949C3407 1983.24 3379.47 2011 3345.5 2011 3311.53 2011 3284 1983.24 3284 1949 3284 1914.76 3311.53 1887 3345.5 1887 3379.47 1887 3407 1914.76 3407 1949Z" fill="#004761" fill-rule="evenodd"/><path d="M2603 1763 2789 1763" stroke="#151D26" stroke-width="6.1875" stroke-miterlimit="8" fill="none" fill-rule="evenodd"/><path d="M2789 1763.5 2758 1748 2758 1779Z" fill="#151D26" fill-rule="evenodd"/><path d="M3036 1763 3222 1763" stroke="#151D26" stroke-width="6.1875" stroke-miterlimit="8" fill="none" fill-rule="evenodd"/><path d="M3222 1763.5 3191 1748 3191 1779Z" fill="#151D26" fill-rule="evenodd"/><text fill="#151D26" font-family="Amazon Ember,Amazon Ember_MSFontService,sans-serif" font-weight="400" font-size="64" transform="matrix(1 0 0 1 2621.93 2239)">Combined Methods</text></g></svg>