<svg width="3013" height="1052" xmlns="http://www.w3.org/2000/svg" xmlns:xlink="http://www.w3.org/1999/xlink" xml:space="preserve" overflow="hidden"><g transform="translate(-685 -881)"><path d="M1513 1658 2888 1658 2888 1933 1513 1933Z" fill="#151D26" fill-rule="evenodd"/><text fill="#FFFFFF" font-family="Amazon Ember,Amazon Ember_MSFontService,sans-serif" font-weight="700" font-size="92" transform="matrix(1 0 0 1 1958.8 1786)">DynamoDB</text><text fill="#FFFFFF" font-family="Amazon Ember,Amazon Ember_MSFontService,sans-serif" font-weight="400" font-size="73" transform="matrix(1 0 0 1 1722.47 1861)">Scalable Storage Foundation</text><path d="M1341 1238 3059 1238 3059 1581 1341 1581Z" fill="#004761" fill-rule="evenodd"/><text fill="#FFFFFF" font-family="Amazon Ember,Amazon Ember_MSFontService,sans-serif" font-weight="700" font-size="92" transform="matrix(1 0 0 1 1607.6 1403)">Context Management Layer</text><text fill="#FFFFFF" font-family="Amazon Ember,Amazon Ember_MSFontService,sans-serif" font-weight="400" font-size="73" transform="matrix(1 0 0 1 1726.48 1479)">Storage</text><text fill="#FFFFFF" font-family="Amazon Ember,Amazon Ember_MSFontService,sans-serif" font-weight="400" font-size="73" transform="matrix(1 0 0 1 2053.33 1479)">Retrieval</text><text fill="#FFFFFF" font-family="Amazon Ember,Amazon Ember_MSFontService,sans-serif" font-weight="400" font-size="73" transform="matrix(1 0 0 1 2399.66 1479)">Lifecycle</text><path d="M1204 881 3214 881 3214 1156 1204 1156Z" fill="#007E94" fill-rule="evenodd"/><text fill="#FFFFFF" font-family="Amazon Ember,Amazon Ember_MSFontService,sans-serif" font-weight="700" font-size="92" transform="matrix(1 0 0 1 1623.27 1012)">Conversational AI Interface</text><text fill="#FFFFFF" font-family="Amazon Ember,Amazon Ember_MSFontService,sans-serif" font-weight="400" font-size="73" transform="matrix(1 0 0 1 1929.78 1088)">Real</text><text fill="#FFFFFF" font-family="Amazon Ember,Amazon Ember_MSFontService,sans-serif" font-weight="400" font-size="73" transform="matrix(1 0 0 1 2072.44 1088)">-</text><text fill="#FFFFFF" font-family="Amazon Ember,Amazon Ember_MSFontService,sans-serif" font-weight="400" font-size="73" transform="matrix(1 0 0 1 2101.08 1088)">time Access</text><path d="M685 1306 1272 1306 1272 1513 685 1513Z" fill="#B8E7FF" fill-rule="evenodd"/><text fill="#151D26" font-family="Amazon Ember,Amazon Ember_MSFontService,sans-serif" font-weight="400" font-size="73" transform="matrix(1 0 0 1 781.407 1398)">Performance</text><text fill="#151D26" font-family="Amazon Ember,Amazon Ember_MSFontService,sans-serif" font-weight="400" font-size="73" transform="matrix(1 0 0 1 874.792 1467)">Metrics</text><path d="M3120 1306 3698 1306 3698 1513 3120 1513Z" fill="#AEFFA8" fill-rule="evenodd"/><text fill="#151D26" font-family="Amazon Ember,Amazon Ember_MSFontService,sans-serif" font-weight="400" font-size="73" transform="matrix(1 0 0 1 3274.1 1398)">Lifecycle</text><text fill="#151D26" font-family="Amazon Ember,Amazon Ember_MSFontService,sans-serif" font-weight="400" font-size="73" transform="matrix(1 0 0 1 3199.05 1467)">Management</text><path d="M1272.5 1408.5 1341.5 1408.5" stroke="#151D26" stroke-width="6.875" stroke-miterlimit="8" stroke-dasharray="25.7812 25.7812" fill="none" fill-rule="evenodd"/><path d="M3059.5 1408.5 3128.5 1408.5" stroke="#151D26" stroke-width="6.875" stroke-miterlimit="8" stroke-dasharray="25.7812 25.7812" fill="none" fill-rule="evenodd"/></g></svg>