<svg width="3694" height="522" xmlns="http://www.w3.org/2000/svg" xmlns:xlink="http://www.w3.org/1999/xlink" xml:space="preserve" overflow="hidden"><defs><clipPath id="clip0"><rect x="254" y="1231" width="3694" height="522"/></clipPath></defs><g clip-path="url(#clip0)" transform="translate(-254 -1231)"><path d="M254 1238 1160 1238 1160 1750 254 1750Z" fill="#004761" fill-rule="evenodd"/><text fill="#FFFFFF" font-family="Amazon Ember,Amazon Ember_MSFontService,sans-serif" font-weight="700" font-size="73" transform="matrix(1 0 0 1 340.277 1322)">Session Identification</text><path d="M383 1415 682 1415 682 1639 383 1639Z" fill="#007E94" fill-rule="evenodd"/><text fill="#FFFFFF" font-family="Amazon Ember,Amazon Ember_MSFontService,sans-serif" font-weight="400" font-size="64" transform="matrix(1 0 0 1 466.764 1488)">User</text><path d="M730 1415 1029 1415 1029 1639 730 1639Z" fill="#007E94" fill-rule="evenodd"/><text fill="#FFFFFF" font-family="Amazon Ember,Amazon Ember_MSFontService,sans-serif" font-weight="400" font-size="64" transform="matrix(1 0 0 1 770.601 1488)">Session</text><path d="M2154 1238 3060 1238 3060 1750 2154 1750Z" fill="#AEFFA8" fill-rule="evenodd"/><text fill="#151D26" font-family="Amazon Ember,Amazon Ember_MSFontService,sans-serif" font-weight="700" font-size="73" transform="matrix(1 0 0 1 2262.96 1332)">Contextual Storage</text><path d="M3132 1238 3948 1238 3948 1753 3132 1753Z" fill="#B8E7FF" fill-rule="evenodd"/><text fill="#151D26" font-family="Amazon Ember,Amazon Ember_MSFontService,sans-serif" font-weight="700" font-size="73" transform="matrix(1 0 0 1 3389.72 1332)">Metadata</text><path d="M3649 1476C3649 1518.53 3610.5 1553 3563 1553 3515.5 1553 3477 1518.53 3477 1476 3477 1433.47 3515.5 1399 3563 1399 3610.5 1399 3649 1433.47 3649 1476Z" fill="#004761" fill-rule="evenodd"/><text fill="#FFFFFF" font-family="Cambria Math,Cambria Math_MSFontService,sans-serif" font-weight="400" font-size="92" transform="matrix(1 0 0 1 3523.09 1505)">↻</text><text fill="#151D26" font-family="Amazon Ember,Amazon Ember_MSFontService,sans-serif" font-weight="400" font-size="73" transform="matrix(1 0 0 1 3234.75 1663)">Lifecycle Indicators</text><path d="M1189 1241 2095 1241 2095 1753 1189 1753Z" fill="#007E94" fill-rule="evenodd"/><text fill="#FFFFFF" font-family="Amazon Ember,Amazon Ember_MSFontService,sans-serif" font-weight="700" font-size="73" transform="matrix(1 0 0 1 1255.41 1332)">Conversation Tracking</text><path d="M1370.33 1596.25 1364.65 1573.13C1328.1 1556.57 1315.18 1519.36 1335.81 1490.02 1356.44 1460.68 1402.79 1450.32 1439.35 1466.87 1475.9 1483.43 1488.82 1520.64 1468.19 1549.98 1452.96 1571.63 1422.89 1583.7 1392.17 1580.49Z" fill="#B8E7FF" fill-rule="evenodd"/><path d="M1610.33 1596.25 1604.65 1573.13C1568.1 1556.57 1555.18 1519.36 1575.81 1490.02 1596.44 1460.68 1642.79 1450.32 1679.35 1466.87 1715.9 1483.43 1728.82 1520.64 1708.19 1549.98 1692.96 1571.63 1662.89 1583.7 1632.17 1580.49Z" fill="#B8E7FF" fill-rule="evenodd"/><path d="M1850.63 1596.25 1844.91 1573.13C1808.11 1556.57 1795.11 1519.36 1815.88 1490.02 1836.64 1460.68 1883.3 1450.32 1920.09 1466.87 1956.89 1483.43 1969.89 1520.64 1949.13 1549.98 1933.8 1571.63 1903.52 1583.7 1872.6 1580.49Z" fill="#B8E7FF" fill-rule="evenodd"/><path d="M2833.41 1489.05C2828.92 1463.16 2846.27 1438.54 2872.15 1434.04 2898.04 1429.55 2922.67 1446.9 2927.16 1472.78 2931.65 1498.67 2914.31 1523.3 2888.42 1527.79 2862.53 1532.28 2837.91 1514.94 2833.41 1489.05Z" fill="#004761" fill-rule="evenodd"/><path d="M2633.68 1562.33C2627.39 1526.09 2651.67 1491.61 2687.91 1485.32 2724.16 1479.04 2758.63 1503.32 2764.92 1539.56 2771.21 1575.8 2746.93 1610.28 2710.69 1616.57 2674.44 1622.86 2639.97 1598.58 2633.68 1562.33Z" fill="#007E94" fill-rule="evenodd"/><path d="M2461.3 1514.99C2457.7 1494.28 2471.58 1474.58 2492.29 1470.98 2513 1467.39 2532.7 1481.27 2536.29 1501.97 2539.89 1522.68 2526.01 1542.39 2505.3 1545.98 2484.59 1549.57 2464.89 1535.7 2461.3 1514.99Z" fill="#004761" fill-rule="evenodd"/><path d="M2264.81 1607.02C2259.42 1575.96 2280.24 1546.4 2311.3 1541.01 2342.37 1535.62 2371.92 1556.44 2377.31 1587.5 2382.7 1618.57 2361.89 1648.12 2330.82 1653.51 2299.76 1658.9 2270.2 1638.09 2264.81 1607.02Z" fill="#151D26" fill-rule="evenodd"/><path d="M2612.53 1440.46 2556.28 1450.22 2546.53 1393.97 2602.77 1384.22Z" fill="#151D26" fill-rule="evenodd"/><path d="M2880.29 1480.92 2579.53 1417.22" stroke="#151D26" stroke-width="6.1875" stroke-miterlimit="8" stroke-dasharray="23.2031 23.2031" fill="none" fill-rule="evenodd"/><path d="M2699.3 1550.95 2584.41 1445.34" stroke="#151D26" stroke-width="6.1875" stroke-miterlimit="8" stroke-dasharray="23.2031 23.2031" fill="none" fill-rule="evenodd"/><path d="M2498.8 1508.48 2579.53 1417.22" stroke="#151D26" stroke-width="6.1875" stroke-miterlimit="8" stroke-dasharray="23.2031 23.2031" fill="none" fill-rule="evenodd"/><path d="M2321.06 1597.26 2556.28 1450.22" stroke="#151D26" stroke-width="6.1875" stroke-miterlimit="8" stroke-dasharray="23.2031 23.2031" fill="none" fill-rule="evenodd"/></g></svg>