<svg width="3762" height="492" xmlns="http://www.w3.org/2000/svg" xmlns:xlink="http://www.w3.org/1999/xlink" xml:space="preserve" overflow="hidden"><g transform="translate(-255 -995)"><path d="M255 1075 1011 1075 1011 1487 255 1487Z" fill="#007E94" fill-rule="evenodd"/><text fill="#FFFFFF" font-family="Amazon Ember,Amazon Ember_MSFontService,sans-serif" font-weight="700" font-size="64" transform="matrix(1 0 0 1 417.885 1178)">Schema Design</text><text fill="#FFFFFF" font-family="Amazon Ember,Amazon Ember_MSFontService,sans-serif" font-weight="400" font-size="64" transform="matrix(1 0 0 1 423.614 1270)">Table Structure</text><text fill="#FFFFFF" font-family="Amazon Ember,Amazon Ember_MSFontService,sans-serif" font-weight="400" font-size="64" transform="matrix(1 0 0 1 445.672 1339)">Partition Keys</text><text fill="#FFFFFF" font-family="Amazon Ember,Amazon Ember_MSFontService,sans-serif" font-weight="400" font-size="64" transform="matrix(1 0 0 1 537.911 1408)">Indexes</text><path d="M1002.5 1281.5 1208.5 1281.5" stroke="#151D26" stroke-width="6.875" stroke-miterlimit="8" fill="none" fill-rule="evenodd"/><path d="M1208.5 1264.5 1243.5 1281.5 1208.5 1298.5Z" stroke="#151D26" stroke-width="6.875" stroke-miterlimit="8" fill="#151D26" fill-rule="evenodd"/><path d="M1252 1075 2008 1075 2008 1487 1252 1487Z" fill="#004761" fill-rule="evenodd"/><text fill="#FFFFFF" font-family="Amazon Ember,Amazon Ember_MSFontService,sans-serif" font-weight="700" font-size="64" transform="matrix(1 0 0 1 1417.05 1178)">Query Patterns</text><text fill="#FFFFFF" font-family="Amazon Ember,Amazon Ember_MSFontService,sans-serif" font-weight="400" font-size="64" transform="matrix(1 0 0 1 1419.06 1270)">Access Patterns</text><text fill="#FFFFFF" font-family="Amazon Ember,Amazon Ember_MSFontService,sans-serif" font-weight="400" font-size="64" transform="matrix(1 0 0 1 1452.86 1339)">Optimization</text><text fill="#FFFFFF" font-family="Amazon Ember,Amazon Ember_MSFontService,sans-serif" font-weight="400" font-size="64" transform="matrix(1 0 0 1 1457.44 1408)">Performance</text><path d="M1999.5 1281.5 2205.5 1281.5" stroke="#151D26" stroke-width="6.875" stroke-miterlimit="8" fill="none" fill-rule="evenodd"/><path d="M2205.5 1264.5 2240.5 1281.5 2205.5 1298.5Z" stroke="#151D26" stroke-width="6.875" stroke-miterlimit="8" fill="#151D26" fill-rule="evenodd"/><path d="M2249 1075 3005 1075 3005 1487 2249 1487Z" fill="#B8E7FF" fill-rule="evenodd"/><text fill="#151D26" font-family="Amazon Ember,Amazon Ember_MSFontService,sans-serif" font-weight="700" font-size="64" transform="matrix(1 0 0 1 2302.49 1178)">Lifecycle Management</text><text fill="#151D26" font-family="Amazon Ember,Amazon Ember_MSFontService,sans-serif" font-weight="400" font-size="64" transform="matrix(1 0 0 1 2421.95 1270)">Data Retention</text><text fill="#151D26" font-family="Amazon Ember,Amazon Ember_MSFontService,sans-serif" font-weight="400" font-size="64" transform="matrix(1 0 0 1 2406.77 1339)">Archival Policies</text><text fill="#151D26" font-family="Amazon Ember,Amazon Ember_MSFontService,sans-serif" font-weight="400" font-size="64" transform="matrix(1 0 0 1 2434.84 1408)">Cleanup Tasks</text><path d="M2999.5 1281.5 3206.5 1281.5" stroke="#151D26" stroke-width="6.875" stroke-miterlimit="8" fill="none" fill-rule="evenodd"/><path d="M3206.5 1264.5 3240.5 1281.5 3206.5 1298.5Z" stroke="#151D26" stroke-width="6.875" stroke-miterlimit="8" fill="#151D26" fill-rule="evenodd"/><path d="M3246 1075 4002 1075 4002 1487 3246 1487Z" fill="#AEFFA8" fill-rule="evenodd"/><text fill="#151D26" font-family="Amazon Ember,Amazon Ember_MSFontService,sans-serif" font-weight="700" font-size="64" transform="matrix(1 0 0 1 3298.51 1178)">Consistency Strategies</text><text fill="#151D26" font-family="Amazon Ember,Amazon Ember_MSFontService,sans-serif" font-weight="400" font-size="64" transform="matrix(1 0 0 1 3453.2 1270)">Read Models</text><text fill="#151D26" font-family="Amazon Ember,Amazon Ember_MSFontService,sans-serif" font-weight="400" font-size="64" transform="matrix(1 0 0 1 3428.28 1339)">Write Patterns</text><text fill="#151D26" font-family="Amazon Ember,Amazon Ember_MSFontService,sans-serif" font-weight="400" font-size="64" transform="matrix(1 0 0 1 3361.53 1408)">Conflict Resolution</text><text fill="#151D26" font-family="Amazon Ember,Amazon Ember_MSFontService,sans-serif" font-weight="400" font-size="64" transform="matrix(1 0 0 1 1031.83 1075)">Design</text><text fill="#151D26" font-family="Amazon Ember,Amazon Ember_MSFontService,sans-serif" font-weight="400" font-size="64" transform="matrix(1 0 0 1 1997.34 1075)">Optimize</text><text fill="#151D26" font-family="Amazon Ember,Amazon Ember_MSFontService,sans-serif" font-weight="400" font-size="64" transform="matrix(1 0 0 1 3012.55 1075)">Manage</text></g></svg>