<svg width="3266" height="962" xmlns="http://www.w3.org/2000/svg" xmlns:xlink="http://www.w3.org/1999/xlink" xml:space="preserve" overflow="hidden"><defs><clipPath id="clip0"><rect x="535" y="949" width="3266" height="962"/></clipPath></defs><g clip-path="url(#clip0)" transform="translate(-535 -949)"><path d="M535 949 1223 949 1223 1361 535 1361Z" fill="#004761" fill-rule="evenodd"/><text fill="#FFFFFF" font-family="Amazon Ember,Amazon Ember_MSFontService,sans-serif" font-weight="700" font-size="73" transform="matrix(1 0 0 1 769.726 1049)">Step 1</text><text fill="#FFFFFF" font-family="Amazon Ember,Amazon Ember_MSFontService,sans-serif" font-weight="400" font-size="73" transform="matrix(1 0 0 1 664.022 1135)">Partition Key</text><text fill="#FFFFFF" font-family="Amazon Ember,Amazon Ember_MSFontService,sans-serif" font-weight="400" font-size="73" transform="matrix(1 0 0 1 766.574 1221)">Design</text><text fill="#B8E7FF" font-family="Amazon Ember,Amazon Ember_MSFontService,sans-serif" font-weight="400" font-size="73" transform="matrix(1 0 0 1 682.355 1324)">Distribution</text><path d="M1395 949 2082 949 2082 1361 1395 1361Z" fill="#007E94" fill-rule="evenodd"/><text fill="#FFFFFF" font-family="Amazon Ember,Amazon Ember_MSFontService,sans-serif" font-weight="700" font-size="73" transform="matrix(1 0 0 1 1629.1 1049)">Step 2</text><text fill="#FFFFFF" font-family="Amazon Ember,Amazon Ember_MSFontService,sans-serif" font-weight="400" font-size="73" transform="matrix(1 0 0 1 1598.16 1135)">Sort Key</text><text fill="#FFFFFF" font-family="Amazon Ember,Amazon Ember_MSFontService,sans-serif" font-weight="400" font-size="73" transform="matrix(1 0 0 1 1519.96 1221)">Optimization</text><text fill="#B8E7FF" font-family="Amazon Ember,Amazon Ember_MSFontService,sans-serif" font-weight="400" font-size="73" transform="matrix(1 0 0 1 1589.28 1324)">Ordering</text><path d="M2254 949 2942 949 2942 1361 2254 1361Z" fill="#004761" fill-rule="evenodd"/><text fill="#FFFFFF" font-family="Amazon Ember,Amazon Ember_MSFontService,sans-serif" font-weight="700" font-size="73" transform="matrix(1 0 0 1 2488.48 1049)">Step 3</text><text fill="#FFFFFF" font-family="Amazon Ember,Amazon Ember_MSFontService,sans-serif" font-weight="400" font-size="73" transform="matrix(1 0 0 1 2541.18 1135)">GSI</text><text fill="#FFFFFF" font-family="Amazon Ember,Amazon Ember_MSFontService,sans-serif" font-weight="400" font-size="73" transform="matrix(1 0 0 1 2368.16 1221)">Configuration</text><text fill="#B8E7FF" font-family="Amazon Ember,Amazon Ember_MSFontService,sans-serif" font-weight="400" font-size="73" transform="matrix(1 0 0 1 2454.96 1324)">Indexing</text><path d="M3114 949 3801 949 3801 1361 3114 1361Z" fill="#007E94" fill-rule="evenodd"/><text fill="#FFFFFF" font-family="Amazon Ember,Amazon Ember_MSFontService,sans-serif" font-weight="700" font-size="73" transform="matrix(1 0 0 1 3347.85 1049)">Step 4</text><text fill="#FFFFFF" font-family="Amazon Ember,Amazon Ember_MSFontService,sans-serif" font-weight="400" font-size="73" transform="matrix(1 0 0 1 3278.81 1135)">Query Size</text><text fill="#FFFFFF" font-family="Amazon Ember,Amazon Ember_MSFontService,sans-serif" font-weight="400" font-size="73" transform="matrix(1 0 0 1 3238.14 1221)">Management</text><text fill="#B8E7FF" font-family="Amazon Ember,Amazon Ember_MSFontService,sans-serif" font-weight="400" font-size="73" transform="matrix(1 0 0 1 3278.53 1324)">Pagination</text><path d="M1223.5 1155.5 1395.5 1155.5" stroke="#151D26" stroke-width="6.875" stroke-miterlimit="8" fill="none" fill-rule="evenodd"/><path d="M1378.5 1138.5 1395.5 1155.5 1378.5 1172.5Z" stroke="#151D26" stroke-width="6.875" stroke-miterlimit="8" fill="none" fill-rule="evenodd"/><path d="M2082.5 1155.5 2254.5 1155.5" stroke="#151D26" stroke-width="6.875" stroke-miterlimit="8" fill="none" fill-rule="evenodd"/><path d="M2237.5 1138.5 2254.5 1155.5 2237.5 1172.5Z" stroke="#151D26" stroke-width="6.875" stroke-miterlimit="8" fill="none" fill-rule="evenodd"/><path d="M2942.5 1155.5 3114.5 1155.5" stroke="#151D26" stroke-width="6.875" stroke-miterlimit="8" fill="none" fill-rule="evenodd"/><path d="M3096.5 1138.5 3114.5 1155.5 3096.5 1172.5Z" stroke="#151D26" stroke-width="6.875" stroke-miterlimit="8" fill="none" fill-rule="evenodd"/><path d="M1051 1636 2082 1636 2082 1911 1051 1911Z" fill="#AEFFA8" fill-rule="evenodd"/><text fill="#151D26" font-family="Amazon Ember,Amazon Ember_MSFontService,sans-serif" font-weight="700" font-size="73" transform="matrix(1 0 0 1 1210.01 1737)">Performance Metrics</text><text fill="#151D26" font-family="Amazon Ember,Amazon Ember_MSFontService,sans-serif" font-weight="400" font-size="73" transform="matrix(1 0 0 1 1193.11 1823)">Latency &amp; Throughput</text><path d="M2254 1636 3285 1636 3285 1911 2254 1911Z" fill="#CCFFE9" fill-rule="evenodd"/><text fill="#151D26" font-family="Amazon Ember,Amazon Ember_MSFontService,sans-serif" font-weight="700" font-size="73" transform="matrix(1 0 0 1 2428.32 1737)">Cost Considerations</text><text fill="#151D26" font-family="Amazon Ember,Amazon Ember_MSFontService,sans-serif" font-weight="400" font-size="73" transform="matrix(1 0 0 1 2342.38 1823)">RCU &amp; WCU Optimization</text><path d="M1567.5 1361.5 1567.5 1636.5" stroke="#151D26" stroke-width="6.875" stroke-miterlimit="8" stroke-dasharray="25.7812 25.7812" fill="none" fill-rule="evenodd"/><path d="M2598.5 1361.5 2770.5 1636.5" stroke="#151D26" stroke-width="6.875" stroke-miterlimit="8" stroke-dasharray="25.7812 25.7812" fill="none" fill-rule="evenodd"/></g></svg>