<svg width="3781" height="974" xmlns="http://www.w3.org/2000/svg" xmlns:xlink="http://www.w3.org/1999/xlink" xml:space="preserve" overflow="hidden"><g transform="translate(-302 -717)"><path d="M2192 900 2295 969 2192 1038 2089 969Z" fill="#AEFFA8" fill-rule="evenodd"/><path d="M302 832 989 832 989 1107 302 1107Z" fill="#B8E7FF" fill-rule="evenodd"/><text fill="#151D26" font-family="Amazon Ember,Amazon Ember_MSFontService,sans-serif" font-weight="700" font-size="64" transform="matrix(1 0 0 1 420.269 941)">Prompt Design</text><text fill="#151D26" font-family="Amazon Ember,Amazon Ember_MSFontService,sans-serif" font-weight="400" font-size="64" transform="matrix(1 0 0 1 404.8 1010)">Input Processing</text><path d="M989.5 969.5 1161.5 969.5" stroke="#000000" stroke-width="6.875" stroke-miterlimit="8" fill="none" fill-rule="evenodd"/><path d="M1161.5 952.5 1195.5 969.5 1161.5 986.5Z" stroke="#000000" stroke-width="6.875" stroke-miterlimit="8" fill-rule="evenodd"/><path d="M1230 832 1917 832 1917 1107 1230 1107Z" fill="#007E94" fill-rule="evenodd"/><text fill="#FFFFFF" font-family="Amazon Ember,Amazon Ember_MSFontService,sans-serif" font-weight="700" font-size="64" transform="matrix(1 0 0 1 1323.47 941)">Context Analysis</text><text fill="#FFFFFF" font-family="Amazon Ember,Amazon Ember_MSFontService,sans-serif" font-weight="400" font-size="64" transform="matrix(1 0 0 1 1302.85 1010)">Intent Recognition</text><path d="M1917.5 969.5 2089.5 969.5" stroke="#000000" stroke-width="6.875" stroke-miterlimit="8" fill="none" fill-rule="evenodd"/><path d="M2089.5 952.5 2124.5 969.5 2089.5 986.5Z" stroke="#000000" stroke-width="6.875" stroke-miterlimit="8" fill-rule="evenodd"/><text fill="#151D26" font-family="Amazon Ember,Amazon Ember_MSFontService,sans-serif" font-weight="700" font-size="64" transform="matrix(1 0 0 1 2115.97 797)">High</text><text fill="#151D26" font-family="Amazon Ember,Amazon Ember_MSFontService,sans-serif" font-weight="400" font-size="64" transform="matrix(1 0 0 1 2010.26 859)">Confidence?</text><path d="M2295.5 969.5 2467.5 969.5" stroke="#000000" stroke-width="6.875" stroke-miterlimit="8" fill="none" fill-rule="evenodd"/><path d="M2467.5 952.5 2502.5 969.5 2467.5 986.5Z" stroke="#000000" stroke-width="6.875" stroke-miterlimit="8" fill-rule="evenodd"/><text fill="#151D26" font-family="Amazon Ember,Amazon Ember_MSFontService,sans-serif" font-weight="400" font-size="64" transform="matrix(1 0 0 1 2331.23 941)">Yes</text><path d="M2536 832 3224 832 3224 1107 2536 1107Z" fill="#004761" fill-rule="evenodd"/><text fill="#FFFFFF" font-family="Amazon Ember,Amazon Ember_MSFontService,sans-serif" font-weight="700" font-size="64" transform="matrix(1 0 0 1 2534.33 941)">Confidence Thresholds</text><text fill="#FFFFFF" font-family="Amazon Ember,Amazon Ember_MSFontService,sans-serif" font-weight="400" font-size="64" transform="matrix(1 0 0 1 2730.84 1010)">Validation</text><path d="M3224.5 969.5 3395.5 969.5" stroke="#000000" stroke-width="6.875" stroke-miterlimit="8" fill="none" fill-rule="evenodd"/><path d="M3395.5 952.5 3430.5 969.5 3395.5 986.5Z" stroke="#000000" stroke-width="6.875" stroke-miterlimit="8" fill-rule="evenodd"/><path d="M3464 832 4083 832 4083 1107 3464 1107Z" fill="#CCFFE9" fill-rule="evenodd"/><text fill="#151D26" font-family="Amazon Ember,Amazon Ember_MSFontService,sans-serif" font-weight="700" font-size="64" transform="matrix(1 0 0 1 3512.59 941)">Intent Confirmed</text><text fill="#151D26" font-family="Amazon Ember,Amazon Ember_MSFontService,sans-serif" font-weight="400" font-size="64" transform="matrix(1 0 0 1 3515.16 1010)">Process Complete</text><path d="M2192.5 1038.5 2192.5 1347.5" stroke="#000000" stroke-width="6.875" stroke-miterlimit="8" fill="none" fill-rule="evenodd"/><path d="M2175.5 1347.5 2192.5 1382.5 2209.5 1347.5Z" stroke="#000000" stroke-width="6.875" stroke-miterlimit="8" fill-rule="evenodd"/><text fill="#151D26" font-family="Amazon Ember,Amazon Ember_MSFontService,sans-serif" font-weight="400" font-size="64" transform="matrix(1 0 0 1 2255.1 1182)">No</text><path d="M1849 1416 2536 1416 2536 1691 1849 1691Z" fill="#151D26" fill-rule="evenodd"/><text fill="#FFFFFF" font-family="Amazon Ember,Amazon Ember_MSFontService,sans-serif" font-weight="700" font-size="64" transform="matrix(1 0 0 1 1887.22 1526)">Ambiguity Handling</text><text fill="#FFFFFF" font-family="Amazon Ember,Amazon Ember_MSFontService,sans-serif" font-weight="400" font-size="64" transform="matrix(1 0 0 1 1890.95 1594)">Clarification Request</text><path d="M1849.5 1553.5 645.5 1553.5" stroke="#000000" stroke-width="6.875" stroke-miterlimit="8" stroke-dasharray="25.7812 25.7812" fill="none" fill-rule="evenodd"/><path d="M645.5 1553.5 645.5 1107.5" stroke="#000000" stroke-width="6.875" stroke-miterlimit="8" stroke-dasharray="25.7812 25.7812" fill="none" fill-rule="evenodd"/><path d="M628.5 1124.5 646 1107.5 663.5 1124.5Z" stroke="#000000" stroke-width="6.875" stroke-miterlimit="8" fill-rule="evenodd"/><text fill="#151D26" font-family="Amazon Ember,Amazon Ember_MSFontService,sans-serif" font-weight="400" font-size="64" transform="matrix(1 0 0 1 713.602 1629)">Feedback Loop for Refinement</text></g></svg>