<svg width="2062" height="1386" xmlns="http://www.w3.org/2000/svg" xmlns:xlink="http://www.w3.org/1999/xlink" xml:space="preserve" overflow="hidden"><defs><clipPath id="clip0"><rect x="1169" y="593" width="2062" height="1386"/></clipPath></defs><g clip-path="url(#clip0)" transform="translate(-1169 -593)"><path d="M1942 1178 2458 1178 2458 1453 1942 1453Z" fill="#004761" fill-rule="evenodd"/><text fill="#FFFFFF" font-family="Amazon Ember,Amazon Ember_MSFontService,sans-serif" font-weight="700" font-size="64" transform="matrix(1 0 0 1 2081.08 1287)">Central </text><text fill="#FFFFFF" font-family="Amazon Ember,Amazon Ember_MSFontService,sans-serif" font-weight="700" font-size="64" transform="matrix(1 0 0 1 1963.91 1364)">Validation</text><text fill="#FFFFFF" font-family="Amazon Ember,Amazon Ember_MSFontService,sans-serif" font-weight="700" font-size="64" transform="matrix(1 0 0 1 2293.91 1364)">Hub</text><path d="M1942 593 2458 593 2458 800 1942 800Z" fill="#007E94" fill-rule="evenodd"/><text fill="#FFFFFF" font-family="Amazon Ember,Amazon Ember_MSFontService,sans-serif" font-weight="700" font-size="64" transform="matrix(1 0 0 1 2026.41 686)">Foundation</text><text fill="#FFFFFF" font-family="Amazon Ember,Amazon Ember_MSFontService,sans-serif" font-weight="700" font-size="64" transform="matrix(1 0 0 1 2091.15 755)">Models</text><path d="M2716 1178 3231 1178 3231 1453 2716 1453Z" fill="#007E94" fill-rule="evenodd"/><text fill="#FFFFFF" font-family="Amazon Ember,Amazon Ember_MSFontService,sans-serif" font-weight="700" font-size="64" transform="matrix(1 0 0 1 2778.07 1287)">Comprehend</text><text fill="#FFFFFF" font-family="Amazon Ember,Amazon Ember_MSFontService,sans-serif" font-weight="700" font-size="64" transform="matrix(1 0 0 1 2850.55 1356)">Services</text><path d="M1169 1178 1684 1178 1684 1453 1169 1453Z" fill="#007E94" fill-rule="evenodd"/><text fill="#FFFFFF" font-family="Amazon Ember,Amazon Ember_MSFontService,sans-serif" font-weight="700" font-size="64" transform="matrix(1 0 0 1 1308.83 1287)">Context</text><text fill="#FFFFFF" font-family="Amazon Ember,Amazon Ember_MSFontService,sans-serif" font-weight="700" font-size="64" transform="matrix(1 0 0 1 1302.53 1356)">Analysis</text><path d="M1341 1762 1856 1762 1856 1968 1341 1968Z" fill="#B8E7FF" fill-rule="evenodd"/><text fill="#151D26" font-family="Amazon Ember,Amazon Ember_MSFontService,sans-serif" font-weight="700" font-size="64" transform="matrix(1 0 0 1 1428.28 1855)">Confidence</text><text fill="#151D26" font-family="Amazon Ember,Amazon Ember_MSFontService,sans-serif" font-weight="700" font-size="64" transform="matrix(1 0 0 1 1478.7 1923)">Routing</text><path d="M2544 1762 3059 1762 3059 1968 2544 1968Z" fill="#B8E7FF" fill-rule="evenodd"/><text fill="#151D26" font-family="Amazon Ember,Amazon Ember_MSFontService,sans-serif" font-weight="700" font-size="64" transform="matrix(1 0 0 1 2644.87 1855)">Validation</text><text fill="#151D26" font-family="Amazon Ember,Amazon Ember_MSFontService,sans-serif" font-weight="700" font-size="64" transform="matrix(1 0 0 1 2704.74 1923)">Layers</text><path d="M2200.5 800.5 2200.5 1178.5" stroke="#151D26" stroke-width="6.875" stroke-miterlimit="8" fill="none" fill-rule="evenodd"/><path d="M2183 1161 2200 1195 2217 1161Z" fill="#151D26" fill-rule="evenodd"/><path d="M2716.5 1315.5 2458.5 1315.5" stroke="#151D26" stroke-width="6.875" stroke-miterlimit="8" fill="none" fill-rule="evenodd"/><path d="M2475 1298 2441 1315.5 2475 1333Z" fill="#151D26" fill-rule="evenodd"/><path d="M1684.5 1315.5 1942.5 1315.5" stroke="#151D26" stroke-width="6.875" stroke-miterlimit="8" fill="none" fill-rule="evenodd"/><path d="M1925 1298 1959 1315.5 1925 1333Z" fill="#151D26" fill-rule="evenodd"/><path d="M2028.5 1453.5 1684.5 1762.5" stroke="#151D26" stroke-width="6.875" stroke-miterlimit="8" fill="none" fill-rule="evenodd"/><path d="M1702 1745 1667 1779 1684.5 1762Z" fill="#151D26" fill-rule="evenodd"/><path d="M2372.5 1453.5 2716.5 1762.5" stroke="#151D26" stroke-width="6.875" stroke-miterlimit="8" fill="none" fill-rule="evenodd"/><path d="M2698 1745 2733 1779 2715.5 1762Z" fill="#151D26" fill-rule="evenodd"/></g></svg>