<svg width="2062" height="1116" xmlns="http://www.w3.org/2000/svg" xmlns:xlink="http://www.w3.org/1999/xlink" xml:space="preserve" overflow="hidden"><defs><clipPath id="clip0"><rect x="1169" y="789" width="2062" height="1116"/></clipPath></defs><g clip-path="url(#clip0)" transform="translate(-1169 -789)"><path d="M1169 789 3231 789 3231 1133 1169 1133Z" fill="#B8E7FF" fill-rule="evenodd"/><text fill="#151D26" font-family="Amazon Ember,Amazon Ember_MSFontService,sans-serif" font-weight="700" font-size="73" transform="matrix(1 0 0 1 1853.67 930)">User Interface Layer</text><text fill="#151D26" font-family="Amazon Ember,Amazon Ember_MSFontService,sans-serif" font-weight="400" font-size="73" transform="matrix(1 0 0 1 1501.61 1039)">Web Interface • Mobile App • API Gateway</text><path d="M1169 1181 3231 1181 3231 1525 1169 1525Z" fill="#007E94" fill-rule="evenodd"/><text fill="#FFFFFF" font-family="Amazon Ember,Amazon Ember_MSFontService,sans-serif" font-weight="700" font-size="73" transform="matrix(1 0 0 1 1626.22 1321)">Orchestration &amp; Processing Layer</text><text fill="#FFFFFF" font-family="Amazon Ember,Amazon Ember_MSFontService,sans-serif" font-weight="400" font-size="73" transform="matrix(1 0 0 1 1482.71 1431)">AI Engine • Business Logic • Request Router</text><path d="M1169 1562 3231 1562 3231 1905 1169 1905Z" fill="#151D26" fill-rule="evenodd"/><text fill="#FFFFFF" font-family="Amazon Ember,Amazon Ember_MSFontService,sans-serif" font-weight="700" font-size="73" transform="matrix(1 0 0 1 1717.32 1702)">Storage &amp; Foundation Layer</text><text fill="#FFFFFF" font-family="Amazon Ember,Amazon Ember_MSFontService,sans-serif" font-weight="400" font-size="73" transform="matrix(1 0 0 1 1428.85 1812)">Database • ML Models • Infrastructure Services</text></g></svg>