<svg width="2406" height="1513" xmlns="http://www.w3.org/2000/svg" xmlns:xlink="http://www.w3.org/1999/xlink" xml:space="preserve" overflow="hidden"><defs><clipPath id="clip0"><rect x="940" y="732" width="2406" height="1513"/></clipPath></defs><g clip-path="url(#clip0)" transform="translate(-940 -732)"><path d="M940 732 1971 732 1971 1420 940 1420Z" fill="#B8E7FF" fill-rule="evenodd"/><text fill="#151D26" font-family="Amazon Ember,Amazon Ember_MSFontService,sans-serif" font-weight="700" font-size="64" transform="matrix(1 0 0 1 1164.54 835)">Foundation Models</text><path d="M1232 1064.5C1232 1092.94 1208.94 1116 1180.5 1116 1152.06 1116 1129 1092.94 1129 1064.5 1129 1036.06 1152.06 1013 1180.5 1013 1208.94 1013 1232 1036.06 1232 1064.5Z" fill="#004761" fill-rule="evenodd"/><path d="M1438 995.5C1438 1023.94 1414.94 1047 1386.5 1047 1358.06 1047 1335 1023.94 1335 995.5 1335 967.057 1358.06 944 1386.5 944 1414.94 944 1438 967.057 1438 995.5Z" fill="#004761" fill-rule="evenodd"/><path d="M1644 1064.5C1644 1092.94 1620.94 1116 1592.5 1116 1564.06 1116 1541 1092.94 1541 1064.5 1541 1036.06 1564.06 1013 1592.5 1013 1620.94 1013 1644 1036.06 1644 1064.5Z" fill="#004761" fill-rule="evenodd"/><path d="M1782 1133.5C1782 1161.94 1758.94 1185 1730.5 1185 1702.06 1185 1679 1161.94 1679 1133.5 1679 1105.06 1702.06 1082 1730.5 1082 1758.94 1082 1782 1105.06 1782 1133.5Z" fill="#004761" fill-rule="evenodd"/><path d="M1507 1202C1507 1230.72 1483.94 1254 1455.5 1254 1427.06 1254 1404 1230.72 1404 1202 1404 1173.28 1427.06 1150 1455.5 1150 1483.94 1150 1507 1173.28 1507 1202Z" fill="#004761" fill-rule="evenodd"/><path d="M1180.5 1064.5 1387.5 996.5" stroke="#151D26" stroke-width="6.875" stroke-miterlimit="8" fill="none" fill-rule="evenodd"/><path d="M1387.5 996.5 1593.5 1064.5" stroke="#151D26" stroke-width="6.875" stroke-miterlimit="8" fill="none" fill-rule="evenodd"/><path d="M1593.5 1064.5 1730.5 1133.5" stroke="#151D26" stroke-width="6.875" stroke-miterlimit="8" fill="none" fill-rule="evenodd"/><path d="M1387.5 996.5 1455.5 1202.5" stroke="#151D26" stroke-width="6.875" stroke-miterlimit="8" fill="none" fill-rule="evenodd"/><path d="M1593.5 1064.5 1455.5 1202.5" stroke="#151D26" stroke-width="6.875" stroke-miterlimit="8" fill="none" fill-rule="evenodd"/><path d="M2315 732 3346 732 3346 1420 2315 1420Z" fill="#AEFFA8" fill-rule="evenodd"/><text fill="#151D26" font-family="Amazon Ember,Amazon Ember_MSFontService,sans-serif" font-weight="700" font-size="64" transform="matrix(1 0 0 1 2621.19 835)">Orchestration</text><path d="M2380 1056 2586 1056 2586 1159 2380 1159Z" fill="#E5EAF0" fill-rule="evenodd"/><path d="M2723 1056 2930 1056 2930 1159 2723 1159Z" fill="#708282" fill-rule="evenodd"/><path d="M3067 1056 3273 1056 3273 1159 3067 1159Z" fill="#151D26" fill-rule="evenodd"/><path d="M2586.5 1107.5 2723.5 1107.5" stroke="#151D26" stroke-width="6.875" stroke-miterlimit="8" fill="none" fill-rule="evenodd"/><path d="M2706 1090 2723 1107 2706 1124Z" fill="#151D26" fill-rule="evenodd"/><path d="M2930.5 1107.5 3067.5 1107.5" stroke="#151D26" stroke-width="6.875" stroke-miterlimit="8" fill="none" fill-rule="evenodd"/><path d="M3050 1090 3067 1107 3050 1124Z" fill="#151D26" fill-rule="evenodd"/><path d="M940 1557 1971 1557 1971 2245 940 2245Z" fill="#007E94" fill-rule="evenodd"/><text fill="#FFFFFF" font-family="Amazon Ember,Amazon Ember_MSFontService,sans-serif" font-weight="700" font-size="64" transform="matrix(1 0 0 1 1130.74 1660)">Context Management</text><path d="M1043 1742 1868 1742 1868 1828 1043 1828Z" fill="#B8E7FF" fill-rule="evenodd"/><path d="M1043 1862 1868 1862 1868 1948 1043 1948Z" fill="#CCFFE9" fill-rule="evenodd"/><path d="M1043 1982 1868 1982 1868 2068 1043 2068Z" fill="#B8E7FF" fill-rule="evenodd"/><path d="M1043 2103 1868 2103 1868 2189 1043 2189Z" fill="#CCFFE9" fill-rule="evenodd"/><path d="M2315 1557 3346 1557 3346 2245 2315 2245Z" fill="#004761" fill-rule="evenodd"/><text fill="#FFFFFF" font-family="Amazon Ember,Amazon Ember_MSFontService,sans-serif" font-weight="700" font-size="64" transform="matrix(1 0 0 1 2659.57 1660)">Integration</text><path d="M2418 1839 2693 1839 2693 1907 2418 1907Z" fill="#B8E7FF" fill-rule="evenodd"/><path d="M2968 1839 3243 1839 3243 1907 2968 1907Z" fill="#B8E7FF" fill-rule="evenodd"/><path d="M2693 1942 2968 1942 2968 2011 2693 2011Z" fill="#CCFFE9" fill-rule="evenodd"/><path d="M2693.5 1873.5 2968.5 1873.5" stroke="#FFFFFF" stroke-width="6.875" stroke-miterlimit="8" fill="none" fill-rule="evenodd"/><path d="M2555.5 1907.5 2693.5 1976.5" stroke="#FFFFFF" stroke-width="6.875" stroke-miterlimit="8" fill="none" fill-rule="evenodd"/><path d="M3105.5 1907.5 2968.5 1976.5" stroke="#FFFFFF" stroke-width="6.875" stroke-miterlimit="8" fill="none" fill-rule="evenodd"/></g></svg>