<svg width="2503" height="1885" xmlns="http://www.w3.org/2000/svg" xmlns:xlink="http://www.w3.org/1999/xlink" xml:space="preserve" overflow="hidden"><g transform="translate(-981 -488)"><path d="M1930 488 2548 488 2548 674 1930 674Z" fill="#007E94" fill-rule="evenodd"/><path d="M2239 1788 2394 1880.5 2239 1973 2084 1880.5Z" fill="#B8E7FF" fill-rule="evenodd"/><text fill="#FFFFFF" font-family="Amazon Ember,Amazon Ember_MSFontService,sans-serif" font-weight="700" font-size="64" transform="matrix(1 0 0 1 2083.5 609)">Input Text</text><path d="M2239 674 2239 798" stroke="#151D26" stroke-width="6.1875" stroke-miterlimit="8" fill="none" fill-rule="evenodd"/><path d="M2224 782 2239.5 813 2255 782Z" fill="#151D26" fill-rule="evenodd"/><text fill="#151D26" font-family="Amazon Ember,Amazon Ember_MSFontService,sans-serif" font-weight="700" font-size="64" transform="matrix(1 0 0 1 1972.31 972)">Parallel Analysis</text><path d="M1156 983 1775 983 1775 1231 1156 1231Z" fill="#004761" fill-rule="evenodd"/><text fill="#FFFFFF" font-family="Amazon Ember,Amazon Ember_MSFontService,sans-serif" font-weight="700" font-size="64" transform="matrix(1 0 0 1 1189.18 1088)">Foundation Model</text><text fill="#FFFFFF" font-family="Amazon Ember,Amazon Ember_MSFontService,sans-serif" font-weight="400" font-size="64" transform="matrix(1 0 0 1 1347.88 1150)">Analysis</text><path d="M2703 983 3322 983 3322 1231 2703 1231Z" fill="#004761" fill-rule="evenodd"/><text fill="#FFFFFF" font-family="Amazon Ember,Amazon Ember_MSFontService,sans-serif" font-weight="700" font-size="64" transform="matrix(1 0 0 1 2817.12 1088)">Comprehend</text><text fill="#FFFFFF" font-family="Amazon Ember,Amazon Ember_MSFontService,sans-serif" font-weight="400" font-size="64" transform="matrix(1 0 0 1 2894.75 1150)">Analysis</text><path d="M2239 798 1466 983" stroke="#151D26" stroke-width="6.1875" stroke-miterlimit="8" fill="none" fill-rule="evenodd"/><path d="M1450 968 1481 999 1481 983.5Z" fill="#151D26" fill-rule="evenodd"/><path d="M2239 798 3012 983" stroke="#151D26" stroke-width="6.1875" stroke-miterlimit="8" fill="none" fill-rule="evenodd"/><path d="M2997 983.5 3028 999 2997 968Z" fill="#151D26" fill-rule="evenodd"/><path d="M1466 1231 1930 1478" stroke="#151D26" stroke-width="6.1875" stroke-miterlimit="8" fill="none" fill-rule="evenodd"/><path d="M1914 1463 1945 1494 1945 1478.5Z" fill="#151D26" fill-rule="evenodd"/><path d="M3012 1231 2548 1478" stroke="#151D26" stroke-width="6.1875" stroke-miterlimit="8" fill="none" fill-rule="evenodd"/><path d="M2533 1478.5 2564 1494 2533 1463Z" fill="#151D26" fill-rule="evenodd"/><path d="M1930 1478 2548 1478 2548 1664 1930 1664Z" fill="#007E94" fill-rule="evenodd"/><text fill="#FFFFFF" font-family="Amazon Ember,Amazon Ember_MSFontService,sans-serif" font-weight="700" font-size="64" transform="matrix(1 0 0 1 2077.77 1599)">Evaluation</text><path d="M2239 1664 2239 1788" stroke="#151D26" stroke-width="6.1875" stroke-miterlimit="8" fill="none" fill-rule="evenodd"/><path d="M2224 1772 2239.5 1803 2255 1772Z" fill="#151D26" fill-rule="evenodd"/><text fill="#151D26" font-family="Amazon Ember,Amazon Ember_MSFontService,sans-serif" font-weight="700" font-size="64" transform="matrix(1 0 0 1 2368.37 1823)">High</text><text fill="#151D26" font-family="Amazon Ember,Amazon Ember_MSFontService,sans-serif" font-weight="700" font-size="64" transform="matrix(1 0 0 1 2255.79 1880)">Confidence?</text><path d="M1002 2159 1558 2159 1558 2345 1002 2345Z" fill="#AEFFA8" fill-rule="evenodd"/><text fill="#151D26" font-family="Amazon Ember,Amazon Ember_MSFontService,sans-serif" font-weight="700" font-size="64" transform="matrix(1 0 0 1 1019.6 2279)">Direct Processing</text><path d="M2920 2159 3477 2159 3477 2345 2920 2345Z" fill="#CCFFE9" fill-rule="evenodd"/><text fill="#151D26" font-family="Amazon Ember,Amazon Ember_MSFontService,sans-serif" font-weight="700" font-size="64" transform="matrix(1 0 0 1 3050.48 2240)">Enhanced </text><text fill="#151D26" font-family="Amazon Ember,Amazon Ember_MSFontService,sans-serif" font-weight="700" font-size="64" transform="matrix(1 0 0 1 3036.73 2317)">Processing</text><path d="M2084 1927 1558 2159" stroke="#151D26" stroke-width="6.1875" stroke-miterlimit="8" fill="none" fill-rule="evenodd"/><path d="M1543 2144 1574 2174 1574 2159Z" fill="#151D26" fill-rule="evenodd"/><text fill="#151D26" font-family="Amazon Ember,Amazon Ember_MSFontService,sans-serif" font-weight="400" font-size="64" transform="matrix(1 0 0 1 1724.86 2023)">Yes</text><path d="M2394 1927 2920 2159" stroke="#151D26" stroke-width="6.1875" stroke-miterlimit="8" fill="none" fill-rule="evenodd"/><path d="M2904 2159 2935 2174 2904 2144Z" fill="#151D26" fill-rule="evenodd"/><text fill="#151D26" font-family="Amazon Ember,Amazon Ember_MSFontService,sans-serif" font-weight="400" font-size="64" transform="matrix(1 0 0 1 2707.1 2030)">No</text></g></svg>