<svg width="4228" height="1821" xmlns="http://www.w3.org/2000/svg" xmlns:xlink="http://www.w3.org/1999/xlink" xml:space="preserve" overflow="hidden"><g transform="translate(-172 -506)"><path d="M3454.63 593C3473.61 593 3489 608.39 3489 627.375L3489 2208.62C3489 2227.61 3473.61 2243 3454.63 2243L1117.37 2243C1098.39 2243 1083 2227.61 1083 2208.62L1083 627.375C1083 608.39 1098.39 593 1117.37 593Z" fill="#B8E7FF" fill-rule="evenodd"/><text fill="#151D26" font-family="Amazon Ember,Amazon Ember_MSFontService,sans-serif" font-weight="700" font-size="73" transform="matrix(1 0 0 1 1730.84 720)">Audit &amp; Compliance Monitoring</text><path d="M3214.62 800C3233.61 800 3249 815.384 3249 834.361L3249 2002.64C3249 2021.62 3233.61 2037 3214.62 2037L1358.38 2037C1339.39 2037 1324 2021.62 1324 2002.64L1324 834.361C1324 815.384 1339.39 800 1358.38 800Z" fill="#CCFFE9" fill-rule="evenodd"/><text fill="#151D26" font-family="Amazon Ember,Amazon Ember_MSFontService,sans-serif" font-weight="700" font-size="73" transform="matrix(1 0 0 1 2018.53 946)">Access Controls</text><path d="M2973.62 1006C2992.61 1006 3008 1021.39 3008 1040.38L3008 1796.63C3008 1815.61 2992.61 1831 2973.62 1831L1598.38 1831C1579.39 1831 1564 1815.61 1564 1796.63L1564 1040.38C1564 1021.39 1579.39 1006 1598.38 1006Z" fill="#AEFFA8" fill-rule="evenodd"/><text fill="#151D26" font-family="Amazon Ember,Amazon Ember_MSFontService,sans-serif" font-weight="700" font-size="73" transform="matrix(1 0 0 1 1902.43 1175)">Data Protection Layer</text><path d="M2702.41 1281C2725.38 1281 2744 1296.4 2744 1315.4L2744 1590.6C2744 1609.6 2725.38 1625 2702.41 1625L1870.59 1625C1847.62 1625 1829 1609.6 1829 1590.6L1829 1315.4C1829 1296.4 1847.62 1281 1870.59 1281Z" fill="#007E94" fill-rule="evenodd"/><text fill="#FFFFFF" font-family="Amazon Ember,Amazon Ember_MSFontService,sans-serif" font-weight="700" font-size="73" transform="matrix(1 0 0 1 1920.28 1426)">Interactive AI System</text><text fill="#FFFFFF" font-family="Amazon Ember,Amazon Ember_MSFontService,sans-serif" font-weight="400" font-size="73" transform="matrix(1 0 0 1 2010.51 1519)">Core Application</text><path d="M1454 1418.5C1454 1433.69 1441.69 1446 1426.5 1446 1411.31 1446 1399 1433.69 1399 1418.5 1399 1403.31 1411.31 1391 1426.5 1391 1441.69 1391 1454 1403.31 1454 1418.5Z" fill="#004761" fill-rule="evenodd"/><path d="M3173 1418.5C3173 1433.69 3160.69 1446 3145.5 1446 3130.31 1446 3118 1433.69 3118 1418.5 3118 1403.31 3130.31 1391 3145.5 1391 3160.69 1391 3173 1403.31 3173 1418.5Z" fill="#004761" fill-rule="evenodd"/><path d="M2314 834.5C2314 849.688 2301.69 862 2286.5 862 2271.31 862 2259 849.688 2259 834.5 2259 819.312 2271.31 807 2286.5 807 2301.69 807 2314 819.312 2314 834.5Z" fill="#004761" fill-rule="evenodd"/><path d="M2314 2105.5C2314 2120.69 2301.69 2133 2286.5 2133 2271.31 2133 2259 2120.69 2259 2105.5 2259 2090.31 2271.31 2078 2286.5 2078 2301.69 2078 2314 2090.31 2314 2105.5Z" fill="#004761" fill-rule="evenodd"/><text fill="#151D26" font-family="Amazon Ember,Amazon Ember_MSFontService,sans-serif" font-weight="400" font-size="73" transform="matrix(1 0 0 1 1222.13 1572)">Control </text><text fill="#151D26" font-family="Amazon Ember,Amazon Ember_MSFontService,sans-serif" font-weight="400" font-size="73" transform="matrix(1 0 0 1 1490.26 1572)">Point</text><text fill="#151D26" font-family="Amazon Ember,Amazon Ember_MSFontService,sans-serif" font-weight="400" font-size="73" transform="matrix(1 0 0 1 1666.72 1572)">s</text></g></svg>