<svg width="3375" height="742" xmlns="http://www.w3.org/2000/svg" xmlns:xlink="http://www.w3.org/1999/xlink" xml:space="preserve" overflow="hidden"><g transform="translate(-309 -894)"><text fill="#151D26" font-family="Amazon Ember,Amazon Ember_MSFontService,sans-serif" font-weight="700" font-size="83" transform="matrix(1 0 0 1 1333.45 1564)">Automated Lifecycle Management</text><path d="M309 894 997 894 997 1306 309 1306Z" fill="#B8E7FF" fill-rule="evenodd"/><text fill="#151D26" font-family="Amazon Ember,Amazon Ember_MSFontService,sans-serif" font-weight="700" font-size="64" transform="matrix(1 0 0 1 497.864 1003)">TTL Policy</text><text fill="#151D26" font-family="Amazon Ember,Amazon Ember_MSFontService,sans-serif" font-weight="400" font-size="64" transform="matrix(1 0 0 1 451.745 1072)">Configuration</text><path d="M587 1230.5C587 1245.69 574.688 1258 559.5 1258 544.312 1258 532 1245.69 532 1230.5 532 1215.31 544.312 1203 559.5 1203 574.688 1203 587 1215.31 587 1230.5Z" fill="#007E94" fill-rule="evenodd"/><text fill="#151D26" font-family="Amazon Ember,Amazon Ember_MSFontService,sans-serif" font-weight="400" font-size="64" transform="matrix(1 0 0 1 600.785 1252)">Auto</text><path d="M997.5 1100.5 1169.5 1100.5" stroke="#151D26" stroke-width="6.875" stroke-miterlimit="8" fill="none" fill-rule="evenodd"/><path d="M1169 1083 1203 1100 1169 1117Z" fill="#151D26" fill-rule="evenodd"/><path d="M1209 894 1896 894 1896 1306 1209 1306Z" fill="#007E94" fill-rule="evenodd"/><text fill="#FFFFFF" font-family="Amazon Ember,Amazon Ember_MSFontService,sans-serif" font-weight="700" font-size="64" transform="matrix(1 0 0 1 1272.11 1003)">Archival Workflow</text><text fill="#FFFFFF" font-family="Amazon Ember,Amazon Ember_MSFontService,sans-serif" font-weight="400" font-size="64" transform="matrix(1 0 0 1 1318.23 1072)">Implementation</text><path d="M1500 1230.5C1500 1245.69 1487.69 1258 1472.5 1258 1457.31 1258 1445 1245.69 1445 1230.5 1445 1215.31 1457.31 1203 1472.5 1203 1487.69 1203 1500 1215.31 1500 1230.5Z" fill="#AEFFA8" fill-rule="evenodd"/><text fill="#FFFFFF" font-family="Amazon Ember,Amazon Ember_MSFontService,sans-serif" font-weight="400" font-size="64" transform="matrix(1 0 0 1 1514.06 1252)">Auto</text><path d="M1896.5 1100.5 2068.5 1100.5" stroke="#151D26" stroke-width="6.875" stroke-miterlimit="8" fill="none" fill-rule="evenodd"/><path d="M2068 1083 2103 1100 2068 1117Z" fill="#151D26" fill-rule="evenodd"/><path d="M2105 894 2792 894 2792 1306 2105 1306Z" fill="#004761" fill-rule="evenodd"/><text fill="#FFFFFF" font-family="Amazon Ember,Amazon Ember_MSFontService,sans-serif" font-weight="700" font-size="64" transform="matrix(1 0 0 1 2163.08 1003)">Compliance</text><text fill="#FFFFFF" font-family="Amazon Ember,Amazon Ember_MSFontService,sans-serif" font-weight="700" font-size="64" transform="matrix(1 0 0 1 2518.87 1003)">-</text><text fill="#FFFFFF" font-family="Amazon Ember,Amazon Ember_MSFontService,sans-serif" font-weight="700" font-size="64" transform="matrix(1 0 0 1 2544.65 1003)">Aware</text><text fill="#FFFFFF" font-family="Amazon Ember,Amazon Ember_MSFontService,sans-serif" font-weight="400" font-size="64" transform="matrix(1 0 0 1 2305.45 1072)">Retention</text><path d="M2380 1197 2517 1197 2517 1265 2380 1265Z" fill="#AEFFA8" fill-rule="evenodd"/><text fill="#151D26" font-family="Segoe UI Symbol,Segoe UI Symbol_MSFontService,sans-serif" font-weight="400" font-size="64" transform="matrix(1 0 0 1 2424.34 1254)">✓</text><path d="M2792.5 1100.5 2964.5 1100.5" stroke="#151D26" stroke-width="6.875" stroke-miterlimit="8" fill="none" fill-rule="evenodd"/><path d="M2964 1083 2998 1100 2964 1117Z" fill="#151D26" fill-rule="evenodd"/><path d="M2997 894 3684 894 3684 1306 2997 1306Z" fill="#CCFFE9" fill-rule="evenodd"/><text fill="#151D26" font-family="Amazon Ember,Amazon Ember_MSFontService,sans-serif" font-weight="700" font-size="64" transform="matrix(1 0 0 1 3098.6 1003)">User</text><text fill="#151D26" font-family="Amazon Ember,Amazon Ember_MSFontService,sans-serif" font-weight="700" font-size="64" transform="matrix(1 0 0 1 3234.38 1003)">-</text><text fill="#151D26" font-family="Amazon Ember,Amazon Ember_MSFontService,sans-serif" font-weight="700" font-size="64" transform="matrix(1 0 0 1 3260.16 1003)">Controlled</text><text fill="#151D26" font-family="Amazon Ember,Amazon Ember_MSFontService,sans-serif" font-weight="400" font-size="64" transform="matrix(1 0 0 1 3072.24 1072)">Data Management</text><path d="M3254 1230.5C3254 1245.69 3241.69 1258 3226.5 1258 3211.31 1258 3199 1245.69 3199 1230.5 3199 1215.31 3211.31 1203 3226.5 1203 3241.69 1203 3254 1215.31 3254 1230.5Z" fill="#007E94" fill-rule="evenodd"/><text fill="#151D26" font-family="Amazon Ember,Amazon Ember_MSFontService,sans-serif" font-weight="400" font-size="64" transform="matrix(1 0 0 1 3262.6 1252)">Manual</text><path d="M605.5 1374.5 3389.5 1374.5" stroke="#007E94" stroke-width="6.875" stroke-miterlimit="8" stroke-dasharray="25.7812 25.7812" fill="none" fill-rule="evenodd"/><text fill="#007E94" font-family="Amazon Ember,Amazon Ember_MSFontService,sans-serif" font-weight="400" font-size="64" transform="matrix(1 0 0 1 1268.71 1434)">Continuous Automation &amp; Compliance Monitoring</text></g></svg>