<svg width="325" height="380" xmlns="http://www.w3.org/2000/svg" xmlns:xlink="http://www.w3.org/1999/xlink" xml:space="preserve" overflow="hidden"><g transform="translate(-3572 -1001)"><path d="M3849.17 1073.5C3857.71 1090.47 3862.5 1109.69 3862.5 1130.07 3862.5 1157.99 3856.14 1178.86 3841.67 1208.25 3840.69 1210.27 3835.34 1221.13 3833.8 1224.15 3830.66 1230.2 3827.16 1251.12 3836.74 1283.56L3842.03 1301.5" stroke="#232F3E" stroke-width="11.3436" stroke-linejoin="round" stroke-miterlimit="10" fill="none" fill-rule="evenodd"/><path d="M3729.91 1378.5 3707.02 1310C3706.17 1307.45 3703.78 1305.75 3701.11 1305.75 3701.11 1305.75 3650.95 1316.8 3635.58 1316.8 3620.22 1316.8 3607.78 1304.39 3607.78 1289.07L3607.78 1229.92C3607.78 1226.47 3604.99 1223.72 3601.56 1223.72L3585.88 1223.72C3581.25 1223.72 3577.5 1219.98 3577.5 1215.39 3577.5 1214.6 3577.61 1213.83 3577.84 1213.12L3578.58 1211.28 3607.32 1143.55C3607.61 1142.81 3607.75 1142.02 3607.75 1141.26L3607.75 1130.6C3607.75 1062.08 3663.5 1006.5 3732.18 1006.5L3738.46 1006.5C3778.88 1006.5 3814.78 1025.71 3837.5 1055.45" stroke="#232F3E" stroke-width="11.3436" stroke-linejoin="round" stroke-miterlimit="10" fill="none" fill-rule="evenodd"/><path d="M3750.4 1175.5 3688.5 1113.97 3707.38 1095.21 3750.4 1137.98 3872.63 1016.5 3891.5 1035.26 3750.4 1175.5Z" stroke="#232F3E" stroke-width="11.3436" stroke-linejoin="round" stroke-miterlimit="10" fill="none" fill-rule="evenodd"/></g></svg>