<svg width="557" height="557" xmlns="http://www.w3.org/2000/svg" xmlns:xlink="http://www.w3.org/1999/xlink" xml:space="preserve" overflow="hidden"><g transform="translate(-1504 -912)"><path d="M1545.5 1165.5C1575 1108.38 1689.7 1053.5 1784.31 1053.5 1878.91 1053.5 1988.93 1105.25 2020.5 1162.46" stroke="#232F3E" stroke-width="11.3436" stroke-linejoin="round" stroke-miterlimit="10" fill="none" fill-rule="evenodd"/><path d="M1890.5 1223.5C1890.5 1280.95 1843.92 1327.5 1786.5 1327.5 1729.08 1327.5 1682.5 1280.92 1682.5 1223.5 1682.5 1166.08 1729.08 1119.5 1786.5 1119.5 1843.92 1119.5 1890.5 1166.08 1890.5 1223.5Z" stroke="#232F3E" stroke-width="11.3436" stroke-linejoin="round" stroke-miterlimit="10" fill="none" fill-rule="evenodd"/><path d="M1833.65 1250.95C1813.58 1254.47 1797.06 1238.85 1795.37 1220.39 1793.67 1201.93 1804.59 1187.16 1821.67 1184.32L1821.78 1183.84C1813.58 1177.96 1803.49 1174.5 1792.6 1174.5 1764.94 1174.5 1742.5 1196.87 1742.5 1224.5 1742.5 1252.13 1764.92 1274.5 1792.6 1274.5 1810.11 1274.5 1825.53 1265.52 1834.5 1251.93L1833.63 1250.98Z" stroke="#232F3E" stroke-width="11.3436" stroke-linejoin="round" stroke-miterlimit="10" fill="none" fill-rule="evenodd"/><path d="M1581.64 1222.98C1611.14 1280 1689.96 1328.5 1784.56 1328.5 1879.15 1328.5 1958 1280.17 1987.33 1222.98L1987.5 1222.67C1958.17 1165.48 1879.38 1119.5 1784.56 1119.5 1689.74 1119.5 1611 1165.65 1581.5 1222.67L1581.67 1222.98Z" stroke="#232F3E" stroke-width="11.3436" stroke-linejoin="round" stroke-miterlimit="10" fill="none" fill-rule="evenodd"/></g></svg>