<svg width="420" height="428" xmlns="http://www.w3.org/2000/svg" xmlns:xlink="http://www.w3.org/1999/xlink" xml:space="preserve" overflow="hidden"><g transform="translate(-2584 -997)"><path d="M2915.54 1283.5 2988.28 1359.68C3001.91 1373.36 3001.91 1395.56 2988.28 1409.24L2988.28 1409.24C2974.66 1422.92 2952.56 1422.92 2938.94 1409.24L2867.5 1334.36" stroke="#232F3E" stroke-width="11.3436" stroke-linejoin="round" stroke-miterlimit="10" fill="none" fill-rule="evenodd"/><path d="M2890.5 1181C2890.5 1248.65 2835.88 1303.5 2768.5 1303.5 2701.12 1303.5 2646.5 1248.65 2646.5 1181 2646.5 1113.35 2701.12 1058.5 2768.5 1058.5 2835.88 1058.5 2890.5 1113.35 2890.5 1181Z" stroke="#232F3E" stroke-width="11.3436" stroke-linejoin="round" stroke-miterlimit="10" fill="none" fill-rule="evenodd"/><path d="M2947.5 1181.5C2947.5 1280.36 2867.36 1360.5 2768.5 1360.5 2669.64 1360.5 2589.5 1280.36 2589.5 1181.5 2589.5 1082.64 2669.64 1002.5 2768.5 1002.5 2867.36 1002.5 2947.5 1082.64 2947.5 1181.5Z" stroke="#232F3E" stroke-width="11.3436" stroke-linejoin="round" stroke-miterlimit="10" fill="none" fill-rule="evenodd"/></g></svg>