<svg width="390" height="339" xmlns="http://www.w3.org/2000/svg" xmlns:xlink="http://www.w3.org/1999/xlink" xml:space="preserve" overflow="hidden"><g transform="translate(-533 -1032)"><path d="M851.041 1220.43C801.363 1136.23 882.495 1273.74 750.094 1049.36 740.612 1033.55 715.375 1033.55 705.894 1049.36 541.697 1327.58 705.922 1049.3 541.726 1327.55 532.244 1343.37 544.877 1365.5 563.84 1365.5L892.176 1365.5C911.11 1365.5 923.743 1343.37 914.29 1327.55 908.158 1317.14 881.388 1270.64 881.388 1270.64" stroke="#232F3E" stroke-width="11.3436" stroke-linejoin="round" stroke-miterlimit="10" fill="none" fill-rule="evenodd"/><path d="M871.5 1254.5 859.5 1233.5" stroke="#232F3E" stroke-width="11.3436" stroke-linejoin="round" stroke-miterlimit="10" fill="none" fill-rule="evenodd"/><path d="M728.514 1328.5C722.549 1328.5 717.744 1326.6 714.041 1322.79 710.338 1318.98 708.5 1314.1 708.5 1308.1 708.5 1302.11 710.338 1297.25 714.041 1293.41 717.744 1289.61 722.549 1287.7 728.514 1287.7 734.479 1287.7 739.284 1289.61 742.959 1293.41 746.663 1297.22 748.5 1302.13 748.5 1308.1 748.5 1314.07 746.663 1318.98 742.959 1322.79 739.256 1326.6 734.45 1328.5 728.514 1328.5ZM715.906 1258.89 711.609 1109.53C716.952 1106.86 722.578 1105.5 728.542 1105.5 734.507 1105.5 740.133 1106.84 745.475 1109.53L741.178 1258.89 715.963 1258.89Z" stroke="#232F3E" stroke-width="11.3436" stroke-linejoin="round" stroke-miterlimit="10" fill="#F2F2F2" fill-rule="evenodd"/></g></svg>