<svg width="3218" height="1980" xmlns="http://www.w3.org/2000/svg" xmlns:xlink="http://www.w3.org/1999/xlink" xml:space="preserve" overflow="hidden"><defs><clipPath id="clip0"><rect x="591" y="407" width="3218" height="1980"/></clipPath></defs><g clip-path="url(#clip0)" transform="translate(-591 -407)"><path d="M591 407 2076 407 2076 1274 591 1274Z" fill="#004761" fill-rule="evenodd"/><text fill="#FFFFFF" font-family="Amazon Ember,Amazon Ember_MSFontService,sans-serif" font-weight="700" font-size="92" transform="matrix(1 0 0 1 831.016 531)">Regulatory Compliance</text><text fill="#FFFFFF" font-family="Amazon Ember,Amazon Ember_MSFontService,sans-serif" font-weight="400" font-size="83" transform="matrix(1 0 0 1 866.537 622)">Legal Framework Shields</text><path d="M1173.17 704 1493.83 704 1574 734.833 1574 858.167 1493.83 889 1173.17 889 1093 858.167 1093 734.833Z" stroke="#FFFFFF" stroke-width="6.1875" stroke-miterlimit="8" fill="#B8E7FF" fill-rule="evenodd"/><text fill="#151D26" font-family="Amazon Ember,Amazon Ember_MSFontService,sans-serif" font-weight="700" font-size="92" transform="matrix(1 0 0 1 1174.48 831)">SHIELD</text><text fill="#FFFFFF" font-family="Segoe UI Symbol,Segoe UI Symbol_MSFontService,sans-serif" font-weight="400" font-size="73" transform="matrix(1 0 0 1 937.578 1011)">✓</text><text fill="#FFFFFF" font-family="Amazon Ember,Amazon Ember_MSFontService,sans-serif" font-weight="400" font-size="73" transform="matrix(1 0 0 1 1012.06 1011)">Regulatory Standards</text><text fill="#FFFFFF" font-family="Segoe UI Symbol,Segoe UI Symbol_MSFontService,sans-serif" font-weight="400" font-size="73" transform="matrix(1 0 0 1 1002.6 1088)">✓</text><text fill="#FFFFFF" font-family="Amazon Ember,Amazon Ember_MSFontService,sans-serif" font-weight="400" font-size="73" transform="matrix(1 0 0 1 1077.08 1088)">Legal Compliance</text><text fill="#FFFFFF" font-family="Segoe UI Symbol,Segoe UI Symbol_MSFontService,sans-serif" font-weight="400" font-size="73" transform="matrix(1 0 0 1 965.937 1166)">✓</text><text fill="#FFFFFF" font-family="Amazon Ember,Amazon Ember_MSFontService,sans-serif" font-weight="400" font-size="73" transform="matrix(1 0 0 1 1040.42 1166)">Audit Requirements</text><path d="M2324 407 3809 407 3809 1274 2324 1274Z" fill="#007E94" fill-rule="evenodd"/><text fill="#FFFFFF" font-family="Amazon Ember,Amazon Ember_MSFontService,sans-serif" font-weight="700" font-size="92" transform="matrix(1 0 0 1 2637.42 531)">Security Monitoring</text><text fill="#FFFFFF" font-family="Amazon Ember,Amazon Ember_MSFontService,sans-serif" font-weight="400" font-size="83" transform="matrix(1 0 0 1 2585.86 622)">Threat Detection Systems</text><path d="M2872 686 3260 686 3260 871 2872 871Z" fill="#B8E7FF" fill-rule="evenodd"/><path d="M3091 732.5C3091 746.031 3080.03 757 3066.5 757 3052.97 757 3042 746.031 3042 732.5 3042 718.969 3052.97 708 3066.5 708 3080.03 708 3091 718.969 3091 732.5Z" fill="#151D26" fill-rule="evenodd"/><text fill="#151D26" font-family="Amazon Ember,Amazon Ember_MSFontService,sans-serif" font-weight="700" font-size="92" transform="matrix(1 0 0 1 2898.39 862)">DETECT</text><text fill="#FFFFFF" font-family="Segoe UI Symbol,Segoe UI Symbol_MSFontService,sans-serif" font-weight="400" font-size="73" transform="matrix(1 0 0 1 2749.14 1011)">✓</text><text fill="#FFFFFF" font-family="Amazon Ember,Amazon Ember_MSFontService,sans-serif" font-weight="400" font-size="73" transform="matrix(1 0 0 1 2823.62 1011)">Threat Detection</text><text fill="#FFFFFF" font-family="Segoe UI Symbol,Segoe UI Symbol_MSFontService,sans-serif" font-weight="400" font-size="73" transform="matrix(1 0 0 1 2788.1 1088)">✓</text><text fill="#FFFFFF" font-family="Amazon Ember,Amazon Ember_MSFontService,sans-serif" font-weight="400" font-size="73" transform="matrix(1 0 0 1 2862.58 1088)">Security Alerts</text><text fill="#FFFFFF" font-family="Segoe UI Symbol,Segoe UI Symbol_MSFontService,sans-serif" font-weight="400" font-size="73" transform="matrix(1 0 0 1 2727.08 1166)">✓</text><text fill="#FFFFFF" font-family="Amazon Ember,Amazon Ember_MSFontService,sans-serif" font-weight="400" font-size="73" transform="matrix(1 0 0 1 2801.56 1166)">Incident Response</text><path d="M591 1521 2076 1521 2076 2387 591 2387Z" fill="#B8E7FF" fill-rule="evenodd"/><text fill="#151D26" font-family="Amazon Ember,Amazon Ember_MSFontService,sans-serif" font-weight="700" font-size="92" transform="matrix(1 0 0 1 931.849 1645)">Operational Policy</text><text fill="#151D26" font-family="Amazon Ember,Amazon Ember_MSFontService,sans-serif" font-weight="400" font-size="83" transform="matrix(1 0 0 1 1024.37 1736)">Process Controls</text><path d="M1272 1800 1396 1800 1396 1861 1272 1861Z" fill="#007E94" fill-rule="evenodd"/><path d="M1272 1892 1396 1892 1396 1954 1272 1954Z" fill="#004761" fill-rule="evenodd"/><path d="M1272 1985 1396 1985 1396 2047 1272 2047Z" fill="#151D26" fill-rule="evenodd"/><text fill="#151D26" font-family="Segoe UI Symbol,Segoe UI Symbol_MSFontService,sans-serif" font-weight="400" font-size="73" transform="matrix(1 0 0 1 994.01 2125)">✓</text><text fill="#151D26" font-family="Amazon Ember,Amazon Ember_MSFontService,sans-serif" font-weight="400" font-size="73" transform="matrix(1 0 0 1 1068.49 2125)">Process Standards</text><text fill="#151D26" font-family="Segoe UI Symbol,Segoe UI Symbol_MSFontService,sans-serif" font-weight="400" font-size="73" transform="matrix(1 0 0 1 1025.52 2202)">✓</text><text fill="#151D26" font-family="Amazon Ember,Amazon Ember_MSFontService,sans-serif" font-weight="400" font-size="73" transform="matrix(1 0 0 1 1100 2202)">Quality Controls</text><text fill="#151D26" font-family="Segoe UI Symbol,Segoe UI Symbol_MSFontService,sans-serif" font-weight="400" font-size="73" transform="matrix(1 0 0 1 952.76 2279)">✓</text><text fill="#151D26" font-family="Amazon Ember,Amazon Ember_MSFontService,sans-serif" font-weight="400" font-size="73" transform="matrix(1 0 0 1 1027.24 2279)">Performance Metrics</text><path d="M2324 1521 3809 1521 3809 2387 2324 2387Z" fill="#AEFFA8" fill-rule="evenodd"/><text fill="#151D26" font-family="Amazon Ember,Amazon Ember_MSFontService,sans-serif" font-weight="700" font-size="92" transform="matrix(1 0 0 1 2698.44 1645)">Data Governance</text><text fill="#151D26" font-family="Amazon Ember,Amazon Ember_MSFontService,sans-serif" font-weight="400" font-size="83" transform="matrix(1 0 0 1 2542.6 1736)">Privacy Protection Elements</text><path d="M3035 1800 3097 1800 3097 1892 3035 1892Z" fill="#004761" fill-rule="evenodd"/><path d="M3091 1815C3091 1828.81 3080.03 1840 3066.5 1840 3052.97 1840 3042 1828.81 3042 1815 3042 1801.19 3052.97 1790 3066.5 1790 3080.03 1790 3091 1801.19 3091 1815Z" stroke="#004761" stroke-width="6.1875" stroke-miterlimit="8" fill="none" fill-rule="evenodd"/><text fill="#151D26" font-family="Amazon Ember,Amazon Ember_MSFontService,sans-serif" font-weight="700" font-size="92" transform="matrix(1 0 0 1 2896.09 1991)">SECURE</text><text fill="#151D26" font-family="Segoe UI Symbol,Segoe UI Symbol_MSFontService,sans-serif" font-weight="400" font-size="73" transform="matrix(1 0 0 1 2823.05 2125)">✓</text><text fill="#151D26" font-family="Amazon Ember,Amazon Ember_MSFontService,sans-serif" font-weight="400" font-size="73" transform="matrix(1 0 0 1 2897.53 2125)">Data Privacy</text><text fill="#151D26" font-family="Segoe UI Symbol,Segoe UI Symbol_MSFontService,sans-serif" font-weight="400" font-size="73" transform="matrix(1 0 0 1 2770.91 2202)">✓</text><text fill="#151D26" font-family="Amazon Ember,Amazon Ember_MSFontService,sans-serif" font-weight="400" font-size="73" transform="matrix(1 0 0 1 2845.39 2202)">Access Controls</text><text fill="#151D26" font-family="Segoe UI Symbol,Segoe UI Symbol_MSFontService,sans-serif" font-weight="400" font-size="73" transform="matrix(1 0 0 1 2723.36 2279)">✓</text><text fill="#151D26" font-family="Amazon Ember,Amazon Ember_MSFontService,sans-serif" font-weight="400" font-size="73" transform="matrix(1 0 0 1 2797.84 2279)">Data Classification</text><path d="M2076 841 2324 841" stroke="#151D26" stroke-width="6.1875" stroke-miterlimit="8" fill="none" fill-rule="evenodd"/><path d="M1334 1274 1334 1521" stroke="#151D26" stroke-width="6.1875" stroke-miterlimit="8" fill="none" fill-rule="evenodd"/><path d="M3066 1274 3066 1521" stroke="#151D26" stroke-width="6.1875" stroke-miterlimit="8" fill="none" fill-rule="evenodd"/><path d="M2076 1954 2324 1954" stroke="#151D26" stroke-width="6.1875" stroke-miterlimit="8" fill="none" fill-rule="evenodd"/></g></svg>