<svg width="3747" height="733" xmlns="http://www.w3.org/2000/svg" xmlns:xlink="http://www.w3.org/1999/xlink" xml:space="preserve" overflow="hidden"><g transform="translate(-309 -894)"><path d="M309 894 1066 894 1066 1306 309 1306Z" fill="#B8E7FF" fill-rule="evenodd"/><text fill="#151D26" font-family="Amazon Ember,Amazon Ember_MSFontService,sans-serif" font-weight="700" font-size="55" transform="matrix(1 0 0 1 605.467 977)">Step 1</text><text fill="#151D26" font-family="Amazon Ember,Amazon Ember_MSFontService,sans-serif" font-weight="400" font-size="55" transform="matrix(1 0 0 1 490.407 1063)">Length &amp; Scope</text><text fill="#151D26" font-family="Amazon Ember,Amazon Ember_MSFontService,sans-serif" font-weight="400" font-size="55" transform="matrix(1 0 0 1 564.052 1149)">Definition</text><path d="M344 1203 1031 1203 1031 1272 344 1272Z" fill="#007E94" fill-rule="evenodd"/><text fill="#FFFFFF" font-family="Amazon Ember,Amazon Ember_MSFontService,sans-serif" font-weight="400" font-size="55" transform="matrix(1 0 0 1 427.762 1252)">Constraint Indicators</text><path d="M1066.5 1100.5 1238.5 1100.5" stroke="#151D26" stroke-width="6.875" stroke-miterlimit="8" fill="none" fill-rule="evenodd"/><path d="M1238 1083 1272 1100 1238 1117Z" fill="#151D26" fill-rule="evenodd"/><path d="M1306 894 2063 894 2063 1306 1306 1306Z" fill="#AEFFA8" fill-rule="evenodd"/><text fill="#151D26" font-family="Amazon Ember,Amazon Ember_MSFontService,sans-serif" font-weight="700" font-size="55" transform="matrix(1 0 0 1 1602.34 977)">Step 2</text><text fill="#151D26" font-family="Amazon Ember,Amazon Ember_MSFontService,sans-serif" font-weight="400" font-size="55" transform="matrix(1 0 0 1 1525.84 1063)">Style &amp; Tone</text><text fill="#151D26" font-family="Amazon Ember,Amazon Ember_MSFontService,sans-serif" font-weight="400" font-size="55" transform="matrix(1 0 0 1 1524.27 1149)">Specification</text><path d="M1341 1203 2028 1203 2028 1272 1341 1272Z" fill="#007E94" fill-rule="evenodd"/><text fill="#FFFFFF" font-family="Amazon Ember,Amazon Ember_MSFontService,sans-serif" font-weight="400" font-size="55" transform="matrix(1 0 0 1 1424.64 1252)">Constraint Indicators</text><path d="M2063.5 1100.5 2234.5 1100.5" stroke="#151D26" stroke-width="6.875" stroke-miterlimit="8" fill="none" fill-rule="evenodd"/><path d="M2234 1083 2269 1100 2234 1117Z" fill="#151D26" fill-rule="evenodd"/><path d="M2303 894 3059 894 3059 1306 2303 1306Z" fill="#CCFFE9" fill-rule="evenodd"/><text fill="#151D26" font-family="Amazon Ember,Amazon Ember_MSFontService,sans-serif" font-weight="700" font-size="55" transform="matrix(1 0 0 1 2599.22 977)">Step 3</text><text fill="#151D26" font-family="Amazon Ember,Amazon Ember_MSFontService,sans-serif" font-weight="400" font-size="55" transform="matrix(1 0 0 1 2452.72 1063)">Content Boundary</text><text fill="#151D26" font-family="Amazon Ember,Amazon Ember_MSFontService,sans-serif" font-weight="400" font-size="55" transform="matrix(1 0 0 1 2503.93 1149)">Establishment</text><path d="M2338 1203 3025 1203 3025 1272 2338 1272Z" fill="#007E94" fill-rule="evenodd"/><text fill="#FFFFFF" font-family="Amazon Ember,Amazon Ember_MSFontService,sans-serif" font-weight="400" font-size="55" transform="matrix(1 0 0 1 2421.51 1252)">Constraint Indicators</text><path d="M3059.5 1100.5 3231.5 1100.5" stroke="#151D26" stroke-width="6.875" stroke-miterlimit="8" fill="none" fill-rule="evenodd"/><path d="M3231 1083 3266 1100 3231 1117Z" fill="#151D26" fill-rule="evenodd"/><path d="M3300 894 4056 894 4056 1306 3300 1306Z" fill="#004761" fill-rule="evenodd"/><text fill="#FFFFFF" font-family="Amazon Ember,Amazon Ember_MSFontService,sans-serif" font-weight="700" font-size="55" transform="matrix(1 0 0 1 3596.09 977)">Step 4</text><text fill="#FFFFFF" font-family="Amazon Ember,Amazon Ember_MSFontService,sans-serif" font-weight="400" font-size="55" transform="matrix(1 0 0 1 3427.27 1063)">Validation Feedback</text><text fill="#FFFFFF" font-family="Amazon Ember,Amazon Ember_MSFontService,sans-serif" font-weight="400" font-size="55" transform="matrix(1 0 0 1 3477.29 1149)">Implementation</text><path d="M3334 1203 4022 1203 4022 1272 3334 1272Z" fill="#B8E7FF" fill-rule="evenodd"/><text fill="#151D26" font-family="Amazon Ember,Amazon Ember_MSFontService,sans-serif" font-weight="400" font-size="55" transform="matrix(1 0 0 1 3439.56 1252)">Validation Controls</text><path d="M3678.5 1375.5 3678.5 1513.5" stroke="#151D26" stroke-width="6.875" stroke-miterlimit="8" fill="none" fill-rule="evenodd"/><path d="M3678.5 1513.5 688.5 1513.5" stroke="#151D26" stroke-width="6.875" stroke-miterlimit="8" stroke-dasharray="25.7812 25.7812" fill="none" fill-rule="evenodd"/><path d="M688.5 1513.5 688.5 1375.5" stroke="#151D26" stroke-width="6.875" stroke-miterlimit="8" fill="none" fill-rule="evenodd"/><path d="M670 1375 687.5 1341 705 1375Z" fill="#151D26" fill-rule="evenodd"/><text fill="#151D26" font-family="Amazon Ember,Amazon Ember_MSFontService,sans-serif" font-weight="400" font-size="55" transform="matrix(1 0 0 1 1879.35 1579)">Validation Feedback Loop</text></g></svg>