<svg width="4193" height="1394" xmlns="http://www.w3.org/2000/svg" xmlns:xlink="http://www.w3.org/1999/xlink" xml:space="preserve" overflow="hidden"><defs><clipPath id="clip0"><rect x="165" y="578" width="4193" height="1394"/></clipPath></defs><g clip-path="url(#clip0)" transform="translate(-165 -578)"><path d="M165 578 1382 578 1382 1247 165 1247Z" fill="#004761" fill-rule="evenodd"/><text fill="#FFFFFF" font-family="Amazon Ember,Amazon Ember_MSFontService,sans-serif" font-weight="700" font-size="73" transform="matrix(1 0 0 1 495.481 684)">Domain Context</text><text fill="#FFFFFF" font-family="Amazon Ember,Amazon Ember_MSFontService,sans-serif" font-weight="400" font-size="55" transform="matrix(1 0 0 1 487.747 766)">Knowledge Boundaries</text><path d="M217.5 825.5 1331.5 825.5 1331.5 1197.5 217.5 1197.5Z" stroke="#B8E7FF" stroke-width="9.28107" stroke-miterlimit="8" stroke-dasharray="69.608 34.804" fill="none" fill-rule="evenodd"/><text fill="#B8E7FF" font-family="Amazon Ember,Amazon Ember_MSFontService,sans-serif" font-weight="400" font-size="55" transform="matrix(1 0 0 1 590.013 939)">Subject Matter</text><text fill="#B8E7FF" font-family="Amazon Ember,Amazon Ember_MSFontService,sans-serif" font-weight="400" font-size="55" transform="matrix(1 0 0 1 587.434 1032)">Expertise Level</text><text fill="#B8E7FF" font-family="Amazon Ember,Amazon Ember_MSFontService,sans-serif" font-weight="400" font-size="55" transform="matrix(1 0 0 1 631.263 1125)">Field Scope</text><path d="M1136 1303 2353 1303 2353 1972 1136 1972Z" fill="#007E94" fill-rule="evenodd"/><text fill="#FFFFFF" font-family="Amazon Ember,Amazon Ember_MSFontService,sans-serif" font-weight="700" font-size="73" transform="matrix(1 0 0 1 1333.72 1410)">Background Knowledge</text><text fill="#FFFFFF" font-family="Amazon Ember,Amazon Ember_MSFontService,sans-serif" font-weight="400" font-size="55" transform="matrix(1 0 0 1 1445.16 1492)">Information Foundation</text><path d="M1187.5 1551.5 2301.5 1551.5 2301.5 1922.5 1187.5 1922.5Z" stroke="#CCFFE9" stroke-width="9.28107" stroke-miterlimit="8" fill="none" fill-rule="evenodd"/><text fill="#CCFFE9" font-family="Amazon Ember,Amazon Ember_MSFontService,sans-serif" font-weight="400" font-size="55" transform="matrix(1 0 0 1 1579.22 1657)">Prior Context</text><text fill="#CCFFE9" font-family="Amazon Ember,Amazon Ember_MSFontService,sans-serif" font-weight="400" font-size="55" transform="matrix(1 0 0 1 1584.95 1750)">Assumptions</text><text fill="#CCFFE9" font-family="Amazon Ember,Amazon Ember_MSFontService,sans-serif" font-weight="400" font-size="55" transform="matrix(1 0 0 1 1583.23 1843)">Prerequisites</text><path d="M2164 578 3391 578 3391 1247 2164 1247Z" fill="#B8E7FF" fill-rule="evenodd"/><rect x="2335" y="600" width="884" height="122" fill="#B8E7FF"/><text fill="#151D26" font-family="Amazon Ember,Amazon Ember_MSFontService,sans-serif" font-weight="700" font-size="73" transform="matrix(1 0 0 1 2372.72 684)">Scenario Establishment</text><rect x="2458" y="699" width="638" height="100" fill="#B8E7FF"/><text fill="#151D26" font-family="Amazon Ember,Amazon Ember_MSFontService,sans-serif" font-weight="400" font-size="55" transform="matrix(1 0 0 1 2494.18 766)">Situational Framework</text><path d="M2592.5 1011.5C2592.5 1114.23 2509.23 1197.5 2406.5 1197.5 2303.78 1197.5 2220.5 1114.23 2220.5 1011.5 2220.5 908.775 2303.78 825.5 2406.5 825.5 2509.23 825.5 2592.5 908.775 2592.5 1011.5Z" stroke="#004761" stroke-width="9.28107" stroke-miterlimit="8" fill="#B8E7FF" fill-rule="evenodd"/><rect x="2261" y="962" width="290" height="99.9997" fill="#B8E7FF"/><text fill="#151D26" font-family="Amazon Ember,Amazon Ember_MSFontService,sans-serif" font-weight="400" font-size="55" transform="matrix(1 0 0 1 2295.38 1029)">Use Case</text><path d="M2963.5 1011.5C2963.5 1114.23 2880.45 1197.5 2778 1197.5 2675.55 1197.5 2592.5 1114.23 2592.5 1011.5 2592.5 908.775 2675.55 825.5 2778 825.5 2880.45 825.5 2963.5 908.775 2963.5 1011.5Z" stroke="#004761" stroke-width="9.28107" stroke-miterlimit="8" fill="#B8E7FF" fill-rule="evenodd"/><rect x="2645" y="962" width="264" height="99.9997" fill="#B8E7FF"/><text fill="#151D26" font-family="Amazon Ember,Amazon Ember_MSFontService,sans-serif" font-weight="400" font-size="55" transform="matrix(1 0 0 1 2679.52 1029)">Context</text><path d="M3334.5 1011.5C3334.5 1114.23 3251.45 1197.5 3149 1197.5 3046.55 1197.5 2963.5 1114.23 2963.5 1011.5 2963.5 908.775 3046.55 825.5 3149 825.5 3251.45 825.5 3334.5 908.775 3334.5 1011.5Z" stroke="#004761" stroke-width="9.28107" stroke-miterlimit="8" fill="#B8E7FF" fill-rule="evenodd"/><rect x="3045" y="962" width="206" height="99.9997" fill="#B8E7FF"/><text fill="#151D26" font-family="Amazon Ember,Amazon Ember_MSFontService,sans-serif" font-weight="400" font-size="55" transform="matrix(1 0 0 1 3079.41 1029)">Goals</text><path d="M3138 1303 4358 1303 4358 1972 3138 1972Z" fill="#AEFFA8" fill-rule="evenodd"/><text fill="#151D26" font-family="Amazon Ember,Amazon Ember_MSFontService,sans-serif" font-weight="700" font-size="73" transform="matrix(1 0 0 1 3333.85 1410)">Constraint Specification</text><text fill="#151D26" font-family="Amazon Ember,Amazon Ember_MSFontService,sans-serif" font-weight="400" font-size="55" transform="matrix(1 0 0 1 3483.38 1492)">Response Boundaries</text><path d="M3439.33 1595.5 4057.67 1595.5 4119.5 1751 4057.67 1906.5 3439.33 1906.5 3377.5 1751Z" stroke="#007E94" stroke-width="9.28107" stroke-miterlimit="8" fill="none" fill-rule="evenodd"/><text fill="#151D26" font-family="Amazon Ember,Amazon Ember_MSFontService,sans-serif" font-weight="400" font-size="55" transform="matrix(1 0 0 1 3477.08 1677)">Format Requirements</text><text fill="#151D26" font-family="Amazon Ember,Amazon Ember_MSFontService,sans-serif" font-weight="400" font-size="55" transform="matrix(1 0 0 1 3575.05 1770)">Output Limits</text><text fill="#151D26" font-family="Amazon Ember,Amazon Ember_MSFontService,sans-serif" font-weight="400" font-size="55" transform="matrix(1 0 0 1 3548.41 1863)">Style Guidelines</text></g></svg>