<svg width="3957" height="884" xmlns="http://www.w3.org/2000/svg" xmlns:xlink="http://www.w3.org/1999/xlink" xml:space="preserve" overflow="hidden"><defs><clipPath id="clip0"><rect x="228" y="602" width="3957" height="884"/></clipPath></defs><g clip-path="url(#clip0)" transform="translate(-228 -602)"><path d="M1488.36 607C1504.18 607 1517 615.199 1517 625.313L1517 1467.69C1517 1477.8 1504.18 1486 1488.36 1486L256.644 1486C240.824 1486 228 1477.8 228 1467.69L228 625.313C228 615.199 240.824 607 256.644 607Z" fill="#F1F3F3" fill-rule="evenodd"/><text fill="#151D26" font-family="Amazon Ember,Amazon Ember_MSFontService,sans-serif" font-weight="700" font-size="73" transform="matrix(1 0 0 1 531.399 740)">Canary Deployment</text><path d="M372 836 715 836 715 1008 372 1008Z" fill="#004761" fill-rule="evenodd"/><text fill="#FFFFFF" font-family="Amazon Ember,Amazon Ember_MSFontService,sans-serif" font-weight="400" font-size="50" transform="matrix(1 0 0 1 417.388 939)">Production</text><path d="M887 836 1231 836 1231 1008 887 1008Z" fill="#007E94" fill-rule="evenodd"/><text fill="#FFFFFF" font-family="Amazon Ember,Amazon Ember_MSFontService,sans-serif" font-weight="400" font-size="50" transform="matrix(1 0 0 1 935.019 939)">Canary 5%</text><path d="M543 1006 543 1121" stroke="#151D26" stroke-width="5.72917" stroke-miterlimit="8" fill="none" fill-rule="evenodd"/><path d="M529 1107 543.5 1135 558 1107Z" fill="#151D26" fill-rule="evenodd"/><text fill="#151D26" font-family="Amazon Ember,Amazon Ember_MSFontService,sans-serif" font-weight="400" font-size="64" transform="matrix(1 0 0 1 372.701 1222)">95% Traffic</text><path d="M1059 1006 1059 1121" stroke="#151D26" stroke-width="5.72917" stroke-miterlimit="8" fill="none" fill-rule="evenodd"/><path d="M1045 1107 1059 1135 1073 1107Z" fill="#151D26" fill-rule="evenodd"/><text fill="#151D26" font-family="Amazon Ember,Amazon Ember_MSFontService,sans-serif" font-weight="400" font-size="64" transform="matrix(1 0 0 1 907.232 1222)">5% Traffic</text><path d="M543 1322 1059 1322" stroke="#151D26" stroke-width="5.72917" stroke-miterlimit="8" fill="none" fill-rule="evenodd"/><path d="M1030 1307 1059 1321.5 1030 1336Z" fill="#151D26" fill-rule="evenodd"/><text fill="#151D26" font-family="Amazon Ember,Amazon Ember_MSFontService,sans-serif" font-weight="400" font-size="50" transform="matrix(1 0 0 1 610.748 1396)">Gradual Increase</text><path d="M2816.33 607C2832.17 607 2845 615.199 2845 625.313L2845 1467.69C2845 1477.8 2832.17 1486 2816.33 1486L1583.67 1486C1567.83 1486 1555 1477.8 1555 1467.69L1555 625.313C1555 615.199 1567.83 607 1583.67 607Z" fill="#F2F2F2" fill-rule="evenodd"/><text fill="#151D26" font-family="Amazon Ember,Amazon Ember_MSFontService,sans-serif" font-weight="700" font-size="73" transform="matrix(1 0 0 1 1783.78 740)">Blue</text><text fill="#151D26" font-family="Amazon Ember,Amazon Ember_MSFontService,sans-serif" font-weight="700" font-size="73" transform="matrix(1 0 0 1 1937.89 740)">-</text><text fill="#151D26" font-family="Amazon Ember,Amazon Ember_MSFontService,sans-serif" font-weight="700" font-size="73" transform="matrix(1 0 0 1 1967.11 740)">Green Deployment</text><path d="M1590 836 2162 836 2162 1180 1590 1180Z" fill="#004761" fill-rule="evenodd"/><text fill="#FFFFFF" font-family="Amazon Ember,Amazon Ember_MSFontService,sans-serif" font-weight="400" font-size="50" transform="matrix(1 0 0 1 1671.2 953)">Blue Environment</text><text fill="#FFFFFF" font-family="Amazon Ember,Amazon Ember_MSFontService,sans-serif" font-weight="400" font-size="50" transform="matrix(1 0 0 1 1774.04 1011)">(Current)</text><text fill="#FFFFFF" font-family="Amazon Ember,Amazon Ember_MSFontService,sans-serif" font-weight="400" font-size="50" transform="matrix(1 0 0 1 1727.06 1068)">100% Traffic</text><path d="M2249 836 2821 836 2821 1180 2249 1180Z" fill="#007E94" fill-rule="evenodd"/><text fill="#FFFFFF" font-family="Amazon Ember,Amazon Ember_MSFontService,sans-serif" font-weight="400" font-size="50" transform="matrix(1 0 0 1 2312 953)">Green Environment</text><text fill="#FFFFFF" font-family="Amazon Ember,Amazon Ember_MSFontService,sans-serif" font-weight="400" font-size="50" transform="matrix(1 0 0 1 2468.7 1011)">(New)</text><text fill="#FFFFFF" font-family="Amazon Ember,Amazon Ember_MSFontService,sans-serif" font-weight="400" font-size="50" transform="matrix(1 0 0 1 2415.7 1068)">0% Traffic</text><path d="M1876 1307 2535 1307" stroke="#151D26" stroke-width="5.72917" stroke-miterlimit="8" fill="none" fill-rule="evenodd"/><path d="M2507 1293 2535 1307.5 2507 1322Z" fill="#151D26" fill-rule="evenodd"/><text fill="#151D26" font-family="Amazon Ember,Amazon Ember_MSFontService,sans-serif" font-weight="400" font-size="50" transform="matrix(1 0 0 1 2042.45 1381)">Instant Switch</text><path d="M4156.36 602C4172.18 602 4185 610.199 4185 620.312L4185 1462.69C4185 1472.8 4172.18 1481 4156.36 1481L2924.64 1481C2908.82 1481 2896 1472.8 2896 1462.69L2896 620.312C2896 610.199 2908.82 602 2924.64 602Z" fill="#F1F3F3" fill-rule="evenodd"/><text fill="#151D26" font-family="Amazon Ember,Amazon Ember_MSFontService,sans-serif" font-weight="700" font-size="73" transform="matrix(1 0 0 1 3205.19 735)">Progressive Rollout</text><path d="M2982 925 3211 925 3211 1097 2982 1097Z" fill="#004761" fill-rule="evenodd"/><text fill="#FFFFFF" font-family="Amazon Ember,Amazon Ember_MSFontService,sans-serif" font-weight="400" font-size="50" transform="matrix(1 0 0 1 3042.98 1028)">25%</text><path d="M3286 925 3515 925 3515 1097 3286 1097Z" fill="#007E94" fill-rule="evenodd"/><text fill="#FFFFFF" font-family="Amazon Ember,Amazon Ember_MSFontService,sans-serif" font-weight="400" font-size="50" transform="matrix(1 0 0 1 3346.62 1028)">50%</text><path d="M3589 925 3818 925 3818 1097 3589 1097Z" fill="#007E94" fill-rule="evenodd"/><text fill="#FFFFFF" font-family="Amazon Ember,Amazon Ember_MSFontService,sans-serif" font-weight="400" font-size="50" transform="matrix(1 0 0 1 3650.27 1028)">75%</text><path d="M3893 925 4122 925 4122 1097 3893 1097Z" fill="#007E94" fill-rule="evenodd"/><text fill="#FFFFFF" font-family="Amazon Ember,Amazon Ember_MSFontService,sans-serif" font-weight="400" font-size="50" transform="matrix(1 0 0 1 3939.02 1028)">100%</text><path d="M3240 1011 3268 1011" stroke="#151D26" stroke-width="5.72917" stroke-miterlimit="8" fill="none" fill-rule="evenodd"/><path d="M3254 997 3283 1011 3254 1025Z" fill="#151D26" fill-rule="evenodd"/><path d="M3543 1011 3572 1011" stroke="#151D26" stroke-width="5.72917" stroke-miterlimit="8" fill="none" fill-rule="evenodd"/><path d="M3558 997 3586 1011 3558 1025Z" fill="#151D26" fill-rule="evenodd"/><path d="M3847 1011 3876 1011" stroke="#151D26" stroke-width="5.72917" stroke-miterlimit="8" fill="none" fill-rule="evenodd"/><path d="M3861 997 3890 1011 3861 1025Z" fill="#151D26" fill-rule="evenodd"/><text fill="#151D26" font-family="Amazon Ember,Amazon Ember_MSFontService,sans-serif" font-weight="400" font-size="50" transform="matrix(1 0 0 1 3218.81 1344)">Incremental Traffic Increase</text></g></svg>