<svg width="3032" height="1383" xmlns="http://www.w3.org/2000/svg" xmlns:xlink="http://www.w3.org/1999/xlink" xml:space="preserve" overflow="hidden"><defs><clipPath id="clip0"><rect x="537" y="793" width="3032" height="1383"/></clipPath></defs><g clip-path="url(#clip0)" transform="translate(-537 -793)"><path d="M537 793 3569 793 3569 997 537 997Z" fill="#404040" fill-rule="evenodd"/><text fill="#FFFFFF" font-family="Amazon Ember,Amazon Ember_MSFontService,sans-serif" font-weight="700" font-size="62" transform="matrix(1 0 0 1 1666.37 874)">Comprehensive </text><text fill="#FFFFFF" font-family="Amazon Ember,Amazon Ember_MSFontService,sans-serif" font-weight="700" font-size="64" transform="matrix(1 0 0 1 2131.01 874)">Taxonomy</text><text fill="#FFFFFF" font-family="Amazon Ember,Amazon Ember_MSFontService,sans-serif" font-weight="400" font-size="55" transform="matrix(1 0 0 1 1676.16 948)">Error Classification Framework</text><path d="M537 1054 1094 1054 1094 1363 537 1363Z" fill="#004761" fill-rule="evenodd"/><text fill="#FFFFFF" font-family="Amazon Ember,Amazon Ember_MSFontService,sans-serif" font-weight="700" font-size="55" transform="matrix(1 0 0 1 654.604 1193)">Factual Errors</text><text fill="#FFFFFF" font-family="Amazon Ember,Amazon Ember_MSFontService,sans-serif" font-weight="400" font-size="55" transform="matrix(1 0 0 1 648.417 1255)">Inaccurate Info</text><path d="M1156 1054 1713 1054 1713 1363 1156 1363Z" fill="#004761" fill-rule="evenodd"/><text fill="#FFFFFF" font-family="Amazon Ember,Amazon Ember_MSFontService,sans-serif" font-weight="700" font-size="55" transform="matrix(1 0 0 1 1226.55 1193)">Format Violations</text><text fill="#FFFFFF" font-family="Amazon Ember,Amazon Ember_MSFontService,sans-serif" font-weight="400" font-size="55" transform="matrix(1 0 0 1 1257.42 1255)">Structure Issues</text><path d="M1775 1054 2332 1054 2332 1363 1775 1363Z" fill="#004761" fill-rule="evenodd"/><text fill="#FFFFFF" font-family="Amazon Ember,Amazon Ember_MSFontService,sans-serif" font-weight="700" font-size="55" transform="matrix(1 0 0 1 1921.04 1193)">Tone Issues</text><text fill="#FFFFFF" font-family="Amazon Ember,Amazon Ember_MSFontService,sans-serif" font-weight="400" font-size="55" transform="matrix(1 0 0 1 1885.72 1255)">Inconsistencies</text><path d="M2394 1054 2951 1054 2951 1363 2394 1363Z" fill="#004761" fill-rule="evenodd"/><text fill="#FFFFFF" font-family="Amazon Ember,Amazon Ember_MSFontService,sans-serif" font-weight="700" font-size="55" transform="matrix(1 0 0 1 2540.75 1193)">Incomplete</text><text fill="#FFFFFF" font-family="Amazon Ember,Amazon Ember_MSFontService,sans-serif" font-weight="400" font-size="55" transform="matrix(1 0 0 1 2555.43 1255)">Responses</text><path d="M3012 1054 3569 1054 3569 1363 3012 1363Z" fill="#004761" fill-rule="evenodd"/><text fill="#FFFFFF" font-family="Amazon Ember,Amazon Ember_MSFontService,sans-serif" font-weight="700" font-size="55" transform="matrix(1 0 0 1 3130.05 1193)">Inappropriate</text><text fill="#FFFFFF" font-family="Amazon Ember,Amazon Ember_MSFontService,sans-serif" font-weight="400" font-size="55" transform="matrix(1 0 0 1 3200.39 1255)">Content</text><path d="M816 1363 816 1518" stroke="#151D26" stroke-width="6.1875" stroke-miterlimit="8" fill="none" fill-rule="evenodd"/><path d="M800 1502 815.5 1533 831 1502Z" fill="#151D26" fill-rule="evenodd"/><path d="M1435 1363 1435 1518" stroke="#151D26" stroke-width="6.1875" stroke-miterlimit="8" fill="none" fill-rule="evenodd"/><path d="M1419 1502 1434.5 1533 1450 1502Z" fill="#151D26" fill-rule="evenodd"/><path d="M2053 1363 2053 1518" stroke="#151D26" stroke-width="6.1875" stroke-miterlimit="8" fill="none" fill-rule="evenodd"/><path d="M2038 1502 2053.5 1533 2069 1502Z" fill="#151D26" fill-rule="evenodd"/><path d="M2672 1363 2672 1518" stroke="#151D26" stroke-width="6.1875" stroke-miterlimit="8" fill="none" fill-rule="evenodd"/><path d="M2657 1502 2672.5 1533 2688 1502Z" fill="#151D26" fill-rule="evenodd"/><path d="M3291 1363 3291 1518" stroke="#151D26" stroke-width="6.1875" stroke-miterlimit="8" fill="none" fill-rule="evenodd"/><path d="M3275 1502 3290.5 1533 3306 1502Z" fill="#151D26" fill-rule="evenodd"/><path d="M537 1557 1094 1557 1094 1805 537 1805Z" fill="#007E94" fill-rule="evenodd"/><text fill="#FFFFFF" font-family="Amazon Ember,Amazon Ember_MSFontService,sans-serif" font-weight="700" font-size="55" transform="matrix(1 0 0 1 654.06 1660)">Fact Checking</text><text fill="#FFFFFF" font-family="Amazon Ember,Amazon Ember_MSFontService,sans-serif" font-weight="400" font-size="55" transform="matrix(1 0 0 1 687.794 1722)">Verification</text><path d="M1156 1557 1713 1557 1713 1805 1156 1805Z" fill="#007E94" fill-rule="evenodd"/><text fill="#FFFFFF" font-family="Amazon Ember,Amazon Ember_MSFontService,sans-serif" font-weight="700" font-size="55" transform="matrix(1 0 0 1 1325.16 1660)">Template</text><text fill="#FFFFFF" font-family="Amazon Ember,Amazon Ember_MSFontService,sans-serif" font-weight="400" font-size="55" transform="matrix(1 0 0 1 1256.43 1722)">Standardization</text><path d="M1775 1557 2332 1557 2332 1805 1775 1805Z" fill="#007E94" fill-rule="evenodd"/><text fill="#FFFFFF" font-family="Amazon Ember,Amazon Ember_MSFontService,sans-serif" font-weight="700" font-size="55" transform="matrix(1 0 0 1 1919.3 1660)">Style Guide</text><text fill="#FFFFFF" font-family="Amazon Ember,Amazon Ember_MSFontService,sans-serif" font-weight="400" font-size="55" transform="matrix(1 0 0 1 1962.22 1722)">Training</text><path d="M2394 1557 2951 1557 2951 1805 2394 1805Z" fill="#007E94" fill-rule="evenodd"/><text fill="#FFFFFF" font-family="Amazon Ember,Amazon Ember_MSFontService,sans-serif" font-weight="700" font-size="55" transform="matrix(1 0 0 1 2509.44 1660)">Completeness</text><text fill="#FFFFFF" font-family="Amazon Ember,Amazon Ember_MSFontService,sans-serif" font-weight="400" font-size="55" transform="matrix(1 0 0 1 2594.39 1722)">Checks</text><path d="M3012 1557 3569 1557 3569 1805 3012 1805Z" fill="#007E94" fill-rule="evenodd"/><text fill="#FFFFFF" font-family="Amazon Ember,Amazon Ember_MSFontService,sans-serif" font-weight="700" font-size="55" transform="matrix(1 0 0 1 3197.81 1660)">Content</text><text fill="#FFFFFF" font-family="Amazon Ember,Amazon Ember_MSFontService,sans-serif" font-weight="400" font-size="55" transform="matrix(1 0 0 1 3197.57 1722)">Filtering</text><path d="M692 1959 1311 1959 1311 2176 692 2176Z" fill="#B8E7FF" fill-rule="evenodd"/><text fill="#151D26" font-family="Amazon Ember,Amazon Ember_MSFontService,sans-serif" font-weight="700" font-size="55" transform="matrix(1 0 0 1 742.878 2040)">Pattern Recognition</text><text fill="#151D26" font-family="Amazon Ember,Amazon Ember_MSFontService,sans-serif" font-weight="400" font-size="55" transform="matrix(1 0 0 1 805.612 2101)">Error Clustering</text><path d="M2858 1959 3477 1959 3477 2176 2858 2176Z" fill="#AEFFA8" fill-rule="evenodd"/><text fill="#151D26" font-family="Amazon Ember,Amazon Ember_MSFontService,sans-serif" font-weight="700" font-size="55" transform="matrix(1 0 0 1 2912.51 2040)">Priority Assessment</text><text fill="#151D26" font-family="Amazon Ember,Amazon Ember_MSFontService,sans-serif" font-weight="400" font-size="55" transform="matrix(1 0 0 1 2972.96 2101)">Impact Analysis</text><path d="M1311 1805 1002 1959" stroke="#151D26" stroke-width="6.1875" stroke-miterlimit="8" stroke-dasharray="23.2031 23.2031" fill="none" fill-rule="evenodd"/><path d="M2858 1805 3167 1959" stroke="#151D26" stroke-width="6.1875" stroke-miterlimit="8" stroke-dasharray="23.2031 23.2031" fill="none" fill-rule="evenodd"/></g></svg>