<svg width="2412" height="1391" xmlns="http://www.w3.org/2000/svg" xmlns:xlink="http://www.w3.org/1999/xlink" xml:space="preserve" overflow="hidden"><defs><clipPath id="clip0"><rect x="896" y="660" width="2412" height="1391"/></clipPath></defs><g clip-path="url(#clip0)" transform="translate(-896 -660)"><path d="M1801 1284 2420 1284 2420 1593 1801 1593Z" fill="#151D26" fill-rule="evenodd"/><text fill="#FFFFFF" font-family="Amazon Ember,Amazon Ember_MSFontService,sans-serif" font-weight="700" font-size="64" transform="matrix(1 0 0 1 1941.51 1413)">Monitoring</text><text fill="#FFFFFF" font-family="Amazon Ember,Amazon Ember_MSFontService,sans-serif" font-weight="700" font-size="64" transform="matrix(1 0 0 1 2041.49 1490)">Core</text><path d="M1724 660 2498 660 2498 908 1724 908Z" fill="#004761" fill-rule="evenodd"/><text fill="#FFFFFF" font-family="Amazon Ember,Amazon Ember_MSFontService,sans-serif" font-weight="700" font-size="64" transform="matrix(1 0 0 1 1764.77 763)">Technical Performance</text><text fill="#FFFFFF" font-family="Amazon Ember,Amazon Ember_MSFontService,sans-serif" font-weight="700" font-size="64" transform="matrix(1 0 0 1 2001.1 840)">Metrics</text><path d="M2689 1284 3308 1284 3308 1593 2689 1593Z" fill="#007E94" fill-rule="evenodd"/><text fill="#FFFFFF" font-family="Amazon Ember,Amazon Ember_MSFontService,sans-serif" font-weight="700" font-size="64" transform="matrix(1 0 0 1 2757.04 1413)">Content Quality</text><text fill="#FFFFFF" font-family="Amazon Ember,Amazon Ember_MSFontService,sans-serif" font-weight="700" font-size="64" transform="matrix(1 0 0 1 2836.97 1490)">Evaluation</text><path d="M1724 1804 2498 1804 2498 2051 1724 2051Z" fill="#B8E7FF" fill-rule="evenodd"/><text fill="#151D26" font-family="Amazon Ember,Amazon Ember_MSFontService,sans-serif" font-weight="700" font-size="64" transform="matrix(1 0 0 1 1761.9 1902)">Behavioral Consistency</text><text fill="#151D26" font-family="Amazon Ember,Amazon Ember_MSFontService,sans-serif" font-weight="700" font-size="64" transform="matrix(1 0 0 1 1979.04 1979)">Tracking</text><path d="M896 1284 1515 1284 1515 1593 896 1593Z" fill="#AEFFA8" fill-rule="evenodd"/><text fill="#151D26" font-family="Amazon Ember,Amazon Ember_MSFontService,sans-serif" font-weight="700" font-size="64" transform="matrix(1 0 0 1 963.198 1413)">Business Impact</text><text fill="#151D26" font-family="Amazon Ember,Amazon Ember_MSFontService,sans-serif" font-weight="700" font-size="64" transform="matrix(1 0 0 1 999.578 1490)">Measurement</text><path d="M1037 799 1594 799 1594 1046 1037 1046Z" fill="#CCFFE9" fill-rule="evenodd"/><text fill="#151D26" font-family="Amazon Ember,Amazon Ember_MSFontService,sans-serif" font-weight="700" font-size="64" transform="matrix(1 0 0 1 1168.69 901)">Detection</text><text fill="#151D26" font-family="Amazon Ember,Amazon Ember_MSFontService,sans-serif" font-weight="700" font-size="64" transform="matrix(1 0 0 1 1130.3 979)">Mechanisms</text><path d="M2637 812 3194 812 3194 1059 2637 1059Z" fill="#CCFFE9" fill-rule="evenodd"/><text fill="#151D26" font-family="Amazon Ember,Amazon Ember_MSFontService,sans-serif" font-weight="700" font-size="64" transform="matrix(1 0 0 1 2726.98 915)">Degradation</text><text fill="#151D26" font-family="Amazon Ember,Amazon Ember_MSFontService,sans-serif" font-weight="700" font-size="64" transform="matrix(1 0 0 1 2826.38 992)">Alerts</text><path d="M2111 1292 2111 921" stroke="#151D26" stroke-width="6.1875" stroke-miterlimit="8" fill="none" fill-rule="evenodd"/><path d="M2450 1447 2681 1447" stroke="#151D26" stroke-width="6.1875" stroke-miterlimit="8" fill="none" fill-rule="evenodd"/><path d="M2111 1625 2111 1798" stroke="#151D26" stroke-width="6.1875" stroke-miterlimit="8" fill="none" fill-rule="evenodd"/><path d="M1758 1447 1527 1447" stroke="#151D26" stroke-width="6.1875" stroke-miterlimit="8" fill="none" fill-rule="evenodd"/><path d="M1589 896 1806 1453" stroke="#151D26" stroke-width="6.1875" stroke-miterlimit="8" stroke-dasharray="23.2031 23.2031" fill="none" fill-rule="evenodd"/><path d="M2637 949 2358 1506" stroke="#151D26" stroke-width="6.1875" stroke-miterlimit="8" stroke-dasharray="23.2031 23.2031" fill="none" fill-rule="evenodd"/><path d="M2110.5 1285 2126 1254 2095 1254Z" fill="#151D26" fill-rule="evenodd"/><path d="M2415 1451.5 2446 1467 2446 1436Z" fill="#151D26" fill-rule="evenodd"/><path d="M2110.5 1592 2095 1623 2126 1623Z" fill="#151D26" fill-rule="evenodd"/><path d="M1798 1451.5 1767 1436 1767 1467Z" fill="#151D26" fill-rule="evenodd"/></g></svg>