<svg width="1547" height="829" xmlns="http://www.w3.org/2000/svg" xmlns:xlink="http://www.w3.org/1999/xlink" xml:space="preserve" overflow="hidden"><defs><clipPath id="clip0"><rect x="498" y="1392" width="1547" height="829"/></clipPath></defs><g clip-path="url(#clip0)" transform="translate(-498 -1392)"><path d="M498 1392 2045 1392 2045 2221 498 2221Z" fill="#007E94" fill-rule="evenodd"/><text fill="#FFFFFF" font-family="Amazon Ember,Amazon Ember_MSFontService,sans-serif" font-weight="700" font-size="62" transform="matrix(1 0 0 1 1000.31 1489)">Hybrid Framework</text><text fill="#FFFFFF" font-family="Amazon Ember,Amazon Ember_MSFontService,sans-serif" font-weight="400" font-size="55" transform="matrix(1 0 0 1 1047.58 1581)">Combined Models</text><path d="M963 1640 1581 1640 1581 1825 963 1825Z" fill="#151D26" fill-rule="evenodd"/><text fill="#FFFFFF" font-family="Amazon Ember,Amazon Ember_MSFontService,sans-serif" font-weight="700" font-size="55" transform="matrix(1 0 0 1 1043.57 1720)">Central Oversight</text><text fill="#FFFFFF" font-family="Amazon Ember,Amazon Ember_MSFontService,sans-serif" font-weight="400" font-size="55" transform="matrix(1 0 0 1 1037.55 1782)">Policy &amp; Standards</text><path d="M596 1918 1029 1918 1029 2104 596 2104Z" fill="#AEFFA8" fill-rule="evenodd"/><text fill="#151D26" font-family="Amazon Ember,Amazon Ember_MSFontService,sans-serif" font-weight="700" font-size="55" transform="matrix(1 0 0 1 646.412 1998)">Autonomous</text><text fill="#151D26" font-family="Amazon Ember,Amazon Ember_MSFontService,sans-serif" font-weight="400" font-size="55" transform="matrix(1 0 0 1 714.017 2060)">Regions</text><path d="M1455 1918 1888 1918 1888 2104 1455 2104Z" fill="#AEFFA8" fill-rule="evenodd"/><text fill="#151D26" font-family="Amazon Ember,Amazon Ember_MSFontService,sans-serif" font-weight="700" font-size="55" transform="matrix(1 0 0 1 1603.94 1998)">Local</text><text fill="#151D26" font-family="Amazon Ember,Amazon Ember_MSFontService,sans-serif" font-weight="400" font-size="55" transform="matrix(1 0 0 1 1524.88 2060)">Governance</text><path d="M1117 1825 963 1918" stroke="#FFFFFF" stroke-width="6.1875" stroke-miterlimit="8" fill="none" fill-rule="evenodd"/><path d="M1427 1825 1581 1918" stroke="#FFFFFF" stroke-width="6.1875" stroke-miterlimit="8" fill="none" fill-rule="evenodd"/></g></svg>