<svg width="1547" height="928" xmlns="http://www.w3.org/2000/svg" xmlns:xlink="http://www.w3.org/1999/xlink" xml:space="preserve" overflow="hidden"><defs><clipPath id="clip0"><rect x="498" y="416" width="1547" height="928"/></clipPath></defs><g clip-path="url(#clip0)" transform="translate(-498 -416)"><path d="M498 416 2045 416 2045 1344 498 1344Z" fill="#151D26" fill-rule="evenodd"/><text fill="#FFFFFF" font-family="Amazon Ember,Amazon Ember_MSFontService,sans-serif" font-weight="700" font-size="62" transform="matrix(1 0 0 1 925.547 505)">Centralized Governance</text><text fill="#FFFFFF" font-family="Amazon Ember,Amazon Ember_MSFontService,sans-serif" font-weight="400" font-size="55" transform="matrix(1 0 0 1 957.63 596)">Unified Control Structure</text><path d="M963 655 1581 655 1581 903 963 903Z" fill="#007E94" fill-rule="evenodd"/><text fill="#FFFFFF" font-family="Amazon Ember,Amazon Ember_MSFontService,sans-serif" font-weight="700" font-size="55" transform="matrix(1 0 0 1 1046.43 751)">Central Authority</text><text fill="#FFFFFF" font-family="Amazon Ember,Amazon Ember_MSFontService,sans-serif" font-weight="400" font-size="55" transform="matrix(1 0 0 1 1021.51 828)">Single Point Control</text><path d="M1270 903 1270 1027" stroke="#FFFFFF" stroke-width="6.1875" stroke-miterlimit="8" fill="none" fill-rule="evenodd"/><path d="M684 1058 932 1058 932 1243 684 1243Z" fill="#B8E7FF" fill-rule="evenodd"/><text fill="#151D26" font-family="Amazon Ember,Amazon Ember_MSFontService,sans-serif" font-weight="400" font-size="55" transform="matrix(1 0 0 1 729.896 1138)">Unit A</text><path d="M993 1058 1241 1058 1241 1243 993 1243Z" fill="#B8E7FF" fill-rule="evenodd"/><text fill="#151D26" font-family="Amazon Ember,Amazon Ember_MSFontService,sans-serif" font-weight="400" font-size="55" transform="matrix(1 0 0 1 1040.13 1138)">Unit B</text><path d="M1303 1058 1550 1058 1550 1243 1303 1243Z" fill="#B8E7FF" fill-rule="evenodd"/><text fill="#151D26" font-family="Amazon Ember,Amazon Ember_MSFontService,sans-serif" font-weight="400" font-size="55" transform="matrix(1 0 0 1 1349.79 1138)">Unit C</text><path d="M1612 1058 1860 1058 1860 1243 1612 1243Z" fill="#B8E7FF" fill-rule="evenodd"/><text fill="#151D26" font-family="Amazon Ember,Amazon Ember_MSFontService,sans-serif" font-weight="400" font-size="55" transform="matrix(1 0 0 1 1656.87 1138)">Unit D</text><path d="M1257 1011 1288 1011 1272.5 1042Z" fill="#FFFFFF" fill-rule="evenodd"/></g></svg>