<svg width="3424" height="1358" xmlns="http://www.w3.org/2000/svg" xmlns:xlink="http://www.w3.org/1999/xlink" xml:space="preserve" overflow="hidden"><g transform="translate(-498 -715)"><path d="M1581 715 2819 715 2819 962 1581 962Z" fill="#004761" fill-rule="evenodd"/><text fill="#FFFFFF" font-family="Amazon Ember,Amazon Ember_MSFontService,sans-serif" font-weight="700" font-size="62" transform="matrix(1 0 0 1 1916.8 811)">Format Specifications</text><text fill="#FFFFFF" font-family="Amazon Ember,Amazon Ember_MSFontService,sans-serif" font-weight="400" font-size="55" transform="matrix(1 0 0 1 1891.47 888)">Data Standards &amp; Protocols</text><path d="M808 1241 1581 1241 1581 1488 808 1488Z" fill="#007E94" fill-rule="evenodd"/><text fill="#FFFFFF" font-family="Amazon Ember,Amazon Ember_MSFontService,sans-serif" font-weight="700" font-size="62" transform="matrix(1 0 0 1 1017.61 1337)">Application A</text><text fill="#FFFFFF" font-family="Amazon Ember,Amazon Ember_MSFontService,sans-serif" font-weight="400" font-size="55" transform="matrix(1 0 0 1 1045.54 1414)">Core Services</text><path d="M1813 1241 2587 1241 2587 1488 1813 1488Z" fill="#007E94" fill-rule="evenodd"/><text fill="#FFFFFF" font-family="Amazon Ember,Amazon Ember_MSFontService,sans-serif" font-weight="700" font-size="62" transform="matrix(1 0 0 1 2024 1337)">Application B</text><text fill="#FFFFFF" font-family="Amazon Ember,Amazon Ember_MSFontService,sans-serif" font-weight="400" font-size="55" transform="matrix(1 0 0 1 2038.68 1414)">Business Logic</text><path d="M2819 1241 3592 1241 3592 1488 2819 1488Z" fill="#007E94" fill-rule="evenodd"/><text fill="#FFFFFF" font-family="Amazon Ember,Amazon Ember_MSFontService,sans-serif" font-weight="700" font-size="62" transform="matrix(1 0 0 1 3029.94 1337)">Application C</text><text fill="#FFFFFF" font-family="Amazon Ember,Amazon Ember_MSFontService,sans-serif" font-weight="400" font-size="55" transform="matrix(1 0 0 1 2998.24 1414)">Data Management</text><path d="M920 1866 1668 1866 1668 2071 920 2071Z" fill="#B8E7FF" fill-rule="evenodd"/><text fill="#151D26" font-family="Amazon Ember,Amazon Ember_MSFontService,sans-serif" font-weight="700" font-size="62" transform="matrix(1 0 0 1 1006.19 1949)">Processing System 1</text><text fill="#151D26" font-family="Amazon Ember,Amazon Ember_MSFontService,sans-serif" font-weight="400" font-size="55" transform="matrix(1 0 0 1 1097.46 2025)">Data Transform</text><path d="M1848 1866 2597 1866 2597 2071 1848 2071Z" fill="#B8E7FF" fill-rule="evenodd"/><text fill="#151D26" font-family="Amazon Ember,Amazon Ember_MSFontService,sans-serif" font-weight="700" font-size="62" transform="matrix(1 0 0 1 1934.31 1949)">Processing System 2</text><text fill="#151D26" font-family="Amazon Ember,Amazon Ember_MSFontService,sans-serif" font-weight="400" font-size="55" transform="matrix(1 0 0 1 2027.15 2025)">Data Validation</text><path d="M2776 1866 3525 1866 3525 2071 2776 2071Z" fill="#B8E7FF" fill-rule="evenodd"/><text fill="#151D26" font-family="Amazon Ember,Amazon Ember_MSFontService,sans-serif" font-weight="700" font-size="62" transform="matrix(1 0 0 1 2862.44 1949)">Processing System 3</text><text fill="#151D26" font-family="Amazon Ember,Amazon Ember_MSFontService,sans-serif" font-weight="400" font-size="55" transform="matrix(1 0 0 1 2981.33 2025)">Data Storage</text><path d="M498 1550 1055 1550 1055 1736 498 1736Z" fill="#AEFFA8" fill-rule="evenodd"/><text fill="#151D26" font-family="Amazon Ember,Amazon Ember_MSFontService,sans-serif" font-weight="700" font-size="55" transform="matrix(1 0 0 1 603.575 1630)">Parsing Engine</text><text fill="#151D26" font-family="Amazon Ember,Amazon Ember_MSFontService,sans-serif" font-weight="400" font-size="55" transform="matrix(1 0 0 1 621.717 1692)">Requirements</text><path d="M3345 1550 3902 1550 3902 1736 3345 1736Z" fill="#CCFFE9" fill-rule="evenodd"/><text fill="#151D26" font-family="Amazon Ember,Amazon Ember_MSFontService,sans-serif" font-weight="700" font-size="55" transform="matrix(1 0 0 1 3404.33 1630)">Reliability Monitor</text><text fill="#151D26" font-family="Amazon Ember,Amazon Ember_MSFontService,sans-serif" font-weight="400" font-size="55" transform="matrix(1 0 0 1 3459.82 1692)">System Health</text><path d="M1952 962 1195 1241" stroke="#151D26" stroke-width="6.1875" stroke-miterlimit="8" fill="none" fill-rule="evenodd"/><path d="M1195.78 1246.73 1218.12 1220.31 1230.31 1248.75Z" fill="#151D26" fill-rule="evenodd"/><path d="M2200 962 2200 1241" stroke="#151D26" stroke-width="6.1875" stroke-miterlimit="8" fill="none" fill-rule="evenodd"/><path d="M2200 1241 2215 1210 2185 1210Z" fill="#151D26" fill-rule="evenodd"/><path d="M2448 962 3205 1241" stroke="#151D26" stroke-width="6.1875" stroke-miterlimit="8" fill="none" fill-rule="evenodd"/><path d="M3204.35 1246.41 3181.43 1220.5 3169.87 1249.2Z" fill="#151D26" fill-rule="evenodd"/><path d="M1195 1488 1272 1859" stroke="#151D26" stroke-width="6.1875" stroke-miterlimit="8" fill="none" fill-rule="evenodd"/><path d="M1278.06 1850.67 1279.87 1816.13 1251.51 1828.5Z" fill="#151D26" fill-rule="evenodd"/><path d="M2200 1488 2200 1859" stroke="#151D26" stroke-width="6.1875" stroke-miterlimit="8" fill="none" fill-rule="evenodd"/><path d="M2200 1852 2215 1821 2185 1821Z" fill="#151D26" fill-rule="evenodd"/><path d="M3205 1488 3128 1859" stroke="#151D26" stroke-width="6.1875" stroke-miterlimit="8" fill="none" fill-rule="evenodd"/><path d="M3121.53 1850.48 3148.71 1829.1 3120.73 1815.9Z" fill="#151D26" fill-rule="evenodd"/><path d="M1055 1643 1195 1488" stroke="#151D26" stroke-width="6.1875" stroke-miterlimit="8" stroke-dasharray="23.2031 23.2031" fill="none" fill-rule="evenodd"/><path d="M3345 1643 3205 1488" stroke="#151D26" stroke-width="6.1875" stroke-miterlimit="8" stroke-dasharray="23.2031 23.2031" fill="none" fill-rule="evenodd"/><path d="M1606 1096.5C1606 1125.5 1582.5 1149 1553.5 1149 1524.5 1149 1501 1125.5 1501 1096.5 1501 1067.5 1524.5 1044 1553.5 1044 1582.5 1044 1606 1067.5 1606 1096.5Z" fill="#AEFFA8" fill-rule="evenodd"/><text fill="#151D26" font-family="Segoe UI Symbol,Segoe UI Symbol_MSFontService,sans-serif" font-weight="400" font-size="83" transform="matrix(1 0 0 1 1512.29 1121)">✓</text><path d="M2259 1099.5C2259 1128.5 2235.5 1152 2206.5 1152 2177.5 1152 2154 1128.5 2154 1099.5 2154 1070.5 2177.5 1047 2206.5 1047 2235.5 1047 2259 1070.5 2259 1099.5Z" fill="#AEFFA8" fill-rule="evenodd"/><text fill="#151D26" font-family="Segoe UI Symbol,Segoe UI Symbol_MSFontService,sans-serif" font-weight="400" font-size="83" transform="matrix(1 0 0 1 2165.34 1125)">✓</text><path d="M2912 1102.5C2912 1131.5 2888.72 1155 2860 1155 2831.28 1155 2808 1131.5 2808 1102.5 2808 1073.5 2831.28 1050 2860 1050 2888.72 1050 2912 1073.5 2912 1102.5Z" fill="#AEFFA8" fill-rule="evenodd"/><text fill="#151D26" font-family="Segoe UI Symbol,Segoe UI Symbol_MSFontService,sans-serif" font-weight="400" font-size="83" transform="matrix(1 0 0 1 2818.66 1128)">✓</text></g></svg>