<svg width="2791" height="1272" xmlns="http://www.w3.org/2000/svg" xmlns:xlink="http://www.w3.org/1999/xlink" xml:space="preserve" overflow="hidden"><g transform="translate(-651 -741)"><path d="M1366 991.5C1366 1128.19 1255.19 1239 1118.5 1239 981.81 1239 871 1128.19 871 991.5 871 854.809 981.81 744 1118.5 744 1255.19 744 1366 854.809 1366 991.5Z" stroke="#151D26" stroke-width="6.1875" stroke-miterlimit="8" fill="#B8E7FF" fill-rule="evenodd"/><text fill="#151D26" font-family="Amazon Ember,Amazon Ember_MSFontService,sans-serif" font-weight="700" font-size="64" transform="matrix(1 0 0 1 1011.09 942)">Cycle 1</text><text fill="#151D26" font-family="Amazon Ember,Amazon Ember_MSFontService,sans-serif" font-weight="400" font-size="64" transform="matrix(1 0 0 1 993.334 1004)">Evaluate</text><text fill="#151D26" font-family="Amazon Ember,Amazon Ember_MSFontService,sans-serif" font-weight="400" font-size="64" transform="matrix(1 0 0 1 1025.42 1065)">Refine</text><path d="M2294 991.5C2294 1128.19 2183.19 1239 2046.5 1239 1909.81 1239 1799 1128.19 1799 991.5 1799 854.809 1909.81 744 2046.5 744 2183.19 744 2294 854.809 2294 991.5Z" stroke="#151D26" stroke-width="6.1875" stroke-miterlimit="8" fill="#AEFFA8" fill-rule="evenodd"/><text fill="#151D26" font-family="Amazon Ember,Amazon Ember_MSFontService,sans-serif" font-weight="700" font-size="64" transform="matrix(1 0 0 1 1939.22 942)">Cycle 2</text><text fill="#151D26" font-family="Amazon Ember,Amazon Ember_MSFontService,sans-serif" font-weight="400" font-size="64" transform="matrix(1 0 0 1 1926.33 1004)">Validate</text><text fill="#151D26" font-family="Amazon Ember,Amazon Ember_MSFontService,sans-serif" font-weight="400" font-size="64" transform="matrix(1 0 0 1 1912.87 1065)">Optimize</text><path d="M3222 991.5C3222 1128.19 3111.19 1239 2974.5 1239 2837.81 1239 2727 1128.19 2727 991.5 2727 854.809 2837.81 744 2974.5 744 3111.19 744 3222 854.809 3222 991.5Z" stroke="#151D26" stroke-width="6.1875" stroke-miterlimit="8" fill="#CCFFE9" fill-rule="evenodd"/><text fill="#151D26" font-family="Amazon Ember,Amazon Ember_MSFontService,sans-serif" font-weight="700" font-size="64" transform="matrix(1 0 0 1 2867.34 942)">Cycle 3</text><text fill="#151D26" font-family="Amazon Ember,Amazon Ember_MSFontService,sans-serif" font-weight="400" font-size="64" transform="matrix(1 0 0 1 2832.11 1004)">Enhanced</text><text fill="#151D26" font-family="Amazon Ember,Amazon Ember_MSFontService,sans-serif" font-weight="400" font-size="64" transform="matrix(1 0 0 1 2787.42 1065)">Performance</text><path d="M1366 992 1799 992" stroke="#151D26" stroke-width="6.1875" stroke-miterlimit="8" fill="none" fill-rule="evenodd"/><path d="M2294 992 2727 992" stroke="#151D26" stroke-width="6.1875" stroke-miterlimit="8" fill="none" fill-rule="evenodd"/><path d="M3222.39 991.461C3366.8 888.232 3439 939.845 3439 1146.31 3439 1352.77 2665.39 1456 1118.17 1456 808.722 1456 654 1301.15 654 991.461 654 784.999 726.204 733.385 870.611 836.615" stroke="#007E94" stroke-width="6.1875" stroke-miterlimit="8" stroke-dasharray="23.2031 23.2031" fill="none" fill-rule="evenodd"/><path d="M809 1765 1428 1765 1428 2013 809 2013Z" fill="#004761" fill-rule="evenodd"/><text fill="#FFFFFF" font-family="Amazon Ember,Amazon Ember_MSFontService,sans-serif" font-weight="700" font-size="64" transform="matrix(1 0 0 1 936.329 1873)">Operational</text><text fill="#FFFFFF" font-family="Amazon Ember,Amazon Ember_MSFontService,sans-serif" font-weight="400" font-size="64" transform="matrix(1 0 0 1 997.344 1935)">Stability</text><path d="M1737 1765 2356 1765 2356 2013 1737 2013Z" fill="#004761" fill-rule="evenodd"/><text fill="#FFFFFF" font-family="Amazon Ember,Amazon Ember_MSFontService,sans-serif" font-weight="700" font-size="64" transform="matrix(1 0 0 1 1932.92 1873)">Change</text><text fill="#FFFFFF" font-family="Amazon Ember,Amazon Ember_MSFontService,sans-serif" font-weight="400" font-size="64" transform="matrix(1 0 0 1 1854.43 1935)">Management</text><path d="M1118 1239 1118 1765" stroke="#151D26" stroke-width="6.1875" stroke-miterlimit="8" stroke-dasharray="13.9219 13.9219" fill="none" fill-rule="evenodd"/><path d="M2046 1239 2046 1765" stroke="#151D26" stroke-width="6.1875" stroke-miterlimit="8" stroke-dasharray="13.9219 13.9219" fill="none" fill-rule="evenodd"/><text fill="#007E94" font-family="Amazon Ember,Amazon Ember_MSFontService,sans-serif" font-weight="400" font-size="64" transform="matrix(1 0 0 1 1385.21 942)">Improvement</text><text fill="#007E94" font-family="Amazon Ember,Amazon Ember_MSFontService,sans-serif" font-weight="400" font-size="64" transform="matrix(1 0 0 1 2310.18 942)">Enhancement</text></g></svg>