<svg width="3355" height="1397" xmlns="http://www.w3.org/2000/svg" xmlns:xlink="http://www.w3.org/1999/xlink" xml:space="preserve" overflow="hidden"><defs><clipPath id="clip0"><rect x="523" y="660" width="3355" height="1397"/></clipPath></defs><g clip-path="url(#clip0)" transform="translate(-523 -660)"><path d="M0 0 296.755 188.846" stroke="#003181" stroke-width="13.75" stroke-linejoin="round" stroke-miterlimit="10" fill="none" fill-rule="evenodd" transform="matrix(1 0 0 -1 2659 1180.85)"/><path d="M0 0 296.755 188.846" stroke="#003181" stroke-width="13.75" stroke-linejoin="round" stroke-miterlimit="10" fill="none" fill-rule="evenodd" transform="matrix(1 0 0 -1 1266 1749.85)"/><path d="M1343 984 1694.04 1240.11" stroke="#003181" stroke-width="13.75" stroke-linejoin="round" stroke-miterlimit="10" fill="none" fill-rule="evenodd"/><path d="M2631 1514 2982.04 1770.11" stroke="#003181" stroke-width="13.75" stroke-linejoin="round" stroke-miterlimit="10" fill="none" fill-rule="evenodd"/><path d="M1352 1174 2996 1174 2996 1583 1352 1583Z" fill="#151D26" fill-rule="evenodd"/><text fill="#FFFFFF" font-family="Amazon Ember,Amazon Ember_MSFontService,sans-serif" font-weight="700" font-size="83" transform="matrix(1 0 0 1 1822.27 1291)">Specification Core</text><text fill="#FFFFFF" font-family="Amazon Ember,Amazon Ember_MSFontService,sans-serif" font-weight="400" font-size="64" transform="matrix(1 0 0 1 1858.37 1421)">Central Requirements</text><text fill="#FFFFFF" font-family="Amazon Ember,Amazon Ember_MSFontService,sans-serif" font-weight="400" font-size="64" transform="matrix(1 0 0 1 1995.29 1514)">&amp; Standards</text><path d="M523 770.883C523 715.719 567.719 671 622.882 671L1610.12 671C1665.28 671 1710 715.719 1710 770.883L1710 936.118C1710 991.281 1665.28 1036 1610.12 1036L622.882 1036C567.719 1036 523 991.281 523 936.118Z" fill="#004761" fill-rule="evenodd"/><text fill="#FFFFFF" font-family="Amazon Ember,Amazon Ember_MSFontService,sans-serif" font-weight="700" font-size="83" transform="matrix(1 0 0 1 774.511 781)">Clear Instructions</text><text fill="#FFFFFF" font-family="Amazon Ember,Amazon Ember_MSFontService,sans-serif" font-weight="400" font-size="64" transform="matrix(1 0 0 1 854.146 905)">Precise Guidelines</text><text fill="#FFFFFF" font-family="Amazon Ember,Amazon Ember_MSFontService,sans-serif" font-weight="400" font-size="64" transform="matrix(1 0 0 1 938.365 967)">&amp; Directions</text><path d="M2691 759.883C2691 704.719 2735.72 660 2790.88 660L3778.12 660C3833.28 660 3878 704.719 3878 759.883L3878 925.118C3878 980.281 3833.28 1025 3778.12 1025L2790.88 1025C2735.72 1025 2691 980.281 2691 925.118Z" fill="#007E94" fill-rule="evenodd"/><text fill="#FFFFFF" font-family="Amazon Ember,Amazon Ember_MSFontService,sans-serif" font-weight="700" font-size="83" transform="matrix(1 0 0 1 2849.39 765)">Structural Consistency</text><text fill="#FFFFFF" font-family="Amazon Ember,Amazon Ember_MSFontService,sans-serif" font-weight="400" font-size="64" transform="matrix(1 0 0 1 2991.48 889)">Uniform Framework</text><text fill="#FFFFFF" font-family="Amazon Ember,Amazon Ember_MSFontService,sans-serif" font-weight="400" font-size="64" transform="matrix(1 0 0 1 3105.77 950)">&amp; Standards</text><path d="M526 1792.61C526 1737.6 570.596 1693 625.609 1693L1612.39 1693C1667.4 1693 1712 1737.6 1712 1792.61L1712 1957.39C1712 2012.4 1667.4 2057 1612.39 2057L625.609 2057C570.596 2057 526 2012.4 526 1957.39Z" fill="#B8E7FF" fill-rule="evenodd"/><text fill="#151D26" font-family="Amazon Ember,Amazon Ember_MSFontService,sans-serif" font-weight="700" font-size="83" transform="matrix(1 0 0 1 687.494 1803)">Organized Formatting</text><text fill="#151D26" font-family="Amazon Ember,Amazon Ember_MSFontService,sans-serif" font-weight="400" font-size="64" transform="matrix(1 0 0 1 852.494 1927)">Systematic Layout</text><text fill="#151D26" font-family="Amazon Ember,Amazon Ember_MSFontService,sans-serif" font-weight="400" font-size="64" transform="matrix(1 0 0 1 951.608 1989)">&amp; Structure</text><path d="M2691 1768.61C2691 1713.6 2735.6 1669 2790.61 1669L3778.39 1669C3833.4 1669 3878 1713.6 3878 1768.61L3878 1933.39C3878 1988.4 3833.4 2033 3778.39 2033L2790.61 2033C2735.6 2033 2691 1988.4 2691 1933.39Z" fill="#AEFFA8" fill-rule="evenodd"/><text fill="#151D26" font-family="Amazon Ember,Amazon Ember_MSFontService,sans-serif" font-weight="700" font-size="83" transform="matrix(1 0 0 1 2830.2 1803)">Application Integration</text><text fill="#151D26" font-family="Amazon Ember,Amazon Ember_MSFontService,sans-serif" font-weight="400" font-size="64" transform="matrix(1 0 0 1 2917.29 1927)">Practical Implementation</text><text fill="#151D26" font-family="Amazon Ember,Amazon Ember_MSFontService,sans-serif" font-weight="400" font-size="64" transform="matrix(1 0 0 1 3163.93 1989)">&amp; Usage</text><path d="M1661 722 2732 722 2732 969 1661 969Z" fill="#CCFFE9" fill-rule="evenodd"/><text fill="#151D26" font-family="Amazon Ember,Amazon Ember_MSFontService,sans-serif" font-weight="700" font-size="64" transform="matrix(1 0 0 1 1739.1 827)">Flexibility &amp; Structure Balance</text><text fill="#151D26" font-family="Amazon Ember,Amazon Ember_MSFontService,sans-serif" font-weight="400" font-size="64" transform="matrix(1 0 0 1 1857.98 919)">Supporting Foundation</text></g></svg>