<svg width="2247" height="1733" xmlns="http://www.w3.org/2000/svg" xmlns:xlink="http://www.w3.org/1999/xlink" xml:space="preserve" overflow="hidden"><defs><clipPath id="clip0"><rect x="1086" y="460" width="2247" height="1733"/></clipPath></defs><g clip-path="url(#clip0)" transform="translate(-1086 -460)"><path d="M1891 1141 2509 1141 2509 1512 1891 1512Z" fill="#004761" fill-rule="evenodd"/><text fill="#FFFFFF" font-family="Amazon Ember,Amazon Ember_MSFontService,sans-serif" font-weight="700" font-size="62" transform="matrix(1 0 0 1 1972.27 1284)">Central Balance</text><text fill="#FFFFFF" font-family="Amazon Ember,Amazon Ember_MSFontService,sans-serif" font-weight="400" font-size="55" transform="matrix(1 0 0 1 2008.65 1361)">Optimization &amp;</text><text fill="#FFFFFF" font-family="Amazon Ember,Amazon Ember_MSFontService,sans-serif" font-weight="400" font-size="55" transform="matrix(1 0 0 1 2078.25 1438)">Oversight</text><path d="M1901 460 2499 460 2499 770 1901 770Z" fill="#007E94" fill-rule="evenodd"/><text fill="#FFFFFF" font-family="Amazon Ember,Amazon Ember_MSFontService,sans-serif" font-weight="700" font-size="55" transform="matrix(1 0 0 1 2018.38 567)">Asynchronous</text><text fill="#FFFFFF" font-family="Amazon Ember,Amazon Ember_MSFontService,sans-serif" font-weight="700" font-size="55" transform="matrix(1 0 0 1 2055.34 644)">Monitoring</text><text fill="#FFFFFF" font-family="Amazon Ember,Amazon Ember_MSFontService,sans-serif" font-weight="400" font-size="55" transform="matrix(1 0 0 1 1954.79 711)">Real</text><text fill="#FFFFFF" font-family="Amazon Ember,Amazon Ember_MSFontService,sans-serif" font-weight="400" font-size="55" transform="matrix(1 0 0 1 2062.5 711)">-</text><text fill="#FFFFFF" font-family="Amazon Ember,Amazon Ember_MSFontService,sans-serif" font-weight="400" font-size="55" transform="matrix(1 0 0 1 2083.7 711)">time Coverage</text><path d="M2819 1141 3314 1141 3314 1512 2819 1512Z" fill="#B8E7FF" fill-rule="evenodd"/><text fill="#151D26" font-family="Amazon Ember,Amazon Ember_MSFontService,sans-serif" font-weight="700" font-size="55" transform="matrix(1 0 0 1 2929.9 1268)">Intelligent</text><text fill="#151D26" font-family="Amazon Ember,Amazon Ember_MSFontService,sans-serif" font-weight="700" font-size="55" transform="matrix(1 0 0 1 2943.07 1345)">Sampling</text><text fill="#151D26" font-family="Amazon Ember,Amazon Ember_MSFontService,sans-serif" font-weight="400" font-size="55" transform="matrix(1 0 0 1 2835.08 1422)">Risk</text><text fill="#151D26" font-family="Amazon Ember,Amazon Ember_MSFontService,sans-serif" font-weight="400" font-size="55" transform="matrix(1 0 0 1 2934.76 1422)">-</text><text fill="#151D26" font-family="Amazon Ember,Amazon Ember_MSFontService,sans-serif" font-weight="400" font-size="55" transform="matrix(1 0 0 1 2955.96 1422)">based Metrics</text><path d="M1901 1884 2499 1884 2499 2193 1901 2193Z" fill="#AEFFA8" fill-rule="evenodd"/><text fill="#151D26" font-family="Amazon Ember,Amazon Ember_MSFontService,sans-serif" font-weight="700" font-size="55" transform="matrix(1 0 0 1 2091.43 1995)">Efficient</text><text fill="#151D26" font-family="Amazon Ember,Amazon Ember_MSFontService,sans-serif" font-weight="700" font-size="55" transform="matrix(1 0 0 1 2061.93 2072)">Processing</text><text fill="#151D26" font-family="Amazon Ember,Amazon Ember_MSFontService,sans-serif" font-weight="400" font-size="55" transform="matrix(1 0 0 1 2044.45 2134)">Low Latency</text><path d="M1086 1141 1581 1141 1581 1512 1086 1512Z" fill="#CCFFE9" fill-rule="evenodd"/><text fill="#151D26" font-family="Amazon Ember,Amazon Ember_MSFontService,sans-serif" font-weight="700" font-size="55" transform="matrix(1 0 0 1 1239.79 1268)">System</text><text fill="#151D26" font-family="Amazon Ember,Amazon Ember_MSFontService,sans-serif" font-weight="700" font-size="55" transform="matrix(1 0 0 1 1132.66 1345)">Responsiveness</text><text fill="#151D26" font-family="Amazon Ember,Amazon Ember_MSFontService,sans-serif" font-weight="400" font-size="55" transform="matrix(1 0 0 1 1130.36 1422)">High Availability</text><path d="M2200 770 2200 1141" stroke="#151D26" stroke-width="6.1875" stroke-miterlimit="8" fill="none" fill-rule="evenodd"/><path d="M2509 1327 2819 1327" stroke="#151D26" stroke-width="6.1875" stroke-miterlimit="8" fill="none" fill-rule="evenodd"/><path d="M2200 1512 2200 1884" stroke="#151D26" stroke-width="6.1875" stroke-miterlimit="8" fill="none" fill-rule="evenodd"/><path d="M1891 1327 1581 1327" stroke="#151D26" stroke-width="6.1875" stroke-miterlimit="8" fill="none" fill-rule="evenodd"/><path d="M2200 766 2185 797 2215 797Z" fill="#151D26" fill-rule="evenodd"/><path d="M2819 1326.5 2788 1311 2788 1342Z" fill="#151D26" fill-rule="evenodd"/><path d="M2200 1884 2185 1853 2215 1853Z" fill="#151D26" fill-rule="evenodd"/><path d="M1581 1326.5 1612 1311 1612 1342Z" fill="#151D26" fill-rule="evenodd"/></g></svg>