<svg width="3404" height="1621" xmlns="http://www.w3.org/2000/svg" xmlns:xlink="http://www.w3.org/1999/xlink" xml:space="preserve" overflow="hidden"><defs><clipPath id="clip0"><rect x="498" y="582" width="3404" height="1621"/></clipPath></defs><g clip-path="url(#clip0)" transform="translate(-498 -582)"><path d="M498 582 2045 582 2045 1154 498 1154Z" fill="#007E94" fill-rule="evenodd"/><text fill="#FFFFFF" font-family="Amazon Ember,Amazon Ember_MSFontService,sans-serif" font-weight="700" font-size="92" transform="matrix(1 0 0 1 779.453 706)">Resource Optimization</text><text fill="#FFFFFF" font-family="Amazon Ember,Amazon Ember_MSFontService,sans-serif" font-weight="400" font-size="55" transform="matrix(1 0 0 1 1006.9 806)">Monitoring Efficiency</text><path d="M808 891 1736 891 1736 953 808 953Z" fill="#B8E7FF" fill-rule="evenodd"/><path d="M808 891 1550 891 1550 953 808 953Z" fill="#AEFFA8" fill-rule="evenodd"/><text fill="#FFFFFF" font-family="Amazon Ember,Amazon Ember_MSFontService,sans-serif" font-weight="400" font-size="55" transform="matrix(1 0 0 1 1087.11 1049)">80% Efficiency</text><path d="M2355 582 3902 582 3902 1154 2355 1154Z" fill="#004761" fill-rule="evenodd"/><text fill="#FFFFFF" font-family="Amazon Ember,Amazon Ember_MSFontService,sans-serif" font-weight="700" font-size="92" transform="matrix(1 0 0 1 2702.45 706)">Value Maximization</text><text fill="#FFFFFF" font-family="Amazon Ember,Amazon Ember_MSFontService,sans-serif" font-weight="400" font-size="55" transform="matrix(1 0 0 1 2854.27 806)">Cost</text><text fill="#FFFFFF" font-family="Amazon Ember,Amazon Ember_MSFontService,sans-serif" font-weight="400" font-size="55" transform="matrix(1 0 0 1 2964.27 806)">-</text><text fill="#FFFFFF" font-family="Amazon Ember,Amazon Ember_MSFontService,sans-serif" font-weight="400" font-size="55" transform="matrix(1 0 0 1 2985.47 806)">Effective Testing</text><path d="M2664 891 3592 891 3592 953 2664 953Z" fill="#B8E7FF" fill-rule="evenodd"/><path d="M2664 891 3314 891 3314 953 2664 953Z" fill="#AEFFA8" fill-rule="evenodd"/><text fill="#FFFFFF" font-family="Amazon Ember,Amazon Ember_MSFontService,sans-serif" font-weight="400" font-size="55" transform="matrix(1 0 0 1 2875.18 1049)">70% Cost Reduction</text><path d="M501 1319 2048 1319 2048 2203 501 2203Z" fill="#151D26" fill-rule="evenodd"/><text fill="#FFFFFF" font-family="Amazon Ember,Amazon Ember_MSFontService,sans-serif" font-weight="700" font-size="92" transform="matrix(1 0 0 1 749.305 1443)">Growth Accommodation</text><text fill="#FFFFFF" font-family="Amazon Ember,Amazon Ember_MSFontService,sans-serif" font-weight="400" font-size="55" transform="matrix(1 0 0 1 1010.84 1530)">Scalable Architecture</text><path d="M913 1691 1099 1691 1099 2000 913 2000Z" fill="#B8E7FF" fill-rule="evenodd"/><path d="M1161 1629 1346 1629 1346 2000 1161 2000Z" fill="#FFAD97" fill-rule="evenodd"/><path d="M1408 1567 1594 1567 1594 2000 1408 2000Z" fill="#AEFFA8" fill-rule="evenodd"/><text fill="#FFFFFF" font-family="Amazon Ember,Amazon Ember_MSFontService,sans-serif" font-weight="400" font-size="55" transform="matrix(1 0 0 1 1034.62 2105)">Auto</text><text fill="#FFFFFF" font-family="Amazon Ember,Amazon Ember_MSFontService,sans-serif" font-weight="400" font-size="55" transform="matrix(1 0 0 1 1154.93 2105)">-</text><text fill="#FFFFFF" font-family="Amazon Ember,Amazon Ember_MSFontService,sans-serif" font-weight="400" font-size="55" transform="matrix(1 0 0 1 1176.13 2105)">scaling Ready</text><path d="M2355 1319 3902 1319 3902 2203 2355 2203Z" fill="#B8E7FF" fill-rule="evenodd"/><text fill="#151D26" font-family="Amazon Ember,Amazon Ember_MSFontService,sans-serif" font-weight="700" font-size="92" transform="matrix(1 0 0 1 2778.36 1443)">Noise Reduction</text><text fill="#151D26" font-family="Amazon Ember,Amazon Ember_MSFontService,sans-serif" font-weight="400" font-size="55" transform="matrix(1 0 0 1 2895.81 1530)">Alert Optimization</text><path d="M2912 1842C2912 1893.36 2870.36 1935 2819 1935 2767.64 1935 2726 1893.36 2726 1842 2726 1790.64 2767.64 1749 2819 1749 2870.36 1749 2912 1790.64 2912 1842Z" fill="#151D26" fill-rule="evenodd"/><path d="M3051 1903.5C3051 1946.3 3016.3 1981 2973.5 1981 2930.7 1981 2896 1946.3 2896 1903.5 2896 1860.7 2930.7 1826 2973.5 1826 3016.3 1826 3051 1860.7 3051 1903.5Z" fill="#FFAD97" fill-rule="evenodd"/><path d="M3190 1842C3190 1876.24 3162.24 1904 3128 1904 3093.76 1904 3066 1876.24 3066 1842 3066 1807.76 3093.76 1780 3128 1780 3162.24 1780 3190 1807.76 3190 1842Z" fill="#AEFFA8" fill-rule="evenodd"/><path d="M3329 1903.5C3329 1929.18 3308.18 1950 3282.5 1950 3256.82 1950 3236 1929.18 3236 1903.5 3236 1877.82 3256.82 1857 3282.5 1857 3308.18 1857 3329 1877.82 3329 1903.5Z" fill="#004761" fill-rule="evenodd"/><path d="M3468 1842C3468 1859.12 3454.34 1873 3437.5 1873 3420.66 1873 3407 1859.12 3407 1842 3407 1824.88 3420.66 1811 3437.5 1811 3454.34 1811 3468 1824.88 3468 1842Z" fill="#FFFFFF" fill-rule="evenodd"/><text fill="#151D26" font-family="Amazon Ember,Amazon Ember_MSFontService,sans-serif" font-weight="400" font-size="55" transform="matrix(1 0 0 1 2835.94 2105)">Signal Clarity Improved</text><path d="M2262 1122C2262 1156.24 2234.24 1184 2200 1184 2165.76 1184 2138 1156.24 2138 1122 2138 1087.76 2165.76 1060 2200 1060 2234.24 1060 2262 1087.76 2262 1122Z" stroke="#151D26" stroke-width="6.1875" stroke-miterlimit="8" fill="#AEFFA8" fill-rule="evenodd"/><text fill="#151D26" font-family="Amazon Ember,Amazon Ember_MSFontService,sans-serif" font-weight="700" font-size="64" transform="matrix(1 0 0 1 1873.15 1258)">Optimization Balance</text></g></svg>