<svg width="2853" height="1743" xmlns="http://www.w3.org/2000/svg" xmlns:xlink="http://www.w3.org/1999/xlink" xml:space="preserve" overflow="hidden"><defs><clipPath id="clip0"><rect x="623" y="541" width="2853" height="1743"/></clipPath></defs><g clip-path="url(#clip0)" transform="translate(-623 -541)"><path d="M2453 1546 3151.79 1695.61" stroke="#000000" stroke-width="13.75" stroke-linejoin="round" stroke-miterlimit="10" fill="none" fill-rule="evenodd"/><path d="M901 1037 1896.01 1381.9" stroke="#000000" stroke-width="13.75" stroke-linejoin="round" stroke-miterlimit="10" fill="none" fill-rule="evenodd"/><path d="M0 0 272.215 574.153" stroke="#000000" stroke-width="13.75" stroke-linejoin="round" stroke-miterlimit="10" fill="none" fill-rule="evenodd" transform="matrix(-1 0 0 1 2476.22 707)"/><path d="M0 0 295.776 535.492" stroke="#000000" stroke-width="13.75" stroke-linejoin="round" stroke-miterlimit="10" fill="none" fill-rule="evenodd" transform="matrix(-1 0 0 1 2127.78 1589)"/><path d="M2292 1733 3058 1733 3058 2262 2292 2262Z" fill="#007E94" fill-rule="evenodd"/><text fill="#FFFFFF" font-family="Amazon Ember,Amazon Ember_MSFontService,sans-serif" font-weight="700" font-size="73" transform="matrix(1 0 0 1 2327.78 2164)">Access Management</text><g><g><g><path d="M184.184 207.768 184.184 184.483C184.184 179.942 180.523 176.158 176 176.158 170.544 176.158 167.816 178.886 167.816 184.342L167.816 207.768C158.998 211.341 153.032 220.493 154.352 230.859 155.602 240.645 163.645 248.565 173.448 249.674 186.648 251.17 197.806 240.891 197.806 227.99 197.806 218.838 192.157 211.006 184.166 207.768Z" stroke="#FFFFFF" stroke-width="7.04" stroke-linejoin="round" fill="none" transform="matrix(1 0 0 1.00284 2499 1771)"/><path d="M252.208 151.448C255.318 151.448 257.84 153.97 257.84 157.08L257.84 276.76C257.84 279.87 255.318 282.392 252.208 282.392L99.792 282.392C96.6815 282.392 94.16 279.87 94.16 276.76L94.16 157.08C94.16 153.97 96.6815 151.448 99.792 151.448Z" stroke="#FFFFFF" stroke-width="7.04" stroke-linejoin="round" fill="none" transform="matrix(1 0 0 1.00284 2499 1771)"/><path d="M214.192 115.984 214.192 106.427C214.192 96.6416 206.254 88.704 196.469 88.704L152.803 88.704C143.018 88.704 135.08 96.6416 135.08 106.427L135.08 151.448" stroke="#FFFFFF" stroke-width="7.04" stroke-linejoin="round" fill="none" transform="matrix(1 0 0 1.00284 2499 1771)"/><path d="M115.984 151.448 115.984 106.128C115.984 85.9584 132.334 69.608 152.504 69.608L196.768 69.608C216.938 69.608 233.288 85.9584 233.288 106.128L233.288 115.984" stroke="#FFFFFF" stroke-width="7.04" stroke-linejoin="round" fill="none" transform="matrix(1 0 0 1.00284 2499 1771)"/></g></g></g><path d="M2499 922 3264 922 3264 1451 2499 1451Z" fill="#007E94" fill-rule="evenodd"/><text fill="#FFFFFF" font-family="Amazon Ember,Amazon Ember_MSFontService,sans-serif" font-weight="700" font-size="73" transform="matrix(1 0 0 1 2611.58 1365)">Version Control</text><g><g><g><path d="M2934.37 1084.21C2936.32 1084.21 2937.9 1085.79 2937.9 1087.73L2937.9 1181.22C2937.9 1183.16 2936.32 1184.74 2934.37 1184.74L2828.64 1184.74C2826.7 1184.74 2825.12 1183.16 2825.12 1181.22L2825.12 1087.73C2825.12 1085.79 2826.7 1084.21 2828.64 1084.21Z" stroke="#FFFFFF" stroke-width="5.82" stroke-linejoin="round" fill="none"/><path d="M2825.38 1102.05 2937.62 1102.05" stroke="#FFFFFF" stroke-width="5.82" stroke-linecap="round" stroke-linejoin="round" fill="none"/><path d="M2840.05 1143.98 2851.31 1143.98M2863.92 1143.98 2875.19 1143.98M2887.8 1143.98 2899.06 1143.98M2911.68 1143.98 2922.94 1143.98M2840.05 1162 2851.31 1162M2863.92 1162 2875.19 1162M2887.8 1162 2899.06 1162M2911.68 1162 2922.94 1162M2840.05 1127.4 2851.31 1127.4M2863.92 1127.4 2875.19 1127.4M2887.8 1127.4 2899.06 1127.4M2911.68 1127.4 2922.94 1127.4" stroke="#FFFFFF" stroke-width="5.82" stroke-linecap="square" stroke-linejoin="round" fill="none"/><path d="M2843.55 1078.26 2843.55 1089.52" stroke="#FFFFFF" stroke-width="5.82" stroke-linecap="square" stroke-linejoin="round" fill="none"/><path d="M2916.58 1078.26 2916.58 1089.52" stroke="#FFFFFF" stroke-width="5.82" stroke-linecap="square" stroke-linejoin="round" fill="none"/><path d="M2949.39 1188.43 2976.98 1188.43C2976.98 1188.43 2976.98 1220.42 2976.98 1220.42M2991.73 1131.5C2991.73 1070.61 2942.36 1021.24 2881.47 1021.24 2841.56 1021.24 2806.61 1042.44 2787.25 1074.2M2786.04 1042.6 2786.04 1074.58C2786.04 1074.58 2813.62 1074.58 2813.62 1074.58M2771.3 1131.51C2771.3 1192.41 2820.67 1241.77 2881.56 1241.77 2921.47 1241.77 2956.42 1220.58 2975.78 1188.81" stroke="#FFFFFF" stroke-width="5.82" stroke-linejoin="round" fill="none"/></g></g></g><path d="M1250 581 2016 581 2016 1111 1250 1111Z" fill="#007E94" fill-rule="evenodd"/><text fill="#FFFFFF" font-family="Amazon Ember,Amazon Ember_MSFontService,sans-serif" font-weight="700" font-size="73" transform="matrix(1 0 0 1 1325.14 1013)">Template Storage</text><g><g><g><path d="M1633 682.51C1580.78 682.51 1542.79 697.409 1542.79 715.8L1542.79 876.219C1542.79 889.43 1560.33 900.838 1592.01 906.231 1598.89 907.395 1606.25 908.287 1613.95 908.83 1617.03 909.044 1620.16 909.218 1623.34 909.335 1626.52 909.451 1629.74 909.509 1633 909.509 1636.26 909.509 1639.48 909.451 1642.66 909.335 1645.84 909.218 1648.97 909.044 1652.05 908.83 1659.75 908.268 1667.11 907.395 1673.99 906.231 1705.67 900.857 1723.21 889.43 1723.21 876.219L1723.21 715.8C1723.21 697.409 1685.22 682.51 1633 682.51Z" stroke="#FFFFFF" stroke-width="7.76" stroke-linejoin="round" fill="none"/><path d="M1723.21 714.423C1723.21 730.137 1685.22 743.62 1633 743.62 1580.78 743.62 1542.79 730.117 1542.79 714.423" stroke="#FFFFFF" stroke-width="7.76" stroke-linejoin="round" fill="none"/><path d="M1723.21 770.993C1723.21 786.707 1685.22 798.91 1633 798.91 1580.78 798.91 1542.79 786.707 1542.79 770.993" stroke="#FFFFFF" stroke-width="7.76" stroke-linejoin="round" fill="none"/><path d="M1723.21 827.021C1723.21 842.735 1685.22 854.2 1633 854.2 1580.78 854.2 1542.79 842.715 1542.79 827.021" stroke="#FFFFFF" stroke-width="7.76" stroke-linejoin="round" fill="none"/><path d="M1633 682.51C1580.78 682.51 1542.79 696.129 1542.79 714.52L1542.79 877.48C1542.79 890.691 1560.33 900.838 1592.01 906.211 1598.89 907.375 1606.25 908.268 1613.95 908.811 1617.03 909.024 1620.16 909.199 1623.34 909.315 1626.52 909.432 1629.74 909.49 1633 909.49 1636.26 909.49 1639.48 909.432 1642.66 909.315 1645.84 909.199 1648.97 909.024 1652.05 908.811 1659.75 908.248 1667.11 907.375 1673.99 906.211 1705.67 900.838 1723.21 890.691 1723.21 877.48L1723.21 714.52C1723.21 696.129 1685.22 682.51 1633 682.51Z" stroke="#FFFFFF" stroke-width="7.76" stroke-linejoin="round" fill="none"/></g></g></g><path d="M1063 1419 1829 1419 1829 1948 1063 1948Z" fill="#007E94" fill-rule="evenodd"/><text fill="#FFFFFF" font-family="Amazon Ember,Amazon Ember_MSFontService,sans-serif" font-weight="700" font-size="73" transform="matrix(1 0 0 1 1234.07 1830)">Deployment</text><g><g><g><path d="M1546.27 1701.58C1553.46 1686.66 1554.57 1664.54 1554.57 1664.54 1554.57 1620.3 1528.85 1599.84 1528.85 1599.84 1528.85 1599.84 1503.14 1620.3 1503.14 1664.54 1503.14 1664.54 1504.25 1686.66 1511.44 1701.58L1546.26 1701.58Z" stroke="#FFFFFF" stroke-width="5.84" stroke-linejoin="round" fill="none"/><path d="M1519.45 1701.58 1511.16 1710.15 1546.55 1710.15 1537.98 1701.58 1519.45 1701.58Z" stroke="#FFFFFF" stroke-width="5.84" stroke-linejoin="round" fill="none"/><path d="M1502.33 1666.22C1501.19 1666.22 1489 1681.78 1489 1681.78L1489 1714.48 1508.08 1695.4" stroke="#FFFFFF" stroke-width="5.84" stroke-linejoin="round" fill="none"/><path d="M1554.87 1666.22C1556.01 1666.22 1568.2 1681.78 1568.2 1681.78L1568.2 1714.48 1549.12 1695.4" stroke="#FFFFFF" stroke-width="5.84" stroke-linejoin="round" fill="none"/><path d="M1518.42 1719.48 1518.42 1735.32" stroke="#FFFFFF" stroke-width="5.84" stroke-linejoin="round" fill="none"/><path d="M1538.78 1719.48 1538.78 1735.32" stroke="#FFFFFF" stroke-width="5.84" stroke-linejoin="round" fill="none"/><path d="M1527.47 1721.74 1527.47 1746.63" stroke="#FFFFFF" stroke-width="5.84" stroke-linejoin="round" fill="none"/><path d="M1521.7 1631.22 1535.51 1631.22C1539.82 1631.22 1543.32 1634.72 1543.32 1639.03L1543.32 1641.53C1543.32 1645.83 1539.82 1649.34 1535.51 1649.34L1521.7 1649.34C1517.39 1649.34 1513.89 1645.83 1513.89 1641.53L1513.89 1639.03C1513.89 1634.72 1517.39 1631.22 1521.7 1631.22Z" stroke="#FFFFFF" stroke-width="5.84" stroke-linejoin="round" fill="none"/><path d="M1453.48 1567.01 1428.95 1647.21" stroke="#FFFFFF" stroke-width="5.84" stroke-linejoin="round" fill="none"/><path d="M1420.32 1585.64 1391.94 1601.33 1391.94 1604.88 1420.32 1619.88" stroke="#FFFFFF" stroke-width="5.84" stroke-linejoin="round" fill="none"/><path d="M1464.35 1585.64 1492.73 1601.33 1492.73 1604.88 1464.35 1619.88" stroke="#FFFFFF" stroke-width="5.84" stroke-linejoin="round" fill="none"/><path d="M1542.26 1589.9 1542.26 1544.36C1542.26 1537.82 1536.96 1532.52 1530.42 1532.52L1361.58 1532.52C1355.04 1532.52 1349.74 1537.82 1349.74 1544.36L1349.74 1677.03 1469.75 1677.03" stroke="#FFFFFF" stroke-width="5.84" stroke-linejoin="round" fill="none" fill-rule="evenodd"/><path d="M1469.52 1677.88 1330.22 1677.88 1352.93 1709.48 1470.73 1709.48" stroke="#FFFFFF" stroke-width="5.84" stroke-linejoin="round" fill="none" fill-rule="evenodd"/></g></g></g><path d="M1714 1451 1749.67 1413.73 1722.17 1370.43 1764.65 1340.63 1746.39 1292.95 1794.04 1271.77 1785.71 1221.55 1836.7 1209.8 1838.63 1158.97 1891 1157.1 1903.1 1107.6 1954.85 1115.69 1976.67 1069.44 2025.79 1087.16 2056.49 1045.93 2101.1 1072.62 2139.5 1038 2177.9 1072.62 2222.51 1045.93 2253.21 1087.16 2302.33 1069.44 2324.15 1115.69 2375.9 1107.6 2388 1157.1 2440.37 1158.97 2442.3 1209.8 2493.29 1221.55 2484.96 1271.77 2532.61 1292.95 2514.35 1340.63 2556.83 1370.43 2529.33 1413.73 2565 1451 2529.33 1488.27 2556.83 1531.57 2514.35 1561.37 2532.61 1609.05 2484.96 1630.23 2493.29 1680.45 2442.3 1692.2 2440.37 1743.04 2388 1744.9 2375.9 1794.4 2324.15 1786.31 2302.33 1832.56 2253.21 1814.84 2222.51 1856.07 2177.9 1829.38 2139.5 1864 2101.1 1829.38 2056.49 1856.07 2025.79 1814.84 1976.67 1832.56 1954.85 1786.31 1903.1 1794.4 1891 1744.9 1838.63 1743.04 1836.7 1692.2 1785.71 1680.45 1794.04 1630.23 1746.39 1609.05 1764.65 1561.37 1722.17 1531.57 1749.67 1488.27Z" fill="#004761" fill-rule="evenodd"/><text fill="#FFFFFF" font-family="Amazon Ember,Amazon Ember_MSFontService,sans-serif" font-weight="700" font-size="92" transform="matrix(1 0 0 1 1880.43 1424)">Central Hub</text><text fill="#FFFFFF" font-family="Amazon Ember,Amazon Ember_MSFontService,sans-serif" font-weight="400" font-size="64" transform="matrix(1 0 0 1 1894.18 1492)">Prompt Manager</text><path d="M623 897 994 897 994 1083 623 1083Z" fill="#B8E7FF" fill-rule="evenodd"/><text fill="#151D26" font-family="Amazon Ember,Amazon Ember_MSFontService,sans-serif" font-weight="400" font-size="73" transform="matrix(1 0 0 1 708.273 1025)">App A</text><path d="M2291 541 2662 541 2662 726 2291 726Z" fill="#B8E7FF" fill-rule="evenodd"/><text fill="#151D26" font-family="Amazon Ember,Amazon Ember_MSFontService,sans-serif" font-weight="400" font-size="73" transform="matrix(1 0 0 1 2377.58 669)">App B</text><path d="M1536 2091 1907 2091 1907 2277 1536 2277Z" fill="#B8E7FF" fill-rule="evenodd"/><text fill="#151D26" font-family="Amazon Ember,Amazon Ember_MSFontService,sans-serif" font-weight="400" font-size="73" transform="matrix(1 0 0 1 1622.48 2219)">App C</text><path d="M3105 1615 3476 1615 3476 1801 3105 1801Z" fill="#B8E7FF" fill-rule="evenodd"/><text fill="#151D26" font-family="Amazon Ember,Amazon Ember_MSFontService,sans-serif" font-weight="400" font-size="73" transform="matrix(1 0 0 1 3188.67 1744)">App D</text></g></svg>