<svg width="2868" height="1000" xmlns="http://www.w3.org/2000/svg" xmlns:xlink="http://www.w3.org/1999/xlink" xml:space="preserve" overflow="hidden"><defs><clipPath id="clip0"><rect x="673" y="780" width="2868" height="1000"/></clipPath></defs><g clip-path="url(#clip0)" transform="translate(-673 -780)"><path d="M1963 894 2077 894" stroke="#151D26" stroke-width="5.72917" stroke-miterlimit="8" fill="none" fill-rule="evenodd"/><path d="M673 780 1246 780 1246 1009 673 1009Z" fill="#151D26" fill-rule="evenodd"/><text fill="#FFFFFF" font-family="Amazon Ember,Amazon Ember_MSFontService,sans-serif" font-weight="700" font-size="55" transform="matrix(1 0 0 1 724.443 858)">1. Identify Quality</text><text fill="#FFFFFF" font-family="Amazon Ember,Amazon Ember_MSFontService,sans-serif" font-weight="400" font-size="55" transform="matrix(1 0 0 1 816.396 915)">Dimensions</text><path d="M1117 965.5C1117 973.508 1110.73 980 1103 980 1095.27 980 1089 973.508 1089 965.5 1089 957.492 1095.27 951 1103 951 1110.73 951 1117 957.492 1117 965.5Z" fill="#AEFFA8" fill-rule="evenodd"/><path d="M1246 894 1361 894" stroke="#151D26" stroke-width="5.72917" stroke-miterlimit="8" fill="none" fill-rule="evenodd"/><path d="M1346 880 1375 894.5 1346 909Z" stroke="#151D26" stroke-width="5.72917" stroke-miterlimit="8" fill="#151D26" fill-rule="evenodd"/><path d="M1372 780 2002 780 2002 1009 1372 1009Z" fill="#004761" fill-rule="evenodd"/><text fill="#FFFFFF" font-family="Amazon Ember,Amazon Ember_MSFontService,sans-serif" font-weight="700" font-size="55" transform="matrix(1 0 0 1 1387.83 858)">2. Define Measurement</text><text fill="#FFFFFF" font-family="Amazon Ember,Amazon Ember_MSFontService,sans-serif" font-weight="400" font-size="55" transform="matrix(1 0 0 1 1484.94 915)">Scales &amp; Criteria</text><path d="M1845 965.5C1845 973.508 1838.51 980 1830.5 980 1822.49 980 1816 973.508 1816 965.5 1816 957.492 1822.49 951 1830.5 951 1838.51 951 1845 957.492 1845 965.5Z" fill="#AEFFA8" fill-rule="evenodd"/><path d="M2077 880 2106 894.5 2077 909Z" stroke="#151D26" stroke-width="5.72917" stroke-miterlimit="8" fill="#151D26" fill-rule="evenodd"/><path d="M2106 780 2679 780 2679 1009 2106 1009Z" fill="#007E94" fill-rule="evenodd"/><text fill="#FFFFFF" font-family="Amazon Ember,Amazon Ember_MSFontService,sans-serif" font-weight="700" font-size="55" transform="matrix(1 0 0 1 2139.55 858)">3. Establish Scoring</text><text fill="#FFFFFF" font-family="Amazon Ember,Amazon Ember_MSFontService,sans-serif" font-weight="400" font-size="55" transform="matrix(1 0 0 1 2255.85 915)">Thresholds</text><path d="M2550 965.5C2550 973.508 2543.51 980 2535.5 980 2527.49 980 2521 973.508 2521 965.5 2521 957.492 2527.49 951 2535.5 951 2543.51 951 2550 957.492 2550 965.5Z" fill="#AEFFA8" fill-rule="evenodd"/><path d="M2679 894 2793 894" stroke="#151D26" stroke-width="5.72917" stroke-miterlimit="8" fill="none" fill-rule="evenodd"/><path d="M2793 880 2822 894.5 2793 909Z" stroke="#151D26" stroke-width="5.72917" stroke-miterlimit="8" fill="#151D26" fill-rule="evenodd"/><path d="M2822 780 3395 780 3395 1009 2822 1009Z" fill="#B8E7FF" fill-rule="evenodd"/><text fill="#151D26" font-family="Amazon Ember,Amazon Ember_MSFontService,sans-serif" font-weight="700" font-size="55" transform="matrix(1 0 0 1 2904.68 858)">4. Validate with</text><text fill="#151D26" font-family="Amazon Ember,Amazon Ember_MSFontService,sans-serif" font-weight="400" font-size="55" transform="matrix(1 0 0 1 2945.64 915)">Stakeholders</text><path d="M3266 965.5C3266 973.508 3259.51 980 3251.5 980 3243.49 980 3237 973.508 3237 965.5 3237 957.492 3243.49 951 3251.5 951 3259.51 951 3266 957.492 3266 965.5Z" fill="#AEFFA8" fill-rule="evenodd"/><path d="M3395 894 3538 894" stroke="#151D26" stroke-width="5.72917" stroke-miterlimit="8" fill="none" fill-rule="evenodd"/><path d="M3538 894 3538 1181" stroke="#151D26" stroke-width="5.72917" stroke-miterlimit="8" fill="none" fill-rule="evenodd"/><path d="M3538 1181 3395 1181" stroke="#151D26" stroke-width="5.72917" stroke-miterlimit="8" fill="none" fill-rule="evenodd"/><path d="M3395 1166 3366 1180.5 3395 1195Z" stroke="#151D26" stroke-width="5.72917" stroke-miterlimit="8" fill="#151D26" fill-rule="evenodd"/><path d="M2822 1066 3395 1066 3395 1295 2822 1295Z" fill="#AEFFA8" fill-rule="evenodd"/><text fill="#151D26" font-family="Amazon Ember,Amazon Ember_MSFontService,sans-serif" font-weight="700" font-size="55" transform="matrix(1 0 0 1 2934.76 1144)">5. Implement</text><text fill="#151D26" font-family="Amazon Ember,Amazon Ember_MSFontService,sans-serif" font-weight="400" font-size="55" transform="matrix(1 0 0 1 2866.58 1201)">Automated Scoring</text><path d="M3266 1252.5C3266 1260.51 3259.51 1267 3251.5 1267 3243.49 1267 3237 1260.51 3237 1252.5 3237 1244.49 3243.49 1238 3251.5 1238 3259.51 1238 3266 1244.49 3266 1252.5Z" fill="#007E94" fill-rule="evenodd"/><path d="M2822 1181 2707 1181" stroke="#151D26" stroke-width="5.72917" stroke-miterlimit="8" fill="none" fill-rule="evenodd"/><path d="M2707 1166 2679 1180.5 2707 1195Z" stroke="#151D26" stroke-width="5.72917" stroke-miterlimit="8" fill="#151D26" fill-rule="evenodd"/><path d="M2106 1066 2679 1066 2679 1295 2106 1295Z" fill="#CCFFE9" fill-rule="evenodd"/><text fill="#151D26" font-family="Amazon Ember,Amazon Ember_MSFontService,sans-serif" font-weight="700" font-size="55" transform="matrix(1 0 0 1 2132.39 1144)">6. Configure Human</text><text fill="#151D26" font-family="Amazon Ember,Amazon Ember_MSFontService,sans-serif" font-weight="400" font-size="55" transform="matrix(1 0 0 1 2260.43 1201)">Evaluation</text><path d="M2550 1252.5C2550 1260.51 2543.51 1267 2535.5 1267 2527.49 1267 2521 1260.51 2521 1252.5 2521 1244.49 2527.49 1238 2535.5 1238 2543.51 1238 2550 1244.49 2550 1252.5Z" fill="#007E94" fill-rule="evenodd"/><path d="M2106 1181 1991 1181" stroke="#151D26" stroke-width="5.72917" stroke-miterlimit="8" fill="none" fill-rule="evenodd"/><path d="M1991 1166 1963 1180.5 1991 1195Z" stroke="#151D26" stroke-width="5.72917" stroke-miterlimit="8" fill="#151D26" fill-rule="evenodd"/><path d="M1390 1066 1963 1066 1963 1295 1390 1295Z" fill="#004761" fill-rule="evenodd"/><text fill="#FFFFFF" font-family="Amazon Ember,Amazon Ember_MSFontService,sans-serif" font-weight="700" font-size="55" transform="matrix(1 0 0 1 1412.8 1144)">7. Establish Baseline</text><text fill="#FFFFFF" font-family="Amazon Ember,Amazon Ember_MSFontService,sans-serif" font-weight="400" font-size="55" transform="matrix(1 0 0 1 1542.28 1201)">&amp; Tracking</text><path d="M1834 1252.5C1834 1260.51 1827.51 1267 1819.5 1267 1811.49 1267 1805 1260.51 1805 1252.5 1805 1244.49 1811.49 1238 1819.5 1238 1827.51 1238 1834 1244.49 1834 1252.5Z" fill="#AEFFA8" fill-rule="evenodd"/><text fill="#151D26" font-family="Amazon Ember,Amazon Ember_MSFontService,sans-serif" font-weight="700" font-size="62" transform="matrix(1 0 0 1 1086.02 1438)">Progress Tracking</text><path d="M1093 1504 1523 1504 1523 1561 1093 1561Z" stroke="#151D26" stroke-width="5.72917" stroke-miterlimit="8" fill="#B8E7FF" fill-rule="evenodd"/><path d="M1093 1504 1437 1504 1437 1561 1093 1561Z" fill="#007E94" fill-rule="evenodd"/><text fill="#151D26" font-family="Amazon Ember,Amazon Ember_MSFontService,sans-serif" font-weight="400" font-size="55" transform="matrix(1 0 0 1 1560.12 1553)">Setup Phase: 80%</text><path d="M1093 1590 1523 1590 1523 1647 1093 1647Z" stroke="#151D26" stroke-width="5.72917" stroke-miterlimit="8" fill="#B8E7FF" fill-rule="evenodd"/><path d="M1093 1590 1351 1590 1351 1647 1093 1647Z" fill="#AEFFA8" fill-rule="evenodd"/><text fill="#151D26" font-family="Amazon Ember,Amazon Ember_MSFontService,sans-serif" font-weight="400" font-size="55" transform="matrix(1 0 0 1 1560.12 1639)">Implementation: 60%</text><path d="M1093 1676 1523 1676 1523 1733 1093 1733Z" stroke="#151D26" stroke-width="5.72917" stroke-miterlimit="8" fill="#B8E7FF" fill-rule="evenodd"/><path d="M1093 1676 1222 1676 1222 1733 1093 1733Z" fill="#CCFFE9" fill-rule="evenodd"/><text fill="#151D26" font-family="Amazon Ember,Amazon Ember_MSFontService,sans-serif" font-weight="400" font-size="55" transform="matrix(1 0 0 1 1560.12 1725)">Validation: 30%</text><text fill="#151D26" font-family="Amazon Ember,Amazon Ember_MSFontService,sans-serif" font-weight="700" font-size="62" transform="matrix(1 0 0 1 2513.95 1430)">Quality Elements</text><path d="M2565 1520C2565 1527.73 2558.51 1534 2550.5 1534 2542.49 1534 2536 1527.73 2536 1520 2536 1512.27 2542.49 1506 2550.5 1506 2558.51 1506 2565 1512.27 2565 1520Z" fill="#AEFFA8" fill-rule="evenodd"/><text fill="#151D26" font-family="Amazon Ember,Amazon Ember_MSFontService,sans-serif" font-weight="400" font-size="55" transform="matrix(1 0 0 1 2581.11 1541)">Active Process</text><path d="M2568 1615C2568 1622.73 2561.51 1629 2553.5 1629 2545.49 1629 2539 1622.73 2539 1615 2539 1607.27 2545.49 1601 2553.5 1601 2561.51 1601 2568 1607.27 2568 1615Z" fill="#007E94" fill-rule="evenodd"/><text fill="#151D26" font-family="Amazon Ember,Amazon Ember_MSFontService,sans-serif" font-weight="400" font-size="55" transform="matrix(1 0 0 1 2584.26 1636)">Validation Required</text><path d="M2568 1711C2568 1718.73 2561.51 1725 2553.5 1725 2545.49 1725 2539 1718.73 2539 1711 2539 1703.27 2545.49 1697 2553.5 1697 2561.51 1697 2568 1703.27 2568 1711Z" fill="#CCFFE9" fill-rule="evenodd"/><text fill="#151D26" font-family="Amazon Ember,Amazon Ember_MSFontService,sans-serif" font-weight="400" font-size="55" transform="matrix(1 0 0 1 2584.26 1732)">Pending Setup</text></g></svg>