<svg width="3644" height="414" xmlns="http://www.w3.org/2000/svg" xmlns:xlink="http://www.w3.org/1999/xlink" xml:space="preserve" overflow="hidden"><defs><clipPath id="clip0"><rect x="309" y="810" width="3644" height="414"/></clipPath></defs><g clip-path="url(#clip0)" transform="translate(-309 -810)"><path d="M2234 810 2991 810 2991 1223 2234 1223Z" fill="#AEFFA8" fill-rule="evenodd"/><path d="M2977 810 3089 810 3201 1016 3089 1222 2977 1222Z" fill="#AEFFA8" fill-rule="evenodd"/><path d="M1272 810 2028 810 2028 1223 1272 1223Z" fill="#007E94" fill-rule="evenodd"/><path d="M2010 810 2122 810 2234 1016.5 2122 1223 2010 1223Z" fill="#007E94" fill-rule="evenodd"/><path d="M309 810 1066 810 1066 1223 309 1223Z" fill="#004761" fill-rule="evenodd"/><path d="M1063 812 1175 812 1287 1018 1175 1224 1063 1224Z" fill="#004761" fill-rule="evenodd"/><text fill="#FFFFFF" font-family="Amazon Ember,Amazon Ember_MSFontService,sans-serif" font-weight="700" font-size="55" transform="matrix(1 0 0 1 512.61 926)">Role Characteristics</text><text fill="#FFFFFF" font-family="Amazon Ember,Amazon Ember_MSFontService,sans-serif" font-weight="400" font-size="55" transform="matrix(1 0 0 1 643.235 994)">Definition</text><text fill="#B8E7FF" font-family="Amazon Ember,Amazon Ember_MSFontService,sans-serif" font-weight="400" font-size="55" transform="matrix(1 0 0 1 536.386 1098)">Persona Indicators</text><text fill="#FFFFFF" font-family="Amazon Ember,Amazon Ember_MSFontService,sans-serif" font-weight="700" font-size="55" transform="matrix(1 0 0 1 1372.22 926)">Knowledge &amp; Constraints</text><text fill="#FFFFFF" font-family="Amazon Ember,Amazon Ember_MSFontService,sans-serif" font-weight="400" font-size="55" transform="matrix(1 0 0 1 1540.09 994)">Specification</text><text fill="#B8E7FF" font-family="Amazon Ember,Amazon Ember_MSFontService,sans-serif" font-weight="400" font-size="55" transform="matrix(1 0 0 1 1474.2 1098)">Expertise Controls</text><text fill="#151D26" font-family="Amazon Ember,Amazon Ember_MSFontService,sans-serif" font-weight="700" font-size="55" transform="matrix(1 0 0 1 2371.6 926)">Communication Patterns</text><text fill="#151D26" font-family="Amazon Ember,Amazon Ember_MSFontService,sans-serif" font-weight="400" font-size="55" transform="matrix(1 0 0 1 2515.69 994)">Establishment</text><text fill="#004761" font-family="Amazon Ember,Amazon Ember_MSFontService,sans-serif" font-weight="400" font-size="55" transform="matrix(1 0 0 1 2399.38 1098)">Response Development</text><path d="M3197 810 3953 810 3953 1223 3197 1223Z" fill="#CCFFE9" fill-rule="evenodd"/><text fill="#151D26" font-family="Amazon Ember,Amazon Ember_MSFontService,sans-serif" font-weight="700" font-size="55" transform="matrix(1 0 0 1 3422.03 926)">Consistency</text><text fill="#151D26" font-family="Amazon Ember,Amazon Ember_MSFontService,sans-serif" font-weight="400" font-size="55" transform="matrix(1 0 0 1 3447.81 994)">Validation</text><text fill="#004761" font-family="Amazon Ember,Amazon Ember_MSFontService,sans-serif" font-weight="400" font-size="55" transform="matrix(1 0 0 1 3347.55 1098)">Systematic Design</text></g></svg>