<svg width="3644" height="733" xmlns="http://www.w3.org/2000/svg" xmlns:xlink="http://www.w3.org/1999/xlink" xml:space="preserve" overflow="hidden"><defs><clipPath id="clip0"><rect x="309" y="963" width="3644" height="733"/></clipPath></defs><g clip-path="url(#clip0)" transform="translate(-309 -963)"><path d="M309 963 1066 963 1066 1375 309 1375Z" fill="#007E94" fill-rule="evenodd"/><text fill="#FFFFFF" font-family="Amazon Ember,Amazon Ember_MSFontService,sans-serif" font-weight="700" font-size="62" transform="matrix(1 0 0 1 507.89 1063)">Architecture</text><text fill="#FFFFFF" font-family="Amazon Ember,Amazon Ember_MSFontService,sans-serif" font-weight="700" font-size="62" transform="matrix(1 0 0 1 567.76 1149)">Analysis</text><text fill="#FFFFFF" font-family="Amazon Ember,Amazon Ember_MSFontService,sans-serif" font-weight="400" font-size="55" transform="matrix(1 0 0 1 458.046 1252)">System evaluation</text><text fill="#FFFFFF" font-family="Amazon Ember,Amazon Ember_MSFontService,sans-serif" font-weight="400" font-size="55" transform="matrix(1 0 0 1 518.203 1321)">&amp; assessment</text><path d="M1066.5 1169.5 1238.5 1169.5" stroke="#151D26" stroke-width="6.875" stroke-miterlimit="8" fill="none" fill-rule="evenodd"/><path d="M1238 1152 1272 1169 1238 1186Z" fill="#151D26" fill-rule="evenodd"/><path d="M1272 963 2028 963 2028 1375 1272 1375Z" fill="#004761" fill-rule="evenodd"/><text fill="#FFFFFF" font-family="Amazon Ember,Amazon Ember_MSFontService,sans-serif" font-weight="700" font-size="62" transform="matrix(1 0 0 1 1526.25 1063)">Solution</text><text fill="#FFFFFF" font-family="Amazon Ember,Amazon Ember_MSFontService,sans-serif" font-weight="700" font-size="62" transform="matrix(1 0 0 1 1494.45 1149)">Evaluation</text><text fill="#FFFFFF" font-family="Amazon Ember,Amazon Ember_MSFontService,sans-serif" font-weight="400" font-size="55" transform="matrix(1 0 0 1 1446.33 1252)">Options analysis</text><text fill="#FFFFFF" font-family="Amazon Ember,Amazon Ember_MSFontService,sans-serif" font-weight="400" font-size="55" transform="matrix(1 0 0 1 1477.55 1321)">&amp; comparison</text><path d="M2028.5 1169.5 2200.5 1169.5" stroke="#151D26" stroke-width="6.875" stroke-miterlimit="8" fill="none" fill-rule="evenodd"/><path d="M2200 1152 2234 1169 2200 1186Z" fill="#151D26" fill-rule="evenodd"/><path d="M2234 963 2991 963 2991 1375 2234 1375Z" fill="#B8E7FF" fill-rule="evenodd"/><text fill="#151D26" font-family="Amazon Ember,Amazon Ember_MSFontService,sans-serif" font-weight="700" font-size="62" transform="matrix(1 0 0 1 2356.41 1063)">Recommendation</text><text fill="#151D26" font-family="Amazon Ember,Amazon Ember_MSFontService,sans-serif" font-weight="700" font-size="62" transform="matrix(1 0 0 1 2417.14 1149)">Development</text><text fill="#151D26" font-family="Amazon Ember,Amazon Ember_MSFontService,sans-serif" font-weight="400" font-size="55" transform="matrix(1 0 0 1 2349.82 1252)">Strategy formulation</text><text fill="#151D26" font-family="Amazon Ember,Amazon Ember_MSFontService,sans-serif" font-weight="400" font-size="55" transform="matrix(1 0 0 1 2475.57 1321)">&amp; planning</text><path d="M2991.5 1169.5 3163.5 1169.5" stroke="#151D26" stroke-width="6.875" stroke-miterlimit="8" fill="none" fill-rule="evenodd"/><path d="M3163 1152 3197 1169 3163 1186Z" fill="#151D26" fill-rule="evenodd"/><path d="M3197 963 3953 963 3953 1375 3197 1375Z" fill="#AEFFA8" fill-rule="evenodd"/><text fill="#151D26" font-family="Amazon Ember,Amazon Ember_MSFontService,sans-serif" font-weight="700" font-size="62" transform="matrix(1 0 0 1 3514.27 1063)">Risk</text><text fill="#151D26" font-family="Amazon Ember,Amazon Ember_MSFontService,sans-serif" font-weight="700" font-size="62" transform="matrix(1 0 0 1 3406.56 1149)">Assessment</text><text fill="#151D26" font-family="Amazon Ember,Amazon Ember_MSFontService,sans-serif" font-weight="400" font-size="55" transform="matrix(1 0 0 1 3383.93 1252)">Impact analysis</text><text fill="#151D26" font-family="Amazon Ember,Amazon Ember_MSFontService,sans-serif" font-weight="400" font-size="55" transform="matrix(1 0 0 1 3418.59 1321)">&amp; mitigation</text><path d="M715 1512.5C715 1527.69 702.688 1540 687.5 1540 672.312 1540 660 1527.69 660 1512.5 660 1497.31 672.312 1485 687.5 1485 702.688 1485 715 1497.31 715 1512.5Z" fill="#151D26" fill-rule="evenodd"/><path d="M1678 1512.5C1678 1527.69 1665.69 1540 1650.5 1540 1635.31 1540 1623 1527.69 1623 1512.5 1623 1497.31 1635.31 1485 1650.5 1485 1665.69 1485 1678 1497.31 1678 1512.5Z" fill="#151D26" fill-rule="evenodd"/><path d="M2640 1512.5C2640 1527.69 2627.69 1540 2612.5 1540 2597.31 1540 2585 1527.69 2585 1512.5 2585 1497.31 2597.31 1485 2612.5 1485 2627.69 1485 2640 1497.31 2640 1512.5Z" fill="#151D26" fill-rule="evenodd"/><path d="M3603 1512.5C3603 1527.69 3590.69 1540 3575.5 1540 3560.31 1540 3548 1527.69 3548 1512.5 3548 1497.31 3560.31 1485 3575.5 1485 3590.69 1485 3603 1497.31 3603 1512.5Z" fill="#151D26" fill-rule="evenodd"/><path d="M688.5 1513.5 3575.5 1513.5" stroke="#151D26" stroke-width="6.875" stroke-miterlimit="8" stroke-dasharray="25.7812 25.7812" fill="none" fill-rule="evenodd"/><text fill="#151D26" font-family="Amazon Ember,Amazon Ember_MSFontService,sans-serif" font-weight="400" font-size="55" transform="matrix(1 0 0 1 1655.73 1648)">Comprehensive Analysis Development</text></g></svg>