<svg width="3025" height="1100" xmlns="http://www.w3.org/2000/svg" xmlns:xlink="http://www.w3.org/1999/xlink" xml:space="preserve" overflow="hidden"><defs><clipPath id="clip0"><rect x="413" y="754" width="3025" height="1100"/></clipPath></defs><g clip-path="url(#clip0)" transform="translate(-413 -754)"><path d="M1210.5 754C1225.69 754 1238 754 1238 754L1238 1166C1238 1166 1225.69 1166 1210.5 1166L440.5 1166C425.312 1166 413 1166 413 1166L413 754C413 754 425.312 754 440.5 754Z" fill="#B8E7FF" fill-rule="evenodd"/><text fill="#151D26" font-family="Amazon Ember,Amazon Ember_MSFontService,sans-serif" font-weight="700" font-size="62" transform="matrix(1 0 0 1 717.414 838)">Stage 1</text><text fill="#151D26" font-family="Amazon Ember,Amazon Ember_MSFontService,sans-serif" font-weight="400" font-size="55" transform="matrix(1 0 0 1 561.008 923)">Prioritize Refinement</text><text fill="#151D26" font-family="Amazon Ember,Amazon Ember_MSFontService,sans-serif" font-weight="400" font-size="55" transform="matrix(1 0 0 1 652.101 992)">Opportunities</text><path d="M1155.26 1063C1162.85 1063 1169 1063 1169 1063L1169 1091C1169 1091 1162.85 1091 1155.26 1091L495.74 1091C488.152 1091 482 1091 482 1091L482 1063C482 1063 488.152 1063 495.74 1063Z" fill="#004761" fill-rule="evenodd"/><path d="M640.24 1063C647.84 1063 654 1063 654 1063L654 1091C654 1091 647.84 1091 640.24 1091L495.76 1091C488.161 1091 482 1091 482 1091L482 1063C482 1063 488.161 1063 495.76 1063Z" fill="#AEFFA8" fill-rule="evenodd"/><path d="M1238.5 960.5 1444.5 960.5" stroke="#151D26" stroke-width="6.875" stroke-miterlimit="8" fill="none" fill-rule="evenodd"/><path d="M1444 943 1479 960 1444 977Z" fill="#151D26" fill-rule="evenodd"/><path d="M2310.5 754C2325.69 754 2338 754 2338 754L2338 1166C2338 1166 2325.69 1166 2310.5 1166L1540.5 1166C1525.31 1166 1513 1166 1513 1166L1513 754C1513 754 1525.31 754 1540.5 754Z" fill="#007E94" fill-rule="evenodd"/><text fill="#FFFFFF" font-family="Amazon Ember,Amazon Ember_MSFontService,sans-serif" font-weight="700" font-size="62" transform="matrix(1 0 0 1 1817.41 838)">Stage 2</text><text fill="#FFFFFF" font-family="Amazon Ember,Amazon Ember_MSFontService,sans-serif" font-weight="400" font-size="55" transform="matrix(1 0 0 1 1721.45 923)">Design Targeted</text><text fill="#FFFFFF" font-family="Amazon Ember,Amazon Ember_MSFontService,sans-serif" font-weight="400" font-size="55" transform="matrix(1 0 0 1 1636.37 992)">Modification Strategies</text><path d="M2255.26 1063C2262.85 1063 2269 1063 2269 1063L2269 1091C2269 1091 2262.85 1091 2255.26 1091L1595.74 1091C1588.15 1091 1582 1091 1582 1091L1582 1063C1582 1063 1588.15 1063 1595.74 1063Z" fill="#B8E7FF" fill-rule="evenodd"/><path d="M1912.24 1063C1919.84 1063 1926 1063 1926 1063L1926 1091C1926 1091 1919.84 1091 1912.24 1091L1595.76 1091C1588.16 1091 1582 1091 1582 1091L1582 1063C1582 1063 1588.16 1063 1595.76 1063Z" fill="#AEFFA8" fill-rule="evenodd"/><path d="M2338.5 960.5 2544.5 960.5" stroke="#151D26" stroke-width="6.875" stroke-miterlimit="8" fill="none" fill-rule="evenodd"/><path d="M2544 943 2579 960 2544 977Z" fill="#151D26" fill-rule="evenodd"/><path d="M3410.5 754C3425.69 754 3438 754 3438 754L3438 1166C3438 1166 3425.69 1166 3410.5 1166L2640.5 1166C2625.31 1166 2613 1166 2613 1166L2613 754C2613 754 2625.31 754 2640.5 754Z" fill="#004761" fill-rule="evenodd"/><text fill="#FFFFFF" font-family="Amazon Ember,Amazon Ember_MSFontService,sans-serif" font-weight="700" font-size="62" transform="matrix(1 0 0 1 2917.41 838)">Stage 3</text><text fill="#FFFFFF" font-family="Amazon Ember,Amazon Ember_MSFontService,sans-serif" font-weight="400" font-size="55" transform="matrix(1 0 0 1 2732.07 923)">Implement Incremental</text><text fill="#FFFFFF" font-family="Amazon Ember,Amazon Ember_MSFontService,sans-serif" font-weight="400" font-size="55" transform="matrix(1 0 0 1 2772.47 992)">Testing &amp; Validation</text><path d="M3355.26 1063C3362.85 1063 3369 1063 3369 1063L3369 1091C3369 1091 3362.85 1091 3355.26 1091L2695.74 1091C2688.15 1091 2682 1091 2682 1091L2682 1063C2682 1063 2688.15 1063 2695.74 1063Z" fill="#B8E7FF" fill-rule="evenodd"/><path d="M3184.24 1063C3191.84 1063 3198 1063 3198 1063L3198 1091C3198 1091 3191.84 1091 3184.24 1091L2695.76 1091C2688.16 1091 2682 1091 2682 1091L2682 1063C2682 1063 2688.16 1063 2695.76 1063Z" fill="#AEFFA8" fill-rule="evenodd"/><path d="M3026.5 1166.5 3026.5 1373.5" stroke="#151D26" stroke-width="6.875" stroke-miterlimit="8" fill="none" fill-rule="evenodd"/><path d="M3009 1373 3026 1407 3043 1373Z" fill="#151D26" fill-rule="evenodd"/><path d="M3410.5 1441C3425.69 1441 3438 1441 3438 1441L3438 1854C3438 1854 3425.69 1854 3410.5 1854L2640.5 1854C2625.31 1854 2613 1854 2613 1854L2613 1441C2613 1441 2625.31 1441 2640.5 1441Z" fill="#CCFFE9" fill-rule="evenodd"/><text fill="#151D26" font-family="Amazon Ember,Amazon Ember_MSFontService,sans-serif" font-weight="700" font-size="62" transform="matrix(1 0 0 1 2917.41 1525)">Stage 4</text><text fill="#151D26" font-family="Amazon Ember,Amazon Ember_MSFontService,sans-serif" font-weight="400" font-size="55" transform="matrix(1 0 0 1 2787.36 1611)">Monitor &amp; Measure</text><text fill="#151D26" font-family="Amazon Ember,Amazon Ember_MSFontService,sans-serif" font-weight="400" font-size="55" transform="matrix(1 0 0 1 2685.38 1680)">Improvement Effectiveness</text><path d="M3355.26 1751C3362.85 1751 3369 1751 3369 1751L3369 1778C3369 1778 3362.85 1778 3355.26 1778L2695.74 1778C2688.15 1778 2682 1778 2682 1778L2682 1751C2682 1751 2688.15 1751 2695.74 1751Z" fill="#004761" fill-rule="evenodd"/><path d="M3355.26 1751C3362.85 1751 3369 1751 3369 1751L3369 1778C3369 1778 3362.85 1778 3355.26 1778L2695.74 1778C2688.15 1778 2682 1778 2682 1778L2682 1751C2682 1751 2688.15 1751 2695.74 1751Z" fill="#AEFFA8" fill-rule="evenodd"/><path d="M2607.5 1648.5 842.5 1648.5" stroke="#151D26" stroke-width="6.875" stroke-miterlimit="8" stroke-dasharray="41.25 20.625" fill="none" fill-rule="evenodd"/><path d="M0 472 0 0" stroke="#151D26" stroke-width="6.875" stroke-miterlimit="8" stroke-dasharray="41.25 20.625" fill="none" fill-rule="evenodd" transform="matrix(-1 0 0 1 831.5 1176.5)"/><path d="M811 1201 828.5 1167 846 1201Z" fill="#151D26" fill-rule="evenodd"/><path d="M2379.5 1308C2394.69 1308 2407 1308 2407 1308L2407 1514C2407 1514 2394.69 1514 2379.5 1514L1059.5 1514C1044.31 1514 1032 1514 1032 1514L1032 1308C1032 1308 1044.31 1308 1059.5 1308Z" fill="#AEFFA8" fill-rule="evenodd"/><text fill="#151D26" font-family="Amazon Ember,Amazon Ember_MSFontService,sans-serif" font-weight="700" font-size="62" transform="matrix(1 0 0 1 1285.75 1374)">Risk Minimization Framework</text><text fill="#151D26" font-family="Amazon Ember,Amazon Ember_MSFontService,sans-serif" font-weight="400" font-size="55" transform="matrix(1 0 0 1 1076.63 1460)">Structured development with continuous validation</text></g></svg>