<svg width="3743" height="391" xmlns="http://www.w3.org/2000/svg" xmlns:xlink="http://www.w3.org/1999/xlink" xml:space="preserve" overflow="hidden"><defs><clipPath id="clip0"><rect x="194" y="1000" width="3743" height="391"/></clipPath></defs><g clip-path="url(#clip0)" transform="translate(-194 -1000)"><path d="M194 1000 823 1000 823 1377 194 1377Z" fill="#B8E7FF" fill-rule="evenodd"/><text fill="#151D26" font-family="Amazon Ember,Amazon Ember_MSFontService,sans-serif" font-weight="700" font-size="73" transform="matrix(1 0 0 1 269.307 1108)">Requirements</text><text fill="#151D26" font-family="Amazon Ember,Amazon Ember_MSFontService,sans-serif" font-weight="700" font-size="73" transform="matrix(1 0 0 1 335.191 1170)">Definition</text><path d="M449 1220 543 1220 543 1299 449 1299Z" stroke="#151D26" stroke-width="6.28566" stroke-miterlimit="8" fill="none" fill-rule="evenodd"/><path d="M477 1252 493 1267" stroke="#151D26" stroke-width="6.28566" stroke-miterlimit="8" fill="none" fill-rule="evenodd"/><path d="M493 1267 524 1236" stroke="#151D26" stroke-width="6.28566" stroke-miterlimit="8" fill="none" fill-rule="evenodd"/><path d="M968 1000 1597 1000 1597 1377 968 1377Z" fill="#AEFFA8" fill-rule="evenodd"/><text fill="#151D26" font-family="Amazon Ember,Amazon Ember_MSFontService,sans-serif" font-weight="700" font-size="73" transform="matrix(1 0 0 1 1121.36 1108)">Structure</text><text fill="#151D26" font-family="Amazon Ember,Amazon Ember_MSFontService,sans-serif" font-weight="700" font-size="73" transform="matrix(1 0 0 1 1165.48 1170)">Design</text><path d="M1220 1220 1345 1220 1345 1315 1220 1315Z" stroke="#151D26" stroke-width="6.28566" stroke-miterlimit="8" fill="none" fill-rule="evenodd"/><path d="M1251.5 1220.5 1251.5 1315.5" stroke="#151D26" stroke-width="3.14301" stroke-miterlimit="8" fill="none" fill-rule="evenodd"/><path d="M1283.5 1220.5 1283.5 1315.5" stroke="#151D26" stroke-width="3.14301" stroke-miterlimit="8" fill="none" fill-rule="evenodd"/><path d="M1314.5 1220.5 1314.5 1315.5" stroke="#151D26" stroke-width="3.14301" stroke-miterlimit="8" fill="none" fill-rule="evenodd"/><path d="M1220.5 1252.5 1345.5 1252.5" stroke="#151D26" stroke-width="3.14301" stroke-miterlimit="8" fill="none" fill-rule="evenodd"/><path d="M1220.5 1283.5 1345.5 1283.5" stroke="#151D26" stroke-width="3.14301" stroke-miterlimit="8" fill="none" fill-rule="evenodd"/><path d="M1745 1000 2374 1000 2374 1377 1745 1377Z" fill="#CCFFE9" fill-rule="evenodd"/><text fill="#151D26" font-family="Amazon Ember,Amazon Ember_MSFontService,sans-serif" font-weight="700" font-size="73" transform="matrix(1 0 0 1 1914.95 1108)">Variable</text><text fill="#151D26" font-family="Amazon Ember,Amazon Ember_MSFontService,sans-serif" font-weight="700" font-size="73" transform="matrix(1 0 0 1 1780.6 1170)">Implementation</text><text fill="#151D26" font-family="Amazon Ember,Amazon Ember_MSFontService,sans-serif" font-weight="400" font-size="83" transform="matrix(1 0 0 1 1996.67 1299)">{}</text><text fill="#151D26" font-family="Amazon Ember,Amazon Ember_MSFontService,sans-serif" font-weight="400" font-size="83" transform="matrix(1 0 0 1 2066.98 1299)">$</text><path d="M3309 1000 3937 1000 3937 1377 3309 1377Z" fill="#151D26" fill-rule="evenodd"/><text fill="#FFFFFF" font-family="Amazon Ember,Amazon Ember_MSFontService,sans-serif" font-weight="700" font-size="73" transform="matrix(1 0 0 1 3356.19 1108)">Documentation</text><path d="M3576 1173 3670 1173 3670 1283 3576 1283Z" stroke="#FFFFFF" stroke-width="6.28566" stroke-miterlimit="8" fill="none" fill-rule="evenodd"/><path d="M3591.5 1202.5 3654.5 1202.5" stroke="#FFFFFF" stroke-width="3.14301" stroke-miterlimit="8" fill="none" fill-rule="evenodd"/><path d="M3591.5 1233.5 3654.5 1233.5" stroke="#FFFFFF" stroke-width="3.14301" stroke-miterlimit="8" fill="none" fill-rule="evenodd"/><path d="M3591.5 1265.5 3639.5 1265.5" stroke="#FFFFFF" stroke-width="3.14301" stroke-miterlimit="8" fill="none" fill-rule="evenodd"/><path d="M2525 1000 3154 1000 3154 1377 2525 1377Z" fill="#004761" fill-rule="evenodd"/><text fill="#FFFFFF" font-family="Amazon Ember,Amazon Ember_MSFontService,sans-serif" font-weight="700" font-size="73" transform="matrix(1 0 0 1 2712.5 1108)">Testing</text><g><g><g><path d="M115.083 143.004 97.2536 101.402C96.7096 100.014 96.424 98.532 96.424 97.036L96.424 63.9064 92.3304 63.9064" stroke="#FFFFFF" stroke-width="5.44018" stroke-linejoin="round" fill="none" transform="matrix(1 0 0 1 2704 1119)"/><path d="M68.136 63.9336 63.8384 63.9336 63.8112 84.592 63.8792 87.4072 63.8792 97.4848C63.8792 98.6816 63.648 99.8648 63.2128 100.98L38.7328 159.31C35.6456 167.09 41.3848 175.576 49.7488 175.576L58.9968 175.576 63.852 175.603 83.4088 175.603" stroke="#FFFFFF" stroke-width="5.44018" stroke-linejoin="round" fill="none" transform="matrix(1 0 0 1 2704 1119)"/><path d="M64.26 54.604 96.5192 54.604" stroke="#FFFFFF" stroke-width="5.44018" stroke-linejoin="round" fill="none" transform="matrix(1 0 0 1 2704 1119)"/><path d="M103.374 54.3728 103.374 45.2336 56.9296 45.2336 56.9296 54.3728" stroke="#FFFFFF" stroke-width="5.44018" stroke-linejoin="round" fill="none" transform="matrix(1 0 0 1 2704 1119)"/><path d="M175.426 175.821 234.11 175.821" stroke="#FFFFFF" stroke-width="5.44018" stroke-linejoin="round" fill="none" transform="matrix(1 0 0 1 2704 1119)"/><path d="M178.16 98.4232 178.16 175.277" stroke="#FFFFFF" stroke-width="5.44018" stroke-linejoin="round" fill="none" transform="matrix(1 0 0 1 2704 1119)"/><path d="M129.567 96.424 226.494 96.424" stroke="#FFFFFF" stroke-width="5.44018" stroke-linejoin="round" fill="none" transform="matrix(1 0 0 1 2704 1119)"/><path d="M129.581 86.8496 175.426 86.8496" stroke="#FFFFFF" stroke-width="5.44018" stroke-linejoin="round" fill="none" transform="matrix(1 0 0 1 2704 1119)"/><path d="M166.11 86.972 166.11 49.3136C166.11 47.0288 164.465 45.1792 162.18 45.1792L142.514 45.1792C140.23 45.1792 138.38 47.0288 138.38 49.3136L138.38 86.972" stroke="#FFFFFF" stroke-width="5.44018" stroke-linejoin="round" fill="none" transform="matrix(1 0 0 1 2704 1119)"/><path d="M166.314 103.972 166.314 134.45C166.314 137.986 165.118 141.209 162.819 143.63 160.249 146.336 156.264 148.05 152.143 148.05 144.364 148.05 138.366 141.957 138.366 134.45L138.366 103.972" stroke="#FFFFFF" stroke-width="5.44018" stroke-linejoin="round" fill="none" transform="matrix(1 0 0 1 2704 1119)"/><path d="M182.73 86.904 226.494 86.904" stroke="#FFFFFF" stroke-width="5.44018" stroke-linejoin="round" fill="none" transform="matrix(1 0 0 1 2704 1119)"/><path d="M217.627 87.0536 217.627 49.4088C217.627 47.124 215.778 45.2744 213.493 45.2744L194.398 45.2744C192.114 45.2744 189.842 47.124 189.842 49.4088L189.842 87.0536" stroke="#FFFFFF" stroke-width="5.44018" stroke-linejoin="round" fill="none" transform="matrix(1 0 0 1 2704 1119)"/><path d="M217.736 103.795 217.736 134.069C217.736 137.578 216.621 140.76 214.309 143.167 211.725 145.86 207.767 147.669 203.646 147.669 195.84 147.669 189.788 141.508 189.788 134.069L189.788 103.795" stroke="#FFFFFF" stroke-width="5.44018" stroke-linejoin="round" fill="none" transform="matrix(1 0 0 1 2704 1119)"/><path d="M81.8856 180.69C81.7224 179.33 81.6408 177.956 81.6408 176.542 81.6408 164.614 89.896 150.892 101.714 145.996 116.878 139.699 130.723 144.473 139.849 153.435 144.065 157.583 147.873 162.275 149.913 167.946L150.008 168.028C157.733 157.787 174.216 161.432 175.494 179.982L175.454 180.241C183.314 181.56 196.602 185.844 196.602 202.871 196.602 224.89 174.855 226.807 174.855 226.807L89.1616 226.807C76.4048 226.794 64.7496 217.219 63.9608 204.748 63.92 204.122 63.9064 203.47 63.9064 202.817 63.9064 188.265 73.2904 182.825 81.9264 180.649L81.9264 180.649Z" stroke="#FFFFFF" stroke-width="5.44018" stroke-linejoin="round" fill="none" transform="matrix(1 0 0 1 2704 1119)"/></g></g></g><path d="M1597 1185.13 1730.78 1185.13 1730.78 1198.88 1597 1198.88ZM1692.99 1162 1744.42 1192 1692.99 1222C1689.71 1223.91 1685.5 1222.81 1683.59 1219.53 1681.67 1216.25 1682.78 1212.04 1686.06 1210.12L1727.31 1186.06 1727.31 1197.94 1686.06 1173.88C1682.78 1171.96 1681.67 1167.75 1683.59 1164.47 1685.5 1161.19 1689.71 1160.09 1692.99 1162Z"/><path d="M2374 1185.13 2507.78 1185.13 2507.78 1198.88 2374 1198.88ZM2469.99 1162 2521.42 1192 2469.99 1222C2466.71 1223.91 2462.5 1222.81 2460.59 1219.53 2458.67 1216.25 2459.78 1212.04 2463.06 1210.12L2504.31 1186.06 2504.31 1197.94 2463.06 1173.88C2459.78 1171.96 2458.67 1167.75 2460.59 1164.47 2462.5 1161.19 2466.71 1160.09 2469.99 1162Z"/><path d="M3154 1195.13 3287.78 1195.13 3287.78 1208.88 3154 1208.88ZM3249.99 1172 3301.42 1202 3249.99 1232C3246.71 1233.91 3242.5 1232.81 3240.59 1229.53 3238.67 1226.25 3239.78 1222.04 3243.06 1220.12L3284.31 1196.06 3284.31 1207.94 3243.06 1183.88C3239.78 1181.96 3238.67 1177.75 3240.59 1174.47 3242.5 1171.19 3246.71 1170.09 3249.99 1172Z"/><path d="M821 1190.12 954.776 1190.13 954.775 1203.88 821 1203.87ZM916.99 1167 968.42 1197 916.99 1227C913.71 1228.91 909.5 1227.81 907.587 1224.53 905.674 1221.25 906.782 1217.04 910.061 1215.12L951.311 1191.06 951.311 1202.94 910.061 1178.88C906.782 1176.96 905.674 1172.75 907.587 1169.47 909.5 1166.19 913.71 1165.09 916.99 1167Z"/></g></svg>