<svg width="3906" height="704" xmlns="http://www.w3.org/2000/svg" xmlns:xlink="http://www.w3.org/1999/xlink" xml:space="preserve" overflow="hidden"><defs><clipPath id="clip0"><rect x="230" y="825" width="3906" height="704"/></clipPath></defs><g clip-path="url(#clip0)" transform="translate(-230 -825)"><path d="M230 825 1145 825 1145 1529 230 1529Z" fill="#B8E7FF" fill-rule="evenodd"/><text fill="#151D26" font-family="Amazon Ember,Amazon Ember_MSFontService,sans-serif" font-weight="700" font-size="62" transform="matrix(1 0 0 1 445.729 926)">Version Creation</text><text fill="#151D26" font-family="Amazon Ember,Amazon Ember_MSFontService,sans-serif" font-weight="400" font-size="55" transform="matrix(1 0 0 1 634.505 1029)">v1.0</text><text fill="#151D26" font-family="Amazon Ember,Amazon Ember_MSFontService,sans-serif" font-weight="400" font-size="55" transform="matrix(1 0 0 1 634.505 1115)">v1.1</text><text fill="#151D26" font-family="Amazon Ember,Amazon Ember_MSFontService,sans-serif" font-weight="400" font-size="55" transform="matrix(1 0 0 1 634.505 1201)">v2.0</text><path d="M481.5 1272.5 619.5 1341.5" stroke="#151D26" stroke-width="6.875" stroke-miterlimit="8" fill="none" fill-rule="evenodd"/><path d="M756.5 1272.5 894.5 1341.5" stroke="#151D26" stroke-width="6.875" stroke-miterlimit="8" fill="none" fill-rule="evenodd"/><text fill="#151D26" font-family="Amazon Ember,Amazon Ember_MSFontService,sans-serif" font-weight="400" font-size="55" transform="matrix(1 0 0 1 562.031 1441)">Branching</text><path d="M1227 825 2142 825 2142 1529 1227 1529Z" fill="#007E94" fill-rule="evenodd"/><text fill="#FFFFFF" font-family="Amazon Ember,Amazon Ember_MSFontService,sans-serif" font-weight="700" font-size="62" transform="matrix(1 0 0 1 1440.89 926)">Change Tracking</text><text fill="#FFFFFF" font-family="Amazon Ember,Amazon Ember_MSFontService,sans-serif" font-weight="400" font-size="55" transform="matrix(1 0 0 1 1474.4 1047)">Modification Log</text><path d="M1409 1119 1959 1119 1959 1146 1409 1146Z" fill="#FFFFFF" fill-rule="evenodd"/><path d="M1409 1187 1822 1187 1822 1215 1409 1215Z" fill="#FFFFFF" fill-rule="evenodd"/><path d="M1409 1256 1891 1256 1891 1284 1409 1284Z" fill="#FFFFFF" fill-rule="evenodd"/><text fill="#FFFFFF" font-family="Amazon Ember,Amazon Ember_MSFontService,sans-serif" font-weight="400" font-size="55" transform="matrix(1 0 0 1 1577.24 1391)">Timeline</text><path d="M2224 825 3139 825 3139 1529 2224 1529Z" fill="#AEFFA8" fill-rule="evenodd"/><text fill="#151D26" font-family="Amazon Ember,Amazon Ember_MSFontService,sans-serif" font-weight="700" font-size="62" transform="matrix(1 0 0 1 2294.24 926)">Environment Management</text><path d="M2372 1019 2991 1019 2991 1122 2372 1122Z" fill="#CCFFE9" fill-rule="evenodd"/><text fill="#151D26" font-family="Amazon Ember,Amazon Ember_MSFontService,sans-serif" font-weight="400" font-size="55" transform="matrix(1 0 0 1 2513.1 1085)">Development</text><path d="M2372 1156 2991 1156 2991 1259 2372 1259Z" fill="#CCFFE9" fill-rule="evenodd"/><text fill="#151D26" font-family="Amazon Ember,Amazon Ember_MSFontService,sans-serif" font-weight="400" font-size="55" transform="matrix(1 0 0 1 2589.58 1222)">Testing</text><path d="M2372 1294 2991 1294 2991 1397 2372 1397Z" fill="#CCFFE9" fill-rule="evenodd"/><text fill="#151D26" font-family="Amazon Ember,Amazon Ember_MSFontService,sans-serif" font-weight="400" font-size="55" transform="matrix(1 0 0 1 2544.04 1360)">Production</text><path d="M3221 825 4136 825 4136 1529 3221 1529Z" fill="#004761" fill-rule="evenodd"/><text fill="#FFFFFF" font-family="Amazon Ember,Amazon Ember_MSFontService,sans-serif" font-weight="700" font-size="62" transform="matrix(1 0 0 1 3381.64 926)">Rollback Procedures</text><path d="M3850.5 1066.5 3506.5 1066.5" stroke="#FFFFFF" stroke-width="6.875" stroke-miterlimit="8" fill="none" fill-rule="evenodd"/><path d="M3506.5 1048.5 3455.5 1066 3506.5 1083.5Z" stroke="#FFFFFF" stroke-width="6.875" stroke-miterlimit="8" fill="#FFFFFF" fill-rule="evenodd"/><text fill="#FFFFFF" font-family="Amazon Ember,Amazon Ember_MSFontService,sans-serif" font-weight="400" font-size="55" transform="matrix(1 0 0 1 3434.35 1166)">Reverse to Previous</text><path d="M3369 1281 3988 1281 3988 1384 3369 1384Z" fill="#FFFFFF" fill-rule="evenodd"/><text fill="#151D26" font-family="Amazon Ember,Amazon Ember_MSFontService,sans-serif" font-weight="400" font-size="55" transform="matrix(1 0 0 1 3546.07 1347)">Safety Net</text><path d="M1118 1170.12 1213.34 1170.13 1213.34 1183.88 1118 1183.88ZM1175.56 1147 1226.99 1177 1175.56 1207C1172.28 1208.91 1168.07 1207.81 1166.15 1204.53 1164.24 1201.25 1165.35 1197.04 1168.63 1195.12L1209.88 1171.06 1209.88 1182.94 1168.63 1158.88C1165.35 1156.96 1164.24 1152.75 1166.15 1149.47 1168.07 1146.19 1172.28 1145.09 1175.56 1147Z"/><path d="M2115 1170.12 2210.34 1170.13 2210.34 1183.88 2115 1183.88ZM2172.56 1147 2223.99 1177 2172.56 1207C2169.28 1208.91 2165.07 1207.81 2163.15 1204.53 2161.24 1201.25 2162.35 1197.04 2165.63 1195.12L2206.88 1171.06 2206.88 1182.94 2165.63 1158.88C2162.35 1156.96 2161.24 1152.75 2163.15 1149.47 2165.07 1146.19 2169.28 1145.09 2172.56 1147Z"/><path d="M3112 1170.12 3207.34 1170.13 3207.34 1183.88 3112 1183.88ZM3169.56 1147 3220.99 1177 3169.56 1207C3166.28 1208.91 3162.07 1207.81 3160.15 1204.53 3158.24 1201.25 3159.35 1197.04 3162.63 1195.12L3203.88 1171.06 3203.88 1182.94 3162.63 1158.88C3159.35 1156.96 3158.24 1152.75 3160.15 1149.47 3162.07 1146.19 3166.28 1145.09 3169.56 1147Z"/></g></svg>