<svg width="4107" height="1117" xmlns="http://www.w3.org/2000/svg" xmlns:xlink="http://www.w3.org/1999/xlink" xml:space="preserve" overflow="hidden"><g transform="translate(-163 -851)"><path d="M1002 895 1762 895 1762 1908 1002 1908Z" fill="#B8E7FF" fill-rule="evenodd"/><text fill="#151D26" font-family="Amazon Ember,Amazon Ember_MSFontService,sans-serif" font-weight="700" font-size="83" transform="matrix(1 0 0 1 1092.39 1100)">Authentication </text><text fill="#151D26" font-family="Amazon Ember,Amazon Ember_MSFontService,sans-serif" font-weight="700" font-size="83" transform="matrix(1 0 0 1 1114.16 1199)">Authorization</text><g><g><g><path d="M1388.81 1540.27 1388.81 1576.5C1388.81 1619.21 1372.54 1657.89 1343.82 1689.49L1312.63 1723.82" stroke="#232F3E" stroke-width="10.12" stroke-linejoin="round" fill="none"/><path d="M1292.31 1679.22 1315.08 1653.92C1335.57 1631.15 1346.86 1601.75 1346.86 1571.11L1346.86 1542.29C1346.86 1520.61 1364.49 1502.98 1386.17 1502.98 1407.86 1502.98 1425.49 1520.61 1425.49 1542.29L1425.49 1574.2C1425.49 1624.65 1406.79 1672.99 1372.87 1710.34L1346.53 1739.31" stroke="#232F3E" stroke-width="10.12" stroke-linejoin="round" fill="none"/><path d="M1271.49 1655.92 1291.98 1633.15C1307.34 1616.09 1315.79 1594.08 1315.79 1571.14L1315.79 1542.32C1315.79 1503.51 1347.36 1471.94 1386.17 1471.94 1424.98 1471.94 1456.56 1503.51 1456.56 1542.32L1456.56 1574.22C1456.56 1632.41 1435 1688.2 1395.84 1731.26L1388.55 1739.28" stroke="#232F3E" stroke-width="10.12" stroke-linejoin="round" fill="none"/><path d="M1286.14 1540.27C1286.14 1515.75 1293.6 1494.15 1309.77 1475.65 1325.78 1457.34 1347.77 1445.37 1371.65 1441.93" stroke="#232F3E" stroke-width="10.12" stroke-linejoin="round" fill="none"/><path d="M1250.67 1632.64 1268.91 1612.38C1279.1 1601.04 1284.72 1586.39 1284.72 1571.14" stroke="#232F3E" stroke-width="10.12" stroke-linejoin="round" fill="none"/><path d="M1478.97 1641.34C1476.29 1651.62 1472.95 1661.81 1469.03 1671.68" stroke="#232F3E" stroke-width="10.12" stroke-linejoin="round" fill="none"/><path d="M1453.9 1466.9C1475.31 1486.15 1487.6 1513.65 1487.6 1542.35L1487.6 1574.25C1487.6 1586.37 1486.77 1598.56 1485.12 1610.53" stroke="#232F3E" stroke-width="10.12" stroke-linejoin="round" fill="none"/><path d="M1400.65 1441.93C1410.69 1443.37 1420.43 1446.33 1429.59 1450.68" stroke="#232F3E" stroke-width="10.12" stroke-linejoin="round" fill="none"/><path d="M1378.76 1410.03C1381.22 1409.9 1383.69 1409.82 1386.15 1409.82 1459.22 1409.82 1518.65 1469.25 1518.65 1542.32L1518.65 1574.22" stroke="#232F3E" stroke-width="10.12" stroke-linejoin="round" fill="none"/><path d="M1310.7 1433.48C1322.82 1425.05 1336.11 1418.75 1350.25 1414.78" stroke="#232F3E" stroke-width="10.12" stroke-linejoin="round" fill="none"/><path d="M1236.83 1601.57 1245.81 1591.6C1250.87 1585.99 1253.65 1578.7 1253.65 1571.14L1253.65 1542.32C1253.65 1508.44 1266.48 1476.19 1289.78 1451.49" stroke="#232F3E" stroke-width="10.12" stroke-linejoin="round" fill="none"/><path d="M1506.6 1431.78C1522.26 1448.84 1533.9 1468.49 1541.24 1490.3" stroke="#232F3E" stroke-width="10.12" stroke-linejoin="round" fill="none"/><path d="M1438.98 1387.53C1455.04 1393.02 1470.09 1400.99 1483.78 1411.19" stroke="#232F3E" stroke-width="10.12" stroke-linejoin="round" fill="none"/><path d="M1222.76 1534.91C1224.63 1492.86 1242.5 1453.59 1273.03 1424.32 1303.65 1394.95 1343.82 1378.78 1386.15 1378.78 1394.02 1378.78 1401.91 1379.34 1409.63 1380.45" stroke="#232F3E" stroke-width="10.12" stroke-linejoin="round" fill="none"/><path d="M1341.29 1352.92C1355.92 1349.46 1370.99 1347.71 1386.15 1347.71 1439.53 1347.71 1489.37 1368.99 1526.46 1407.6" stroke="#232F3E" stroke-width="10.12" stroke-linejoin="round" fill="none"/><path d="M1232.83 1422.57C1253.58 1396.06 1280.9 1375.29 1311.82 1362.46" stroke="#232F3E" stroke-width="10.12" stroke-linejoin="round" fill="none"/><path d="M1288.36 1338.96C1319.03 1324.16 1351.92 1316.64 1386.15 1316.64 1403.99 1316.64 1421.75 1318.74 1438.95 1322.89" stroke="#232F3E" stroke-width="10.12" stroke-linejoin="round" fill="none"/><path d="M1469.39 1332.56 1469.39 1332.56C1476.9 1335.54 1484.31 1338.98 1491.47 1342.78" stroke="#232F3E" stroke-width="10.12" stroke-linejoin="round" fill="none"/></g></g></g><path d="M2671 895 3431 895 3431 1908 2671 1908Z" fill="#D4DADA" fill-rule="evenodd"/><text fill="#151D26" font-family="Amazon Ember,Amazon Ember_MSFontService,sans-serif" font-weight="700" font-size="83" transform="matrix(1 0 0 1 2895.67 1049)">Request </text><text fill="#151D26" font-family="Amazon Ember,Amazon Ember_MSFontService,sans-serif" font-weight="700" font-size="83" transform="matrix(1 0 0 1 2849.83 1148)">Validation </text><text fill="#151D26" font-family="Amazon Ember,Amazon Ember_MSFontService,sans-serif" font-weight="700" font-size="83" transform="matrix(1 0 0 1 2893.67 1247)">Security</text><g><g><g><path d="M3177.3 1601.14C3166.85 1647.54 3132.24 1719.95 3037.87 1719.95L3037.87 1719.95C2896.42 1719.95 2896.42 1553.25 2896.42 1553.25L2896.42 1390.55 3037.87 1336.05 3179.32 1390.55 3179.32 1457.16" stroke="#232F3E" stroke-width="10.12" stroke-linejoin="round" fill="none"/><path d="M3138.18 1603.87C3128.7 1639.35 3103.7 1684.61 3037.87 1684.61 2933 1684.61 2931.79 1558.64 2931.79 1553.27L2931.79 1414.83 3037.87 1373.95 3143.95 1414.83 3143.95 1452.13M3037.87 1376.63 3037.87 1684.63" stroke="#232F3E" stroke-width="10.12" stroke-linejoin="round" fill="none"/><path d="M3216.23 1570.28 3246.62 1601.95C3252.31 1607.64 3252.31 1616.88 3246.62 1622.55L3246.62 1622.55C3240.93 1628.24 3231.69 1628.24 3226.03 1622.55L3196.2 1591.43" stroke="#232F3E" stroke-width="10.12" stroke-linejoin="round" fill="none"/><path d="M3229.42 1527.6C3229.42 1568.66 3196.13 1601.95 3155.06 1601.95 3113.99 1601.95 3080.7 1568.66 3080.7 1527.6 3080.7 1486.53 3113.99 1453.24 3155.06 1453.24 3196.13 1453.24 3229.42 1486.53 3229.42 1527.6Z" stroke="#232F3E" stroke-width="10.12" stroke-linejoin="round" fill="none"/><path d="M3118.3 1533.95 3141.83 1557.47 3199.79 1499.54" stroke="#232F3E" stroke-width="10.12" stroke-linejoin="round" fill="none"/></g></g></g><path d="M1837 898 2597 898 2597 1911 1837 1911Z" fill="#CCFFE9" fill-rule="evenodd"/><text fill="#151D26" font-family="Amazon Ember,Amazon Ember_MSFontService,sans-serif" font-weight="700" font-size="83" transform="matrix(1 0 0 1 2129.1 1046)">Rate </text><text fill="#151D26" font-family="Amazon Ember,Amazon Ember_MSFontService,sans-serif" font-weight="700" font-size="83" transform="matrix(1 0 0 1 2054.33 1145)">Limiting </text><text fill="#151D26" font-family="Amazon Ember,Amazon Ember_MSFontService,sans-serif" font-weight="700" font-size="83" transform="matrix(1 0 0 1 2017.66 1244)">Throttling</text><g><g><g><path d="M2361.26 1615.88C2367.13 1553.59 2299.02 1528.77 2307.37 1525.33 2349.45 1508.05 2359.03 1463.95 2361.24 1444.7" stroke="#232F3E" stroke-width="10.12" stroke-linejoin="round" fill="none"/><path d="M2212.98 1444.75C2215.18 1464.03 2224.82 1508.1 2266.84 1525.36 2275.19 1528.8 2207.16 1553.57 2212.95 1615.8" stroke="#232F3E" stroke-width="10.12" stroke-linejoin="round" fill="none"/><path d="M2222.31 1479.74 2349.67 1479.74" stroke="#232F3E" stroke-width="10.12" stroke-linejoin="round" fill="none"/><path d="M2381.8 1414.77C2385.07 1414.77 2387.72 1417.42 2387.72 1420.69L2387.72 1429.52C2387.72 1432.79 2385.07 1435.44 2381.8 1435.44L2192.79 1435.44C2189.52 1435.44 2186.87 1432.79 2186.87 1429.52L2186.87 1420.69C2186.87 1417.42 2189.52 1414.77 2192.79 1414.77Z" stroke="#232F3E" stroke-width="10.12" stroke-linejoin="round" fill="none"/><path d="M2381.8 1624.51C2385.07 1624.51 2387.72 1627.16 2387.72 1630.43L2387.72 1639.26C2387.72 1642.53 2385.07 1645.18 2381.8 1645.18L2192.79 1645.18C2189.52 1645.18 2186.87 1642.53 2186.87 1639.26L2186.87 1630.43C2186.87 1627.16 2189.52 1624.51 2192.79 1624.51Z" stroke="#232F3E" stroke-width="10.12" stroke-linejoin="round" fill="none"/><path d="M2046.28 1444.68 2149.22 1444.68" stroke="#232F3E" stroke-width="10.12" stroke-linejoin="round" fill="none"/><path d="M2130.78 1467.19 2153.45 1444.85 2131.11 1422.18" stroke="#232F3E" stroke-width="10.12" stroke-linejoin="round" fill="none"/><path d="M2047.59 1498.61 2192.69 1498.61" stroke="#232F3E" stroke-width="10.12" stroke-linejoin="round" fill="none"/><path d="M2174.22 1521.13 2196.89 1498.79 2174.57 1476.12" stroke="#232F3E" stroke-width="10.12" stroke-linejoin="round" fill="none"/><path d="M2166.63 1612.52 2052.8 1612.52" stroke="#232F3E" stroke-width="10.12" stroke-linejoin="round" fill="none"/><path d="M2071.27 1590.02 2048.58 1612.34 2070.92 1635.03" stroke="#232F3E" stroke-width="10.12" stroke-linejoin="round" fill="none"/><path d="M2201.34 1553.52 2051.46 1553.52" stroke="#232F3E" stroke-width="10.12" stroke-linejoin="round" fill="none"/><path d="M2069.93 1531.02 2047.24 1553.34 2069.58 1576.03" stroke="#232F3E" stroke-width="10.12" stroke-linejoin="round" fill="none"/></g></g></g></g></svg>