<svg width="4400" height="1598" xmlns="http://www.w3.org/2000/svg" xmlns:xlink="http://www.w3.org/1999/xlink" xml:space="preserve" overflow="hidden"><g transform="matrix(1 0 0 1 0 -433)"><path d="M997.5 481.5 2028.5 481.5 2028.5 1169.5 997.5 1169.5Z" stroke="#151D26" stroke-width="6.875" stroke-miterlimit="8" fill="#B8E7FF" fill-rule="evenodd"/><text fill="#151D26" font-family="Amazon Ember,Amazon Ember_MSFontService,sans-serif" font-weight="700" font-size="83" transform="matrix(1 0 0 1 1144.11 687)">Processing Latency</text><path d="M1616.5 902.5C1616.5 959.385 1570.16 1005.5 1513 1005.5 1455.84 1005.5 1409.5 959.385 1409.5 902.5 1409.5 845.615 1455.84 799.5 1513 799.5 1570.16 799.5 1616.5 845.615 1616.5 902.5Z" stroke="#007E94" stroke-width="6.875" stroke-miterlimit="8" fill="none" fill-rule="evenodd"/><path d="M1513.5 902.5 1513.5 833.5" stroke="#007E94" stroke-width="6.875" stroke-miterlimit="8" fill="none" fill-rule="evenodd"/><path d="M1513.5 902.5 1564.5 902.5" stroke="#007E94" stroke-width="6.875" stroke-miterlimit="8" fill="none" fill-rule="evenodd"/><path d="M2372.5 481.5 3403.5 481.5 3403.5 1169.5 2372.5 1169.5Z" stroke="#151D26" stroke-width="6.875" stroke-miterlimit="8" fill="#CCFFE9" fill-rule="evenodd"/><text fill="#151D26" font-family="Amazon Ember,Amazon Ember_MSFontService,sans-serif" font-weight="700" font-size="83" transform="matrix(1 0 0 1 2532 687)">Cost Consumption</text><path d="M2819.5 829.5 2956.5 829.5 2956.5 966.5 2819.5 966.5Z" stroke="#007E94" stroke-width="6.875" stroke-miterlimit="8" fill="none" fill-rule="evenodd"/><text fill="#007E94" font-family="Amazon Ember,Amazon Ember_MSFontService,sans-serif" font-weight="400" font-size="92" transform="matrix(1 0 0 1 2860.57 929)">$</text><path d="M997.5 1306.5 2028.5 1306.5 2028.5 1994.5 997.5 1994.5Z" stroke="#151D26" stroke-width="6.875" stroke-miterlimit="8" fill="#007E94" fill-rule="evenodd"/><text fill="#FFFFFF" font-family="Amazon Ember,Amazon Ember_MSFontService,sans-serif" font-weight="700" font-size="83" transform="matrix(1 0 0 1 1026.38 1503)">Complexity Management</text><path d="M1461.5 1702C1461.5 1730.44 1438.44 1753.5 1410 1753.5 1381.56 1753.5 1358.5 1730.44 1358.5 1702 1358.5 1673.56 1381.56 1650.5 1410 1650.5 1438.44 1650.5 1461.5 1673.56 1461.5 1702Z" stroke="#FFFFFF" stroke-width="6.875" stroke-miterlimit="8" fill="none" fill-rule="evenodd"/><path d="M1667.5 1702C1667.5 1730.44 1644.44 1753.5 1616 1753.5 1587.56 1753.5 1564.5 1730.44 1564.5 1702 1564.5 1673.56 1587.56 1650.5 1616 1650.5 1644.44 1650.5 1667.5 1673.56 1667.5 1702Z" stroke="#FFFFFF" stroke-width="6.875" stroke-miterlimit="8" fill="none" fill-rule="evenodd"/><path d="M1461.5 1701.5 1564.5 1701.5" stroke="#FFFFFF" stroke-width="6.875" stroke-miterlimit="8" fill="none" fill-rule="evenodd"/><path d="M2372.5 1306.5 3403.5 1306.5 3403.5 1994.5 2372.5 1994.5Z" stroke="#151D26" stroke-width="6.875" stroke-miterlimit="8" fill="#005276" fill-rule="evenodd"/><text fill="#FFFFFF" font-family="Amazon Ember,Amazon Ember_MSFontService,sans-serif" font-weight="700" font-size="83" transform="matrix(1 0 0 1 2586.15 1503)">Quality Control</text><path d="M2819.5 1624.5 2956.5 1624.5 2956.5 1761.5 2819.5 1761.5Z" stroke="#00E500" stroke-width="6.875" stroke-miterlimit="8" fill="none" fill-rule="evenodd"/><path d="M2853.5 1693.25 2870.75 1710.5 2922.5 1641.5" stroke="#00E500" stroke-width="6.875" stroke-miterlimit="8" fill="none" fill-rule="evenodd"/><path d="M2200.5 481.5 2200.5 1994.5" stroke="#151D26" stroke-width="6.875" stroke-miterlimit="8" fill="none" fill-rule="evenodd"/><path d="M997.5 1238.5 3403.5 1238.5" stroke="#151D26" stroke-width="6.875" stroke-miterlimit="8" fill="none" fill-rule="evenodd"/></g></svg>