<svg width="3181" height="775" xmlns="http://www.w3.org/2000/svg" xmlns:xlink="http://www.w3.org/1999/xlink" xml:space="preserve" overflow="hidden"><defs><clipPath id="clip0"><rect x="624" y="1151" width="3181" height="775"/></clipPath></defs><g clip-path="url(#clip0)" transform="translate(-624 -1151)"><text fill="#151D26" font-family="Amazon Ember,Amazon Ember_MSFontService,sans-serif" font-weight="700" font-size="73" transform="matrix(1 0 0 1 731.119 1861)">Fixed </text><text fill="#151D26" font-family="Amazon Ember,Amazon Ember_MSFontService,sans-serif" font-weight="700" font-size="73" transform="matrix(1 0 0 1 933.358 1861)">s</text><text fill="#151D26" font-family="Amazon Ember,Amazon Ember_MSFontService,sans-serif" font-weight="700" font-size="73" transform="matrix(1 0 0 1 966.015 1861)">ize</text><path d="M624 1151 899 1151 899 1426 624 1426Z" fill="#007E94" fill-rule="evenodd"/><path d="M934 1151 1209 1151 1209 1426 934 1426Z" fill="#B8E7FF" fill-rule="evenodd"/><path d="M624 1460 899 1460 899 1735 624 1735Z" fill="#B8E7FF" fill-rule="evenodd"/><path d="M934 1460 1209 1460 1209 1735 934 1735Z" fill="#007E94" fill-rule="evenodd"/><text fill="#151D26" font-family="Amazon Ember,Amazon Ember_MSFontService,sans-serif" font-weight="700" font-size="73" transform="matrix(1 0 0 1 1605.74 1854)">Default</text><path d="M1375 1151 1719 1151 1719 1357 1375 1357Z" fill="#007E94" fill-rule="evenodd"/><path d="M1753 1151 2097 1151 2097 1357 1753 1357Z" fill="#B8E7FF" fill-rule="evenodd"/><path d="M1375 1391 2097 1391 2097 1529 1375 1529Z" fill="#CCFFE9" fill-rule="evenodd"/><path d="M1375 1563 1736 1563 1736 1735 1375 1735Z" fill="#B8E7FF" fill-rule="evenodd"/><path d="M1736 1563 2097 1563 2097 1735 1736 1735Z" fill="#007E94" fill-rule="evenodd"/><text fill="#151D26" font-family="Amazon Ember,Amazon Ember_MSFontService,sans-serif" font-weight="700" font-size="73" transform="matrix(1 0 0 1 2397.01 1854)">Hierarchical</text><path d="M2263 1151 2951 1151 2951 1322 2263 1322Z" fill="#151D26" fill-rule="evenodd"/><path d="M2263 1357 2590 1357 2590 1494 2263 1494Z" fill="#007E94" fill-rule="evenodd"/><path d="M2624 1357 2951 1357 2951 1494 2624 1494Z" fill="#007E94" fill-rule="evenodd"/><path d="M2263 1529 2470 1529 2470 1632 2263 1632Z" fill="#B8E7FF" fill-rule="evenodd"/><path d="M2504 1529 2710 1529 2710 1632 2504 1632Z" fill="#B8E7FF" fill-rule="evenodd"/><path d="M2745 1529 2951 1529 2951 1632 2745 1632Z" fill="#B8E7FF" fill-rule="evenodd"/><path d="M2263 1666 2401 1666 2401 1735 2263 1735Z" fill="#CCFFE9" fill-rule="evenodd"/><path d="M2435 1666 2573 1666 2573 1735 2435 1735Z" fill="#CCFFE9" fill-rule="evenodd"/><path d="M2607 1666 2745 1666 2745 1735 2607 1735Z" fill="#CCFFE9" fill-rule="evenodd"/><path d="M2779 1666 2951 1666 2951 1735 2779 1735Z" fill="#CCFFE9" fill-rule="evenodd"/><text fill="#151D26" font-family="Amazon Ember,Amazon Ember_MSFontService,sans-serif" font-weight="700" font-size="73" transform="matrix(1 0 0 1 3299.23 1854)">Semantic</text><path d="M3117 1151 3530 1151 3530 1391 3117 1391Z" fill="#007E94" fill-rule="evenodd"/><path d="M3564 1151 3805 1151 3805 1271 3564 1271Z" fill="#B8E7FF" fill-rule="evenodd"/><path d="M3564 1305 3805 1305 3805 1391 3564 1391Z" fill="#CCFFE9" fill-rule="evenodd"/><path d="M3117 1426 3392 1426 3392 1580 3117 1580Z" fill="#B8E7FF" fill-rule="evenodd"/><path d="M3427 1426 3805 1426 3805 1580 3427 1580Z" fill="#007E94" fill-rule="evenodd"/><path d="M3117 1615 3805 1615 3805 1735 3117 1735Z" fill="#CCFFE9" fill-rule="evenodd"/></g></svg>