<svg width="4400" height="485" xmlns="http://www.w3.org/2000/svg" xmlns:xlink="http://www.w3.org/1999/xlink" xml:space="preserve" overflow="hidden"><g transform="matrix(1 0 0 1 0 -1071)"><path d="M374.5 1109.5 1231.5 1109.5 1231.5 1522.5 374.5 1522.5Z" stroke="#000000" stroke-width="3.4375" stroke-miterlimit="8" fill="#007E94" fill-rule="evenodd"/><text fill="#FFFFFF" font-family="Amazon Ember,Amazon Ember_MSFontService,sans-serif" font-weight="700" font-size="64" transform="matrix(1 0 0 1 484.393 1202)">Pipeline Architecture</text><path d="M561.5 1294.5 1043.5 1294.5" stroke="#FFFFFF" stroke-width="6.875" stroke-miterlimit="8" fill="none" fill-rule="evenodd"/><path d="M561.5 1345.5 1043.5 1345.5" stroke="#FFFFFF" stroke-width="6.875" stroke-miterlimit="8" fill="none" fill-rule="evenodd"/><path d="M561.5 1397.5 1043.5 1397.5" stroke="#FFFFFF" stroke-width="6.875" stroke-miterlimit="8" fill="none" fill-rule="evenodd"/><path d="M1302.5 1109.5 2159.5 1109.5 2159.5 1522.5 1302.5 1522.5Z" stroke="#000000" stroke-width="3.4375" stroke-miterlimit="8" fill="#B8E7FF" fill-rule="evenodd"/><text fill="#151D26" font-family="Amazon Ember,Amazon Ember_MSFontService,sans-serif" font-weight="700" font-size="64" transform="matrix(1 0 0 1 1414.81 1202)">Service Coordination</text><path d="M1558 1264 1644 1264 1644 1350 1558 1350Z" fill="#151D26" fill-rule="evenodd"/><path d="M1816 1264 1902 1264 1902 1350 1816 1350Z" fill="#151D26" fill-rule="evenodd"/><path d="M1644.5 1305.5 1816.5 1305.5" stroke="#151D26" stroke-width="6.875" stroke-miterlimit="8" fill="none" fill-rule="evenodd"/><path d="M1686 1384 1771 1384 1771 1470 1686 1470Z" fill="#151D26" fill-rule="evenodd"/><path d="M1730.5 1389.5 1730.5 1308.5" stroke="#151D26" stroke-width="6.875" stroke-miterlimit="8" fill="none" fill-rule="evenodd"/><path d="M2230.5 1109.5 3087.5 1109.5 3087.5 1522.5 2230.5 1522.5Z" stroke="#000000" stroke-width="3.4375" stroke-miterlimit="8" fill="#CCFFE9" fill-rule="evenodd"/><text fill="#151D26" font-family="Amazon Ember,Amazon Ember_MSFontService,sans-serif" font-weight="700" font-size="64" transform="matrix(1 0 0 1 2300.54 1202)">Data Flow Management</text><path d="M2401.5 1281.7 2504.5 1316.1 2607.5 1264.5 2710.5 1333.3 2813.5 1298.9 2916.5 1350.5" stroke="#151D26" stroke-width="6.875" stroke-miterlimit="8" fill="none" fill-rule="evenodd"/><path d="M2401.5 1384.7 2504.5 1419.1 2607.5 1367.5 2710.5 1436.3 2813.5 1401.9 2916.5 1453.5" stroke="#151D26" stroke-width="6.875" stroke-miterlimit="8" fill="none" fill-rule="evenodd"/><path d="M3158.5 1109.5 4015.5 1109.5 4015.5 1522.5 3158.5 1522.5Z" stroke="#000000" stroke-width="3.4375" stroke-miterlimit="8" fill="#D7DDDD" fill-rule="evenodd"/><text fill="#151D26" font-family="Amazon Ember,Amazon Ember_MSFontService,sans-serif" font-weight="700" font-size="64" transform="matrix(1 0 0 1 3183.69 1202)">Performance Optimization</text><path d="M3346 1418 3415 1418 3415 1487 3346 1487Z" fill="#151D26" fill-rule="evenodd"/><path d="M3449 1384 3518 1384 3518 1487 3449 1487Z" fill="#151D26" fill-rule="evenodd"/><path d="M3552 1350 3621 1350 3621 1487 3552 1487Z" fill="#151D26" fill-rule="evenodd"/><path d="M3655 1315 3724 1315 3724 1487 3655 1487Z" fill="#151D26" fill-rule="evenodd"/><path d="M3758 1281 3827 1281 3827 1487 3758 1487Z" fill="#151D26" fill-rule="evenodd"/></g></svg>