<svg width="2832" height="281" xmlns="http://www.w3.org/2000/svg" xmlns:xlink="http://www.w3.org/1999/xlink" xml:space="preserve" overflow="hidden"><defs><clipPath id="clip0"><rect x="812" y="966" width="2832" height="281"/></clipPath></defs><g clip-path="url(#clip0)" transform="translate(-812 -966)"><path d="M812 966 1754 966 1754 1230 812 1230Z" fill="#007E94" fill-rule="evenodd"/><text fill="#FFFFFF" font-family="Amazon Ember Display,Amazon Ember Display_MSFontService,sans-serif" font-weight="700" font-size="83" transform="matrix(1 0 0 1 1014.5 1076)">API setup and </text><text fill="#FFFFFF" font-family="Amazon Ember Display,Amazon Ember Display_MSFontService,sans-serif" font-weight="700" font-size="83" transform="matrix(1 0 0 1 997.61 1175)">authentication</text><path d="M1757 966 2699 966 2699 1230 1757 1230Z" fill="#B8E7FF" fill-rule="evenodd"/><text font-family="Amazon Ember Display,Amazon Ember Display_MSFontService,sans-serif" font-weight="700" font-size="83" transform="matrix(1 0 0 1 1885.63 1076)">Chunking pattern </text><text font-family="Amazon Ember Display,Amazon Ember Display_MSFontService,sans-serif" font-weight="700" font-size="83" transform="matrix(1 0 0 1 1963.82 1175)">configuration</text><path d="M2702 966 3644 966 3644 1230 2702 1230Z" fill="#CCFFE9" fill-rule="evenodd"/><text font-family="Amazon Ember Display,Amazon Ember Display_MSFontService,sans-serif" font-weight="700" font-size="83" transform="matrix(1 0 0 1 2854.43 1076)">Knowledge Base </text><text font-family="Amazon Ember Display,Amazon Ember Display_MSFontService,sans-serif" font-weight="700" font-size="83" transform="matrix(1 0 0 1 2955.27 1175)">integration</text><path d="M1679 966 1753 966 1827 1098 1753 1230 1679 1230 1753 1098Z" fill="#007E94" fill-rule="evenodd"/><path d="M2626 966 2700.5 966 2775 1098 2700.5 1230 2626 1230 2700.5 1098Z" fill="#B8E7FF" fill-rule="evenodd"/></g></svg>