<svg width="1031" height="687" xmlns="http://www.w3.org/2000/svg" xmlns:xlink="http://www.w3.org/1999/xlink" xml:space="preserve" overflow="hidden"><defs><clipPath id="clip0"><rect x="967" y="1529" width="1031" height="687"/></clipPath></defs><g clip-path="url(#clip0)" transform="translate(-967 -1529)"><path d="M967 1529 1998 1529 1998 2216 967 2216Z" fill="#CCFFE9" fill-rule="evenodd"/><path d="M1620 1872.5C1620 1948.44 1558.44 2010 1482.5 2010 1406.56 2010 1345 1948.44 1345 1872.5 1345 1796.56 1406.56 1735 1482.5 1735 1558.44 1735 1620 1796.56 1620 1872.5Z" stroke="#00E500" stroke-width="13.75" stroke-miterlimit="8" fill="none" fill-rule="evenodd"/><path d="M1374.2 1868.07 1380.76 1861.7 1387.4 1855.65 1394.06 1850 1400.74 1844.76 1407.44 1839.92 1414.16 1835.49 1420.9 1831.47 1427.66 1827.85 1434.45 1824.66 1441.26 1821.88 1448.1 1819.52 1454.95 1817.58 1461.82 1816.07 1468.71 1814.99 1475.6 1814.34 1482.5 1814.12 1489.4 1814.34 1496.29 1814.99 1503.18 1816.07 1510.05 1817.58 1516.9 1819.52 1523.74 1821.88 1530.55 1824.66 1537.34 1827.85 1544.1 1831.47 1550.84 1835.49 1557.56 1839.92 1564.26 1844.76 1570.94 1850 1577.6 1855.65 1580.77 1858.53 1571.51 1868.7 1568.43 1865.9 1568.62 1866.06 1562.15 1860.57 1562.35 1860.74 1555.88 1855.66 1556.1 1855.82 1549.63 1851.15 1549.87 1851.32 1543.4 1847.05 1543.67 1847.22 1537.2 1843.36 1537.48 1843.52 1531.01 1840.06 1531.32 1840.22 1524.85 1837.17 1525.18 1837.32 1518.71 1834.68 1519.07 1834.81 1512.6 1832.58 1512.97 1832.69 1506.51 1830.87 1506.9 1830.96 1500.43 1829.54 1500.84 1829.62 1494.37 1828.6 1494.79 1828.66 1488.32 1828.05 1488.75 1828.07 1482.28 1827.87 1482.72 1827.87 1476.25 1828.07 1476.68 1828.05 1470.21 1828.66 1470.63 1828.6 1464.16 1829.62 1464.57 1829.54 1458.1 1830.96 1458.49 1830.87 1452.03 1832.69 1452.4 1832.58 1445.93 1834.81 1446.29 1834.68 1439.82 1837.32 1440.15 1837.17 1433.68 1840.22 1433.99 1840.06 1427.52 1843.52 1427.8 1843.36 1421.34 1847.22 1421.6 1847.05 1415.13 1851.32 1415.37 1851.15 1408.9 1855.82 1409.12 1855.66 1402.65 1860.74 1402.85 1860.57 1396.38 1866.06 1396.57 1865.9 1390.1 1871.79 1390.26 1871.63 1383.8 1877.93ZM1569.45 1815.83 1586.02 1873.02 1528.09 1859.29C1524.39 1858.42 1522.11 1854.71 1522.98 1851.02 1523.86 1847.32 1527.56 1845.04 1531.26 1845.91L1577.73 1856.93 1569.54 1865.53 1556.25 1819.66C1555.19 1816.01 1557.29 1812.2 1560.94 1811.14 1564.58 1810.09 1568.4 1812.19 1569.45 1815.83Z" fill="#00E500"/></g></svg>