<svg width="4023" height="944" xmlns="http://www.w3.org/2000/svg" xmlns:xlink="http://www.w3.org/1999/xlink" xml:space="preserve" overflow="hidden"><defs><clipPath id="clip0"><rect x="145" y="882" width="4023" height="944"/></clipPath></defs><g clip-path="url(#clip0)" transform="translate(-145 -882)"><rect x="145" y="882" width="4023" height="944" fill="#FFFFFF"/><path d="M364 917 1262 917 1262 1783 364 1783Z" fill="#F1F3F3" fill-rule="evenodd"/><text fill="#151D26" font-family="Amazon Ember,Amazon Ember_MSFontService,sans-serif" font-weight="700" font-size="83" transform="matrix(1 0 0 1 642.786 1035)">Complex </text><text fill="#151D26" font-family="Amazon Ember,Amazon Ember_MSFontService,sans-serif" font-weight="700" font-size="83" transform="matrix(1 0 0 1 594.959 1134)">Documents</text><path d="M550 1275 674 1275 674 1337 550 1337Z" fill="#007E94" fill-rule="evenodd"/><path d="M736 1275 921 1275 921 1337 736 1337Z" fill="#151D26" fill-rule="evenodd"/><path d="M983 1275 1076 1275 1076 1337 983 1337Z" fill="#007E94" fill-rule="evenodd"/><path d="M550 1368 797 1368 797 1430 550 1430Z" fill="#151D26" fill-rule="evenodd"/><path d="M859 1368 983 1368 983 1430 859 1430Z" fill="#007E94" fill-rule="evenodd"/><path d="M550 1461 705 1461 705 1523 550 1523Z" fill="#007E94" fill-rule="evenodd"/><path d="M767 1461 983 1461 983 1523 767 1523Z" fill="#151D26" fill-rule="evenodd"/><text fill="#151D26" font-family="Amazon Ember,Amazon Ember_MSFontService,sans-serif" font-weight="400" font-size="64" transform="matrix(1 0 0 1 503.579 1652)">Multi</text><text fill="#151D26" font-family="Amazon Ember,Amazon Ember_MSFontService,sans-serif" font-weight="400" font-size="64" transform="matrix(1 0 0 1 653.683 1652)">-</text><text fill="#151D26" font-family="Amazon Ember,Amazon Ember_MSFontService,sans-serif" font-weight="400" font-size="64" transform="matrix(1 0 0 1 678.892 1652)">format content</text><text fill="#151D26" font-family="Amazon Ember,Amazon Ember_MSFontService,sans-serif" font-weight="400" font-size="64" transform="matrix(1 0 0 1 499.282 1714)">with mixed structures</text><path d="M1293 917 2186 917 2186 1783 1293 1783Z" fill="#B8E7FF" fill-rule="evenodd"/><text fill="#151D26" font-family="Amazon Ember,Amazon Ember_MSFontService,sans-serif" font-weight="700" font-size="83" transform="matrix(1 0 0 1 1592.36 1034)">Domain </text><text fill="#151D26" font-family="Amazon Ember,Amazon Ember_MSFontService,sans-serif" font-weight="700" font-size="83" transform="matrix(1 0 0 1 1474.34 1133)">Requirements</text><path d="M1651 1317C1651 1359.53 1616.3 1394 1573.5 1394 1530.7 1394 1496 1359.53 1496 1317 1496 1274.47 1530.7 1240 1573.5 1240 1616.3 1240 1651 1274.47 1651 1317Z" fill="#FFFFFF" fill-rule="evenodd"/><path d="M1821 1317C1821 1359.53 1786.53 1394 1744 1394 1701.47 1394 1667 1359.53 1667 1317 1667 1274.47 1701.47 1240 1744 1240 1786.53 1240 1821 1274.47 1821 1317Z" fill="#FF9900" fill-rule="evenodd"/><path d="M1991 1317C1991 1359.53 1956.53 1394 1914 1394 1871.47 1394 1837 1359.53 1837 1317 1837 1274.47 1871.47 1240 1914 1240 1956.53 1240 1991 1274.47 1991 1317Z" fill="#00E500" fill-rule="evenodd"/><path d="M1527 1441 1589 1441 1589 1564 1527 1564Z" fill="#151D26" fill-rule="evenodd"/><path d="M1651 1441 1713 1441 1713 1564 1651 1564Z" fill="#151D26" fill-rule="evenodd"/><path d="M1775 1441 1837 1441 1837 1564 1775 1564Z" fill="#151D26" fill-rule="evenodd"/><path d="M1899 1441 1960 1441 1960 1564 1899 1564Z" fill="#151D26" fill-rule="evenodd"/><text fill="#151D26" font-family="Amazon Ember,Amazon Ember_MSFontService,sans-serif" font-weight="400" font-size="64" transform="matrix(1 0 0 1 1450.28 1655)">Specialized business</text><text fill="#151D26" font-family="Amazon Ember,Amazon Ember_MSFontService,sans-serif" font-weight="400" font-size="64" transform="matrix(1 0 0 1 1472.05 1717)">logic requirements</text><path d="M2226 917 3118 917 3118 1783 2226 1783Z" fill="#007E94" fill-rule="evenodd"/><text fill="#FFFFFF" font-family="Amazon Ember,Amazon Ember_MSFontService,sans-serif" font-weight="700" font-size="83" transform="matrix(1 0 0 1 2282.87 1084)">System Integrations</text><path d="M2471.5 1260.5 2564.5 1260.5 2564.5 1353.5 2471.5 1353.5Z" stroke="#FFFFFF" stroke-width="3.09357" stroke-miterlimit="8" fill="#B8E7FF" fill-rule="evenodd"/><path d="M2626.5 1260.5 2719.5 1260.5 2719.5 1353.5 2626.5 1353.5Z" stroke="#FFFFFF" stroke-width="3.09357" stroke-miterlimit="8" fill="#B8E7FF" fill-rule="evenodd"/><path d="M2780.5 1260.5 2873.5 1260.5 2873.5 1353.5 2780.5 1353.5Z" stroke="#FFFFFF" stroke-width="3.09357" stroke-miterlimit="8" fill="#B8E7FF" fill-rule="evenodd"/><path d="M2564 1306 2626 1306" stroke="#FFFFFF" stroke-width="6.1875" stroke-miterlimit="8" fill="none" fill-rule="evenodd"/><path d="M2719 1306 2780 1306" stroke="#FFFFFF" stroke-width="6.1875" stroke-miterlimit="8" fill="none" fill-rule="evenodd"/><path d="M2533.5 1445.5 2688.5 1445.5 2688.5 1538.5 2533.5 1538.5Z" stroke="#FFFFFF" stroke-width="3.09357" stroke-miterlimit="8" fill="#B8E7FF" fill-rule="evenodd"/><path d="M2610 1353 2610 1445" stroke="#FFFFFF" stroke-width="6.1875" stroke-miterlimit="8" fill="none" fill-rule="evenodd"/><text fill="#FFFFFF" font-family="Amazon Ember,Amazon Ember_MSFontService,sans-serif" font-weight="400" font-size="64" transform="matrix(1 0 0 1 2442.14 1652)">Multiple system</text><text fill="#FFFFFF" font-family="Amazon Ember,Amazon Ember_MSFontService,sans-serif" font-weight="400" font-size="64" transform="matrix(1 0 0 1 2386.57 1714)">compatibility needs</text><path d="M3154 920 4047 920 4047 1786 3154 1786Z" fill="#CCFFE9" fill-rule="evenodd"/><text fill="#151D26" font-family="Amazon Ember,Amazon Ember_MSFontService,sans-serif" font-weight="700" font-size="83" transform="matrix(1 0 0 1 3351.22 1034)">Performance </text><text fill="#151D26" font-family="Amazon Ember,Amazon Ember_MSFontService,sans-serif" font-weight="700" font-size="83" transform="matrix(1 0 0 1 3342.62 1133)">Optimization</text><path d="M3345 1387 3392 1387 3392 1572 3345 1572Z" fill="#00E500" fill-rule="evenodd"/><path d="M3423 1325 3469 1325 3469 1572 3423 1572Z" fill="#007E94" fill-rule="evenodd"/><path d="M3500 1263 3546 1263 3546 1572 3500 1572Z" fill="#00E500" fill-rule="evenodd"/><path d="M3577 1294 3624 1294 3624 1572 3577 1572Z" fill="#FF9900" fill-rule="evenodd"/><path d="M3655 1356 3701 1356 3701 1572 3655 1572Z" fill="#00E500" fill-rule="evenodd"/><path d="M3732 1232 3778 1232 3778 1572 3732 1572Z" fill="#007E94" fill-rule="evenodd"/><path d="M3809 1309 3856 1309 3856 1572 3809 1572Z" fill="#232F3E" fill-rule="evenodd"/><text fill="#151D26" font-family="Amazon Ember,Amazon Ember_MSFontService,sans-serif" font-weight="400" font-size="64" transform="matrix(1 0 0 1 3367.55 1655)">Scale and speed</text><text fill="#151D26" font-family="Amazon Ember,Amazon Ember_MSFontService,sans-serif" font-weight="400" font-size="64" transform="matrix(1 0 0 1 3406.5 1717)">requirements</text></g></svg>