<svg width="4021" height="553" xmlns="http://www.w3.org/2000/svg" xmlns:xlink="http://www.w3.org/1999/xlink" xml:space="preserve" overflow="hidden"><g transform="translate(-132 -947)"><path d="M472 1066 885 1066 885 1409 472 1409Z" fill="#B8E7FF" fill-rule="evenodd"/><path d="M706 1168.5C706 1183.69 693.688 1196 678.5 1196 663.312 1196 651 1183.69 651 1168.5 651 1153.31 663.312 1141 678.5 1141 693.688 1141 706 1153.31 706 1168.5Z" fill="#007E94" fill-rule="evenodd"/><path d="M627 1220 730 1220 730 1289 627 1289Z" fill="#007E94" fill-rule="evenodd"/><path d="M644 1323 713 1323 678.5 1358Z" fill="#00E500" fill-rule="evenodd"/><path d="M1160 1066 1572 1066 1572 1409 1160 1409Z" fill="#D4DADA" fill-rule="evenodd"/><path d="M1314 1143 1418 1143 1366 1195Z" fill="#007E94" fill-rule="evenodd"/><path d="M1387 1263.5C1387 1274.82 1377.6 1284 1366 1284 1354.4 1284 1345 1274.82 1345 1263.5 1345 1252.18 1354.4 1243 1366 1243 1377.6 1243 1387 1252.18 1387 1263.5Z" fill="#00E500" fill-rule="evenodd"/><path d="M1280 1298 1452 1298 1452 1349 1280 1349Z" fill="#007E94" fill-rule="evenodd"/><path d="M1847 1066 2260 1066 2260 1409 1847 1409Z" fill="#B8E7FF" fill-rule="evenodd"/><path d="M1976 1152 2062 1152 2062 1238 1976 1238Z" fill="#007E94" fill-rule="evenodd"/><path d="M2148 1192.5C2148 1211.55 2132.55 1227 2113.5 1227 2094.45 1227 2079 1211.55 2079 1192.5 2079 1173.45 2094.45 1158 2113.5 1158 2132.55 1158 2148 1173.45 2148 1192.5Z" fill="#00E500" fill-rule="evenodd"/><path d="M1959 1289 1993.5 1289 2028 1323.5 1993.5 1358 1959 1358Z" fill="#007E94" fill-rule="evenodd"/><path d="M2535 1066 2947 1066 2947 1409 2535 1409Z" fill="#E5EAF0" fill-rule="evenodd"/><path d="M2748 1169C2748 1191.64 2729.42 1210 2706.5 1210 2683.58 1210 2665 1191.64 2665 1169 2665 1146.36 2683.58 1128 2706.5 1128 2729.42 1128 2748 1146.36 2748 1169Z" fill="#007E94" fill-rule="evenodd"/><path d="M2655 1238 2793 1238 2793 1279 2655 1279Z" fill="#00E500" fill-rule="evenodd"/><path d="M2758 1306 2827 1306 2792.5 1358Z" fill="#007E94" fill-rule="evenodd"/><path d="M3222 1066 3635 1066 3635 1409 3222 1409Z" fill="#CCFFE9" fill-rule="evenodd"/><path d="M3356 1152 3459 1152 3407.5 1203Z" fill="#007E94" fill-rule="evenodd"/><path d="M3384 1289.5C3384 1304.69 3371.69 1317 3356.5 1317 3341.31 1317 3329 1304.69 3329 1289.5 3329 1274.31 3341.31 1262 3356.5 1262 3371.69 1262 3384 1274.31 3384 1289.5Z" fill="#00E500" fill-rule="evenodd"/><path d="M3408 1272 3528 1272 3528 1334 3408 1334Z" fill="#007E94" fill-rule="evenodd"/><path d="M885 1239.13 1146.39 1239.13 1146.39 1252.88 885 1252.88ZM1108.6 1216 1160.03 1246 1108.6 1276C1105.32 1277.91 1101.11 1276.81 1099.2 1273.53 1097.29 1270.25 1098.39 1266.04 1101.67 1264.12L1142.92 1240.06 1142.92 1251.94 1101.67 1227.88C1098.39 1225.96 1097.29 1221.75 1099.2 1218.47 1101.11 1215.19 1105.32 1214.09 1108.6 1216Z" fill="#003181"/><path d="M1572 1239.13 1833.39 1239.13 1833.39 1252.88 1572 1252.88ZM1795.6 1216 1847.03 1246 1795.6 1276C1792.32 1277.91 1788.11 1276.81 1786.2 1273.53 1784.29 1270.25 1785.39 1266.04 1788.67 1264.12L1829.92 1240.06 1829.92 1251.94 1788.67 1227.88C1785.39 1225.96 1784.29 1221.75 1786.2 1218.47 1788.11 1215.19 1792.32 1214.09 1795.6 1216Z" fill="#003181"/><path d="M2260 1239.13 2521.39 1239.13 2521.39 1252.88 2260 1252.88ZM2483.6 1216 2535.03 1246 2483.6 1276C2480.32 1277.91 2476.11 1276.81 2474.2 1273.53 2472.29 1270.25 2473.39 1266.04 2476.67 1264.12L2517.92 1240.06 2517.92 1251.94 2476.67 1227.88C2473.39 1225.96 2472.29 1221.75 2474.2 1218.47 2476.11 1215.19 2480.32 1214.09 2483.6 1216Z" fill="#003181"/><path d="M2947 1239.13 3208.39 1239.13 3208.39 1252.88 2947 1252.88ZM3170.6 1216 3222.03 1246 3170.6 1276C3167.32 1277.91 3163.11 1276.81 3161.2 1273.53 3159.29 1270.25 3160.39 1266.04 3163.67 1264.12L3204.92 1240.06 3204.92 1251.94 3163.67 1227.88C3160.39 1225.96 3159.29 1221.75 3161.2 1218.47 3163.11 1215.19 3167.32 1214.09 3170.6 1216Z" fill="#003181"/></g></svg>