<svg width="4138" height="1764" xmlns="http://www.w3.org/2000/svg" xmlns:xlink="http://www.w3.org/1999/xlink" xml:space="preserve" overflow="hidden"><g transform="translate(-132 -493)"><path d="M3780.7 609C3805.72 609 3826 609 3826 609L3826 1282C3826 1282 3805.72 1282 3780.7 1282L2965.3 1282C2940.28 1282 2920 1282 2920 1282L2920 609C2920 609 2940.28 609 2965.3 609Z" fill="#9FFCEA" fill-rule="evenodd"/><rect x="2959" y="627" width="827" height="123" fill="#9FFCEA"/><text fill="#151D26" font-family="Amazon Ember,Amazon Ember_MSFontService,sans-serif" font-weight="700" font-size="73" transform="matrix(1 0 0 1 2996.35 712)">Automated validation</text><rect x="3053" y="1155" width="639" height="122" fill="#9FFCEA"/><text fill="#151D26" font-family="Segoe UI Symbol,Segoe UI Symbol_MSFontService,sans-serif" font-weight="400" font-size="73" transform="matrix(1 0 0 1 3089.45 1240)">✓</text><text fill="#151D26" font-family="Amazon Ember,Amazon Ember_MSFontService,sans-serif" font-weight="400" font-size="73" transform="matrix(1 0 0 1 3163.93 1240)">Quality Checks</text><g><g><g><path d="M3376.26 795.502 3385.02 802.42C3386.46 803.549 3388.38 803.862 3390.12 803.235L3400.59 799.369C3402.87 798.533 3405.44 799.369 3406.79 801.396L3412.98 810.676C3414.01 812.201 3415.74 813.079 3417.58 813.016L3428.72 812.578C3431.16 812.473 3433.34 814.061 3434.01 816.423L3437.04 827.166C3437.54 828.921 3438.92 830.322 3440.67 830.802L3451.42 833.833C3453.76 834.502 3455.35 836.675 3455.26 839.121L3454.82 850.26C3454.74 852.099 3455.64 853.834 3457.16 854.858L3466.44 861.045C3468.47 862.403 3469.31 864.974 3468.45 867.252L3464.58 877.723C3463.94 879.437 3464.25 881.38 3465.4 882.822L3472.32 891.58C3473.82 893.502 3473.82 896.198 3472.32 898.1L3465.4 906.857C3464.27 908.3 3463.96 910.222 3464.58 911.957L3468.45 922.428C3469.29 924.706 3468.45 927.277 3466.44 928.635L3457.16 934.822C3455.64 935.846 3454.76 937.58 3454.82 939.42L3455.26 950.559C3455.37 953.005 3453.78 955.178 3451.42 955.847L3440.67 958.878C3438.9 959.379 3437.52 960.759 3437.04 962.514L3434.01 973.257C3433.36 975.598 3431.16 977.186 3428.72 977.102L3417.58 976.663C3415.74 976.58 3414.01 977.479 3412.98 979.004L3406.79 988.284C3405.44 990.311 3402.87 991.147 3400.59 990.311L3390.12 986.445C3388.4 985.818 3386.46 986.11 3385.02 987.26L3376.26 994.178C3374.34 995.682 3371.64 995.682 3369.74 994.178L3360.98 987.26C3359.54 986.131 3357.62 985.818 3355.88 986.445L3345.41 990.311C3343.13 991.147 3340.56 990.311 3339.2 988.284L3333 979.004C3331.97 977.479 3330.24 976.601 3328.4 976.663L3317.26 977.102C3314.81 977.207 3312.64 975.618 3311.97 973.257L3308.94 962.514C3308.44 960.759 3307.06 959.358 3305.3 958.878L3294.56 955.847C3292.22 955.178 3290.63 953.005 3290.72 950.559L3291.16 939.42C3291.24 937.58 3290.34 935.846 3288.81 934.822L3279.53 928.635C3277.51 927.277 3276.67 924.706 3277.51 922.428L3281.37 911.957C3282 910.243 3281.71 908.3 3280.58 906.857L3273.66 898.1C3272.16 896.178 3272.16 893.481 3273.66 891.58L3280.58 882.822C3281.71 881.38 3282.02 879.458 3281.37 877.723L3277.51 867.252C3276.67 864.974 3277.51 862.403 3279.53 861.045L3288.81 854.858C3290.34 853.834 3291.22 852.099 3291.16 850.26L3290.72 839.121C3290.61 836.675 3292.2 834.502 3294.56 833.833L3305.3 830.802C3307.06 830.301 3308.46 828.921 3308.94 827.166L3311.97 816.423C3312.64 814.082 3314.81 812.494 3317.26 812.578L3328.4 813.016C3330.24 813.079 3331.97 812.201 3333 810.676L3339.2 801.396C3340.56 799.369 3343.13 798.533 3345.41 799.369L3355.88 803.235C3357.6 803.883 3359.54 803.57 3360.98 802.42L3369.74 795.502C3371.66 793.997 3374.36 793.997 3376.26 795.502Z" stroke="#232F3E" stroke-width="8.36" stroke-linejoin="round" fill="#9FFCEA"/><path d="M3426.17 894.777C3426.17 924.142 3402.36 947.947 3373 947.947 3343.64 947.947 3319.83 924.142 3319.83 894.777 3319.83 865.412 3343.64 841.608 3373 841.608 3402.36 841.608 3426.17 865.412 3426.17 894.777Z" stroke="#232F3E" stroke-width="8.36" stroke-linejoin="round" fill="#9FFCEA"/><path d="M3364.6 1006.65 3384.1 1091.55C3385.16 1096.17 3391.37 1097.15 3393.82 1093.08L3402.45 1078.7C3404.02 1076.08 3407.51 1075.33 3410.03 1077.09L3423.72 1086.56C3427.67 1089.29 3432.96 1085.82 3431.94 1081.16L3414.95 1003.1" stroke="#232F3E" stroke-width="8.36" stroke-linejoin="round" fill="#9FFCEA"/><path d="M3323.84 995.202 3305.18 1081.14C3304.16 1085.8 3309.44 1089.27 3313.39 1086.53L3327.08 1077.07C3329.61 1075.31 3333.1 1076.06 3334.67 1078.68L3343.2 1092.89C3345.66 1096.98 3351.91 1095.98 3352.94 1091.32L3359.85 1059.57" stroke="#232F3E" stroke-width="8.36" stroke-linejoin="round" fill="#9FFCEA"/></g></g></g><path d="M1564 1378C1564 1037.79 1839.79 762 2180 762 2520.21 762 2796 1037.79 2796 1378 2796 1718.21 2520.21 1994 2180 1994 1839.79 1994 1564 1718.21 1564 1378Z" fill="#007FAA" fill-rule="evenodd"/><text fill="#FFFFFF" font-family="Amazon Ember,Amazon Ember_MSFontService,sans-serif" font-weight="700" font-size="73" transform="matrix(1 0 0 1 1879.84 1462)">Knowledge Base</text><text fill="#FFFFFF" font-family="Amazon Ember,Amazon Ember_MSFontService,sans-serif" font-weight="400" font-size="73" transform="matrix(1 0 0 1 1660.13 1561)">Foundation Model Connection</text><g><g><g><path d="M361.122 203.979 361.122 259.441" stroke="#FFFFFF" stroke-width="9.86021" stroke-linejoin="round" fill="none" transform="matrix(1 0 0 1.00203 1916 939)"/><path d="M257.592 392.551 195.869 392.551C193.207 392.551 191.037 390.382 191.037 387.72L191.037 179.23C191.037 176.568 193.207 174.399 195.869 174.399L251.627 174.399" stroke="#FFFFFF" stroke-width="9.86021" stroke-linejoin="round" fill="none" transform="matrix(1 0 0 1.00203 1916 939)"/><path d="M220.617 240.954 220.617 289.021" stroke="#FFFFFF" stroke-width="9.86021" stroke-linejoin="round" fill="none" transform="matrix(1 0 0 1.00203 1916 939)"/><path d="M340.367 387.695C340.367 390.382 342.536 392.551 345.223 392.551L382.149 392.551C384.836 392.551 387.005 390.382 387.005 387.72L387.005 123.768C387.005 121.105 384.836 118.936 382.149 118.936L345.223 118.936C342.536 118.936 340.367 121.105 340.367 123.792" stroke="#FFFFFF" stroke-width="9.86021" stroke-linejoin="round" fill="none" transform="matrix(1 0 0 1.00203 1916 939)"/><path d="M101.09 338.962 91.9198 376.627C91.2789 379.216 92.8812 381.853 95.4694 382.469L130.522 390.998C133.11 391.639 135.748 390.037 136.364 387.449L146.421 346.209 164.958 270.139 193.922 151.277C194.562 148.689 192.96 146.051 190.372 145.435L155.32 136.881C152.731 136.241 150.094 137.843 149.478 140.431L113.834 286.729 101.114 338.913Z" stroke="#FFFFFF" stroke-width="9.86021" stroke-linejoin="round" fill="none" transform="matrix(1 0 0 1.00203 1916 939)"/><path d="M258.726 100.449 334.081 100.449C336.744 100.449 338.913 102.618 338.913 105.28L338.913 387.695C338.913 390.357 336.744 392.527 334.081 392.527L258.726 392.527C256.064 392.527 253.895 390.357 253.895 387.695L253.895 105.28C253.895 102.618 256.064 100.449 258.726 100.449Z" stroke="#FFFFFF" stroke-width="9.86021" stroke-linejoin="round" fill="none" transform="matrix(1 0 0 1.00203 1916 939)"/><path d="M187.34 207.676 250.197 207.676" stroke="#FFFFFF" stroke-width="9.86021" stroke-linejoin="round" fill="none" transform="matrix(1 0 0 1.00203 1916 939)"/><path d="M187.34 226.164 253.895 226.164" stroke="#FFFFFF" stroke-width="9.86021" stroke-linejoin="round" fill="none" transform="matrix(1 0 0 1.00203 1916 939)"/><path d="M342.635 141.121 383.307 141.121" stroke="#FFFFFF" stroke-width="9.86021" stroke-linejoin="round" fill="none" transform="matrix(1 0 0 1.00203 1916 939)"/><path d="M342.635 159.609 383.307 159.609" stroke="#FFFFFF" stroke-width="9.86021" stroke-linejoin="round" fill="none" transform="matrix(1 0 0 1.00203 1916 939)"/><path d="M202.13 359.274 242.802 359.274" stroke="#FFFFFF" stroke-width="9.86021" stroke-linejoin="round" fill="none" transform="matrix(1 0 0 1.00203 1916 939)"/><path d="M202.13 374.064 242.802 374.064" stroke="#FFFFFF" stroke-width="9.86021" stroke-linejoin="round" fill="none" transform="matrix(1 0 0 1.00203 1916 939)"/><path d="M301.962 152.214C306.047 152.214 309.357 155.525 309.357 159.609L309.357 218.769C309.357 222.853 306.047 226.164 301.962 226.164L290.87 226.164C286.786 226.164 283.475 222.853 283.475 218.769L283.475 159.609C283.475 155.525 286.786 152.214 290.87 152.214Z" stroke="#FFFFFF" stroke-width="9.86021" stroke-linejoin="round" fill="none" transform="matrix(1 0 0 1.00203 1916 939)"/></g></g></g><path d="M3008 1380C3008 1832.32 2637.29 2199 2180 2199 1722.71 2199 1352 1832.32 1352 1380 1352 1374.79 1352.05 1369.57 1352.15 1364.36L1513.69 1367.41C1506.65 1730.43 1799.25 2030.35 2167.24 2037.31 2535.23 2044.26 2839.26 1755.61 2846.3 1392.59 2846.39 1388.39 2846.43 1384.2 2846.43 1380Z" fill="#D4DADA" fill-rule="evenodd"/><path d="M3024.28 1032.51 2972.69 1345.66 2703.33 1177.81Z" fill="#D4DADA" fill-rule="evenodd"/><path d="M1434.7 618C1459.72 618 1480 618 1480 618L1480 1288C1480 1288 1459.72 1288 1434.7 1288L619.3 1288C594.281 1288 574 1288 574 1288L574 618C574 618 594.281 618 619.3 618Z" fill="#B8E7FF" fill-rule="evenodd"/><text fill="#151D26" font-family="Amazon Ember,Amazon Ember_MSFontService,sans-serif" font-weight="700" font-size="73" transform="matrix(1 0 0 1 655.134 723)">Freshness monitoring</text><text fill="#151D26" font-family="Amazon Ember,Amazon Ember_MSFontService,sans-serif" font-weight="400" font-size="73" transform="matrix(1 0 0 1 906.931 1250)">Metrics</text><g><g><g><path d="M927.788 898.137 1131.56 898.137 1131.56 916.738 927.788 916.738Z" stroke="#232F3E" stroke-width="8.36" stroke-linejoin="round" fill="none"/><path d="M1100.21 1095.64 959.138 1095.64C945.281 1095.64 934.058 1084.42 934.058 1070.56L934.058 916.947 1125.29 916.947 1125.29 1070.56C1125.29 1084.42 1114.07 1095.64 1100.21 1095.64Z" stroke="#232F3E" stroke-width="8.36" stroke-linejoin="round" fill="none"/><path d="M902.708 1032.94 934.058 1032.94 934.058 942.027 902.708 942.027C894.055 942.027 887.033 949.05 887.033 957.702L887.033 1017.27C887.033 1025.92 894.055 1032.94 902.708 1032.94Z" stroke="#232F3E" stroke-width="8.36" stroke-linejoin="round" fill="none"/><path d="M915.248 1017.27 902.708 1017.27 902.708 957.702 924.653 957.702" stroke="#232F3E" stroke-width="8.36" stroke-linejoin="round" fill="none"/><path d="M1090.81 989.052 1090.81 1054.89" stroke="#232F3E" stroke-width="8.36" stroke-linejoin="round" fill="none"/><path d="M1090.81 942.027 1090.81 976.512" stroke="#232F3E" stroke-width="8.36" stroke-linejoin="round" fill="none"/><path d="M1035.63 874.102C1035.63 874.102 1026.12 864.593 1026.12 850.339 1026.12 836.085 1035.63 826.555 1035.63 826.555" stroke="#232F3E" stroke-width="8.36" stroke-linejoin="round" fill="none"/><path d="M1035.63 826.555C1035.63 826.555 1045.14 817.045 1045.14 802.792 1045.14 788.538 1035.63 779.007 1035.63 779.007" stroke="#232F3E" stroke-width="8.36" stroke-linejoin="round" fill="none"/><path d="M978.282 874.102C978.282 874.102 971.155 866.975 971.155 856.275 971.155 845.574 978.282 838.447 978.282 838.447" stroke="#232F3E" stroke-width="8.36" stroke-linejoin="round" fill="none"/><path d="M978.282 838.447C978.282 838.447 985.409 831.32 985.409 820.619 985.409 809.918 978.282 802.792 978.282 802.792" stroke="#232F3E" stroke-width="8.36" stroke-linejoin="round" fill="none"/><path d="M1083.45 874.102C1083.45 874.102 1078.69 869.337 1078.69 862.21 1078.69 855.083 1083.45 850.318 1083.45 850.318" stroke="#232F3E" stroke-width="8.36" stroke-linejoin="round" fill="none"/><path d="M1083.45 850.339C1083.45 850.339 1088.22 845.574 1088.22 838.447 1088.22 831.32 1083.45 826.555 1083.45 826.555" stroke="#232F3E" stroke-width="8.36" stroke-linejoin="round" fill="none"/></g></g></g><path d="M1434.7 1453C1459.72 1453 1480 1453 1480 1453L1480 2129C1480 2129 1459.72 2129 1434.7 2129L619.3 2129C594.281 2129 574 2129 574 2129L574 1453C574 1453 594.281 1453 619.3 1453Z" fill="#19594E" fill-rule="evenodd"/><text fill="#FFFFFF" font-family="Amazon Ember,Amazon Ember_MSFontService,sans-serif" font-weight="700" font-size="73" transform="matrix(1 0 0 1 764.274 1572)">Version control</text><text fill="#FFFFFF" font-family="Amazon Ember,Amazon Ember_MSFontService,sans-serif" font-weight="400" font-size="73" transform="matrix(1 0 0 1 711.28 2086)">History &amp; Branches</text><g><g><g><path d="M1049.68 1716.49C1049.68 1729.02 1039.52 1739.17 1027 1739.17 1014.48 1739.17 1004.32 1729.02 1004.32 1716.49 1004.32 1703.97 1014.48 1693.81 1027 1693.81 1039.52 1693.81 1049.68 1703.97 1049.68 1716.49Z" stroke="#FFFFFF" stroke-width="8.36018" stroke-linejoin="round" fill="none"/><path d="M1049.68 1865.51C1049.68 1878.03 1039.52 1888.18 1027 1888.18 1014.48 1888.18 1004.32 1878.03 1004.32 1865.51 1004.32 1852.98 1014.48 1842.83 1027 1842.83 1039.52 1842.83 1049.68 1852.98 1049.68 1865.51Z" stroke="#FFFFFF" stroke-width="8.36018" stroke-linejoin="round" fill="none"/><path d="M1156.58 1865.51C1156.58 1878.03 1146.43 1888.18 1133.9 1888.18 1121.38 1888.18 1111.23 1878.03 1111.23 1865.51 1111.23 1852.98 1121.38 1842.83 1133.9 1842.83 1146.43 1842.83 1156.58 1852.98 1156.58 1865.51Z" stroke="#FFFFFF" stroke-width="8.36018" stroke-linejoin="round" fill="none"/><path d="M942.773 1865.51C942.773 1878.03 932.62 1888.18 920.097 1888.18 907.573 1888.18 897.42 1878.03 897.42 1865.51 897.42 1852.98 907.573 1842.83 920.097 1842.83 932.62 1842.83 942.773 1852.98 942.773 1865.51Z" stroke="#FFFFFF" stroke-width="8.36018" stroke-linejoin="round" fill="none"/><path d="M1133.9 1842.83 1133.9 1791 920.097 1791 920.097 1842.83" stroke="#FFFFFF" stroke-width="8.36018" stroke-linejoin="round" fill="none"/><path d="M1027 1842.83 1027 1739.17" stroke="#FFFFFF" stroke-width="8.36018" stroke-linejoin="round" fill="none"/></g></g></g><path d="M3780.7 1447C3805.72 1447 3826 1447 3826 1447L3826 2123C3826 2123 3805.72 2123 3780.7 2123L2965.3 2123C2940.28 2123 2920 2123 2920 2123L2920 1447C2920 1447 2940.28 1447 2965.3 1447Z" fill="#E5EAF0" fill-rule="evenodd"/><rect x="3026" y="1472" width="694" height="122" fill="#E5EAF0"/><text fill="#151D26" font-family="Amazon Ember,Amazon Ember_MSFontService,sans-serif" font-weight="700" font-size="73" transform="matrix(1 0 0 1 3062.24 1557)">Retention policies</text><rect x="3038" y="2001" width="669" height="122" fill="#E5EAF0"/><text fill="#151D26" font-family="Amazon Ember,Amazon Ember_MSFontService,sans-serif" font-weight="400" font-size="73" transform="matrix(1 0 0 1 3073.41 2086)">Archive &amp; Storage</text><g><g><g><path d="M3249.9 1736.41 3249.9 1665.22C3249.9 1661.61 3252.85 1658.66 3256.46 1658.66L3437.54 1658.66C3439.29 1658.66 3440.99 1659.37 3442.22 1660.62L3494.2 1720.02C3495.41 1721.26 3496.08 1722.91 3496.08 1724.62L3496.08 1904.78C3496.08 1908.39 3493.13 1911.34 3489.52 1911.34L3256.46 1911.34C3252.82 1911.34 3249.9 1908.39 3249.9 1904.78L3249.9 1736.41Z" stroke="#232F3E" stroke-width="8.36" stroke-linejoin="round" fill="#E5EAF0"/><path d="M3408.51 1733.17 3295.38 1733.17C3291.74 1733.17 3288.77 1730.2 3288.77 1726.56L3288.77 1658.66 3415.11 1658.66 3415.11 1726.56C3415.11 1730.2 3412.15 1733.17 3408.51 1733.17Z" stroke="#232F3E" stroke-width="8.36" stroke-linejoin="round" fill="#E5EAF0"/><path d="M3385.71 1713.73 3318.16 1713.73C3314.44 1713.73 3311.43 1710.72 3311.43 1707L3311.43 1658.66 3392.42 1658.66 3392.42 1707C3392.42 1710.72 3389.41 1713.73 3385.69 1713.73Z" stroke="#232F3E" stroke-width="8.36" stroke-linejoin="round" fill="#E5EAF0"/><path d="M3317.93 1891.9 3431.31 1891.9" stroke="#232F3E" stroke-width="8.36" stroke-linejoin="round" fill="none"/><path d="M3453.99 1911.34 3295.25 1911.34 3295.25 1849.94C3295.25 1846.28 3298.22 1843.31 3301.88 1843.31L3447.34 1843.31C3451 1843.31 3453.97 1846.28 3453.97 1849.94L3453.97 1911.34Z" stroke="#232F3E" stroke-width="8.36" stroke-linejoin="round" fill="#E5EAF0"/><path d="M3317.93 1865.99 3385.96 1865.99" stroke="#232F3E" stroke-width="8.36" stroke-linejoin="round" fill="none"/></g></g></g><path d="M1376.32 1575.68C1268.17 1136.61 1540.4 692.035 1984.34 582.692 2428.29 473.349 2875.85 740.646 2983.99 1179.72 2985.24 1184.78 2986.43 1189.85 2987.58 1194.94L2830.04 1230.6C2750.09 876.526 2394.32 655.355 2035.4 736.597 1676.47 817.839 1450.32 1170.73 1530.27 1524.8 1531.19 1528.89 1532.15 1532.98 1533.16 1537.05Z" fill="#D4DADA" fill-rule="evenodd"/></g></svg>