<svg width="4400" height="535" xmlns="http://www.w3.org/2000/svg" xmlns:xlink="http://www.w3.org/1999/xlink" xml:space="preserve" overflow="hidden"><g transform="matrix(1 0 0 1 0 -986)"><path d="M393 1031 1225 1031 1225 1444 393 1444Z" fill="#19594E" fill-rule="evenodd"/><text fill="#FFFFFF" font-family="Amazon Ember,Amazon Ember_MSFontService,sans-serif" font-weight="700" font-size="73" transform="matrix(1 0 0 1 425.991 1124)">Query </text><text fill="#FFFFFF" font-family="Amazon Ember,Amazon Ember_MSFontService,sans-serif" font-weight="700" font-size="73" transform="matrix(1 0 0 1 656.877 1124)">a</text><text fill="#FFFFFF" font-family="Amazon Ember,Amazon Ember_MSFontService,sans-serif" font-weight="700" font-size="73" transform="matrix(1 0 0 1 696.981 1124)">nalysis</text><path d="M1320 1031 2152 1031 2152 1444 1320 1444Z" fill="#D9D9D9" fill-rule="evenodd"/><text fill="#151D26" font-family="Amazon Ember,Amazon Ember_MSFontService,sans-serif" font-weight="700" font-size="73" transform="matrix(1 0 0 1 1353.37 1132)">Decomposition</text><path d="M2248 1031 3080 1031 3080 1444 2248 1444Z" fill="#B8E7FF" fill-rule="evenodd"/><text fill="#151D26" font-family="Amazon Ember,Amazon Ember_MSFontService,sans-serif" font-weight="700" font-size="73" transform="matrix(1 0 0 1 2280.75 1132)">Expansion</text><path d="M3175 1031 4007 1031 4007 1444 3175 1444Z" fill="#CCFFE9" fill-rule="evenodd"/><text fill="#151D26" font-family="Amazon Ember,Amazon Ember_MSFontService,sans-serif" font-weight="700" font-size="73" transform="matrix(1 0 0 1 3208.13 1132)">Result </text><text fill="#151D26" font-family="Amazon Ember,Amazon Ember_MSFontService,sans-serif" font-weight="700" font-size="73" transform="matrix(1 0 0 1 3443.6 1132)">a</text><text fill="#151D26" font-family="Amazon Ember,Amazon Ember_MSFontService,sans-serif" font-weight="700" font-size="73" transform="matrix(1 0 0 1 3483.71 1132)">ggregation</text><path d="M1114 1031 1239 1031 1364 1237.5 1239 1444 1114 1444Z" fill="#19594E" fill-rule="evenodd"/><path d="M2080 1032 2204.5 1032 2329 1237 2204.5 1442 2080 1442Z" fill="#D9D9D9" fill-rule="evenodd"/><path d="M3003 1033 3127.5 1033 3252 1239.5 3127.5 1446 3003 1446Z" fill="#B8E7FF" fill-rule="evenodd"/></g></svg>