<svg width="757" height="688" xmlns="http://www.w3.org/2000/svg" xmlns:xlink="http://www.w3.org/1999/xlink" xml:space="preserve" overflow="hidden"><g transform="translate(-309 -764)"><path d="M602 1004.5C602 1032.94 578.719 1056 550 1056 521.281 1056 498 1032.94 498 1004.5 498 976.057 521.281 953 550 953 578.719 953 602 976.057 602 1004.5Z" fill="#B8E7FF" fill-rule="evenodd"/><path d="M748 966.5C748 994.943 724.943 1018 696.5 1018 668.057 1018 645 994.943 645 966.5 645 938.057 668.057 915 696.5 915 724.943 915 748 938.057 748 966.5Z" fill="#B8E7FF" fill-rule="evenodd"/><path d="M911 1073.5C911 1101.94 887.943 1125 859.5 1125 831.057 1125 808 1101.94 808 1073.5 808 1045.06 831.057 1022 859.5 1022 887.943 1022 911 1045.06 911 1073.5Z" fill="#B8E7FF" fill-rule="evenodd"/><path d="M615 1153.5C615 1181.94 591.943 1205 563.5 1205 535.057 1205 512 1181.94 512 1153.5 512 1125.06 535.057 1102 563.5 1102 591.943 1102 615 1125.06 615 1153.5Z" fill="#B8E7FF" fill-rule="evenodd"/><path d="M759 1146.5C759 1174.94 735.943 1198 707.5 1198 679.057 1198 656 1174.94 656 1146.5 656 1118.06 679.057 1095 707.5 1095 735.943 1095 759 1118.06 759 1146.5Z" fill="#BE4E2E" fill-rule="evenodd"/><path d="M884 1225.5C884 1253.94 860.943 1277 832.5 1277 804.057 1277 781 1253.94 781 1225.5 781 1197.06 804.057 1174 832.5 1174 860.943 1174 884 1197.06 884 1225.5Z" fill="#B8E7FF" fill-rule="evenodd"/></g></svg>