<svg width="3403" height="1607" xmlns="http://www.w3.org/2000/svg" xmlns:xlink="http://www.w3.org/1999/xlink" xml:space="preserve" overflow="hidden"><defs><clipPath id="clip0"><rect x="441" y="533" width="3403" height="1607"/></clipPath></defs><g clip-path="url(#clip0)" transform="translate(-441 -533)"><path d="M441 533 3844 533 3844 905 441 905Z" fill="#B8E7FF" fill-rule="evenodd"/><text fill="#151D26" font-family="Amazon Ember,Amazon Ember_MSFontService,sans-serif" font-weight="700" font-size="83" transform="matrix(1 0 0 1 1513.1 651)">HIPAA</text><text fill="#151D26" font-family="Amazon Ember,Amazon Ember_MSFontService,sans-serif" font-weight="700" font-size="83" transform="matrix(1 0 0 1 1761.18 651)">-</text><text fill="#151D26" font-family="Amazon Ember,Amazon Ember_MSFontService,sans-serif" font-weight="700" font-size="83" transform="matrix(1 0 0 1 1794.4 651)">Compliant Security Layer</text><text fill="#151D26" font-family="Amazon Ember,Amazon Ember_MSFontService,sans-serif" font-weight="400" font-size="55" transform="matrix(1 0 0 1 681.519 790)">Encryption</text><text fill="#151D26" font-family="Amazon Ember,Amazon Ember_MSFontService,sans-serif" font-weight="400" font-size="55" transform="matrix(1 0 0 1 1174.08 790)">Access </text><text fill="#151D26" font-family="Amazon Ember,Amazon Ember_MSFontService,sans-serif" font-weight="400" font-size="55" transform="matrix(1 0 0 1 1350.54 790)">c</text><text fill="#151D26" font-family="Amazon Ember,Amazon Ember_MSFontService,sans-serif" font-weight="400" font-size="55" transform="matrix(1 0 0 1 1375.74 790)">ontrols</text><text fill="#151D26" font-family="Amazon Ember,Amazon Ember_MSFontService,sans-serif" font-weight="400" font-size="55" transform="matrix(1 0 0 1 1797.95 790)">Audit </text><text fill="#151D26" font-family="Amazon Ember,Amazon Ember_MSFontService,sans-serif" font-weight="400" font-size="55" transform="matrix(1 0 0 1 1946.91 790)">l</text><text fill="#151D26" font-family="Amazon Ember,Amazon Ember_MSFontService,sans-serif" font-weight="400" font-size="55" transform="matrix(1 0 0 1 1962.38 790)">ogging</text><text fill="#151D26" font-family="Amazon Ember,Amazon Ember_MSFontService,sans-serif" font-weight="400" font-size="55" transform="matrix(1 0 0 1 2408.26 790)">Data </text><text fill="#151D26" font-family="Amazon Ember,Amazon Ember_MSFontService,sans-serif" font-weight="400" font-size="55" transform="matrix(1 0 0 1 2540.03 790)">g</text><text fill="#151D26" font-family="Amazon Ember,Amazon Ember_MSFontService,sans-serif" font-weight="400" font-size="55" transform="matrix(1 0 0 1 2572.11 790)">overnance</text><text fill="#151D26" font-family="Amazon Ember,Amazon Ember_MSFontService,sans-serif" font-weight="400" font-size="55" transform="matrix(1 0 0 1 3015.74 790)">Compliance </text><text fill="#151D26" font-family="Amazon Ember,Amazon Ember_MSFontService,sans-serif" font-weight="400" font-size="55" transform="matrix(1 0 0 1 3322.25 790)">m</text><text fill="#151D26" font-family="Amazon Ember,Amazon Ember_MSFontService,sans-serif" font-weight="400" font-size="55" transform="matrix(1 0 0 1 3371.52 790)">onitoring</text><path d="M441 1059 1987 1059 1987 1678 441 1678Z" fill="#CCFFE9" fill-rule="evenodd"/><text fill="#151D26" font-family="Amazon Ember,Amazon Ember_MSFontService,sans-serif" font-weight="700" font-size="73" transform="matrix(1 0 0 1 701.852 1166)">Clinical Workflow Integration</text><path d="M2297 1059 3844 1059 3844 1678 2297 1678Z" fill="#007E94" fill-rule="evenodd"/><text fill="#FFFFFF" font-family="Amazon Ember,Amazon Ember_MSFontService,sans-serif" font-weight="700" font-size="73" transform="matrix(1 0 0 1 2410.29 1166)">Department</text><text fill="#FFFFFF" font-family="Amazon Ember,Amazon Ember_MSFontService,sans-serif" font-weight="700" font-size="73" transform="matrix(1 0 0 1 2825.65 1166)">-</text><text fill="#FFFFFF" font-family="Amazon Ember,Amazon Ember_MSFontService,sans-serif" font-weight="700" font-size="73" transform="matrix(1 0 0 1 2854.87 1166)">Specific Search Functions</text><text fill="#FFFFFF" font-family="Amazon Ember,Amazon Ember_MSFontService,sans-serif" font-weight="400" font-size="55" transform="matrix(1 0 0 1 2513.41 1302)">Emergency Dept Search</text><text fill="#FFFFFF" font-family="Amazon Ember,Amazon Ember_MSFontService,sans-serif" font-weight="400" font-size="55" transform="matrix(1 0 0 1 2513.41 1426)">Radiology Search</text><text fill="#FFFFFF" font-family="Amazon Ember,Amazon Ember_MSFontService,sans-serif" font-weight="400" font-size="55" transform="matrix(1 0 0 1 2513.41 1550)">Laboratory Search</text><text fill="#FFFFFF" font-family="Amazon Ember,Amazon Ember_MSFontService,sans-serif" font-weight="400" font-size="55" transform="matrix(1 0 0 1 3224.98 1302)">Pharmacy Search</text><text fill="#FFFFFF" font-family="Amazon Ember,Amazon Ember_MSFontService,sans-serif" font-weight="400" font-size="55" transform="matrix(1 0 0 1 3224.98 1426)">Surgical Search</text><text fill="#FFFFFF" font-family="Amazon Ember,Amazon Ember_MSFontService,sans-serif" font-weight="400" font-size="55" transform="matrix(1 0 0 1 3224.98 1550)">ICU Search</text><path d="M451 1830 3844 1830 3844 2140 451 2140Z" fill="#19594E" fill-rule="evenodd"/><text fill="#FFFFFF" font-family="Amazon Ember,Amazon Ember_MSFontService,sans-serif" font-weight="700" font-size="83" transform="matrix(1 0 0 1 1474.07 1960)">Secure Healthcare Data Repository</text><text fill="#FFFFFF" font-family="Amazon Ember,Amazon Ember_MSFontService,sans-serif" font-weight="400" font-size="55" transform="matrix(1 0 0 1 1568.89 2050)">Patient Records • Medical Images • Lab Results</text><text fill="#151D26" font-family="Amazon Ember,Amazon Ember_MSFontService,sans-serif" font-weight="400" font-size="55" transform="matrix(1 0 0 1 558.506 1302)">Patient Registration</text><text fill="#151D26" font-family="Amazon Ember,Amazon Ember_MSFontService,sans-serif" font-weight="400" font-size="55" transform="matrix(1 0 0 1 1270.07 1302)">Clinical Documentation</text><text fill="#151D26" font-family="Amazon Ember,Amazon Ember_MSFontService,sans-serif" font-weight="400" font-size="55" transform="matrix(1 0 0 1 558.506 1426)">Order Management</text><text fill="#151D26" font-family="Amazon Ember,Amazon Ember_MSFontService,sans-serif" font-weight="400" font-size="55" transform="matrix(1 0 0 1 1270.07 1426)">Results Reporting</text><text fill="#151D26" font-family="Amazon Ember,Amazon Ember_MSFontService,sans-serif" font-weight="400" font-size="55" transform="matrix(1 0 0 1 558.506 1550)">Care Coordination</text><text fill="#151D26" font-family="Amazon Ember,Amazon Ember_MSFontService,sans-serif" font-weight="400" font-size="55" transform="matrix(1 0 0 1 1270.07 1550)">Quality Metrics</text><path d="M1145.87 905 1145.88 1044.21 1132.13 1044.21 1132.12 905ZM1169 1006.43 1139 1057.86 1109 1006.43C1107.09 1003.15 1108.19 998.938 1111.47 997.024 1114.75 995.111 1118.96 996.219 1120.88 999.499L1144.94 1040.75 1133.06 1040.75 1157.12 999.499C1159.04 996.219 1163.25 995.111 1166.53 997.024 1169.81 998.938 1170.91 1003.15 1169 1006.43Z" fill="#D4DADA"/><path d="M3051.88 904 3051.88 1043.21 3038.13 1043.21 3038.12 904ZM3075 1005.43 3045 1056.86 3015 1005.43C3013.09 1002.15 3014.19 997.938 3017.47 996.024 3020.75 994.111 3024.96 995.219 3026.88 998.499L3050.94 1039.75 3039.06 1039.75 3063.12 998.499C3065.04 995.219 3069.25 994.111 3072.53 996.024 3075.81 997.938 3076.91 1002.15 3075 1005.43Z" fill="#D4DADA"/><rect x="495" y="706" width="3288" height="136" stroke="#000F33" stroke-width="3.89583" stroke-linejoin="round" stroke-miterlimit="10" fill="none"/><path d="M2000.61 1352.12 2041.86 1352.12 2041.86 1365.88 2000.61 1365.87ZM2055.61 1352.12 2096.86 1352.12 2096.86 1365.88 2055.61 1365.88ZM2110.61 1352.12 2151.86 1352.13 2151.86 1365.88 2110.61 1365.88ZM2165.61 1352.13 2206.86 1352.13 2206.86 1365.88 2165.61 1365.88ZM2220.61 1352.13 2261.86 1352.13 2261.86 1365.88 2220.61 1365.88ZM2275.61 1352.13 2282.76 1352.13 2282.76 1365.88 2275.61 1365.88ZM2038.4 1389 1986.97 1359 2038.4 1329C2041.68 1327.09 2045.89 1328.19 2047.8 1331.47 2049.71 1334.75 2048.61 1338.96 2045.33 1340.88L2004.08 1364.94 2004.08 1353.06 2045.33 1377.12C2048.61 1379.04 2049.71 1383.25 2047.8 1386.53 2045.89 1389.81 2041.68 1390.91 2038.4 1389ZM2244.98 1329 2296.41 1359 2244.98 1389C2241.7 1390.91 2237.49 1389.81 2235.57 1386.53 2233.66 1383.25 2234.77 1379.04 2238.05 1377.12L2279.3 1353.06 2279.3 1364.94 2238.05 1340.88C2234.77 1338.96 2233.66 1334.75 2235.57 1331.47 2237.49 1328.19 2241.7 1327.09 2244.98 1329Z" fill="#D4DADA"/><path d="M1145.87 1677 1145.88 1802.32 1132.13 1802.32 1132.12 1677ZM1169 1764.53 1139 1815.96 1109 1764.53C1107.09 1761.25 1108.19 1757.04 1111.47 1755.13 1114.75 1753.22 1118.96 1754.33 1120.88 1757.61L1144.94 1798.86 1133.06 1798.86 1157.12 1757.61C1159.04 1754.33 1163.25 1753.22 1166.53 1755.13 1169.81 1757.04 1170.91 1761.25 1169 1764.53Z" fill="#D4DADA"/><path d="M3076.88 1681 3076.88 1806.32 3063.13 1806.32 3063.12 1681ZM3100 1768.53 3070 1819.96 3040 1768.53C3038.09 1765.25 3039.19 1761.04 3042.47 1759.13 3045.75 1757.22 3049.96 1758.33 3051.88 1761.61L3075.94 1802.86 3064.06 1802.86 3088.12 1761.61C3090.04 1758.33 3094.25 1757.22 3097.53 1759.13 3100.81 1761.04 3101.91 1765.25 3100 1768.53Z" fill="#D4DADA"/></g></svg>