<svg width="2416" height="1522" xmlns="http://www.w3.org/2000/svg" xmlns:xlink="http://www.w3.org/1999/xlink" xml:space="preserve" overflow="hidden"><g transform="translate(-992 -683)"><path d="M997 688 2028 688 2028 1375 997 1375Z" stroke="#000000" stroke-width="10.3125" stroke-miterlimit="8" fill="#B8E7FF" fill-rule="evenodd"/><text fill="#151D26" font-family="Amazon Ember,Amazon Ember_MSFontService,sans-serif" font-weight="700" font-size="73" transform="matrix(1 0 0 1 1082.24 798)">Prompt Template Design</text><path d="M1100 884 1925 884 1925 953 1100 953Z" fill="#007E94" fill-rule="evenodd"/><path d="M1169 987 1856 987 1856 1056 1169 1056Z" fill="#007E94" fill-rule="evenodd"/><path d="M1238 1090 1788 1090 1788 1159 1238 1159Z" fill="#007E94" fill-rule="evenodd"/><path d="M1306 1193 1719 1193 1719 1262 1306 1262Z" fill="#007E94" fill-rule="evenodd"/><path d="M2372 688 3403 688 3403 1375 2372 1375Z" stroke="#000000" stroke-width="10.3125" stroke-miterlimit="8" fill="#FFFFFF" fill-rule="evenodd"/><text fill="#151D26" font-family="Amazon Ember,Amazon Ember_MSFontService,sans-serif" font-weight="700" font-size="73" transform="matrix(1 0 0 1 2546.61 798)">Content Formatting</text><path d="M2512 888 2718 888 2718 1025 2512 1025Z" fill="#D9D9D9" fill-rule="evenodd"/><path d="M2787 888 2993 888 2993 1025 2787 1025Z" fill="#B0BBBB" fill-rule="evenodd"/><path d="M3062 888 3268 888 3268 1025 3062 1025Z" fill="#161A1A" fill-rule="evenodd"/><path d="M2512 1094 2718 1094 2718 1232 2512 1232Z" fill="#FF9900" fill-rule="evenodd"/><path d="M2787 1094 2993 1094 2993 1232 2787 1232Z" fill="#7C5AED" fill-rule="evenodd"/><path d="M3062 1094 3268 1094 3268 1232 3062 1232Z" fill="#00E500" fill-rule="evenodd"/><path d="M997 1513 2028 1513 2028 2200 997 2200Z" stroke="#000000" stroke-width="10.3125" stroke-miterlimit="8" fill="#007E94" fill-rule="evenodd"/><text fill="#FFFFFF" font-family="Amazon Ember,Amazon Ember_MSFontService,sans-serif" font-weight="700" font-size="73" transform="matrix(1 0 0 1 1211.43 1623)">Response Parsing</text><path d="M1096 1713 1371 1713 1371 1816 1096 1816Z" fill="#B8E7FF" fill-rule="evenodd"/><path d="M1646 1713 1921 1713 1921 1816 1646 1816Z" fill="#B8E7FF" fill-rule="evenodd"/><path d="M1371 1885 1646 1885 1646 1988 1371 1988Z" fill="#B8E7FF" fill-rule="evenodd"/><path d="M1405 1816 1474 1764 1474 1798.67 1543 1798.67 1543 1833.33 1474 1833.33 1474 1868Z" fill="#FFFFFF" fill-rule="evenodd"/><path d="M1612 1970.5 1680.5 1919 1680.5 1953.33 1749 1953.33 1749 1987.67 1680.5 1987.67 1680.5 2022Z" fill="#FFFFFF" fill-rule="evenodd"/><path d="M2372 1513 3403 1513 3403 2200 2372 2200Z" stroke="#000000" stroke-width="10.3125" stroke-miterlimit="8" fill="#D7DDDD" fill-rule="evenodd"/><text font-family="Amazon Ember,Amazon Ember_MSFontService,sans-serif" font-weight="700" font-size="73" transform="matrix(1 0 0 1 2430.89 1623)">Validation Quality Control</text><path d="M2475 1750 2819 1750 2819 1853 2475 1853Z" fill="#FFFFFF" fill-rule="evenodd"/><path d="M2956 1750 3300 1750 3300 1853 2956 1853Z" fill="#FFFFFF" fill-rule="evenodd"/><path d="M2475 1921 2819 1921 2819 2025 2475 2025Z" fill="#FFFFFF" fill-rule="evenodd"/><path d="M2956 1921 3300 1921 3300 2025 2956 2025Z" fill="#FFFFFF" fill-rule="evenodd"/><text fill="#92D050" font-family="Segoe UI Symbol,Segoe UI Symbol_MSFontService,sans-serif" font-weight="700" font-size="110" transform="matrix(1 0 0 1 2605.62 1850)">✓</text><text fill="#92D050" font-family="Segoe UI Symbol,Segoe UI Symbol_MSFontService,sans-serif" font-weight="700" font-size="110" transform="matrix(1 0 0 1 3086.87 1850)">✓</text><text fill="#92D050" font-family="Segoe UI Symbol,Segoe UI Symbol_MSFontService,sans-serif" font-weight="700" font-size="110" transform="matrix(1 0 0 1 2605.62 2022)">✓</text><text fill="#92D050" font-family="Segoe UI Symbol,Segoe UI Symbol_MSFontService,sans-serif" font-weight="700" font-size="110" transform="matrix(1 0 0 1 3086.87 2022)">✓</text><path d="M2061 972 2195 972 2195 906 2327 1038 2195 1170 2195 1104 2061 1104Z" fill="#D4DADA" fill-rule="evenodd"/><path d="M2341.13 1436.48 2228.44 1508.9 2264.12 1564.42 2081.71 1524.73 2121.4 1342.32 2157.08 1397.85 2269.77 1325.43Z" fill="#D4DADA" fill-rule="evenodd"/><path d="M2061 1778 2195 1778 2195 1712 2327 1844 2195 1976 2195 1910 2061 1910Z" fill="#D4DADA" fill-rule="evenodd"/></g></svg>