<svg width="3707" height="1283" xmlns="http://www.w3.org/2000/svg" xmlns:xlink="http://www.w3.org/1999/xlink" xml:space="preserve" overflow="hidden"><g transform="translate(-306 -705)"><path d="M1404 742 2914 742 2914 1017 1404 1017Z" fill="#B8E7FF" fill-rule="evenodd"/><text fill="#151D26" font-family="Amazon Ember,Amazon Ember_MSFontService,sans-serif" font-weight="700" font-size="73" transform="matrix(1 0 0 1 1820.38 853)">Context Limitations</text><text fill="#151D26" font-family="Amazon Ember,Amazon Ember_MSFontService,sans-serif" font-weight="400" font-size="73" transform="matrix(1 0 0 1 1613.56 946)">System boundaries &amp; constraints</text><path d="M1404 1202 2914 1202 2914 1477 1404 1477Z" fill="#CCFFE9" fill-rule="evenodd"/><text fill="#151D26" font-family="Amazon Ember,Amazon Ember_MSFontService,sans-serif" font-weight="700" font-size="73" transform="matrix(1 0 0 1 1875.38 1313)">Data Formatting</text><text fill="#151D26" font-family="Amazon Ember,Amazon Ember_MSFontService,sans-serif" font-weight="400" font-size="73" transform="matrix(1 0 0 1 1616.42 1406)">Structure &amp; transformation rules</text><path d="M1404 1663 2914 1663 2914 1938 1404 1938Z" fill="#007E94" fill-rule="evenodd"/><text fill="#FFFFFF" font-family="Amazon Ember,Amazon Ember_MSFontService,sans-serif" font-weight="700" font-size="73" transform="matrix(1 0 0 1 1699.21 1774)">Performance Optimization</text><text fill="#FFFFFF" font-family="Amazon Ember,Amazon Ember_MSFontService,sans-serif" font-weight="400" font-size="73" transform="matrix(1 0 0 1 1618.14 1866)">Speed &amp; efficiency requirements</text><path d="M2349 1040 2349 1109.5 2160.5 1179 1972 1109.5 1972 1040 2160.5 1109.5Z" fill="#D4DADA" fill-rule="evenodd"/><path d="M2349 1501 2349 1570 2160.5 1639 1972 1570 1972 1501 2160.5 1570Z" fill="#D4DADA" fill-rule="evenodd"/></g></svg>