<svg width="3654" height="698" xmlns="http://www.w3.org/2000/svg" xmlns:xlink="http://www.w3.org/1999/xlink" xml:space="preserve" overflow="hidden"><g transform="translate(-312 -970)"><path d="M317 975 1073 975 1073 1663 317 1663Z" stroke="#000000" stroke-width="10.3125" stroke-miterlimit="8" fill="#B8E7FF" fill-rule="evenodd"/><text fill="#151D26" font-family="Amazon Ember,Amazon Ember_MSFontService,sans-serif" font-weight="700" font-size="73" transform="matrix(1 0 0 1 455.721 1086)">Requirements</text><text fill="#151D26" font-family="Amazon Ember,Amazon Ember_MSFontService,sans-serif" font-weight="700" font-size="73" transform="matrix(1 0 0 1 461.736 1172)">Identification</text><path d="M420.5 1284.5 970.5 1284.5" stroke="#151D26" stroke-width="3.4375" stroke-miterlimit="8" fill="none" fill-rule="evenodd"/><path d="M420.5 1353.5 970.5 1353.5" stroke="#151D26" stroke-width="3.4375" stroke-miterlimit="8" fill="none" fill-rule="evenodd"/><path d="M420.5 1422.5 970.5 1422.5" stroke="#151D26" stroke-width="3.4375" stroke-miterlimit="8" fill="none" fill-rule="evenodd"/><path d="M558.5 1250.5 558.5 1525.5" stroke="#151D26" stroke-width="3.4375" stroke-miterlimit="8" fill="none" fill-rule="evenodd"/><path d="M695.5 1250.5 695.5 1525.5" stroke="#151D26" stroke-width="3.4375" stroke-miterlimit="8" fill="none" fill-rule="evenodd"/><path d="M833.5 1250.5 833.5 1525.5" stroke="#151D26" stroke-width="3.4375" stroke-miterlimit="8" fill="none" fill-rule="evenodd"/><path d="M1280 975 2036 975 2036 1663 1280 1663Z" stroke="#000000" stroke-width="10.3125" stroke-miterlimit="8" fill="#007E94" fill-rule="evenodd"/><text fill="#FFFFFF" font-family="Amazon Ember,Amazon Ember_MSFontService,sans-serif" font-weight="700" font-size="73" transform="matrix(1 0 0 1 1358.06 1086)">Query Processing</text><text fill="#FFFFFF" font-family="Amazon Ember,Amazon Ember_MSFontService,sans-serif" font-weight="700" font-size="73" transform="matrix(1 0 0 1 1540.54 1172)">Design</text><path d="M1520.5 1388C1520.5 1425.83 1489.83 1456.5 1452 1456.5 1414.17 1456.5 1383.5 1425.83 1383.5 1388 1383.5 1350.17 1414.17 1319.5 1452 1319.5 1489.83 1319.5 1520.5 1350.17 1520.5 1388Z" stroke="#FFFFFF" stroke-width="6.875" stroke-miterlimit="8" fill="none" fill-rule="evenodd"/><path d="M1726.5 1388C1726.5 1425.83 1695.83 1456.5 1658 1456.5 1620.17 1456.5 1589.5 1425.83 1589.5 1388 1589.5 1350.17 1620.17 1319.5 1658 1319.5 1695.83 1319.5 1726.5 1350.17 1726.5 1388Z" stroke="#FFFFFF" stroke-width="6.875" stroke-miterlimit="8" fill="none" fill-rule="evenodd"/><path d="M1933.5 1388C1933.5 1425.83 1902.61 1456.5 1864.5 1456.5 1826.39 1456.5 1795.5 1425.83 1795.5 1388 1795.5 1350.17 1826.39 1319.5 1864.5 1319.5 1902.61 1319.5 1933.5 1350.17 1933.5 1388Z" stroke="#FFFFFF" stroke-width="6.875" stroke-miterlimit="8" fill="none" fill-rule="evenodd"/><path d="M2242 975 2998 975 2998 1663 2242 1663Z" stroke="#000000" stroke-width="10.3125" stroke-miterlimit="8" fill="#D7DDDD" fill-rule="evenodd"/><text fill="#151D26" font-family="Amazon Ember,Amazon Ember_MSFontService,sans-serif" font-weight="700" font-size="73" transform="matrix(1 0 0 1 2450.04 1086)">Workflow</text><text fill="#151D26" font-family="Amazon Ember,Amazon Ember_MSFontService,sans-serif" font-weight="700" font-size="73" transform="matrix(1 0 0 1 2391.32 1172)">Optimization</text><path d="M2449 1319.5 2517.5 1456.5 2380.5 1456.5Z" stroke="#151D26" stroke-width="6.875" stroke-miterlimit="8" fill="none" fill-rule="evenodd"/><path d="M2620.5 1319.5 2689.5 1456.5 2551.5 1456.5Z" stroke="#151D26" stroke-width="6.875" stroke-miterlimit="8" fill="none" fill-rule="evenodd"/><path d="M2792.5 1319.5 2861.5 1456.5 2723.5 1456.5Z" stroke="#151D26" stroke-width="6.875" stroke-miterlimit="8" fill="none" fill-rule="evenodd"/><path d="M3205 975 3961 975 3961 1663 3205 1663Z" stroke="#000000" stroke-width="10.3125" stroke-miterlimit="8" fill="#9FFCEA" fill-rule="evenodd"/><text fill="#151D26" font-family="Amazon Ember,Amazon Ember_MSFontService,sans-serif" font-weight="700" font-size="73" transform="matrix(1 0 0 1 3458.38 1086)">Results</text><text fill="#151D26" font-family="Amazon Ember,Amazon Ember_MSFontService,sans-serif" font-weight="700" font-size="73" transform="matrix(1 0 0 1 3348.09 1172)">Measurement</text><path d="M3377 1319.5 3439.5 1353.75 3439.5 1422.25 3377 1456.5 3314.5 1422.25 3314.5 1353.75Z" stroke="#151D26" stroke-width="6.875" stroke-miterlimit="8" fill="none" fill-rule="evenodd"/><path d="M3583 1319.5 3645.5 1353.75 3645.5 1422.25 3583 1456.5 3520.5 1422.25 3520.5 1353.75Z" stroke="#151D26" stroke-width="6.875" stroke-miterlimit="8" fill="none" fill-rule="evenodd"/><path d="M3789.5 1319.5 3851.5 1353.75 3851.5 1422.25 3789.5 1456.5 3727.5 1422.25 3727.5 1353.75Z" stroke="#151D26" stroke-width="6.875" stroke-miterlimit="8" fill="none" fill-rule="evenodd"/><path d="M1114 1210 1179.5 1210 1245 1342 1179.5 1474 1114 1474 1179.5 1342Z" fill="#A6A6A6" fill-rule="evenodd"/><path d="M2078 1209 2143.5 1209 2209 1341 2143.5 1473 2078 1473 2143.5 1341Z" fill="#A6A6A6" fill-rule="evenodd"/><path d="M3047 1212 3112 1212 3177 1344 3112 1476 3047 1476 3112 1344Z" fill="#A6A6A6" fill-rule="evenodd"/></g></svg>