<svg width="4019" height="412" xmlns="http://www.w3.org/2000/svg" xmlns:xlink="http://www.w3.org/1999/xlink" xml:space="preserve" overflow="hidden"><g transform="translate(-147 -1105)"><path d="M830 1105 945.5 1105 1061 1311 945.5 1517 830 1517Z" fill="#007E94" fill-rule="evenodd"/><path d="M1874 1105 1990 1105 2106 1311 1990 1517 1874 1517Z" fill="#B8E7FF" fill-rule="evenodd"/><path d="M2907 1105 3023 1105 3139 1311 3023 1517 2907 1517Z" fill="#D4DADA" fill-rule="evenodd"/><path d="M157 1105 845 1105 845 1517 157 1517Z" fill="#007E94" fill-rule="evenodd"/><text fill="#FFFFFF" font-family="Amazon Ember,Amazon Ember_MSFontService,sans-serif" font-weight="700" font-size="73" transform="matrix(1 0 0 1 193.388 1222)">API Specification</text><text fill="#FFFFFF" font-family="Amazon Ember,Amazon Ember_MSFontService,sans-serif" font-weight="400" font-size="73" transform="matrix(1 0 0 1 191.629 1308)">Design</text><path d="M1188 1105 1876 1105 1876 1517 1188 1517Z" fill="#B8E7FF" fill-rule="evenodd"/><text fill="#151D26" font-family="Amazon Ember,Amazon Ember_MSFontService,sans-serif" font-weight="700" font-size="73" transform="matrix(1 0 0 1 1223.09 1222)">Schema</text><text fill="#151D26" font-family="Amazon Ember,Amazon Ember_MSFontService,sans-serif" font-weight="400" font-size="73" transform="matrix(1 0 0 1 1223.39 1308)">Definition</text><path d="M2220 1105 2907 1105 2907 1517 2220 1517Z" fill="#D4DADA" fill-rule="evenodd"/><text fill="#151D26" font-family="Amazon Ember,Amazon Ember_MSFontService,sans-serif" font-weight="700" font-size="73" transform="matrix(1 0 0 1 2255.63 1222)">Documentation</text><text fill="#151D26" font-family="Amazon Ember,Amazon Ember_MSFontService,sans-serif" font-weight="400" font-size="73" transform="matrix(1 0 0 1 2254.41 1308)">Creation</text><path d="M3251 1105 3938 1105 3938 1517 3251 1517Z" fill="#CCFFE9" fill-rule="evenodd"/><text fill="#151D26" font-family="Amazon Ember,Amazon Ember_MSFontService,sans-serif" font-weight="700" font-size="73" transform="matrix(1 0 0 1 3286.03 1222)">Validation</text><text fill="#151D26" font-family="Amazon Ember,Amazon Ember_MSFontService,sans-serif" font-weight="400" font-size="73" transform="matrix(1 0 0 1 3285.47 1308)">Testing</text><path d="M3935 1105 4050.5 1105 4166 1311 4050.5 1517 3935 1517Z" fill="#CCFFE9" fill-rule="evenodd"/></g></svg>