<svg width="3616" height="762" xmlns="http://www.w3.org/2000/svg" xmlns:xlink="http://www.w3.org/1999/xlink" xml:space="preserve" overflow="hidden"><defs><clipPath id="clip0"><rect x="336" y="1140" width="3616" height="762"/></clipPath></defs><g clip-path="url(#clip0)" transform="translate(-336 -1140)"><path d="M336 1140 1168 1140 1168 1622 336 1622Z" fill="#007E94" fill-rule="evenodd"/><text font-family="Amazon Ember,Amazon Ember_MSFontService,sans-serif" font-weight="700" font-size="83" transform="matrix(1 0 0 1 394.069 1738)">Schema Definition</text><path d="M511.5 1282.5 992.5 1282.5" stroke="#FFFFFF" stroke-width="6.875" stroke-miterlimit="8" fill="none" fill-rule="evenodd"/><path d="M511.5 1350.5 992.5 1350.5" stroke="#FFFFFF" stroke-width="6.875" stroke-miterlimit="8" fill="none" fill-rule="evenodd"/><path d="M511.5 1419.5 992.5 1419.5" stroke="#FFFFFF" stroke-width="6.875" stroke-miterlimit="8" fill="none" fill-rule="evenodd"/><path d="M614.5 1282.5 614.5 1488.5" stroke="#FFFFFF" stroke-width="6.875" stroke-miterlimit="8" fill="none" fill-rule="evenodd"/><path d="M752.5 1282.5 752.5 1488.5" stroke="#FFFFFF" stroke-width="6.875" stroke-miterlimit="8" fill="none" fill-rule="evenodd"/><path d="M889.5 1282.5 889.5 1488.5" stroke="#FFFFFF" stroke-width="6.875" stroke-miterlimit="8" fill="none" fill-rule="evenodd"/><path d="M1264 1140 2096 1140 2096 1622 1264 1622Z" fill="#B8E7FF" fill-rule="evenodd"/><text font-family="Amazon Ember,Amazon Ember_MSFontService,sans-serif" font-weight="700" font-size="83" transform="matrix(1 0 0 1 1362.58 1738)">Input Validation</text><path d="M1679.5 1295 1748 1364 1679.5 1433 1611 1364Z" fill="#151D26" fill-rule="evenodd"/><path d="M1679.5 1364 1714 1398.5 1679.5 1433 1645 1398.5Z" fill="#151D26" fill-rule="evenodd"/><path d="M1680 1330 1783 1364 1680 1398 1577 1364Z" fill="#151D26" fill-rule="evenodd"/><path d="M2192 1140 3024 1140 3024 1622 2192 1622Z" fill="#CCFFE9" fill-rule="evenodd"/><text font-family="Amazon Ember,Amazon Ember_MSFontService,sans-serif" font-weight="700" font-size="83" transform="matrix(1 0 0 1 2405.02 1731)">Parameter </text><text font-family="Amazon Ember,Amazon Ember_MSFontService,sans-serif" font-weight="700" font-size="83" transform="matrix(1 0 0 1 2329.09 1830)">Normalization</text><path d="M2584 1376.5C2584 1404.94 2560.94 1428 2532.5 1428 2504.06 1428 2481 1404.94 2481 1376.5 2481 1348.06 2504.06 1325 2532.5 1325 2560.94 1325 2584 1348.06 2584 1376.5Z" fill="#151D26" fill-rule="evenodd"/><path d="M2659 1329.5C2659 1348.55 2643.55 1364 2624.5 1364 2605.45 1364 2590 1348.55 2590 1329.5 2590 1310.45 2605.45 1295 2624.5 1295 2643.55 1295 2659 1310.45 2659 1329.5Z" fill="#151D26" fill-rule="evenodd"/><path d="M2735 1398.5C2735 1421.42 2716.42 1440 2693.5 1440 2670.58 1440 2652 1421.42 2652 1398.5 2652 1375.58 2670.58 1357 2693.5 1357 2716.42 1357 2735 1375.58 2735 1398.5Z" fill="#151D26" fill-rule="evenodd"/><path d="M2652 1432.5C2652 1447.69 2639.69 1460 2624.5 1460 2609.31 1460 2597 1447.69 2597 1432.5 2597 1417.31 2609.31 1405 2624.5 1405 2639.69 1405 2652 1417.31 2652 1432.5Z" fill="#151D26" fill-rule="evenodd"/><path d="M3120 1140 3952 1140 3952 1622 3120 1622Z" fill="#D4DADA" fill-rule="evenodd"/><text font-family="Amazon Ember,Amazon Ember_MSFontService,sans-serif" font-weight="700" font-size="83" transform="matrix(1 0 0 1 3265.81 1719)">Configuration </text><text font-family="Amazon Ember,Amazon Ember_MSFontService,sans-serif" font-weight="700" font-size="83" transform="matrix(1 0 0 1 3423.09 1818)">Setup</text><path d="M3339 1315.33 3408 1298 3477 1315.33 3477 1384.67 3408 1402 3339 1384.67Z" fill="#151D26" fill-rule="evenodd"/><path d="M3488 1412.29 3539.5 1402 3591 1412.29 3591 1463.71 3539.5 1474 3488 1463.71Z" fill="#151D26" fill-rule="evenodd"/><path d="M3629 1332.29 3681 1322 3733 1332.29 3733 1383.71 3681 1394 3629 1383.71Z" fill="#151D26" fill-rule="evenodd"/></g></svg>