<svg width="894" height="758" xmlns="http://www.w3.org/2000/svg" xmlns:xlink="http://www.w3.org/1999/xlink" xml:space="preserve" overflow="hidden"><g transform="translate(-895 -697)"><path d="M1524 1088.5C1524 1221.88 1415.88 1330 1282.5 1330 1149.12 1330 1041 1221.88 1041 1088.5 1041 955.123 1149.12 847 1282.5 847 1415.88 847 1524 955.123 1524 1088.5Z" fill="#007E94" fill-rule="evenodd"/><path d="M1283 847.313C1389.59 767.289 1540.8 788.913 1620.74 895.611 1700.68 1002.31 1679.08 1153.68 1572.49 1233.7 1530.73 1265.05 1479.94 1282 1427.74 1282L1283 1088.81Z" fill="#9FFCEA" fill-rule="evenodd"/><path d="M1283.5 1089.5 1428.5 1282.5" stroke="#151D26" stroke-width="6.875" stroke-miterlimit="8" fill="none" fill-rule="evenodd"/><path d="M1296 1089C1296 1096.18 1290.18 1102 1283 1102 1275.82 1102 1270 1096.18 1270 1089 1270 1081.82 1275.82 1076 1283 1076 1290.18 1076 1296 1081.82 1296 1089Z" fill="#151D26" fill-rule="evenodd"/></g></svg>