<svg width="1031" height="687" xmlns="http://www.w3.org/2000/svg" xmlns:xlink="http://www.w3.org/1999/xlink" xml:space="preserve" overflow="hidden"><defs><clipPath id="clip0"><rect x="967" y="704" width="1031" height="687"/></clipPath></defs><g clip-path="url(#clip0)" transform="translate(-967 -704)"><path d="M967 704 1998 704 1998 1391 967 1391Z" fill="#B8E7FF" fill-rule="evenodd"/><path d="M1362 1043.5C1362 1071.94 1338.94 1095 1310.5 1095 1282.06 1095 1259 1071.94 1259 1043.5 1259 1015.06 1282.06 992 1310.5 992 1338.94 992 1362 1015.06 1362 1043.5Z" stroke="#007E94" stroke-width="13.75" stroke-miterlimit="8" fill="none" fill-rule="evenodd"/><path d="M1524 1129C1524 1151.64 1505.42 1170 1482.5 1170 1459.58 1170 1441 1151.64 1441 1129 1441 1106.36 1459.58 1088 1482.5 1088 1505.42 1088 1524 1106.36 1524 1129Z" stroke="#007E94" stroke-width="13.75" stroke-miterlimit="8" fill="none" fill-rule="evenodd"/><path d="M1716 991.5C1716 1025.47 1688.24 1053 1654 1053 1619.76 1053 1592 1025.47 1592 991.5 1592 957.534 1619.76 930 1654 930 1688.24 930 1716 957.534 1716 991.5Z" stroke="#007E94" stroke-width="13.75" stroke-miterlimit="8" fill="none" fill-rule="evenodd"/><path d="M1362 1060 1431 1112" stroke="#007E94" stroke-width="13.75" stroke-miterlimit="8" fill="none" fill-rule="evenodd"/><path d="M1524 1129 1592 1026" stroke="#007E94" stroke-width="13.75" stroke-miterlimit="8" fill="none" fill-rule="evenodd"/></g></svg>