<svg width="3782" height="963" xmlns="http://www.w3.org/2000/svg" xmlns:xlink="http://www.w3.org/1999/xlink" xml:space="preserve" overflow="hidden"><g transform="translate(-309 -825)"><path d="M309 825 1409 825 1409 1788 309 1788Z" fill="#F1F3F3" fill-rule="evenodd"/><text fill="#151D26" font-family="Amazon Ember,Amazon Ember_MSFontService,sans-serif" font-weight="700" font-size="83" transform="matrix(1 0 0 1 704.687 945)">Caching</text><path d="M413 1031 550 1031 550 1169 413 1169Z" fill="#007E94" fill-rule="evenodd"/><path d="M584 1031 722 1031 722 1169 584 1169Z" fill="#007E94" fill-rule="evenodd"/><path d="M756 1031 894 1031 894 1169 756 1169Z" fill="#007E94" fill-rule="evenodd"/><path d="M928 1031 1066 1031 1066 1169 928 1169Z" fill="#007E94" fill-rule="evenodd"/><path d="M1100 1031 1238 1031 1238 1169 1100 1169Z" fill="#007E94" fill-rule="evenodd"/><path d="M413 1203 550 1203 550 1341 413 1341Z" fill="#007E94" fill-rule="evenodd"/><path d="M584 1203 722 1203 722 1341 584 1341Z" fill="#151D26" fill-rule="evenodd"/><path d="M756 1203 894 1203 894 1341 756 1341Z" fill="#007E94" fill-rule="evenodd"/><path d="M928 1203 1066 1203 1066 1341 928 1341Z" fill="#151D26" fill-rule="evenodd"/><path d="M1100 1203 1238 1203 1238 1341 1100 1341Z" fill="#007E94" fill-rule="evenodd"/><text fill="#151D26" font-family="Amazon Ember,Amazon Ember_MSFontService,sans-serif" font-weight="400" font-size="64" transform="matrix(1 0 0 1 550.572 1485)">Response </text><text fill="#151D26" font-family="Amazon Ember,Amazon Ember_MSFontService,sans-serif" font-weight="400" font-size="64" transform="matrix(1 0 0 1 842.187 1485)">t</text><text fill="#151D26" font-family="Amazon Ember,Amazon Ember_MSFontService,sans-serif" font-weight="400" font-size="64" transform="matrix(1 0 0 1 866.822 1485)">ime</text><text fill="#151D26" font-family="Amazon Ember,Amazon Ember_MSFontService,sans-serif" font-weight="400" font-size="64" transform="matrix(1 0 0 1 974.53 1485)">: </text><text fill="#151D26" font-family="Amazon Ember,Amazon Ember_MSFontService,sans-serif" font-weight="400" font-size="64" transform="matrix(1 0 0 1 1007.19 1485)">-</text><text fill="#151D26" font-family="Amazon Ember,Amazon Ember_MSFontService,sans-serif" font-weight="400" font-size="64" transform="matrix(1 0 0 1 1032.4 1485)">60%</text><rect x="506" y="1538" width="707" height="91.0001" stroke="#000F33" stroke-width="3.89583" stroke-linejoin="round" stroke-miterlimit="10" fill="#F1F3F3"/><path d="M523 1550 1142 1550 1142 1619 523 1619Z" fill="#00E500" fill-rule="evenodd"/><text fill="#151D26" font-family="Amazon Ember,Amazon Ember_MSFontService,sans-serif" font-weight="400" font-size="64" transform="matrix(1 0 0 1 665.156 1691)">Hit </text><text fill="#151D26" font-family="Amazon Ember,Amazon Ember_MSFontService,sans-serif" font-weight="400" font-size="64" transform="matrix(1 0 0 1 768.854 1691)">r</text><text fill="#151D26" font-family="Amazon Ember,Amazon Ember_MSFontService,sans-serif" font-weight="400" font-size="64" transform="matrix(1 0 0 1 792.916 1691)">ate</text><text fill="#151D26" font-family="Amazon Ember,Amazon Ember_MSFontService,sans-serif" font-weight="400" font-size="64" transform="matrix(1 0 0 1 885.156 1691)">: 85%</text><path d="M1650 825 2750 825 2750 1788 1650 1788Z" fill="#F1F3F3" fill-rule="evenodd"/><text fill="#151D26" font-family="Amazon Ember,Amazon Ember_MSFontService,sans-serif" font-weight="700" font-size="83" transform="matrix(1 0 0 1 1872.29 945)">Batch Processing</text><path d="M1796 1031 2261 1031 2261 1100 1796 1100Z" fill="#007E94" fill-rule="evenodd"/><path d="M2049 1134 2437 1134 2437 1203 2049 1203Z" fill="#007E94" fill-rule="evenodd"/><path d="M2286 1238 2568 1238 2568 1306 2286 1306Z" fill="#007E94" fill-rule="evenodd"/><path d="M2079 1341 2628 1341 2628 1409 2079 1409Z" fill="#151D26" fill-rule="evenodd"/><text fill="#151D26" font-family="Amazon Ember,Amazon Ember_MSFontService,sans-serif" font-weight="400" font-size="64" transform="matrix(1 0 0 1 1923.57 1485)">Throughput: +40%</text><text fill="#151D26" font-family="Amazon Ember,Amazon Ember_MSFontService,sans-serif" font-weight="400" font-size="64" transform="matrix(1 0 0 1 1944.76 1691)">CPU Usage: </text><text fill="#151D26" font-family="Amazon Ember,Amazon Ember_MSFontService,sans-serif" font-weight="400" font-size="64" transform="matrix(1 0 0 1 2294.24 1691)">-</text><text fill="#151D26" font-family="Amazon Ember,Amazon Ember_MSFontService,sans-serif" font-weight="400" font-size="64" transform="matrix(1 0 0 1 2319.45 1691)">25%</text><path d="M2991 825 4091 825 4091 1788 2991 1788Z" fill="#F1F3F3" fill-rule="evenodd"/><text fill="#151D26" font-family="Amazon Ember,Amazon Ember_MSFontService,sans-serif" font-weight="700" font-size="83" transform="matrix(1 0 0 1 3098.33 945)">Adaptive Optimization</text><path d="M3324.53 1282.39 3487.86 1387.91 3622.29 1359.01 3727.82 1195.68Z" fill="#151D26" fill-rule="evenodd"/><path d="M3352 1100C3352 1128.72 3328.72 1152 3300 1152 3271.28 1152 3248 1128.72 3248 1100 3248 1071.28 3271.28 1048 3300 1048 3328.72 1048 3352 1071.28 3352 1100Z" fill="#007E94" fill-rule="evenodd"/><path d="M3808 1126.5C3808 1154.94 3784.94 1178 3756.5 1178 3728.06 1178 3705 1154.94 3705 1126.5 3705 1098.06 3728.06 1075 3756.5 1075 3784.94 1075 3808 1098.06 3808 1126.5Z" fill="#007E94" fill-rule="evenodd"/><path d="M3334 1334.5C3334 1362.94 3310.94 1386 3282.5 1386 3254.06 1386 3231 1362.94 3231 1334.5 3231 1306.06 3254.06 1283 3282.5 1283 3310.94 1283 3334 1306.06 3334 1334.5Z" fill="#151D26" fill-rule="evenodd"/><path d="M3816 1319.5C3816 1347.94 3792.94 1371 3764.5 1371 3736.06 1371 3713 1347.94 3713 1319.5 3713 1291.06 3736.06 1268 3764.5 1268 3792.94 1268 3816 1291.06 3816 1319.5Z" fill="#151D26" fill-rule="evenodd"/><text fill="#151D26" font-family="Amazon Ember,Amazon Ember_MSFontService,sans-serif" font-weight="400" font-size="64" transform="matrix(1 0 0 1 3296.85 1485)">Efficiency: +30%</text><text fill="#151D26" font-family="Amazon Ember,Amazon Ember_MSFontService,sans-serif" font-weight="400" font-size="64" transform="matrix(1 0 0 1 3251.87 1691)">Auto</text><text fill="#151D26" font-family="Amazon Ember,Amazon Ember_MSFontService,sans-serif" font-weight="400" font-size="64" transform="matrix(1 0 0 1 3391.67 1691)">-</text><text fill="#151D26" font-family="Amazon Ember,Amazon Ember_MSFontService,sans-serif" font-weight="400" font-size="64" transform="matrix(1 0 0 1 3416.87 1691)">scaling: Active</text><path d="M3493.54 1039.56 3669.81 1121.66 3587.71 1297.94 3411.44 1215.84Z" fill="#007E94" fill-rule="evenodd"/><rect x="1839" y="1526" width="706" height="90.0001" stroke="#000F33" stroke-width="3.89583" stroke-linejoin="round" stroke-miterlimit="10" fill="#F1F3F3"/><path d="M1854 1538 2417 1538 2417 1607 1854 1607Z" fill="#00E500" fill-rule="evenodd"/><rect x="3175" y="1527" width="706" height="91.0001" stroke="#000F33" stroke-width="3.89583" stroke-linejoin="round" stroke-miterlimit="10" fill="#F1F3F3"/><path d="M3192 1539 3656 1539 3656 1608 3192 1608Z" fill="#00E500" fill-rule="evenodd"/></g></svg>