<svg width="4065" height="712" xmlns="http://www.w3.org/2000/svg" xmlns:xlink="http://www.w3.org/1999/xlink" xml:space="preserve" overflow="hidden"><defs><clipPath id="clip0"><rect x="139" y="937" width="4065" height="712"/></clipPath></defs><g clip-path="url(#clip0)" transform="translate(-139 -937)"><path d="M139 937 1101 937 1101 1624 139 1624Z" fill="#007E94" fill-rule="evenodd"/><text fill="#FFFFFF" font-family="Amazon Ember,Amazon Ember_MSFontService,sans-serif" font-weight="700" font-size="73" transform="matrix(1 0 0 1 247.568 1048)">Latency Optimization</text><path d="M568 1314.5C568 1352.33 537.331 1383 499.5 1383 461.669 1383 431 1352.33 431 1314.5 431 1276.67 461.669 1246 499.5 1246 537.331 1246 568 1276.67 568 1314.5Z" stroke="#FFFFFF" stroke-width="10.3125" stroke-miterlimit="8" fill="none" fill-rule="evenodd"/><path d="M689.5 1315C689.5 1343.44 666.443 1366.5 638 1366.5 609.557 1366.5 586.5 1343.44 586.5 1315 586.5 1286.56 609.557 1263.5 638 1263.5 666.443 1263.5 689.5 1286.56 689.5 1315Z" stroke="#FFFFFF" stroke-width="6.875" stroke-miterlimit="8" fill="none" fill-rule="evenodd"/><path d="M809.5 1315C809.5 1334.05 794.054 1349.5 775 1349.5 755.946 1349.5 740.5 1334.05 740.5 1315 740.5 1295.95 755.946 1280.5 775 1280.5 794.054 1280.5 809.5 1295.95 809.5 1315Z" stroke="#FFFFFF" stroke-width="6.875" stroke-miterlimit="8" fill="none" fill-rule="evenodd"/><text fill="#FFFFFF" font-family="Amazon Ember,Amazon Ember_MSFontService,sans-serif" font-weight="400" font-size="73" transform="matrix(1 0 0 1 260.172 1585)">Response Time: 12ms</text><path d="M1173 937 2136 937 2136 1624 1173 1624Z" fill="#B8E7FF" fill-rule="evenodd"/><text fill="#151D26" font-family="Amazon Ember,Amazon Ember_MSFontService,sans-serif" font-weight="700" font-size="73" transform="matrix(1 0 0 1 1312.54 1048)">Throughput Scaling</text><path d="M1465 1212 1568 1212 1568 1418 1465 1418Z" fill="#151D26" fill-rule="evenodd"/><path d="M1603 1177 1706 1177 1706 1418 1603 1418Z" fill="#151D26" fill-rule="evenodd"/><path d="M1740 1143 1843 1143 1843 1418 1740 1418Z" fill="#151D26" fill-rule="evenodd"/><text fill="#151D26" font-family="Amazon Ember,Amazon Ember_MSFontService,sans-serif" font-weight="400" font-size="73" transform="matrix(1 0 0 1 1353.22 1585)">Capacity: 10K RPS</text><path d="M2207 937 3170 937 3170 1624 2207 1624Z" fill="#00E500" fill-rule="evenodd"/><text fill="#151D26" font-family="Amazon Ember,Amazon Ember_MSFontService,sans-serif" font-weight="700" font-size="73" transform="matrix(1 0 0 1 2374.93 1048)">Cost Optimization</text><path d="M2482 1194 2550.83 1331.6 2619.67 1262.8 2688.5 1366 2757.33 1228.4 2826.17 1297.2 2895 1194Z" stroke="#151D26" stroke-width="10.3125" stroke-miterlimit="8" fill="none" fill-rule="evenodd"/><text fill="#151D26" font-family="Amazon Ember,Amazon Ember_MSFontService,sans-serif" font-weight="400" font-size="73" transform="matrix(1 0 0 1 2465.74 1585)">Savings: 35%</text><path d="M3242 937 4204 937 4204 1624 3242 1624Z" fill="#151D26" fill-rule="evenodd"/><text fill="#FFFFFF" font-family="Amazon Ember,Amazon Ember_MSFontService,sans-serif" font-weight="700" font-size="73" transform="matrix(1 0 0 1 3378.32 1048)">Monitoring Analysis</text><path d="M3585 1173 3723 1173 3723 1200 3585 1200Z" fill="#FFFFFF" fill-rule="evenodd"/><path d="M3585 1242 3792 1242 3792 1269 3585 1269Z" fill="#FFFFFF" fill-rule="evenodd"/><path d="M3585 1310 3860 1310 3860 1338 3585 1338Z" fill="#FFFFFF" fill-rule="evenodd"/><path d="M3585 1379 3757 1379 3757 1407 3585 1407Z" fill="#FFFFFF" fill-rule="evenodd"/><text fill="#FFFFFF" font-family="Amazon Ember,Amazon Ember_MSFontService,sans-serif" font-weight="400" font-size="73" transform="matrix(1 0 0 1 3472.85 1585)">Uptime: 99.9%</text></g></svg>