<svg width="3523" height="343" xmlns="http://www.w3.org/2000/svg" xmlns:xlink="http://www.w3.org/1999/xlink" xml:space="preserve" overflow="hidden"><g transform="translate(-379 -1066)"><path d="M379 1066 1066 1066 1066 1409 379 1409Z" fill="#007E94" fill-rule="evenodd"/><text fill="#FFFFFF" font-family="Amazon Ember,Amazon Ember_MSFontService,sans-serif" font-weight="700" font-size="83" transform="matrix(1 0 0 1 539.337 1227)">Response</text><text fill="#FFFFFF" font-family="Amazon Ember,Amazon Ember_MSFontService,sans-serif" font-weight="700" font-size="83" transform="matrix(1 0 0 1 521.004 1313)">Validation</text><path d="M1066.5 1238.5 1272.5 1238.5" stroke="#151D26" stroke-width="6.875" stroke-miterlimit="8" fill="none" fill-rule="evenodd"/><path d="M1272 1220 1324 1237.5 1272 1255Z" fill="#151D26" fill-rule="evenodd"/><path d="M1324 1066 2011 1066 2011 1409 1324 1409Z" fill="#B8E7FF" fill-rule="evenodd"/><text fill="#151D26" font-family="Amazon Ember,Amazon Ember_MSFontService,sans-serif" font-weight="700" font-size="83" transform="matrix(1 0 0 1 1433.37 1227)">Information</text><text fill="#151D26" font-family="Amazon Ember,Amazon Ember_MSFontService,sans-serif" font-weight="700" font-size="83" transform="matrix(1 0 0 1 1483.79 1313)">Synthesis</text><path d="M2011.5 1238.5 2218.5 1238.5" stroke="#151D26" stroke-width="6.875" stroke-miterlimit="8" fill="none" fill-rule="evenodd"/><path d="M2218 1220 2269 1237.5 2218 1255Z" fill="#151D26" fill-rule="evenodd"/><path d="M2269 1066 2957 1066 2957 1409 2269 1409Z" fill="#19594E" fill-rule="evenodd"/><text fill="#FFFFFF" font-family="Amazon Ember,Amazon Ember_MSFontService,sans-serif" font-weight="700" font-size="83" transform="matrix(1 0 0 1 2429.96 1227)">Response</text><text fill="#FFFFFF" font-family="Amazon Ember,Amazon Ember_MSFontService,sans-serif" font-weight="700" font-size="83" transform="matrix(1 0 0 1 2394.44 1313)">Formatting</text><path d="M2957.5 1238.5 3163.5 1238.5" stroke="#151D26" stroke-width="6.875" stroke-miterlimit="8" fill="none" fill-rule="evenodd"/><path d="M3163 1220 3215 1237.5 3163 1255Z" fill="#151D26" fill-rule="evenodd"/><path d="M3215 1066 3902 1066 3902 1409 3215 1409Z" fill="#CCFFE9" fill-rule="evenodd"/><text fill="#151D26" font-family="Amazon Ember,Amazon Ember_MSFontService,sans-serif" font-weight="700" font-size="83" transform="matrix(1 0 0 1 3340.33 1227)">Confidence</text><text fill="#151D26" font-family="Amazon Ember,Amazon Ember_MSFontService,sans-serif" font-weight="700" font-size="83" transform="matrix(1 0 0 1 3411.66 1313)">Scoring</text></g></svg>