<svg width="3524" height="343" xmlns="http://www.w3.org/2000/svg" xmlns:xlink="http://www.w3.org/1999/xlink" xml:space="preserve" overflow="hidden"><defs><clipPath id="clip0"><rect x="309" y="1066" width="3524" height="343"/></clipPath></defs><g clip-path="url(#clip0)" transform="translate(-309 -1066)"><path d="M309 1066 997 1066 997 1409 309 1409Z" fill="#007E94" fill-rule="evenodd"/><text fill="#FFFFFF" font-family="Amazon Ember,Amazon Ember_MSFontService,sans-serif" font-weight="700" font-size="83" transform="matrix(1 0 0 1 497.578 1227)">Content</text><text fill="#FFFFFF" font-family="Amazon Ember,Amazon Ember_MSFontService,sans-serif" font-weight="700" font-size="83" transform="matrix(1 0 0 1 493.568 1313)">Analysis</text><path d="M997.5 1238.5 1203.5 1238.5" stroke="#151D26" stroke-width="6.875" stroke-miterlimit="8" fill="none" fill-rule="evenodd"/><path d="M1203 1220 1255 1237.5 1203 1255Z" fill="#151D26" fill-rule="evenodd"/><path d="M1255 1066 1942 1066 1942 1409 1255 1409Z" fill="#B8E7FF" fill-rule="evenodd"/><text fill="#151D26" font-family="Amazon Ember,Amazon Ember_MSFontService,sans-serif" font-weight="700" font-size="83" transform="matrix(1 0 0 1 1364.11 1227)">Information</text><text fill="#151D26" font-family="Amazon Ember,Amazon Ember_MSFontService,sans-serif" font-weight="700" font-size="83" transform="matrix(1 0 0 1 1400.49 1313)">Extraction</text><path d="M1942.5 1238.5 2148.5 1238.5" stroke="#151D26" stroke-width="6.875" stroke-miterlimit="8" fill="none" fill-rule="evenodd"/><path d="M2148 1220 2200 1237.5 2148 1255Z" fill="#151D26" fill-rule="evenodd"/><path d="M2200 1066 2888 1066 2888 1409 2200 1409Z" fill="#19594E" fill-rule="evenodd"/><text fill="#FFFFFF" font-family="Amazon Ember,Amazon Ember_MSFontService,sans-serif" font-weight="700" font-size="83" transform="matrix(1 0 0 1 2388.2 1227)">Content</text><text fill="#FFFFFF" font-family="Amazon Ember,Amazon Ember_MSFontService,sans-serif" font-weight="700" font-size="83" transform="matrix(1 0 0 1 2280.21 1313)">Restructuring</text><path d="M2888.5 1238.5 3094.5 1238.5" stroke="#151D26" stroke-width="6.875" stroke-miterlimit="8" fill="none" fill-rule="evenodd"/><path d="M3094 1220 3145 1237.5 3094 1255Z" fill="#151D26" fill-rule="evenodd"/><path d="M3145 1066 3833 1066 3833 1409 3145 1409Z" fill="#CCFFE9" fill-rule="evenodd"/><text fill="#151D26" font-family="Amazon Ember,Amazon Ember_MSFontService,sans-serif" font-weight="700" font-size="83" transform="matrix(1 0 0 1 3344.97 1227)">Quality</text><text fill="#151D26" font-family="Amazon Ember,Amazon Ember_MSFontService,sans-serif" font-weight="700" font-size="83" transform="matrix(1 0 0 1 3287.68 1313)">Validation</text></g></svg>