<svg width="3643" height="413" xmlns="http://www.w3.org/2000/svg" xmlns:xlink="http://www.w3.org/1999/xlink" xml:space="preserve" overflow="hidden"><defs><clipPath id="clip0"><rect x="283" y="1153" width="3643" height="413"/></clipPath></defs><g clip-path="url(#clip0)" transform="translate(-283 -1153)"><path d="M283 1153 1039 1153 1039 1566 283 1566Z" fill="#007E94" fill-rule="evenodd"/><text fill="#FFFFFF" font-family="Amazon Ember,Amazon Ember_MSFontService,sans-serif" font-weight="700" font-size="73" transform="matrix(1 0 0 1 438.247 1271)">Synchronous</text><text fill="#FFFFFF" font-family="Amazon Ember,Amazon Ember_MSFontService,sans-serif" font-weight="400" font-size="73" transform="matrix(1 0 0 1 393.273 1340)">Implementation</text><path d="M420.5 1394.5 901.5 1394.5" stroke="#FFFFFF" stroke-width="6.875" stroke-miterlimit="8" fill="none" fill-rule="evenodd"/><path d="M420.5 1428.5 901.5 1428.5" stroke="#FFFFFF" stroke-width="6.875" stroke-miterlimit="8" fill="none" fill-rule="evenodd"/><path d="M420.5 1463.5 901.5 1463.5" stroke="#FFFFFF" stroke-width="6.875" stroke-miterlimit="8" fill="none" fill-rule="evenodd"/><path d="M1245 1153 2001 1153 2001 1566 1245 1566Z" fill="#B8E7FF" fill-rule="evenodd"/><text fill="#151D26" font-family="Amazon Ember,Amazon Ember_MSFontService,sans-serif" font-weight="700" font-size="73" transform="matrix(1 0 0 1 1381.55 1271)">Asynchronous</text><text fill="#151D26" font-family="Amazon Ember,Amazon Ember_MSFontService,sans-serif" font-weight="400" font-size="73" transform="matrix(1 0 0 1 1483.53 1340)">Patterns</text><path d="M1348.5 1394.5C1394.33 1371.83 1440.17 1371.83 1486 1394.5 1531.83 1417.17 1577.67 1417.17 1623.5 1394.5 1669.33 1371.83 1715.17 1371.83 1761 1394.5 1806.83 1417.17 1852.67 1417.17 1898.5 1394.5" stroke="#151D26" stroke-width="6.875" stroke-miterlimit="8" fill="none" fill-rule="evenodd"/><path d="M1348.5 1463.5C1394.33 1440.83 1440.17 1440.83 1486 1463.5 1531.83 1486.17 1577.67 1486.17 1623.5 1463.5 1669.33 1440.83 1715.17 1440.83 1761 1463.5 1806.83 1486.17 1852.67 1486.17 1898.5 1463.5" stroke="#151D26" stroke-width="6.875" stroke-miterlimit="8" fill="none" fill-rule="evenodd"/><path d="M2208 1153 2964 1153 2964 1566 2208 1566Z" fill="#D4DADA" fill-rule="evenodd"/><text fill="#151D26" font-family="Amazon Ember,Amazon Ember_MSFontService,sans-serif" font-weight="700" font-size="73" transform="matrix(1 0 0 1 2468.38 1271)">Hybrid</text><text fill="#151D26" font-family="Amazon Ember,Amazon Ember_MSFontService,sans-serif" font-weight="400" font-size="73" transform="matrix(1 0 0 1 2418.53 1340)">Strategies</text><path d="M2345.5 1394.5 2826.5 1497.5" stroke="#151D26" stroke-width="6.875" stroke-miterlimit="8" fill="none" fill-rule="evenodd"/><path d="M2826.5 1394.5 2345.5 1497.5" stroke="#151D26" stroke-width="6.875" stroke-miterlimit="8" fill="none" fill-rule="evenodd"/><path d="M2613.5 1446C2613.5 1461.19 2601.19 1473.5 2586 1473.5 2570.81 1473.5 2558.5 1461.19 2558.5 1446 2558.5 1430.81 2570.81 1418.5 2586 1418.5 2601.19 1418.5 2613.5 1430.81 2613.5 1446Z" stroke="#151D26" stroke-width="6.875" stroke-miterlimit="8" fill="none" fill-rule="evenodd"/><path d="M3170 1153 3926 1153 3926 1566 3170 1566Z" fill="#CCFFE9" fill-rule="evenodd"/><text fill="#151D26" font-family="Amazon Ember,Amazon Ember_MSFontService,sans-serif" font-weight="700" font-size="73" transform="matrix(1 0 0 1 3326.89 1271)">Performance</text><text fill="#151D26" font-family="Amazon Ember,Amazon Ember_MSFontService,sans-serif" font-weight="400" font-size="73" transform="matrix(1 0 0 1 3329.76 1340)">Optimization</text><path d="M3351 1463 3402 1463 3402 1514 3351 1514Z" fill="#151D26" fill-rule="evenodd"/><path d="M3437 1428 3488 1428 3488 1514 3437 1514Z" fill="#151D26" fill-rule="evenodd"/><path d="M3523 1394 3574 1394 3574 1514 3523 1514Z" fill="#151D26" fill-rule="evenodd"/><path d="M3608 1411 3660 1411 3660 1514 3608 1514Z" fill="#151D26" fill-rule="evenodd"/><path d="M3694 1446 3746 1446 3746 1514 3694 1514Z" fill="#151D26" fill-rule="evenodd"/></g></svg>