<svg width="1077" height="900" xmlns="http://www.w3.org/2000/svg" xmlns:xlink="http://www.w3.org/1999/xlink" xml:space="preserve" overflow="hidden"><g transform="translate(-1157 -1509)"><path d="M1955 2006.5C1955 2091.83 1885.83 2161 1800.5 2161 1715.17 2161 1646 2091.83 1646 2006.5 1646 1921.17 1715.17 1852 1800.5 1852 1885.83 1852 1955 1921.17 1955 2006.5Z" fill="#B8E7FF" fill-rule="evenodd"/><path d="M2141 2201.5C2141 2258.66 2094.89 2305 2038 2305 1981.11 2305 1935 2258.66 1935 2201.5 1935 2144.34 1981.11 2098 2038 2098 2094.89 2098 2141 2144.34 2141 2201.5Z" fill="#CCFFE9" fill-rule="evenodd"/><path d="M1578.15 1863.52 1699.98 1955.84 1691.68 1966.8 1569.85 1874.48ZM1683.83 1914.58 1706.71 1969.56 1647.6 1962.41C1643.83 1961.95 1641.14 1958.53 1641.6 1954.76 1642.05 1950.99 1645.48 1948.3 1649.25 1948.76L1696.66 1954.49 1689.48 1963.96 1671.14 1919.87C1669.68 1916.36 1671.34 1912.34 1674.85 1910.88 1678.35 1909.42 1682.38 1911.08 1683.83 1914.58Z" fill="#003181"/><path d="M1898.15 2092.52 2019.98 2184.84 2011.68 2195.8 1889.85 2103.48ZM2003.83 2143.58 2026.71 2198.56 1967.6 2191.41C1963.83 2190.95 1961.14 2187.53 1961.6 2183.76 1962.05 2179.99 1965.48 2177.3 1969.25 2177.76L2016.66 2183.49 2009.48 2192.96 1991.14 2148.87C1989.68 2145.36 1991.34 2141.34 1994.85 2139.88 1998.35 2138.42 2002.38 2140.08 2003.83 2143.58Z" fill="#003181"/><path d="M1640 1800.5C1640 1914.55 1547.77 2007 1434 2007 1320.23 2007 1228 1914.55 1228 1800.5 1228 1686.45 1320.23 1594 1434 1594 1547.77 1594 1640 1686.45 1640 1800.5Z" fill="#007E94" fill-rule="evenodd"/><path d="M1365 1732 1503 1869" stroke="#FFFFFF" stroke-width="13.75" stroke-miterlimit="8" fill="none" fill-rule="evenodd"/><path d="M1503 1732 1365 1869" stroke="#FFFFFF" stroke-width="13.75" stroke-miterlimit="8" fill="none" fill-rule="evenodd"/></g></svg>