<svg width="3170" height="687" xmlns="http://www.w3.org/2000/svg" xmlns:xlink="http://www.w3.org/1999/xlink" xml:space="preserve" overflow="hidden"><defs><clipPath id="clip0"><rect x="476" y="1277" width="3170" height="687"/></clipPath></defs><g clip-path="url(#clip0)" transform="translate(-476 -1277)"><path d="M1404.61 1277C1423.6 1277 1439 1292.38 1439 1311.35L1439 1929.65C1439 1948.62 1423.6 1964 1404.61 1964L510.393 1964C491.398 1964 476 1948.62 476 1929.65L476 1311.35C476 1292.38 491.398 1277 510.393 1277Z" fill="#B8E7FF" fill-rule="evenodd"/><text fill="#151D26" font-family="Amazon Ember,Amazon Ember_MSFontService,sans-serif" font-weight="700" font-size="73" transform="matrix(1 0 0 1 609.497 1388)">Complexity Analysis</text><path d="M1006.5 1510C1006.5 1536.79 984.786 1558.5 958 1558.5 931.214 1558.5 909.5 1536.79 909.5 1510 909.5 1483.21 931.214 1461.5 958 1461.5 984.786 1461.5 1006.5 1483.21 1006.5 1510Z" stroke="#151D26" stroke-width="6.875" stroke-miterlimit="8" fill="#151D26" fill-rule="evenodd"/><path d="M957.5 1558.5 775.5 1753.5" stroke="#151D26" stroke-width="6.875" stroke-miterlimit="8" fill="none" fill-rule="evenodd"/><path d="M957.5 1558.5 957.5 1753.5" stroke="#151D26" stroke-width="6.875" stroke-miterlimit="8" fill="none" fill-rule="evenodd"/><path d="M957.5 1558.5 1140.5 1753.5" stroke="#151D26" stroke-width="6.875" stroke-miterlimit="8" fill="none" fill-rule="evenodd"/><text fill="#151D26" font-family="Amazon Ember,Amazon Ember_MSFontService,sans-serif" font-weight="400" font-size="73" transform="matrix(1 0 0 1 607.205 1841)">Identify Components</text><path d="M2520.64 1277C2539.62 1277 2555 1292.38 2555 1311.35L2555 1929.65C2555 1948.62 2539.62 1964 2520.64 1964L1627.36 1964C1608.38 1964 1593 1948.62 1593 1929.65L1593 1311.35C1593 1292.38 1608.38 1277 1627.36 1277Z" fill="#D4DADA" fill-rule="evenodd"/><text fill="#151D26" font-family="Amazon Ember,Amazon Ember_MSFontService,sans-serif" font-weight="700" font-size="73" transform="matrix(1 0 0 1 1687.15 1388)">Component Extraction</text><path d="M2002.24 1484C2017.02 1484 2029 1484 2029 1484L2029 1707C2029 1707 2017.02 1707 2002.24 1707L1832.76 1707C1817.98 1707 1806 1707 1806 1707L1806 1484C1806 1484 1817.98 1484 1832.76 1484Z" fill="#151D26" fill-rule="evenodd"/><path d="M2056 1546.5C2056 1561.14 2044.14 1573 2029.5 1573 2014.86 1573 2003 1561.14 2003 1546.5 2003 1531.86 2014.86 1520 2029.5 1520 2044.14 1520 2056 1531.86 2056 1546.5Z" fill="#FFAD97" fill-rule="evenodd"/><path d="M2314.24 1484C2329.02 1484 2341 1484 2341 1484L2341 1707C2341 1707 2329.02 1707 2314.24 1707L2144.76 1707C2129.98 1707 2118 1707 2118 1707L2118 1484C2118 1484 2129.98 1484 2144.76 1484Z" fill="#151D26" fill-rule="evenodd"/><path d="M2145 1644.5C2145 1659.14 2133.14 1671 2118.5 1671 2103.86 1671 2092 1659.14 2092 1644.5 2092 1629.86 2103.86 1618 2118.5 1618 2133.14 1618 2145 1629.86 2145 1644.5Z" fill="#AEFFA8" fill-rule="evenodd"/><text fill="#151D26" font-family="Amazon Ember,Amazon Ember_MSFontService,sans-serif" font-weight="400" font-size="73" transform="matrix(1 0 0 1 1762.49 1841)">Separate Elements</text><path d="M3611.61 1277C3630.6 1277 3646 1292.38 3646 1311.35L3646 1929.65C3646 1948.62 3630.6 1964 3611.61 1964L2717.39 1964C2698.4 1964 2683 1948.62 2683 1929.65L2683 1311.35C2683 1292.38 2698.4 1277 2717.39 1277Z" fill="#CCFFE9" fill-rule="evenodd"/><text fill="#151D26" font-family="Amazon Ember,Amazon Ember_MSFontService,sans-serif" font-weight="700" font-size="73" transform="matrix(1 0 0 1 2832.91 1388)">Result Aggregation</text><path d="M2943.5 1515.5 3164.5 1677.5" stroke="#151D26" stroke-width="6.875" stroke-miterlimit="8" fill="none" fill-rule="evenodd"/><path d="M3164.5 1515.5 3164.5 1677.5" stroke="#151D26" stroke-width="6.875" stroke-miterlimit="8" fill="none" fill-rule="evenodd"/><path d="M3385.5 1515.5 3164.5 1677.5" stroke="#151D26" stroke-width="6.875" stroke-miterlimit="8" fill="none" fill-rule="evenodd"/><path d="M3164.5 1677.5 3127.5 1596.5 3201.5 1596.5Z" stroke="#151D26" stroke-width="6.875" stroke-miterlimit="8" fill="#151D26" fill-rule="evenodd"/><text fill="#151D26" font-family="Amazon Ember,Amazon Ember_MSFontService,sans-serif" font-weight="400" font-size="73" transform="matrix(1 0 0 1 2887.33 1841)">Combine Results</text><path d="M1439 1629.12 1579.5 1629.13 1579.5 1642.88 1439 1642.87ZM1541.71 1606 1593.14 1636 1541.71 1666C1538.43 1667.91 1534.22 1666.81 1532.31 1663.53 1530.4 1660.25 1531.5 1656.04 1534.78 1654.12L1576.03 1630.06 1576.03 1641.94 1534.78 1617.88C1531.5 1615.96 1530.4 1611.75 1532.31 1608.47 1534.22 1605.19 1538.43 1604.09 1541.71 1606Z" fill="#1A2F4C"/><path d="M2546 1626.13 2686.5 1626.13 2686.5 1639.88 2546 1639.88ZM2648.71 1603 2700.14 1633 2648.71 1663C2645.43 1664.91 2641.22 1663.81 2639.31 1660.53 2637.4 1657.25 2638.5 1653.04 2641.78 1651.12L2683.03 1627.06 2683.03 1638.94 2641.78 1614.88C2638.5 1612.96 2637.4 1608.75 2639.31 1605.47 2641.22 1602.19 2645.43 1601.09 2648.71 1603Z" fill="#1A2F4C"/></g></svg>