<svg width="987" height="764" xmlns="http://www.w3.org/2000/svg" xmlns:xlink="http://www.w3.org/1999/xlink" xml:space="preserve" overflow="hidden"><g transform="translate(-3174 -745)"><path d="M3267.5 966.5 3542.5 966.5 3542.5 1241.5 3267.5 1241.5Z" stroke="#151D26" stroke-width="6.875" stroke-miterlimit="8" fill="#B8E7FF" fill-rule="evenodd"/><path d="M3301.5 1001.5 3508.5 1207.5" stroke="#151D26" stroke-width="6.875" stroke-miterlimit="8" fill="none" fill-rule="evenodd"/><path d="M3301.5 1207.5 3508.5 1001.5" stroke="#151D26" stroke-width="6.875" stroke-miterlimit="8" fill="none" fill-rule="evenodd"/><path d="M3783.5 966.5 4058.5 966.5 4058.5 1241.5 3783.5 1241.5Z" stroke="#151D26" stroke-width="6.875" stroke-miterlimit="8" fill="#CCFFE9" fill-rule="evenodd"/><path d="M3996 1103.5C3996 1145.2 3962.2 1179 3920.5 1179 3878.8 1179 3845 1145.2 3845 1103.5 3845 1061.8 3878.8 1028 3920.5 1028 3962.2 1028 3996 1061.8 3996 1103.5Z" stroke="#00E500" stroke-width="10.3125" stroke-miterlimit="8" fill="none" fill-rule="evenodd"/><path d="M3895 1105 3910 1120 3945 1080" stroke="#00E500" stroke-width="10.3125" stroke-miterlimit="8" fill="none" fill-rule="evenodd"/><path d="M3581 1065.75 3693.5 1065.75 3693.5 1028 3769 1103.5 3693.5 1179 3693.5 1141.25 3581 1141.25Z" fill="#D4DADA" fill-rule="evenodd"/></g></svg>