<svg width="2622" height="1512" xmlns="http://www.w3.org/2000/svg" xmlns:xlink="http://www.w3.org/1999/xlink" xml:space="preserve" overflow="hidden"><defs><clipPath id="clip0"><rect x="889" y="654" width="2622" height="1512"/></clipPath></defs><g clip-path="url(#clip0)" transform="translate(-889 -654)"><path d="M889 654 2136 654 2136 1341 889 1341Z" fill="#007E94" fill-rule="evenodd"/><text fill="#FFFFFF" font-family="Amazon Ember,Amazon Ember_MSFontService,sans-serif" font-weight="700" font-size="73" transform="matrix(1 0 0 1 1240.36 765)">Request Format</text><text fill="#FFFFFF" font-family="Amazon Ember,Amazon Ember_MSFontService,sans-serif" font-weight="700" font-size="73" transform="matrix(1 0 0 1 1236.35 851)">Standardization</text><path d="M1169.5 929.5 1856.5 929.5" stroke="#FFFFFF" stroke-width="6.875" stroke-miterlimit="8" fill="none" fill-rule="evenodd"/><path d="M1169.5 1032.5 1856.5 1032.5" stroke="#FFFFFF" stroke-width="6.875" stroke-miterlimit="8" fill="none" fill-rule="evenodd"/><path d="M1169.5 1135.5 1856.5 1135.5" stroke="#FFFFFF" stroke-width="6.875" stroke-miterlimit="8" fill="none" fill-rule="evenodd"/><path d="M1341.5 929.5 1341.5 1238.5" stroke="#FFFFFF" stroke-width="6.875" stroke-miterlimit="8" fill="none" fill-rule="evenodd"/><path d="M1513.5 929.5 1513.5 1238.5" stroke="#FFFFFF" stroke-width="6.875" stroke-miterlimit="8" fill="none" fill-rule="evenodd"/><path d="M1684.5 929.5 1684.5 1238.5" stroke="#FFFFFF" stroke-width="6.875" stroke-miterlimit="8" fill="none" fill-rule="evenodd"/><path d="M2264 654 3511 654 3511 1341 2264 1341Z" fill="#B8E7FF" fill-rule="evenodd"/><text fill="#151D26" font-family="Amazon Ember,Amazon Ember_MSFontService,sans-serif" font-weight="700" font-size="73" transform="matrix(1 0 0 1 2554.06 765)">Response Structure</text><text fill="#151D26" font-family="Amazon Ember,Amazon Ember_MSFontService,sans-serif" font-weight="700" font-size="73" transform="matrix(1 0 0 1 2683.54 851)">Consistency</text><path d="M2544.5 929.5 3231.5 929.5 3231.5 1238.5 2544.5 1238.5Z" stroke="#151D26" stroke-width="6.875" stroke-miterlimit="8" fill="none" fill-rule="evenodd"/><path d="M2613.5 998.5 3163.5 998.5 3163.5 1169.5 2613.5 1169.5Z" stroke="#151D26" stroke-width="6.875" stroke-miterlimit="8" fill="none" fill-rule="evenodd"/><path d="M2681.5 1066.5 3094.5 1066.5 3094.5 1101.5 2681.5 1101.5Z" stroke="#151D26" stroke-width="6.875" stroke-miterlimit="8" fill="none" fill-rule="evenodd"/><path d="M889 1479 2136 1479 2136 2166 889 2166Z" fill="#D4DADA" fill-rule="evenodd"/><text fill="#151D26" font-family="Amazon Ember,Amazon Ember_MSFontService,sans-serif" font-weight="700" font-size="73" transform="matrix(1 0 0 1 1256.41 1590)">Error Handling</text><text fill="#151D26" font-family="Amazon Ember,Amazon Ember_MSFontService,sans-serif" font-weight="700" font-size="73" transform="matrix(1 0 0 1 1236.35 1676)">Standardization</text><path d="M1513 1808.5 1616.5 1912 1513 2015.5 1409.5 1912Z" stroke="#151D26" stroke-width="6.875" stroke-miterlimit="8" fill="none" fill-rule="evenodd"/><path d="M1685 1877.5 1753.5 1946.5 1685 2015.5 1616.5 1946.5Z" stroke="#151D26" stroke-width="6.875" stroke-miterlimit="8" fill="none" fill-rule="evenodd"/><path d="M1341 1877.5 1409.5 1946.5 1341 2015.5 1272.5 1946.5Z" stroke="#151D26" stroke-width="6.875" stroke-miterlimit="8" fill="none" fill-rule="evenodd"/><path d="M2264 1479 3511 1479 3511 2166 2264 2166Z" fill="#CCFFE9" fill-rule="evenodd"/><text fill="#151D26" font-family="Amazon Ember,Amazon Ember_MSFontService,sans-serif" font-weight="700" font-size="73" transform="matrix(1 0 0 1 2605.62 1590)">Input Validation</text><text fill="#151D26" font-family="Amazon Ember,Amazon Ember_MSFontService,sans-serif" font-weight="700" font-size="73" transform="matrix(1 0 0 1 2742.84 1676)">Patterns</text><path d="M2802.5 1857.5C2802.5 1905 2764 1943.5 2716.5 1943.5 2669 1943.5 2630.5 1905 2630.5 1857.5 2630.5 1810 2669 1771.5 2716.5 1771.5 2764 1771.5 2802.5 1810 2802.5 1857.5Z" stroke="#151D26" stroke-width="6.875" stroke-miterlimit="8" fill="none" fill-rule="evenodd"/><path d="M2966.5 1857.5C2966.5 1896.71 2931.35 1928.5 2888 1928.5 2844.65 1928.5 2809.5 1896.71 2809.5 1857.5 2809.5 1818.29 2844.65 1786.5 2888 1786.5 2931.35 1786.5 2966.5 1818.29 2966.5 1857.5Z" stroke="#151D26" stroke-width="6.875" stroke-miterlimit="8" fill="none" fill-rule="evenodd"/><path d="M3153.5 1824.5C3153.5 1872 3115.22 1910.5 3068 1910.5 3020.78 1910.5 2982.5 1872 2982.5 1824.5 2982.5 1777 3020.78 1738.5 3068 1738.5 3115.22 1738.5 3153.5 1777 3153.5 1824.5Z" stroke="#151D26" stroke-width="6.875" stroke-miterlimit="8" fill="none" fill-rule="evenodd"/><path d="M2879.5 2031.5C2879.5 2079 2841 2117.5 2793.5 2117.5 2746 2117.5 2707.5 2079 2707.5 2031.5 2707.5 1984 2746 1945.5 2793.5 1945.5 2841 1945.5 2879.5 1984 2879.5 2031.5Z" stroke="#151D26" stroke-width="6.875" stroke-miterlimit="8" fill="none" fill-rule="evenodd"/><path d="M3059.5 1995C3059.5 2042.22 3021.22 2080.5 2974 2080.5 2926.78 2080.5 2888.5 2042.22 2888.5 1995 2888.5 1947.78 2926.78 1909.5 2974 1909.5 3021.22 1909.5 3059.5 1947.78 3059.5 1995Z" stroke="#151D26" stroke-width="6.875" stroke-miterlimit="8" fill="none" fill-rule="evenodd"/></g></svg>