<svg width="3781" height="1512" xmlns="http://www.w3.org/2000/svg" xmlns:xlink="http://www.w3.org/1999/xlink" xml:space="preserve" overflow="hidden"><defs><clipPath id="clip0"><rect x="314" y="729" width="3781" height="1512"/></clipPath></defs><g clip-path="url(#clip0)" transform="translate(-314 -729)"><path d="M314 1238 1277 1238 1277 1800 314 1800Z" fill="#B8E7FF" fill-rule="evenodd"/><text fill="#151D26" font-family="Amazon Ember,Amazon Ember_MSFontService,sans-serif" font-weight="700" font-size="83" transform="matrix(1 0 0 1 506.263 1357)">Intent Analysis</text><text fill="#151D26" font-family="Amazon Ember,Amazon Ember_MSFontService,sans-serif" font-weight="400" font-size="83" transform="matrix(1 0 0 1 532.045 1536)">Query </text><text fill="#151D26" font-family="Amazon Ember,Amazon Ember_MSFontService,sans-serif" font-weight="400" font-size="83" transform="matrix(1 0 0 1 781.836 1536)">p</text><text fill="#151D26" font-family="Amazon Ember,Amazon Ember_MSFontService,sans-serif" font-weight="400" font-size="83" transform="matrix(1 0 0 1 830.534 1536)">arsing</text><text fill="#151D26" font-family="Amazon Ember,Amazon Ember_MSFontService,sans-serif" font-weight="400" font-size="83" transform="matrix(1 0 0 1 381.368 1674)">Concept </text><text fill="#151D26" font-family="Amazon Ember,Amazon Ember_MSFontService,sans-serif" font-weight="400" font-size="83" transform="matrix(1 0 0 1 711.368 1674)">i</text><text fill="#151D26" font-family="Amazon Ember,Amazon Ember_MSFontService,sans-serif" font-weight="400" font-size="83" transform="matrix(1 0 0 1 732.566 1674)">dentification</text><path d="M1723 1238 2686 1238 2686 1800 1723 1800Z" fill="#007E94" fill-rule="evenodd"/><text fill="#FFFFFF" font-family="Amazon Ember,Amazon Ember_MSFontService,sans-serif" font-weight="700" font-size="83" transform="matrix(1 0 0 1 1761.52 1357)">Expansion Engineering</text><text fill="#FFFFFF" font-family="Amazon Ember,Amazon Ember_MSFontService,sans-serif" font-weight="400" font-size="83" transform="matrix(1 0 0 1 1889 1536)">Amazon Bedrock</text><text fill="#FFFFFF" font-family="Amazon Ember,Amazon Ember_MSFontService,sans-serif" font-weight="400" font-size="83" transform="matrix(1 0 0 1 2000.72 1674)">g</text><text fill="#FFFFFF" font-family="Amazon Ember,Amazon Ember_MSFontService,sans-serif" font-weight="400" font-size="83" transform="matrix(1 0 0 1 2048.84 1674)">eneration</text><path d="M3133 1238 4095 1238 4095 1800 3133 1800Z" fill="#CCFFE9" fill-rule="evenodd"/><text fill="#151D26" font-family="Amazon Ember,Amazon Ember_MSFontService,sans-serif" font-weight="700" font-size="83" transform="matrix(1 0 0 1 3207.28 1357)">Context Preservation</text><text fill="#151D26" font-family="Amazon Ember,Amazon Ember_MSFontService,sans-serif" font-weight="400" font-size="83" transform="matrix(1 0 0 1 3380.87 1531)">Validation </text><text fill="#151D26" font-family="Segoe UI Symbol,Segoe UI Symbol_MSFontService,sans-serif" font-weight="400" font-size="83" transform="matrix(1 0 0 1 3785.35 1531)">✓</text><text fill="#151D26" font-family="Amazon Ember,Amazon Ember_MSFontService,sans-serif" font-weight="400" font-size="83" transform="matrix(1 0 0 1 3258.27 1669)">Coherence </text><text fill="#151D26" font-family="Amazon Ember,Amazon Ember_MSFontService,sans-serif" font-weight="400" font-size="83" transform="matrix(1 0 0 1 3674.78 1669)">c</text><text fill="#151D26" font-family="Amazon Ember,Amazon Ember_MSFontService,sans-serif" font-weight="400" font-size="83" transform="matrix(1 0 0 1 3712.59 1669)">heck </text><text fill="#151D26" font-family="Segoe UI Symbol,Segoe UI Symbol_MSFontService,sans-serif" font-weight="400" font-size="83" transform="matrix(1 0 0 1 3907.96 1669)">✓</text><text fill="#151D26" font-family="Amazon Ember,Amazon Ember_MSFontService,sans-serif" font-weight="700" font-size="92" transform="matrix(1 0 0 1 482.487 842)">Original </text><text fill="#151D26" font-family="Amazon Ember,Amazon Ember_MSFontService,sans-serif" font-weight="700" font-size="92" transform="matrix(1 0 0 1 860.612 842)">q</text><text fill="#151D26" font-family="Amazon Ember,Amazon Ember_MSFontService,sans-serif" font-weight="700" font-size="92" transform="matrix(1 0 0 1 916.758 842)">uery</text><text fill="#151D26" font-family="Amazon Ember,Amazon Ember_MSFontService,sans-serif" font-weight="700" font-size="92" transform="matrix(1 0 0 1 3245.66 2160)">Expanded </text><text fill="#151D26" font-family="Amazon Ember,Amazon Ember_MSFontService,sans-serif" font-weight="700" font-size="92" transform="matrix(1 0 0 1 3693.11 2160)">r</text><text fill="#151D26" font-family="Amazon Ember,Amazon Ember_MSFontService,sans-serif" font-weight="700" font-size="92" transform="matrix(1 0 0 1 3730.35 2160)">esults</text><path d="M1277 1573 1723 1573" stroke="#151D26" stroke-width="13.75" stroke-miterlimit="8" fill="none" fill-rule="evenodd"/><path d="M2686 1573 3133 1573" stroke="#151D26" stroke-width="13.75" stroke-miterlimit="8" fill="none" fill-rule="evenodd"/><path d="M801.875 913 801.875 1224.03 788.125 1224.03 788.125 913ZM825.001 1186.24 795 1237.67 764.999 1186.24C763.086 1182.96 764.194 1178.76 767.474 1176.84 770.754 1174.93 774.963 1176.04 776.876 1179.32L800.939 1220.57 789.062 1220.57 813.124 1179.32C815.038 1176.04 819.247 1174.93 822.527 1176.84 825.807 1178.76 826.915 1182.96 825.001 1186.24Z" fill="#003181"/><path d="M3620.87 1815 3620.88 2045.3 3607.12 2045.3 3607.12 1815ZM3644 2007.51 3614 2058.94 3584 2007.51C3582.09 2004.23 3583.19 2000.02 3586.47 1998.11 3589.75 1996.2 3593.96 1997.3 3595.88 2000.58L3619.94 2041.83 3608.06 2041.83 3632.12 2000.58C3634.04 1997.3 3638.25 1996.19 3641.53 1998.11 3644.81 2000.02 3645.91 2004.23 3644 2007.51Z" fill="#003181"/></g></svg>