<svg width="3579" height="693" xmlns="http://www.w3.org/2000/svg" xmlns:xlink="http://www.w3.org/1999/xlink" xml:space="preserve" overflow="hidden"><defs><clipPath id="clip0"><rect x="326" y="1045" width="3579" height="693"/></clipPath></defs><g clip-path="url(#clip0)" transform="translate(-326 -1045)"><path d="M902.5 1372.5 3344.08 1372.5" stroke="#003181" stroke-width="20.625" stroke-linejoin="round" stroke-miterlimit="10" fill="none" fill-rule="evenodd"/><path d="M326 1073 1013 1073 1013 1692 326 1692Z" fill="#007E94" fill-rule="evenodd"/><text fill="#FFFFFF" font-family="Amazon Ember,Amazon Ember_MSFontService,sans-serif" font-weight="700" font-size="73" transform="matrix(1 0 0 1 377.011 1163)">Security Controls</text><path d="M1292 1045 1980 1045 1980 1664 1292 1664Z" fill="#B8E7FF" fill-rule="evenodd"/><text fill="#151D26" font-family="Amazon Ember,Amazon Ember_MSFontService,sans-serif" font-weight="700" font-size="73" transform="matrix(1 0 0 1 1391.93 1163)">Audit Logging</text><path d="M2255 1045 2942 1045 2942 1664 2255 1664Z" fill="#CCFFE9" fill-rule="evenodd"/><text fill="#151D26" font-family="Amazon Ember,Amazon Ember_MSFontService,sans-serif" font-weight="700" font-size="73" transform="matrix(1 0 0 1 2304.3 1163)">Data Governance</text><path d="M2427 1217 2530 1217 2530 1320 2427 1320Z" stroke="#000000" stroke-width="10.3125" stroke-miterlimit="8" fill="#00E500" fill-rule="evenodd" fill-opacity="0.301961"/><path d="M2564 1217 2667 1217 2667 1320 2564 1320Z" stroke="#000000" stroke-width="10.3125" stroke-miterlimit="8" fill="#00E500" fill-rule="evenodd" fill-opacity="0.301961"/><path d="M2702 1217 2805 1217 2805 1320 2702 1320Z" stroke="#000000" stroke-width="10.3125" stroke-miterlimit="8" fill="#00E500" fill-rule="evenodd" fill-opacity="0.301961"/><path d="M2427 1355 2530 1355 2530 1458 2427 1458Z" stroke="#000000" stroke-width="10.3125" stroke-miterlimit="8" fill="#00E500" fill-rule="evenodd" fill-opacity="0.301961"/><path d="M2564 1355 2667 1355 2667 1458 2564 1458Z" stroke="#000000" stroke-width="10.3125" stroke-miterlimit="8" fill="#00E500" fill-rule="evenodd" fill-opacity="0.301961"/><path d="M2702 1355 2805 1355 2805 1458 2702 1458Z" stroke="#000000" stroke-width="10.3125" stroke-miterlimit="8" fill="#00E500" fill-rule="evenodd" fill-opacity="0.301961"/><path d="M2427 1492 2530 1492 2530 1595 2427 1595Z" stroke="#000000" stroke-width="10.3125" stroke-miterlimit="8" fill="#00E500" fill-rule="evenodd" fill-opacity="0.301961"/><path d="M2564 1492 2667 1492 2667 1595 2564 1595Z" stroke="#000000" stroke-width="10.3125" stroke-miterlimit="8" fill="#00E500" fill-rule="evenodd" fill-opacity="0.301961"/><path d="M2702 1492 2805 1492 2805 1595 2702 1595Z" stroke="#000000" stroke-width="10.3125" stroke-miterlimit="8" fill="#00E500" fill-rule="evenodd" fill-opacity="0.301961"/><path d="M3217 1045 3905 1045 3905 1664 3217 1664Z" fill="#151D26" fill-rule="evenodd"/><text fill="#FFFFFF" font-family="Amazon Ember,Amazon Ember_MSFontService,sans-serif" font-weight="700" font-size="73" transform="matrix(1 0 0 1 3312.64 1146)">Citizen Record</text><text fill="#FFFFFF" font-family="Amazon Ember,Amazon Ember_MSFontService,sans-serif" font-weight="700" font-size="73" transform="matrix(1 0 0 1 3449.28 1215)">Access</text><path d="M3698.5 1407C3698.5 1482.94 3636.94 1544.5 3561 1544.5 3485.06 1544.5 3423.5 1482.94 3423.5 1407 3423.5 1331.06 3485.06 1269.5 3561 1269.5 3636.94 1269.5 3698.5 1331.06 3698.5 1407Z" stroke="#FFFFFF" stroke-width="6.875" stroke-miterlimit="8" fill="none" fill-rule="evenodd"/><path d="M3647.5 1406.5C3647.5 1454 3609 1492.5 3561.5 1492.5 3514 1492.5 3475.5 1454 3475.5 1406.5 3475.5 1359 3514 1320.5 3561.5 1320.5 3609 1320.5 3647.5 1359 3647.5 1406.5Z" stroke="#FFFFFF" stroke-width="6.875" stroke-miterlimit="8" fill="none" fill-rule="evenodd"/><path d="M3595.5 1407C3595.5 1426.05 3580.28 1441.5 3561.5 1441.5 3542.72 1441.5 3527.5 1426.05 3527.5 1407 3527.5 1387.95 3542.72 1372.5 3561.5 1372.5 3580.28 1372.5 3595.5 1387.95 3595.5 1407Z" stroke="#FFFFFF" stroke-width="3.4375" stroke-miterlimit="8" fill="#FFFFFF" fill-rule="evenodd" fill-opacity="0.301961"/><g><g><g><path d="M891.532 1587.9C894.827 1582.49 897.205 1576.67 898.609 1570.66L923.849 1564.21 923.849 1559.02C923.849 1559.02 923.821 1553.84 923.821 1553.84L923.821 1548.65C923.821 1548.65 898.523 1542.44 898.523 1542.44 897.061 1536.42 894.655 1530.57 891.303 1525.16L904.568 1502.81 900.872 1499.15 897.176 1495.51 893.48 1491.84 871.219 1505.3C865.776 1502.01 859.931 1499.63 853.886 1498.23L847.468 1473.02 842.283 1473.02C842.283 1473.02 837.097 1473.04 837.097 1473.04L831.911 1473.04C831.911 1473.04 825.694 1498.37 825.694 1498.37 819.706 1499.86 813.891 1502.27 808.504 1505.62L786.071 1492.3 782.404 1495.99 778.737 1499.69 775.098 1503.39 788.65 1525.76C785.384 1531.18 783.063 1536.96 781.659 1542.92L756.304 1549.4 756.304 1554.58C756.304 1554.58 756.361 1559.77 756.361 1559.77L756.361 1564.95C756.361 1564.95 781.831 1571.23 781.831 1571.23 783.292 1577.16 785.699 1582.92 788.994 1588.25L775.614 1610.82 779.31 1614.49 783.006 1618.16 786.702 1621.82 809.163 1608.24C814.521 1611.51 820.308 1613.83 826.239 1615.26L832.714 1640.65 837.899 1640.65C837.899 1640.65 843.085 1640.59 843.085 1640.59L848.271 1640.59C848.271 1640.59 854.516 1615.15 854.516 1615.15 860.475 1613.69 866.234 1611.31 871.62 1608.02L894.111 1621.37 897.749 1617.67 901.416 1613.97 905.083 1610.28 891.561 1587.96Z" stroke="#FFFFFF" stroke-width="11.46" stroke-linejoin="round" fill="none"/><path d="M871.964 1556.79C871.964 1574.41 857.696 1588.68 840.048 1588.68 822.4 1588.68 808.161 1574.41 808.161 1556.79 808.161 1539.17 822.457 1524.9 840.048 1524.9 857.639 1524.9 871.964 1539.17 871.964 1556.79Z" stroke="#FFFFFF" stroke-width="11.46" stroke-linejoin="round" fill="none"/><path d="M508.453 1597.61 508.453 1322.57" stroke="#FFFFFF" stroke-width="11.46" stroke-linejoin="round" fill="none"/><path d="M426.8 1322.57 890.93 1322.57" stroke="#FFFFFF" stroke-width="11.46" stroke-linejoin="round" fill="none"/><path d="M890.93 1477.29 890.93 1271.81C890.93 1266.62 886.604 1262.41 881.247 1262.41L436.484 1262.41C431.155 1262.41 426.8 1266.62 426.8 1271.81L426.543 1588.22C426.543 1593.37 430.84 1597.59 436.169 1597.61L762.005 1597.56" stroke="#FFFFFF" stroke-width="11.46" stroke-linejoin="round" fill="none"/><path d="M448.288 1292.49 469.775 1292.49" stroke="#FFFFFF" stroke-width="11.46" stroke-linejoin="round" fill="none"/><path d="M829.304 1451.5C820.709 1438.61 807.817 1434.31 792.403 1432.45L792.489 1431.85C789.567 1389.3 750.173 1381.94 732.525 1405.43 727.855 1392.42 720.778 1380.48 711.18 1370.96 690.38 1350.42 658.779 1339.48 624.17 1353.89 597.239 1365.12 578.388 1396.61 578.388 1423.91 578.388 1427.12 578.588 1430.3 578.961 1433.39L578.961 1433.39C559.278 1438.35 537.074 1453.1 537.074 1486.48 537.074 1515.27 554.236 1530.4 565.237 1537.16 570.108 1540.14 575.723 1541.69 581.453 1541.69L602.998 1541.69" stroke="#FFFFFF" stroke-width="11.46" stroke-linejoin="round" fill="none"/><path d="M615.89 1597.61 615.89 1520.26 650.27 1520.26 650.27 1597.61" stroke="#FFFFFF" stroke-width="11.46" stroke-linejoin="round" fill="none"/><path d="M633.08 1515.96 633.08 1455.8" stroke="#FFFFFF" stroke-width="11.46" stroke-linejoin="round" fill="none"/><path d="M633.08 1417.12 623.024 1417.12 618.727 1442.91C618.211 1448.81 623.024 1455.8 631.619 1455.8" stroke="#FFFFFF" stroke-width="11.46" stroke-linejoin="round" fill="none"/><path d="M633.08 1567.53 633.08 1550.34" stroke="#FFFFFF" stroke-width="11.46" stroke-linejoin="round" fill="none"/><path d="M631.619 1597.61 631.619 1577.9" stroke="#FFFFFF" stroke-width="11.46" stroke-linejoin="round" fill="none"/><path d="M701.84 1528.85 701.697 1503.07" stroke="#FFFFFF" stroke-width="11.46" stroke-linejoin="round" fill="none"/><path d="M701.84 1593.32 701.984 1541.75" stroke="#FFFFFF" stroke-width="11.46" stroke-linejoin="round" fill="none"/><path d="M701.84 1442.91 710.435 1442.91 710.435 1417.12C725.62 1421.47 735.791 1433.22 735.791 1447.09 735.791 1460.04 731.178 1472.33 719.03 1477.29L719.03 1601.91" stroke="#FFFFFF" stroke-width="11.46" stroke-linejoin="round" fill="none"/><path d="M701.84 1442.91 693.245 1442.91 693.245 1417.12C678.061 1421.47 667.89 1433.22 667.89 1447.09 667.89 1460.04 672.503 1472.33 684.65 1477.29L684.65 1601.91" stroke="#FFFFFF" stroke-width="11.46" stroke-linejoin="round" fill="none"/><path d="M650.27 1597.61 650.27 1520.26 615.89 1520.26 615.89 1597.61" stroke="#FFFFFF" stroke-width="11.46" stroke-linejoin="round" fill="none"/><path d="M633.08 1515.96 633.08 1455.8" stroke="#FFFFFF" stroke-width="11.46" stroke-linejoin="round" fill="none"/><path d="M633.08 1417.12 640.214 1417.12 644.512 1442.91C644.999 1448.81 640.214 1455.8 631.619 1455.8" stroke="#FFFFFF" stroke-width="11.46" stroke-linejoin="round" fill="none"/><path d="M633.08 1567.53 633.08 1550.34" stroke="#FFFFFF" stroke-width="11.46" stroke-linejoin="round" fill="none"/><path d="M631.619 1597.61 631.619 1577.9" stroke="#FFFFFF" stroke-width="11.46" stroke-linejoin="round" fill="none"/></g></g></g><g><g><g><path d="M1616.89 1261.34 1501.86 1261.34C1497.95 1261.34 1494.8 1264.46 1494.8 1268.33L1494.8 1510.74C1494.8 1514.61 1497.97 1517.73 1501.86 1517.73L1600.6 1517.73" stroke="#232F3E" stroke-width="8.94" stroke-linejoin="round" fill="none"/><path d="M1616.89 1322.4 1673.86 1322.4 1616.89 1261.34 1616.89 1322.4Z" stroke="#232F3E" stroke-width="8.94" stroke-linejoin="round" fill="none"/><path d="M1523.29 1367.16 1649.46 1367.16" stroke="#232F3E" stroke-width="8.94" stroke-linejoin="round" fill="none"/><path d="M1523.29 1399.73 1645.37 1399.73" stroke="#232F3E" stroke-width="8.94" stroke-linejoin="round" fill="none"/><path d="M1523.29 1436.36 1600.6 1436.36" stroke="#232F3E" stroke-width="8.94" stroke-linejoin="round" fill="none"/><path d="M1523.29 1472.97 1592.47 1472.97" stroke="#232F3E" stroke-width="8.94" stroke-linejoin="round" fill="none"/><path d="M1523.29 1330.53 1592.47 1330.53" stroke="#232F3E" stroke-width="8.94" stroke-linejoin="round" fill="none"/><path d="M1673.86 1387.5 1673.86 1322.4" stroke="#232F3E" stroke-width="8.94" stroke-linejoin="round" fill="none"/><path d="M1759.33 1479.09C1759.33 1520.68 1725.62 1554.39 1684.03 1554.39 1642.45 1554.39 1608.74 1520.68 1608.74 1479.09 1608.74 1437.51 1642.45 1403.79 1684.03 1403.79 1725.62 1403.79 1759.33 1437.51 1759.33 1479.09Z" stroke="#232F3E" stroke-width="8.94" stroke-linejoin="round" fill="none"/><path d="M1753.23 1515.7 1807.56 1570.21C1814.6 1577.28 1813.95 1589.3 1806.13 1597.12 1798.31 1604.94 1786.22 1605.57 1779.16 1598.53L1725.52 1545" stroke="#232F3E" stroke-width="8.94" stroke-linejoin="round" fill="none"/><path d="M1645.37 1509.6 1722.7 1509.6" stroke="#232F3E" stroke-width="8.94" stroke-linejoin="round" fill="none"/><path d="M1629.1 1481.13 1677.93 1481.13" stroke="#232F3E" stroke-width="8.94" stroke-linejoin="round" fill="none"/><path d="M1690.14 1481.13 1710.5 1481.13" stroke="#232F3E" stroke-width="8.94" stroke-linejoin="round" fill="none"/><path d="M1661.66 1456.7 1730.83 1456.7" stroke="#232F3E" stroke-width="8.94" stroke-linejoin="round" fill="none"/></g></g></g></g></svg>