<svg width="4080" height="1240" xmlns="http://www.w3.org/2000/svg" xmlns:xlink="http://www.w3.org/1999/xlink" xml:space="preserve" overflow="hidden"><defs><clipPath id="clip0"><rect x="208" y="794" width="4080" height="1240"/></clipPath></defs><g clip-path="url(#clip0)" transform="translate(-208 -794)"><path d="M208 845.335C208 827.477 222.477 813 240.335 813L4237.67 813C4255.52 813 4270 827.477 4270 845.335L4270 974.664C4270 992.523 4255.52 1007 4237.67 1007L240.335 1007C222.477 1007 208 992.523 208 974.664Z" fill="#D4DADA" fill-rule="evenodd"/><path d="M225 1850.33C225 1832.48 239.477 1818 257.334 1818L4255.67 1818C4273.52 1818 4288 1832.48 4288 1850.33L4288 1979.67C4288 1997.52 4273.52 2012 4255.67 2012L257.334 2012C239.477 2012 225 1997.52 225 1979.67Z" fill="#D4DADA" fill-rule="evenodd"/><path d="M225 1342.33C225 1324.48 239.477 1310 257.334 1310L4255.67 1310C4273.52 1310 4288 1324.48 4288 1342.33L4288 1471.67C4288 1489.52 4273.52 1504 4255.67 1504L257.334 1504C239.477 1504 225 1489.52 225 1471.67Z" fill="#D4DADA" fill-rule="evenodd"/><path d="M976 1277 1717 1277 1717 1524 976 1524Z" fill="#B8E7FF" fill-rule="evenodd"/><text fill="#151D26" font-family="Amazon Ember,Amazon Ember_MSFontService,sans-serif" font-weight="700" font-size="73" transform="matrix(1 0 0 1 1065.9 1424)">Search Interface</text><path d="M1780 1277 2521 1277 2521 1524 1780 1524Z" fill="#B8E7FF" fill-rule="evenodd"/><text fill="#151D26" font-family="Amazon Ember,Amazon Ember_MSFontService,sans-serif" font-weight="700" font-size="73" transform="matrix(1 0 0 1 1891.47 1424)">Index Interface</text><path d="M2584 1277 3326 1277 3326 1524 2584 1524Z" fill="#B8E7FF" fill-rule="evenodd"/><text fill="#151D26" font-family="Amazon Ember,Amazon Ember_MSFontService,sans-serif" font-weight="700" font-size="73" transform="matrix(1 0 0 1 2656.6 1424)">Storage Interface</text><path d="M3389 1277 4130 1277 4130 1524 3389 1524Z" fill="#B8E7FF" fill-rule="evenodd"/><text fill="#151D26" font-family="Amazon Ember,Amazon Ember_MSFontService,sans-serif" font-weight="700" font-size="73" transform="matrix(1 0 0 1 3481.31 1424)">Config Interface</text><path d="M1532 905 1346 1277" stroke="#151D26" stroke-width="6.1875" stroke-miterlimit="8" fill="none" fill-rule="evenodd"/><path d="M2460 905 2151 1277" stroke="#151D26" stroke-width="6.1875" stroke-miterlimit="8" fill="none" fill-rule="evenodd"/><path d="M2460 905 2955 1277" stroke="#151D26" stroke-width="6.1875" stroke-miterlimit="8" fill="none" fill-rule="evenodd"/><path d="M3388 905 3759 1277" stroke="#151D26" stroke-width="6.1875" stroke-miterlimit="8" fill="none" fill-rule="evenodd"/><path d="M1346 1524 1161 1895" stroke="#151D26" stroke-width="6.1875" stroke-miterlimit="8" fill="none" fill-rule="evenodd"/><path d="M1346 1524 1841 1895" stroke="#151D26" stroke-width="6.1875" stroke-miterlimit="8" fill="none" fill-rule="evenodd"/><path d="M2151 1524 2522 1895" stroke="#151D26" stroke-width="6.1875" stroke-miterlimit="8" fill="none" fill-rule="evenodd"/><path d="M2955 1524 3203 1895" stroke="#151D26" stroke-width="6.1875" stroke-miterlimit="8" fill="none" fill-rule="evenodd"/><path d="M3759 1524 3883 1895" stroke="#151D26" stroke-width="6.1875" stroke-miterlimit="8" fill="none" fill-rule="evenodd"/><text fill="#151D26" font-family="Amazon Ember,Amazon Ember_MSFontService,sans-serif" font-weight="700" font-size="73" transform="matrix(1 0 0 1 297.49 940)">Templates</text><text fill="#151D26" font-family="Amazon Ember,Amazon Ember_MSFontService,sans-serif" font-weight="700" font-size="73" transform="matrix(1 0 0 1 297.4 1424)">Interfaces</text><text fill="#151D26" font-family="Amazon Ember,Amazon Ember_MSFontService,sans-serif" font-weight="700" font-size="73" transform="matrix(1 0 0 1 297.853 1934)">Components</text><path d="M861 1786 1460 1786 1460 2034 861 2034Z" fill="#CCFFE9" fill-rule="evenodd"/><text fill="#151D26" font-family="Amazon Ember,Amazon Ember_MSFontService,sans-serif" font-weight="700" font-size="73" transform="matrix(1 0 0 1 946.158 1934)">Vector Store</text><path d="M1542 1786 2141 1786 2141 2034 1542 2034Z" fill="#CCFFE9" fill-rule="evenodd"/><text fill="#151D26" font-family="Amazon Ember,Amazon Ember_MSFontService,sans-serif" font-weight="700" font-size="73" transform="matrix(1 0 0 1 1644.54 1934)">Embedding</text><path d="M2222 1786 2821 1786 2821 2034 2222 2034Z" fill="#CCFFE9" fill-rule="evenodd"/><text fill="#151D26" font-family="Amazon Ember,Amazon Ember_MSFontService,sans-serif" font-weight="700" font-size="73" transform="matrix(1 0 0 1 2353.24 1934)">Similarity</text><path d="M2903 1786 3502 1786 3502 2034 2903 2034Z" fill="#CCFFE9" fill-rule="evenodd"/><text fill="#151D26" font-family="Amazon Ember,Amazon Ember_MSFontService,sans-serif" font-weight="700" font-size="73" transform="matrix(1 0 0 1 3045.32 1934)">Retriever</text><path d="M3584 1786 4183 1786 4183 2034 3584 2034Z" fill="#CCFFE9" fill-rule="evenodd"/><text fill="#151D26" font-family="Amazon Ember,Amazon Ember_MSFontService,sans-serif" font-weight="700" font-size="73" transform="matrix(1 0 0 1 3717.36 1934)">Processor</text><path d="M1168 794 1916 794 1916 1042 1168 1042Z" fill="#007E94" fill-rule="evenodd"/><text fill="#FFFFFF" font-family="Amazon Ember,Amazon Ember_MSFontService,sans-serif" font-weight="700" font-size="73" transform="matrix(1 0 0 1 1288.92 907)">Base Template</text><text fill="#FFFFFF" font-family="Amazon Ember,Amazon Ember_MSFontService,sans-serif" font-weight="400" font-size="73" transform="matrix(1 0 0 1 1417.83 984)">Pattern</text><path d="M2096 794 2844 794 2844 1042 2096 1042Z" fill="#007E94" fill-rule="evenodd"/><text fill="#FFFFFF" font-family="Amazon Ember,Amazon Ember_MSFontService,sans-serif" font-weight="700" font-size="73" transform="matrix(1 0 0 1 2190.69 907)">Query Template</text><text fill="#FFFFFF" font-family="Amazon Ember,Amazon Ember_MSFontService,sans-serif" font-weight="400" font-size="73" transform="matrix(1 0 0 1 2345.95 984)">Pattern</text><path d="M3024 794 3772 794 3772 1042 3024 1042Z" fill="#007E94" fill-rule="evenodd"/><text fill="#FFFFFF" font-family="Amazon Ember,Amazon Ember_MSFontService,sans-serif" font-weight="700" font-size="73" transform="matrix(1 0 0 1 3129.7 907)">Index Template</text><text fill="#FFFFFF" font-family="Amazon Ember,Amazon Ember_MSFontService,sans-serif" font-weight="400" font-size="73" transform="matrix(1 0 0 1 3274.08 984)">Pattern</text></g></svg>