<svg width="4268" height="634" xmlns="http://www.w3.org/2000/svg" xmlns:xlink="http://www.w3.org/1999/xlink" xml:space="preserve" overflow="hidden"><g transform="translate(-132 -969)"><path d="M571 1027 1533 1027 1533 1573 571 1573Z" fill="#B8E7FF" fill-rule="evenodd"/><text fill="#151D26" font-family="Amazon Ember,Amazon Ember_MSFontService,sans-serif" font-weight="700" font-size="83" transform="matrix(1 0 0 1 663.903 1147)">Query Classification</text><path d="M940.968 1269.49 867.56 1424.9 771.22 1242.54Z" fill="#007E94" fill-rule="evenodd"/><path d="M1052 1233 1155 1370 949 1370Z" fill="#007E94" fill-rule="evenodd"/><path d="M1250.89 1238.37 1291.83 1405.3 1102.1 1324.4Z" fill="#007E94" fill-rule="evenodd"/><text fill="#151D26" font-family="Amazon Ember,Amazon Ember_MSFontService,sans-serif" font-weight="400" font-size="83" transform="matrix(1 0 0 1 754.997 1497)">Pattern </text><text fill="#151D26" font-family="Amazon Ember,Amazon Ember_MSFontService,sans-serif" font-weight="400" font-size="83" transform="matrix(1 0 0 1 1055.78 1497)">a</text><text fill="#151D26" font-family="Amazon Ember,Amazon Ember_MSFontService,sans-serif" font-weight="400" font-size="83" transform="matrix(1 0 0 1 1099.32 1497)">nalysis</text><path d="M1774 1027 2736 1027 2736 1573 1774 1573Z" fill="#D4DADA" fill-rule="evenodd"/><text fill="#151D26" font-family="Amazon Ember,Amazon Ember_MSFontService,sans-serif" font-weight="700" font-size="83" transform="matrix(1 0 0 1 1905.99 1147)">Pipeline Selection</text><path d="M2049 1295C2049 1333.11 2018.11 1364 1980 1364 1941.89 1364 1911 1333.11 1911 1295 1911 1256.89 1941.89 1226 1980 1226 2018.11 1226 2049 1256.89 2049 1295Z" fill="#00E500" fill-rule="evenodd"/><path d="M2324 1295C2324 1333.11 2293.11 1364 2255 1364 2216.89 1364 2186 1333.11 2186 1295 2186 1256.89 2216.89 1226 2255 1226 2293.11 1226 2324 1256.89 2324 1295Z" fill="#BE4E2E" fill-rule="evenodd"/><path d="M2599 1295C2599 1333.11 2568.11 1364 2530 1364 2491.89 1364 2461 1333.11 2461 1295 2461 1256.89 2491.89 1226 2530 1226 2568.11 1226 2599 1256.89 2599 1295Z" fill="#197956" fill-rule="evenodd"/><text fill="#151D26" font-family="Amazon Ember,Amazon Ember_MSFontService,sans-serif" font-weight="400" font-size="83" transform="matrix(1 0 0 1 1967 1497)">Route </text><text fill="#151D26" font-family="Amazon Ember,Amazon Ember_MSFontService,sans-serif" font-weight="400" font-size="83" transform="matrix(1 0 0 1 2209.92 1497)">s</text><text fill="#151D26" font-family="Amazon Ember,Amazon Ember_MSFontService,sans-serif" font-weight="400" font-size="83" transform="matrix(1 0 0 1 2245.44 1497)">election</text><path d="M2977 1027 3940 1027 3940 1573 2977 1573Z" fill="#151D26" fill-rule="evenodd"/><text fill="#FFFFFF" font-family="Amazon Ember,Amazon Ember_MSFontService,sans-serif" font-weight="700" font-size="83" transform="matrix(1 0 0 1 3017.44 1147)">Multi</text><text fill="#FFFFFF" font-family="Amazon Ember,Amazon Ember_MSFontService,sans-serif" font-weight="700" font-size="83" transform="matrix(1 0 0 1 3221.4 1147)">-</text><text fill="#FFFFFF" font-family="Amazon Ember,Amazon Ember_MSFontService,sans-serif" font-weight="700" font-size="83" transform="matrix(1 0 0 1 3254.63 1147)">stage Processing</text><path d="M3183 1233 3286 1233 3286 1336 3183 1336Z" fill="#007E94" fill-rule="evenodd"/><path d="M3424 1233 3527 1233 3527 1336 3424 1336Z" fill="#007E94" fill-rule="evenodd"/><path d="M3664 1233 3768 1233 3768 1336 3664 1336Z" fill="#007E94" fill-rule="evenodd"/><text fill="#FFFFFF" font-family="Amazon Ember,Amazon Ember_MSFontService,sans-serif" font-weight="400" font-size="83" transform="matrix(1 0 0 1 3308.49 1497)">Pipeline</text><path d="M1533 1329.13 1760.01 1329.13 1760.01 1342.88 1533 1342.88ZM1722.23 1306 1773.66 1336 1722.23 1366C1718.95 1367.91 1714.74 1366.81 1712.82 1363.53 1710.91 1360.25 1712.02 1356.04 1715.3 1354.12L1756.55 1330.06 1756.55 1341.94 1715.3 1317.88C1712.02 1315.96 1710.91 1311.75 1712.82 1308.47 1714.74 1305.19 1718.95 1304.09 1722.23 1306Z" fill="#003181"/><path d="M2736 1329.13 2963.01 1329.13 2963.01 1342.88 2736 1342.88ZM2925.23 1306 2976.66 1336 2925.23 1366C2921.95 1367.91 2917.74 1366.81 2915.82 1363.53 2913.91 1360.25 2915.02 1356.04 2918.3 1354.12L2959.55 1330.06 2959.55 1341.94 2918.3 1317.88C2915.02 1315.96 2913.91 1311.75 2915.82 1308.47 2917.74 1305.19 2921.95 1304.09 2925.23 1306Z" fill="#003181"/></g></svg>